<?xml version="1.0" encoding="utf-8"?>
<!-- Generator: Adobe Illustrator 19.2.1, SVG Export Plug-In . SVG Version: 6.00 Build 0)  -->
<svg version="1.1" id="Layer_1" xmlns="http://www.w3.org/2000/svg" xmlns:xlink="http://www.w3.org/1999/xlink" x="0px" y="0px"
	 viewBox="0 0 40 40" style="enable-background:new 0 0 40 40;" xml:space="preserve">
<style type="text/css">
	.st0{fill:#005682;}
	.st1{fill:#FFFFFF;}
	.st2{fill:#005682;stroke:#005682;stroke-width:0.5;stroke-miterlimit:10;}
</style>
<path class="st0" d="M36.6,11c0-6.1-7.4-11-16.6-11C10.9,0,3.4,4.9,3.4,11c0,6.1,7.4,11,16.6,11c1.2,0,2.4-0.1,3.5-0.3l5.9,1.9
	L27.2,21C32.8,19.2,36.6,15.4,36.6,11z"/>
<g>
	<path class="st1" d="M9.5,9.4c0-1.1,0-2.1-0.1-2.9h2l0.1,1.2h0c0.3-0.6,1-1.4,2.3-1.4c1,0,1.7,0.6,2.1,1.5h0c0.3-0.5,0.6-0.8,1-1.1
		c0.4-0.3,0.9-0.4,1.4-0.4c1.5,0,2.5,1.2,2.5,3.9v5.3h-2.3v-4.9c0-1.3-0.4-2.1-1.1-2.1c-0.6,0-0.9,0.4-1.1,1c0,0.2-0.1,0.5-0.1,0.7
		v5.3H14v-5.1c0-1.1-0.3-1.9-1.1-1.9c-0.6,0-1,0.6-1.1,1c-0.1,0.2-0.1,0.5-0.1,0.7v5.2H9.5V9.4z"/>
</g>
<g>
	<path class="st1" d="M30.6,15.2c-0.4,0.2-1.2,0.4-2.1,0.4c-2.4,0-4-1.8-4-4.6c0-2.6,1.5-4.8,4.3-4.8c0.6,0,1.3,0.1,1.8,0.3
		l-0.4,2.1c-0.3-0.1-0.7-0.3-1.3-0.3c-1.2,0-2,1-2,2.5c0,1.6,0.9,2.5,2.1,2.5c0.6,0,1-0.1,1.3-0.3L30.6,15.2z"/>
</g>
<g>
	<rect x="-175.5" y="11.2" class="st0" width="11.2" height="5.6"/>
	<rect x="-158.6" y="11.2" class="st0" width="11.2" height="5.6"/>
	
		<rect x="-167" y="2.8" transform="matrix(2.260929e-011 1 -1 2.260929e-011 -155.8483 167.0314)" class="st0" width="11.2" height="5.6"/>
	
		<rect x="-167.1" y="19.6" transform="matrix(2.268922e-011 1 -1 2.268922e-011 -138.9832 183.8965)" class="st0" width="11.3" height="5.6"/>
</g>
<g>
	<g>
		<g>
			<path class="st0" d="M-122.5,14.9l-1.3-1.2c-0.1-0.1-0.5-0.3-0.8-0.5c-0.3,0.9-1.1,1.7-1.2,1.8l-0.6,0.7l-0.2-0.9
				c-0.3-1.1-0.5-2-0.8-2.9h-0.7v11h10c1.1,0,1.9-0.9,1.9-1.9v-9h-7.4c0.3,0.7,0.5,1.2,0.5,1.2L-122.5,14.9z"/>
			<path class="st0" d="M-132.7,12c-0.3,0.8-0.5,1.7-0.8,2.9l-0.2,0.9l-0.6-0.7c-0.1-0.1-0.9-0.9-1.2-1.8c-0.3,0.1-0.7,0.3-0.9,0.5
				l-1.1,0.9l0.4-1.4c0-0.1,0.1-0.5,0.5-1.2h-7.3v9c0,1.1,0.9,1.9,1.9,1.9h10V12L-132.7,12L-132.7,12z"/>
			<path class="st0" d="M-137.8,7c-0.5-0.2-0.9-0.5-1.3-0.8h-2.9c-1.1,0-1.9,0.9-1.9,1.9v1.1h8.8c0.4-0.5,0.8-1,1.3-1.5
				C-135,7.7-136.5,7.5-137.8,7z"/>
			<path class="st0" d="M-122.4,7c-1.3,0.5-2.8,0.7-4.1,0.7c0.5,0.5,0.9,1.1,1.3,1.5h8.8V8.1c0-1.1-0.9-1.9-1.9-1.9h-3
				C-121.5,6.5-121.9,6.8-122.4,7z"/>
		</g>
	</g>
	<path class="st0" d="M-124.4,0c-1.9,0-4.5,1.9-5.2,5.2h-1.1c-0.7-3.2-3.4-5.2-5.2-5.2c-2,0-2.8,1.7-2.8,1.7s-2,3.9,1.1,4.9
		c1.3,0.5,2.8,0.7,4.1,0.7c0.4,0,0.8,0,1.2-0.1c-3.5,3-4.4,6.2-4.4,6.2c0.4-0.3,1.5-0.8,1.5-0.8c0.1,0.9,1.2,2.1,1.2,2.1
		c0.9-3.3,1.8-5.4,2.5-6.6V23h2.9V8c0.7,1.2,1.7,3.3,2.5,6.7c0,0,1.1-1.2,1.2-2.1c0,0,1.1,0.4,1.5,0.8c0,0-0.9-3.2-4.4-6.2
		c0.3,0.1,0.7,0.1,1.2,0.1c1.3,0,2.7-0.3,4.1-0.7c3.1-1.1,1.1-4.9,1.1-4.9S-122.3,0-124.4,0z M-137.4,2.5c0.3-0.1,0.6-0.1,0.9-0.1
		c3,0,4.3,2.3,4.7,3.5C-133.6,5.7-136.4,5.1-137.4,2.5z M-128.4,5.9c0.5-1.1,1.7-3.5,4.7-3.5c0.3,0,0.6,0,0.9,0.1
		C-123.9,5.1-126.6,5.7-128.4,5.9z"/>
</g>
<g>
	<path class="st0" d="M-94.7,10.9c0-1.2-1.3-1.3-1.3-1.3h-0.9v2.6h0.9C-96,12.2-94.7,12.1-94.7,10.9z"/>
	<path class="st0" d="M-79.3,7.5h3.7v9.6l5.9-1.9L-76.5,0l-29.8,1.6l5.6,15.4V7.5h2.6h1.2h1.7c0,0,4,0,4,3.3s-4.1,3.4-4.1,3.4H-97v3
		h-3.7l2.6,7l21.6-6.9h-2.9V7.5z M-84.2,17.4c-3.4,0-6.3-1.6-6.3-5.4c0-3.4,3.8-4.7,6.5-4.7c1.6,0,3,0.4,3,0.4v2.7
		c-0.5-0.5-5.6-2.1-5.6,1.9s5.7,2.1,5.7,2.1v2.3C-80.8,16.8-80.8,17.4-84.2,17.4z M-77.7,2.3c0,0,0.1,0,0.1,0s0.1,0,0.1,0
		c0,0,0.1,0,0.1,0c0,0,0.1,0,0.1,0c1.2,0,2.1,0.9,2.1,2.1s-0.9,2.1-2.1,2.1c0,0-0.1,0-0.1,0s-0.1,0-0.1,0s-0.1,0-0.1,0
		c0,0-0.1,0-0.1,0c-1.2,0-2.1-0.9-2.1-2.1S-78.8,2.3-77.7,2.3z"/>
</g>
<g>
	<path class="st0" d="M-20,16.3l2.8-10.6h-23.2l-0.8-3.4C-41.4,0.9-42.5,0-43.8,0h-4v2.5h4c0.1,0,0.2,0.1,0.3,0.3l4.1,18.7
		c0.3,1.3,1.4,2.2,2.7,2.2H-20v-2.5h-16.7c-0.1,0-0.2-0.1-0.3-0.2l-0.4-2l15.9-1.5C-20.8,17.5-20.1,17-20,16.3z"/>
	<path class="st0" d="M-35.3,24.4c-1.4,0-2.5,1.1-2.5,2.5c0,1.4,1.1,2.5,2.5,2.5s2.5-1.1,2.5-2.5C-32.8,25.5-33.9,24.4-35.3,24.4z"
		/>
	<path class="st0" d="M-23.7,24.4c-1.4,0-2.5,1.1-2.5,2.5c0,1.4,1.1,2.5,2.5,2.5s2.5-1.1,2.5-2.5C-21.2,25.5-22.3,24.4-23.7,24.4z"
		/>
</g>
<path class="st2" d="M20,13c0.5,0.3,1.4,0.7,2.2,0.7c0.8,0,1.1-0.3,1.1-0.7c0-0.5-0.2-0.7-1.2-1c-1.7-0.6-2.3-1.6-2.3-2.7
	c0-1.7,1.3-2.9,3.3-2.9c0.9,0,1.8,0.3,2.3,0.5l-0.4,1.9c-0.4-0.2-1.1-0.5-1.8-0.5c-0.6,0-1,0.3-1,0.7c0,0.4,0.3,0.7,1.3,1
	c1.5,0.6,2.2,1.4,2.2,2.7c0,1.7-1.2,2.9-3.5,2.9c-1.1,0-2-0.3-2.6-0.6L20,13z"/>
<path class="st1" d="M20,13c0.5,0.3,1.4,0.7,2.2,0.7c0.8,0,1.1-0.3,1.1-0.7c0-0.5-0.2-0.7-1.2-1c-1.7-0.6-2.3-1.6-2.3-2.7
	c0-1.7,1.3-2.9,3.3-2.9c0.9,0,1.8,0.3,2.3,0.5l-0.4,1.9c-0.4-0.2-1.1-0.5-1.8-0.5c-0.6,0-1,0.3-1,0.7c0,0.4,0.3,0.7,1.3,1
	c1.5,0.6,2.2,1.4,2.2,2.7c0,1.7-1.2,2.9-3.5,2.9c-1.1,0-2-0.3-2.6-0.6L20,13z"/>
</svg>
