<?xml version="1.0" encoding="utf-8"?>
<!-- Generator: Adobe Illustrator 19.2.1, SVG Export Plug-In . SVG Version: 6.00 Build 0)  -->
<svg version="1.1" id="Layer_1" xmlns="http://www.w3.org/2000/svg" xmlns:xlink="http://www.w3.org/1999/xlink" x="0px" y="0px"
	 viewBox="0 0 248 103" style="enable-background:new 0 0 248 103;" xml:space="preserve">
<style type="text/css">
	.st0{fill:#FFFFFF;}
</style>
<g>
	<g>
		<path class="st0" d="M63.6,43.6l-1.8,2.5c-0.9,1.2-0.6,3.4,0.6,4.3l3.3,2.4c0.6,0.4,0.6,0.8,0.3,1.3l0.5,0.4l1.7-2.3
			c1-1.4,1-3.4-0.6-4.5l-3.4-2.4c-0.3-0.4-0.3-0.8-0.1-1.3L63.6,43.6L63.6,43.6z"/>
		<path class="st0" d="M66.5,32.7l-2.8,3.9c-1.3,1.8-0.8,4.9,1,6.2l4.6,3.4c0.9,0.7,1.1,2.4,0.4,3.3l0.4,0.3l3.2-4.5
			c1.4-2,1.3-5-0.9-6.6l-4.9-3.6c-0.7-0.5-1-1.3-0.5-2.2L66.5,32.7L66.5,32.7z"/>
		<path class="st0" d="M59.1,57h3.8l0.7,2.2c2,0,4,0,6.1,0l0.7-2.2h3.5l-0.5-1.7c-4.6,0-9.2,0-13.8,0L59.1,57L59.1,57z"/>
		<path class="st0" d="M78.3,68.5C78.3,68.5,78.3,68.4,78.3,68.5c0-0.1,0-0.1-0.1-0.2c0,0,0,0-0.1-0.1c0,0-0.1,0-0.1-0.1h-0.1h-0.1
			l0,0c0,0,0,0,0-0.1c0,0,0,0,0-0.1l0,0c0,0,0,0,0.1,0H78h0.1c0,0,0.1,0,0.1,0.1l0.1-0.1l-0.1-0.1c0,0-0.1,0-0.2,0h-0.1h-0.1
			c0,0,0,0-0.1,0.1V68v0.1c0,0,0,0,0,0.1c0,0,0,0,0.1,0.1c0,0,0.1,0,0.1,0.1H78h0.1l0,0c0,0,0,0,0,0.1c0,0,0,0.1-0.1,0.1h-0.1h-0.1
			c0,0-0.1,0-0.1-0.1l-0.1,0.1l0.1,0.1c0.1,0,0.1,0,0.2,0H78c0,0,0.1,0,0.1-0.1C78.1,68.6,78.1,68.5,78.3,68.5
			C78.3,68.6,78.3,68.5,78.3,68.5L78.3,68.5z"/>
		<path class="st0" d="M79.3,68.7v-0.9h-0.1l-0.3,0.6l0,0c0,0,0,0,0,0.1l0,0l0,0l0,0l0,0c0,0,0,0,0-0.1l0,0l-0.2-0.6h-0.1v0.9h0.1
			v-0.6V68l0,0l0,0l0,0l0,0l0.2,0.6l0.3-0.6l0,0l0,0l0,0l0,0v0.1L79.3,68.7L79.3,68.7L79.3,68.7z"/>
		<path class="st0" d="M62.3,66.2c-0.2-1.1-0.6-1.3-1.4-1.7c0.7-0.4,1.1-0.9,1.1-1.7c0-1.5-1.3-2.2-2.6-2.2h-3.8v8.1h3.8
			C60.9,68.8,62.6,68.1,62.3,66.2z M57.2,62.2h2c1.2,0,1.3,1.7,0.1,1.7h-2.1V62.2z M59.4,67.2h-2.2v-1.9h2.2
			C61.1,65.4,61,67.2,59.4,67.2z"/>
		<path class="st0" d="M69.9,66.2c-0.2-1.1-0.6-1.3-1.4-1.7c0.7-0.4,1.1-0.9,1.1-1.7c0-1.5-1.3-2.2-2.6-2.2h-3.8v8.1h3.7
			C68.5,68.8,70.2,68.1,69.9,66.2z M64.8,62.2h2c1.2,0,1.3,1.7,0.1,1.7h-2.1V62.2z M67,67.2h-2.2v-1.9H67
			C68.7,65.4,68.6,67.2,67,67.2z"/>
		<path class="st0" d="M77.6,66.2c-0.2-1.1-0.6-1.3-1.4-1.7c0.7-0.4,1.1-0.9,1.1-1.7c0-1.5-1.3-2.2-2.6-2.2h-3.8v8.1h3.8
			C76.1,68.8,77.8,68.1,77.6,66.2z M72.4,62.2h2c1.2,0,1.3,1.7,0.1,1.7h-2.1V62.2z M74.6,67.2h-2.2v-1.9h2.2
			C76.3,65.4,76.2,67.2,74.6,67.2z"/>
		<g>
			<path class="st0" d="M94.5,47.9c-0.1-0.2-0.1-0.4-0.2-0.5c0,0.1-0.1,0.3-0.2,0.5c-0.1,0.2-0.1,0.4-0.2,0.6l-0.5,1.4h1.8l-0.5-1.4
				C94.7,48.3,94.6,48.1,94.5,47.9z"/>
			<path class="st0" d="M102.9,59.2h-2v1.9h2c0.4,0,0.6-0.1,0.8-0.3c0.2-0.2,0.3-0.4,0.3-0.7C104,59.5,103.7,59.2,102.9,59.2z"/>
			<path class="st0" d="M158.5,30.3H49.3c-3.4,0-6.2,2.8-6.2,6.2v30c0,3.4,2.8,6.2,6.2,6.2h109.1c3.4,0,6.2-2.8,6.2-6.2v-30
				C164.6,33.1,161.9,30.3,158.5,30.3z M135.3,45.5h1.6V53h-1.6V45.5z M85.9,72.3H49.3c-3.2,0-5.8-2.6-5.8-5.8v-30
				c0-3.2,2.6-5.8,5.8-5.8h36.6V72.3z M96.4,53l-0.6-1.7h-2.9L92.3,53h-1.7l3-7.4h1.5l3,7.4H96.4z M98.6,50.8
				c-0.2-0.5-0.2-1-0.2-1.6s0.1-1.1,0.3-1.6c0.2-0.5,0.4-0.9,0.7-1.2c0.3-0.3,0.7-0.6,1.1-0.8c0.4-0.2,0.9-0.3,1.4-0.3
				c0.4,0,0.7,0,1,0.1c0.7,0.2,1.4,0.7,1.9,1.2l-1.1,1c-0.4-0.5-1.2-0.9-1.8-0.9c-0.3,0-0.6,0.1-0.8,0.2c-0.2,0.1-0.4,0.3-0.6,0.5
				c-0.2,0.2-0.3,0.5-0.4,0.7c-0.1,0.3-0.1,0.6-0.1,1c0,0.3,0,0.6,0.1,0.9c0.1,0.3,0.2,0.5,0.4,0.8c0.2,0.2,0.4,0.4,0.6,0.5
				s0.5,0.2,0.8,0.2c0.6,0,1.6-0.5,1.9-1l1.1,1c-0.5,0.9-2.1,1.4-3.1,1.4c-0.5,0-1-0.1-1.4-0.3c-0.4-0.2-0.8-0.4-1.1-0.8
				C99,51.7,98.8,51.3,98.6,50.8z M105.4,61.2c-0.1,0.3-0.3,0.6-0.6,0.8c-0.2,0.2-0.5,0.4-0.9,0.5c-0.3,0.1-0.7,0.2-1.1,0.2h-3.5
				v-7.4h3.5c0.7,0,1.3,0.2,1.8,0.5c0.4,0.3,0.7,0.8,0.7,1.5c0,0.3-0.1,0.6-0.2,0.9c-0.1,0.2-0.3,0.4-0.6,0.6
				c0.3,0.1,0.6,0.3,0.8,0.6c0.2,0.3,0.3,0.6,0.3,1C105.6,60.6,105.5,60.9,105.4,61.2z M105.9,50.8c-0.2-0.5-0.2-1-0.2-1.6
				s0.1-1.1,0.3-1.6c0.2-0.5,0.4-0.9,0.7-1.2c0.3-0.3,0.7-0.6,1.1-0.8c0.4-0.2,0.9-0.3,1.4-0.3c0.4,0,0.7,0,1,0.1
				c0.7,0.2,1.4,0.7,1.9,1.2l-1.1,1c-0.4-0.5-1.2-0.9-1.8-0.9c-0.3,0-0.6,0.1-0.8,0.2s-0.4,0.3-0.6,0.5c-0.2,0.2-0.3,0.5-0.4,0.7
				c-0.1,0.3-0.1,0.6-0.1,1c0,0.3,0,0.6,0.1,0.9c0.1,0.3,0.2,0.5,0.4,0.8c0.2,0.2,0.4,0.4,0.6,0.5s0.5,0.2,0.8,0.2
				c0.6,0,1.6-0.5,1.9-1l1.1,1c-0.5,0.9-2.1,1.4-3.1,1.4c-0.5,0-1-0.1-1.4-0.3c-0.4-0.2-0.8-0.4-1.1-0.8
				C106.3,51.7,106.1,51.3,105.9,50.8z M112.8,59.3c0,1.1-0.3,1.9-0.8,2.5s-1.3,0.9-2.3,0.9c-0.5,0-0.9-0.1-1.3-0.2
				c-0.4-0.1-0.7-0.4-1-0.7c-0.3-0.3-0.5-0.6-0.6-1.1c-0.1-0.4-0.2-0.9-0.2-1.4v-4.2h1.5v4.2c0,0.6,0.1,1.1,0.4,1.4
				c0.3,0.3,0.7,0.5,1.1,0.5c0.5,0,0.9-0.2,1.2-0.5c0.3-0.3,0.4-0.8,0.4-1.4v-4.2h1.5v4.2H112.8z M113.2,45.5h3.7c0.4,0,0.7,0,1,0.1
				s0.6,0.2,0.9,0.4c0.2,0.2,0.4,0.4,0.6,0.7c0.1,0.3,0.2,0.6,0.2,1c0,0.6-0.1,1-0.4,1.4c-0.3,0.4-0.8,0.7-1.3,0.9l1.7,2.8h-1.7
				l-1.6-2.6l-1.4-0.1V53h-1.6L113.2,45.5L113.2,45.5z M119.7,61.3c-0.1,0.3-0.3,0.5-0.5,0.8c-0.2,0.2-0.6,0.4-0.9,0.5
				c-0.4,0.1-0.8,0.2-1.3,0.2c-0.6,0-1.2-0.1-1.7-0.4c-0.5-0.2-0.9-0.6-1.2-1l1.1-1c0.3,0.3,0.6,0.5,0.9,0.7
				c0.3,0.1,0.7,0.2,1.1,0.2c0.5,0,0.8-0.1,1-0.2c0.2-0.1,0.3-0.3,0.3-0.6c0-0.1,0-0.2-0.1-0.3c0-0.1-0.1-0.2-0.2-0.3
				c-0.1-0.1-0.3-0.2-0.5-0.2c-0.2-0.1-0.5-0.1-0.9-0.2c-0.3-0.1-0.7-0.2-1-0.3s-0.5-0.2-0.8-0.4c-0.2-0.2-0.4-0.4-0.5-0.6
				c-0.1-0.2-0.2-0.6-0.2-0.9s0.1-0.6,0.2-0.9c0.1-0.3,0.3-0.5,0.6-0.7c0.2-0.2,0.5-0.3,0.9-0.4c0.3-0.1,0.7-0.1,1.1-0.1
				c0.6,0,1.1,0.1,1.6,0.3c0.4,0.2,0.9,0.5,1.2,0.9l-1.1,1c-0.2-0.2-0.5-0.4-0.8-0.6c-0.3-0.1-0.6-0.2-0.9-0.2c-0.2,0-0.4,0-0.5,0.1
				c-0.1,0-0.3,0.1-0.3,0.2c-0.1,0.1-0.1,0.1-0.2,0.2c0,0.1-0.1,0.2-0.1,0.2c0,0.1,0,0.2,0.1,0.3c0,0.1,0.1,0.2,0.2,0.2
				c0.1,0.1,0.3,0.1,0.5,0.2s0.4,0.1,0.8,0.2c0.3,0.1,0.6,0.2,0.9,0.3c0.3,0.1,0.6,0.2,0.8,0.4c0.2,0.2,0.4,0.4,0.6,0.6
				c0.2,0.3,0.2,0.6,0.2,1C119.8,60.7,119.8,61,119.7,61.3z M120.6,45.5h5.4V47h-3.9v1.3h3.3v1.4h-3.3v1.8h4V53h-5.6v-7.5H120.6z
				 M122.6,62.6h-1.5v-7.4h1.5V62.6z M130.4,62.6H129l-2.8-4.1c-0.1-0.1-0.2-0.3-0.3-0.5c-0.1-0.2-0.2-0.3-0.2-0.4
				c0,0.1,0,0.2,0,0.3s0,0.3,0,0.5c0,0.2,0,0.3,0,0.5c0,0.2,0,0.3,0,0.4v3.3h-1.5v-7.4h1.5l2.7,3.9c0.1,0.1,0.2,0.3,0.3,0.5
				c0.1,0.2,0.2,0.3,0.2,0.4c0-0.1,0-0.2,0-0.3s0-0.3,0-0.4c0-0.2,0-0.3,0-0.5c0-0.2,0-0.3,0-0.4v-3.1h1.5V62.6z M129.8,53h-2.3
				v-7.4h2.5c0.6,0,1.1,0.1,1.6,0.2c0.5,0.1,0.9,0.3,1.2,0.6c0.3,0.3,0.6,0.7,0.8,1.2s0.3,1,0.3,1.7c0,0.7-0.1,1.2-0.3,1.7
				s-0.5,0.9-0.9,1.2c-0.4,0.3-0.8,0.5-1.3,0.7C130.8,52.9,130.3,53,129.8,53z M137.7,62.6h-5.6v-7.4h5.5v1.5h-3.9V58h3.3v1.4h-3.3
				v1.8h4V62.6z M143.8,61.3c-0.1,0.3-0.3,0.5-0.5,0.8c-0.2,0.2-0.6,0.4-0.9,0.5c-0.4,0.1-0.8,0.2-1.3,0.2c-0.6,0-1.2-0.1-1.7-0.4
				c-0.5-0.2-0.9-0.6-1.2-1l1.1-1c0.3,0.3,0.6,0.5,0.9,0.7c0.3,0.1,0.7,0.2,1.1,0.2c0.5,0,0.8-0.1,1-0.2c0.2-0.1,0.3-0.3,0.3-0.6
				c0-0.1,0-0.2-0.1-0.3c0-0.1-0.1-0.2-0.2-0.3c-0.1-0.1-0.3-0.2-0.5-0.2c-0.2-0.1-0.5-0.1-0.9-0.2c-0.3-0.1-0.7-0.2-1-0.3
				s-0.5-0.2-0.8-0.4c-0.2-0.2-0.4-0.4-0.5-0.6c-0.1-0.2-0.2-0.6-0.2-0.9s0.1-0.6,0.2-0.9c0.1-0.3,0.3-0.5,0.6-0.7
				c0.2-0.2,0.5-0.3,0.9-0.4c0.3-0.1,0.7-0.1,1.1-0.1c0.6,0,1.1,0.1,1.6,0.3c0.4,0.2,0.9,0.5,1.2,0.9l-1.1,1
				c-0.2-0.2-0.5-0.4-0.8-0.6c-0.3-0.1-0.6-0.2-0.9-0.2c-0.2,0-0.4,0-0.5,0.1c-0.1,0-0.3,0.1-0.3,0.2c-0.1,0.1-0.1,0.1-0.2,0.2
				c0,0.1-0.1,0.2-0.1,0.2c0,0.1,0,0.2,0.1,0.3c0,0.1,0.1,0.2,0.2,0.2c0.1,0.1,0.3,0.1,0.5,0.2s0.4,0.1,0.8,0.2
				c0.3,0.1,0.6,0.2,0.9,0.3c0.3,0.1,0.6,0.2,0.8,0.4c0.2,0.2,0.4,0.4,0.6,0.6c0.2,0.3,0.2,0.6,0.2,1
				C143.9,60.7,143.9,61,143.8,61.3z M144.2,47h-2.3v6h-1.6v-6H138v-1.5h6.1V47H144.2z M150.3,61.3c-0.1,0.3-0.3,0.5-0.5,0.8
				c-0.2,0.2-0.6,0.4-0.9,0.5c-0.4,0.1-0.8,0.2-1.3,0.2c-0.6,0-1.2-0.1-1.7-0.4c-0.5-0.2-0.9-0.6-1.2-1l1.1-1
				c0.3,0.3,0.6,0.5,0.9,0.7c0.3,0.1,0.7,0.2,1.1,0.2c0.5,0,0.8-0.1,1-0.2c0.2-0.1,0.3-0.3,0.3-0.6c0-0.1,0-0.2-0.1-0.3
				c0-0.1-0.1-0.2-0.2-0.3c-0.1-0.1-0.3-0.2-0.5-0.2c-0.2-0.1-0.5-0.1-0.9-0.2c-0.3-0.1-0.7-0.2-1-0.3s-0.5-0.2-0.8-0.4
				c-0.2-0.2-0.4-0.4-0.5-0.6c-0.1-0.2-0.2-0.6-0.2-0.9s0.1-0.6,0.2-0.9c0.1-0.3,0.3-0.5,0.6-0.7c0.2-0.2,0.5-0.3,0.9-0.4
				c0.3-0.1,0.7-0.1,1.1-0.1c0.6,0,1.1,0.1,1.6,0.3c0.4,0.2,0.9,0.5,1.2,0.9l-1.1,1c-0.2-0.2-0.5-0.4-0.8-0.6
				c-0.3-0.1-0.6-0.2-0.9-0.2c-0.2,0-0.4,0-0.5,0.1c-0.1,0-0.3,0.1-0.3,0.2c-0.1,0.1-0.1,0.1-0.2,0.2c0,0.1-0.1,0.2-0.1,0.2
				c0,0.1,0,0.2,0.1,0.3c0,0.1,0.1,0.2,0.2,0.2c0.1,0.1,0.3,0.1,0.5,0.2s0.4,0.1,0.8,0.2c0.3,0.1,0.6,0.2,0.9,0.3
				c0.3,0.1,0.6,0.2,0.8,0.4c0.2,0.2,0.4,0.4,0.6,0.6c0.2,0.3,0.2,0.6,0.2,1C150.5,60.7,150.4,61,150.3,61.3z M150.8,53h-5.6v-7.4
				h5.4V47h-3.9v1.3h3.3v1.4h-3.3v1.8h4V53H150.8z M158,50.9c-0.2,0.5-0.5,0.9-0.9,1.2c-0.4,0.3-0.8,0.5-1.3,0.7
				c-0.5,0.1-1,0.2-1.5,0.2H152v-7.4h2.5c0.6,0,1.1,0.1,1.6,0.2s0.9,0.3,1.2,0.6c0.3,0.3,0.6,0.7,0.8,1.2s0.3,1,0.3,1.7
				C158.4,49.9,158.2,50.4,158,50.9z"/>
			<path class="st0" d="M103.6,57.7c0.1-0.1,0.2-0.3,0.2-0.5c0-0.2-0.1-0.4-0.2-0.5s-0.4-0.2-0.7-0.2h-2v1.4h2
				C103.2,57.9,103.5,57.8,103.6,57.7z"/>
			<path class="st0" d="M118,47.9c0-0.3-0.1-0.6-0.3-0.7s-0.5-0.2-0.8-0.2h-2.1v1.9h2.1C117.6,48.9,118,48.5,118,47.9z"/>
			<path class="st0" d="M129.8,47H129v4.6h0.8c0.4,0,0.8-0.1,1.1-0.2s0.6-0.3,0.7-0.5c0.2-0.2,0.3-0.4,0.4-0.7
				c0.1-0.3,0.1-0.6,0.1-0.9c0-0.8-0.2-1.3-0.5-1.7C131.3,47.1,130.7,47,129.8,47z"/>
			<path class="st0" d="M154.4,47h-0.8v4.6h0.8c0.4,0,0.8-0.1,1.1-0.2s0.6-0.3,0.7-0.5c0.2-0.2,0.3-0.4,0.4-0.7
				c0.1-0.3,0.1-0.6,0.1-0.9c0-0.8-0.2-1.3-0.5-1.7C155.8,47.1,155.2,47,154.4,47z"/>
		</g>
	</g>
	<g>
		<polygon class="st0" points="182,53 185.3,53 185.3,53 185.4,53 183.7,48.5 		"/>
		<path class="st0" d="M188.6,35.2c-9,0-16.3,7.3-16.3,16.3s7.3,16.3,16.3,16.3s16.3-7.3,16.3-16.3S197.6,35.2,188.6,35.2z
			 M187.1,57.8l-0.9-2.5h-1.3h-2.4h-1.3l-0.9,2.5h-2.8l4.9-12.5h2.8l4.9,12.5H187.1z M199.6,53h-3.2v3.2h-2.8v0V53h-3.2v-2.4h3.2
			v-3.2h2.8v3.2h3.2V53z"/>
	</g>
</g>
</svg>
