<?xml version="1.0" encoding="utf-8"?>
<!-- Generator: Adobe Illustrator 19.2.0, SVG Export Plug-In . SVG Version: 6.00 Build 0)  -->
<svg version="1.1" id="Layer_1" xmlns="http://www.w3.org/2000/svg" xmlns:xlink="http://www.w3.org/1999/xlink" x="0px" y="0px"
	 viewBox="0 0 15.3 15.3" style="enable-background:new 0 0 15.3 15.3;" xml:space="preserve">
<style type="text/css">
	.st0{fill:#FFFFFF;}
</style>
<g>
	<g>
		<g>
			<path class="st0" d="M6.6,2.3h1.2h6.7V1.9c0-0.4-0.4-0.8-0.8-0.8H1.8C1.3,1.1,1,1.5,1,1.9v0.4c0,0,0.1,0,0.1,0H6.6z"/>
			<path class="st0" d="M5.5,5.3C5,5.3,4.8,5,5,4.5l0.4-1.3c0.1-0.2,0-0.4-0.2-0.4H1v3.4h7.5c0.4,0,0.7,0.4,0.5,0.8L8.5,8.6
				C8.4,9,7.9,9.4,7.4,9.4H4.1C3.6,9.4,3.4,9,3.6,8.6L4,7.3c0.1-0.2,0-0.4-0.2-0.4H1v3.4h2.8h1.2H12c0.5,0,0.7,0.4,0.5,0.8L12,12.6
				c-0.2,0.4-0.7,0.8-1.1,0.8H2.7c-0.5,0-0.7-0.4-0.6-0.8l0.5-1.3c0.1-0.2,0-0.4-0.2-0.4H1v2.8c0,0.4,0.4,0.8,0.8,0.8h11.9
				c0.4,0,0.8-0.4,0.8-0.8V5c-0.2,0.2-0.5,0.3-0.7,0.3H5.5z"/>
		</g>
	</g>
</g>
</svg>
