<?xml version="1.0" encoding="utf-8"?>
<!-- Generator: Adobe Illustrator 19.2.0, SVG Export Plug-In . SVG Version: 6.00 Build 0)  -->
<svg version="1.1" id="Layer_1" xmlns="http://www.w3.org/2000/svg" xmlns:xlink="http://www.w3.org/1999/xlink" x="0px" y="0px"
	 viewBox="0 0 364.5 98" style="enable-background:new 0 0 364.5 98;" xml:space="preserve">
<g>
	<g>
		<path d="M3.1,52.8h12.4c1.5,0,3.1,0.2,4.7,0.5c1.6,0.3,3.1,0.9,4.5,1.8c1.4,0.9,2.5,2,3.3,3.5c0.9,1.5,1.3,3.3,1.3,5.6
			c0,1.9-0.4,3.6-1.1,5c-0.7,1.4-1.7,2.6-2.9,3.5c-1.2,0.9-2.6,1.6-4.1,2c-1.6,0.4-3.2,0.7-4.9,0.7H7.1v20.4h-4V52.8z M7.1,71.8h9.1
			c1.1,0,2.3-0.1,3.3-0.4c1.1-0.3,2.1-0.7,2.9-1.3c0.9-0.6,1.5-1.4,2.1-2.3c0.5-1,0.8-2.2,0.8-3.6c0-1.4-0.3-2.6-0.8-3.5
			c-0.5-1-1.3-1.8-2.1-2.4c-0.9-0.6-1.9-1.1-3-1.4c-1.1-0.3-2.3-0.4-3.4-0.4H7.1V71.8z"/>
		<path d="M33.1,52.8h11.3c0.6,0,1.3,0,2.3,0.1c1,0,2,0.2,3.2,0.4c1.1,0.2,2.3,0.5,3.5,1c1.2,0.4,2.2,1.1,3.2,1.9
			c0.9,0.9,1.7,1.9,2.3,3.2c0.6,1.3,0.9,2.9,0.9,4.7c0,2.1-0.4,3.8-1.1,5.1c-0.7,1.3-1.6,2.4-2.7,3.3c-1.1,0.8-2.3,1.5-3.6,1.9
			c-1.3,0.4-2.5,0.7-3.7,0.9l12.5,20.7h-4.6L44.6,75.5h-7.5v20.4h-4V52.8z M37.1,71.8h8.5c2.1,0,3.8-0.3,5.1-0.8
			c1.3-0.5,2.3-1.2,3.1-1.9c0.7-0.8,1.2-1.6,1.5-2.5c0.3-0.9,0.4-1.7,0.4-2.4s-0.1-1.5-0.4-2.4c-0.3-0.9-0.8-1.7-1.5-2.5
			c-0.7-0.8-1.8-1.4-3.1-1.9c-1.3-0.5-3-0.8-5.1-0.8h-8.5V71.8z"/>
		<path d="M61.5,74.4c0-3.3,0.5-6.3,1.6-9.1c1.1-2.8,2.6-5.1,4.6-7.1s4.3-3.6,7-4.7c2.7-1.1,5.7-1.7,9-1.7c3.3,0,6.3,0.6,9,1.7
			c2.7,1.1,5.1,2.7,7,4.7s3.5,4.4,4.6,7.1c1.1,2.8,1.6,5.8,1.6,9.1c0,3.3-0.5,6.3-1.6,9.1c-1.1,2.8-2.6,5.2-4.6,7.2
			c-1.9,2-4.3,3.6-7,4.7c-2.7,1.1-5.7,1.7-9,1.7c-3.3,0-6.3-0.6-9-1.7c-2.7-1.1-5.1-2.7-7-4.7c-1.9-2-3.5-4.4-4.6-7.2
			C62.1,80.7,61.5,77.7,61.5,74.4z M65.5,74.4c0,2.7,0.4,5.2,1.3,7.5s2.1,4.3,3.6,6c1.6,1.7,3.5,3,5.7,4c2.3,1,4.8,1.5,7.6,1.5
			s5.3-0.5,7.6-1.5c2.3-1,4.2-2.3,5.7-4c1.6-1.7,2.8-3.7,3.7-6c0.9-2.3,1.3-4.8,1.3-7.5s-0.4-5.2-1.3-7.5c-0.9-2.3-2.1-4.3-3.7-6
			c-1.6-1.7-3.5-3-5.7-4c-2.3-1-4.8-1.5-7.6-1.5s-5.3,0.5-7.6,1.5c-2.3,1-4.2,2.3-5.7,4c-1.6,1.7-2.8,3.7-3.6,6
			C66,69.2,65.5,71.7,65.5,74.4z"/>
		<path d="M133.2,78.8l11.9,1.5c-1.4,4.9-3.8,8.8-7.1,11.9c-3.4,3.1-7.6,4.6-12.8,4.6c-5.6,0-10-1.9-13.3-5.7
			c-3.3-3.8-4.9-8.6-4.9-14.6c0-6.8,2-12.9,6.1-18.2c4-5.3,9.6-7.9,16.7-7.9c5.2,0,9.3,1.6,12.5,4.7c3.2,3.2,4.8,7.3,4.9,12.5
			l-12.5,0.9c0-2.7-0.5-4.8-1.3-6.1c-0.8-1.3-2.2-2-4.1-2c-3.3,0-5.5,2.4-6.7,7.3c-1.2,4.9-1.8,8.7-1.8,11.5c0,4.5,1.8,6.8,5.3,6.8
			c1.8,0,3.2-0.6,4.3-1.8S132.4,81.4,133.2,78.8z"/>
		<path d="M172.2,78.1h-11.5l-3,17.8h-12.9l7.4-44.3h12.9l-2.7,16.3h11.5l2.7-16.3h12.9l-7.4,44.3h-12.9L172.2,78.1z"/>
		<path d="M210.8,86.9H199l-4.1,9.1h-11l20.5-44.3h13.9l6.9,44.3h-13.1L210.8,86.9z M210,77.7l-1.8-12.8l-5.8,12.8H210z"/>
		<path d="M259.3,77.3l4.8,18.6H251l-3.9-16.9h-5.2L239,95.9h-12.6l7.4-44.3h19.4c5.3,0,9.2,1.2,11.7,3.5s3.8,5.4,3.8,9.4
			C268.6,70.8,265.5,75.1,259.3,77.3z M243.4,69.8h5c4.8,0,7.2-1.6,7.2-4.9c0-2.7-2-4.1-6-4.1h-4.6L243.4,69.8z"/>
		<path d="M289.7,71.6h19.6l-4.1,24.3h-6.4l-0.4-4.9c-2.5,3.8-6.5,5.7-12,5.7c-4,0-7.3-0.9-9.9-2.6s-4.5-4-5.9-6.7
			c-1.4-2.7-2.1-6-2.1-9.7c0-7.4,2.1-13.9,6.3-19.2c4.2-5.4,9.9-8.1,16.9-8.1c9.9,0,16.2,4.8,18.7,14.3l-12.2,2
			c-0.8-3.9-3.1-5.9-6.7-5.9c-3.2,0-5.6,2-7,6c-1.4,4-2.1,8-2.1,11.8c0,5.2,2,7.7,6.1,7.7c3.2,0,5.5-1.8,6.8-5.5h-7.3L289.7,71.6z"
			/>
		<path d="M344.1,85.7l-1.7,10.2h-32.7l7.4-44.3H349l-1.6,9.7h-19l-1.2,7h16l-1.6,9.6h-16l-1.3,7.9H344.1z"/>
	</g>
	<g>
		<path d="M353.2,57.1c0-0.7,0.1-1.3,0.4-1.9c0.3-0.6,0.6-1.1,1.1-1.6s1-0.8,1.5-1.1c0.6-0.3,1.2-0.4,1.9-0.4c0.7,0,1.3,0.1,1.9,0.4
			c0.6,0.3,1.1,0.6,1.6,1.1s0.8,1,1.1,1.6c0.3,0.6,0.4,1.2,0.4,1.9s-0.1,1.3-0.4,1.9c-0.3,0.6-0.6,1.1-1.1,1.6s-1,0.8-1.6,1.1
			c-0.6,0.3-1.2,0.4-1.9,0.4c-0.7,0-1.3-0.1-1.9-0.4c-0.6-0.3-1.1-0.6-1.5-1.1s-0.8-1-1.1-1.6C353.3,58.4,353.2,57.8,353.2,57.1z
			 M353.9,57.1c0,0.6,0.1,1.1,0.3,1.6c0.2,0.5,0.5,1,0.9,1.3c0.4,0.4,0.8,0.7,1.3,0.9s1.1,0.3,1.6,0.3s1.1-0.1,1.6-0.3
			c0.5-0.2,1-0.5,1.3-0.9c0.4-0.4,0.7-0.8,0.9-1.3c0.2-0.5,0.3-1.1,0.3-1.6s-0.1-1.1-0.3-1.6c-0.2-0.5-0.5-1-0.9-1.3
			c-0.4-0.4-0.8-0.7-1.3-0.9c-0.5-0.2-1.1-0.3-1.6-0.3s-1.1,0.1-1.6,0.3c-0.5,0.2-1,0.5-1.3,0.9c-0.4,0.4-0.7,0.8-0.9,1.3
			C354,56,353.9,56.6,353.9,57.1z M357,59.9h-0.7v-5.6h2.2c0.6,0,1.1,0.1,1.4,0.4s0.4,0.7,0.4,1.2c0,0.3,0,0.5-0.1,0.7
			c-0.1,0.2-0.2,0.3-0.3,0.5c-0.1,0.1-0.3,0.2-0.5,0.3c-0.2,0.1-0.4,0.1-0.5,0.2l1.7,2.5h-0.8l-1.7-2.5h-1V59.9z M357,56.8h0.9
			c0.2,0,0.4,0,0.6,0s0.4-0.1,0.5-0.1c0.2-0.1,0.3-0.2,0.4-0.3c0.1-0.1,0.1-0.3,0.1-0.5c0-0.2,0-0.3-0.1-0.5s-0.2-0.2-0.3-0.3
			c-0.1-0.1-0.3-0.1-0.4-0.2s-0.3,0-0.5,0H357V56.8z"/>
	</g>
</g>
</svg>
