<?xml version="1.0" encoding="utf-8"?>
<!-- Generator: Adobe Illustrator 16.0.3, SVG Export Plug-In . SVG Version: 6.00 Build 0)  -->
<!DOCTYPE svg PUBLIC "-//W3C//DTD SVG 1.1//EN" "http://www.w3.org/Graphics/SVG/1.1/DTD/svg11.dtd">
<svg version="1.1" id="Layer_1" xmlns="http://www.w3.org/2000/svg" xmlns:xlink="http://www.w3.org/1999/xlink" x="0px" y="0px"
	 width="86.653px" height="47.421px" viewBox="0 0 86.653 47.421" enable-background="new 0 0 86.653 47.421" xml:space="preserve">
<g>
	<path fill="#FFFFFF" d="M80.54,1.457c-1.411,0-2.557,1.143-2.557,2.554s1.146,2.556,2.557,2.556c1.408,0,2.551-1.145,2.551-2.556
		S81.948,1.457,80.54,1.457 M78.896,6.87c-0.001-0.001-0.004-0.001-0.005-0.002l0.01,0.004L78.896,6.87z M78.885,6.864
		c0.001,0,0.002,0.002,0.003,0.003c0.002,0,0.003,0,0.004,0.001L78.885,6.864z M79.454,7.133c-0.069-0.034-0.141-0.068-0.209-0.1
		c-0.014-0.006-0.026-0.011-0.037-0.015c-0.107-0.046-0.209-0.104-0.32-0.151c-0.006-0.003-0.011-0.004-0.018-0.008
		c-0.287-0.12-0.596-0.21-0.926-0.266c-0.086-0.015-0.168-0.025-0.252-0.034l-0.025-0.003c0.002,0,0.007,0.003,0.007,0.003
		c-0.394-0.037-0.772-0.026-1.128,0.039c-0.357,0.062-0.693,0.158-1.035,0.288c-0.061,0.022-6.221,2.351-5.527,11.794
		c-0.498,0.125-1.011,0.235-1.531,0.33c-5.974,1.086-11.414-0.191-13.566-2.905c1.943,8.257,12.158,7.466,15.059,7.063l0.769-0.122
		c0,0,1.504,6.686-2.407,9.374l-0.02,0.013c-0.713,0.454-1.56,0.717-2.467,0.717c-0.201,0-0.399-0.014-0.592-0.036l-0.02-0.005
		c-0.207-0.031-0.422-0.072-0.641-0.132c8.685,2.869,10.711-4.069,10.711-4.069c0.35-0.898,0.576-1.987,0.578-3.311
		c0-1.599-0.38-3.513-0.38-3.513c3.315-1.619,4.888-3.956,5.556-5.307l0.03-0.058c0.015-0.027,0.031-0.056,0.046-0.083
		c0.018-0.037,0.037-0.071,0.051-0.104C83.067,12.797,82.303,8.588,79.454,7.133 M74.671,16.942c-0.127-0.9-0.064-1.963,0.225-3.059
		c0.703-2.645,2.451-4.475,3.906-4.087c0.635,0.166,1.113,0.727,1.386,1.521C79.612,13.408,77.581,15.437,74.671,16.942"/>
	<path fill="#C6006F" d="M80.54,1.457c-1.411,0-2.557,1.143-2.557,2.554c0,1.41,1.146,2.556,2.557,2.556
		c1.408,0,2.551-1.146,2.551-2.556C83.091,2.6,81.948,1.457,80.54,1.457"/>
	<path fill="#C6006F" d="M74.896,13.883c0.702-2.643,2.45-4.474,3.906-4.087c0.635,0.167,1.112,0.729,1.386,1.522v-0.001
		c0.09-0.323,0.146-0.648,0.166-0.974c0.014-0.325-0.005-0.647-0.063-0.972l-0.016-0.064c-0.22-0.923-0.707-1.709-1.453-2.229
		c-0.348-0.247-0.734-0.418-1.148-0.52c-0.395-0.038-0.773-0.026-1.129,0.038c-0.356,0.062-0.693,0.159-1.034,0.289
		C75.45,6.909,69.29,9.237,69.984,18.68c1.72-0.427,3.302-1.023,4.687-1.737C74.544,16.042,74.607,14.979,74.896,13.883"/>
	<path fill="#E977AF" d="M79.454,7.133c-0.068-0.035-0.14-0.067-0.209-0.1c-0.013-0.005-0.025-0.01-0.035-0.016
		c-0.11-0.047-0.211-0.104-0.326-0.152l0.018,0.007l-0.005-0.003c-0.006-0.004-0.017-0.005-0.024-0.009
		c-0.287-0.12-0.598-0.211-0.928-0.267c-0.084-0.015-0.168-0.025-0.251-0.035l-0.026-0.002c0.002,0,0.006,0.002,0.008,0.003
		c0.414,0.102,0.801,0.272,1.148,0.52c0.746,0.52,1.233,1.306,1.453,2.229l0.016,0.064c0.058,0.324,0.076,0.646,0.063,0.972
		c-0.02,0.325-0.076,0.649-0.166,0.975c-0.575,2.089-2.605,4.118-5.518,5.624c-1.385,0.714-2.967,1.311-4.687,1.737
		c-0.499,0.125-1.012,0.235-1.532,0.33c-5.974,1.087-11.414-0.19-13.566-2.903c1.945,8.257,12.158,7.464,15.06,7.062l0.769-0.121
		c0,0,1.504,6.687-2.408,9.375l-0.02,0.011c-0.713,0.454-1.56,0.719-2.468,0.719c-0.201,0-0.397-0.014-0.59-0.035l-0.021-0.005
		c-0.207-0.032-0.422-0.073-0.64-0.132c8.685,2.868,10.71-4.07,10.71-4.07c0.35-0.899,0.576-1.987,0.58-3.311
		c0-1.601-0.381-3.515-0.381-3.515c3.314-1.618,4.887-3.955,5.557-5.306l0.029-0.059c0.016-0.025,0.031-0.055,0.045-0.083
		c0.018-0.036,0.037-0.069,0.053-0.104C83.066,12.797,82.302,8.589,79.454,7.133"/>
	<path d="M19.305,24.272c-3.002,0-4.989,2.32-4.989,5.815c0,2.627,1.512,4.214,4.026,4.214c2.984,0,4.968-2.344,4.968-5.874
		C23.31,25.877,21.76,24.272,19.305,24.272 M20.437,31.431c-0.452,1.058-1.094,1.55-2.02,1.55c-1.266,0-1.872-0.813-1.872-2.478
		c0-1.111,0.246-2.435,0.644-3.358c0.415-1.021,1.114-1.551,2.041-1.551c1.245,0,1.849,0.791,1.849,2.454
		C21.079,29.202,20.833,30.486,20.437,31.431"/>
	<path d="M44.976,34.297c0.832,0,1.623-0.15,2.982-0.604l0.189-1.151c-0.811,0.189-1.643,0.301-2.381,0.301
		c-1.662,0-2.455-0.83-2.455-2.57c0-0.266,0-0.205,0.019-0.411h0.738c3.608,0,5.307-1.044,5.307-3.251
		c0-1.456-1.04-2.288-2.87-2.288c-3.193,0-5.423,2.476-5.423,6.026C41.082,32.898,42.462,34.297,44.976,34.297 M46.089,25.607
		c0.754,0,1.172,0.38,1.172,1.078c0,1.304-1.172,1.964-3.516,1.964h-0.281C43.71,26.741,44.673,25.607,46.089,25.607"/>
	<path d="M57.433,27.193c0,0.268-0.021,0.552-0.078,0.852l-0.963,6.101h2.174l0.961-6.045c0.078-0.529,0.112-1,0.112-1.454
		c0-1.436-0.978-2.104-2.528-2.322c-1.178-0.167-2.754,0.178-4.158,0.725l-0.99,0.442l-1.367,8.654h2.169l1.245-8.035
		c0.813-0.304,1.439-0.405,2.098-0.39C57.172,25.748,57.433,26.421,57.433,27.193"/>
	<polygon points="10.053,28.706 14.454,24.475 11.999,24.475 7.9,28.839 10.411,34.146 12.811,34.146 	"/>
	<path d="M6.09,24.26c-0.012,0.076-0.361,2.269-0.518,3.246c-0.339,2.145-0.628,3.955-0.642,4.057
		c-0.025,0.191-0.064,0.417-0.081,0.664l-0.304,1.919h2.174l0.962-6.044c0.031-0.219,0.055-0.429,0.073-0.635l0.511-3.207H6.09z"/>
	<path d="M35.7,25.721c1.063,0.027,1.324,0.701,1.324,1.472c0,0.27-0.02,0.553-0.078,0.853l-0.962,6.101h2.171l0.963-6.045
		c0.077-0.529,0.115-0.999,0.115-1.454c0-1.436-0.979-2.104-2.531-2.322c-0.991-0.141-2.5,0.099-3.763,0.639
		c-0.435-0.334-1.035-0.537-1.763-0.639c-1.179-0.167-2.753,0.178-4.158,0.725l-0.989,0.443l-1.371,8.653h2.173l1.246-8.036
		c0.812-0.302,1.437-0.404,2.098-0.389c0.717,0.017,1.067,0.331,1.221,0.769c0.073,0.212,0.102,0.452,0.102,0.703
		c0,0.27-0.02,0.553-0.077,0.853l-0.963,6.101h2.171l0.965-6.045c0.077-0.529,0.113-0.999,0.113-1.454
		c0-0.2-0.021-0.382-0.058-0.555C34.438,25.806,35.053,25.705,35.7,25.721"/>
	<path d="M35.692,42.102c0,2.588,1.322,4.061,3.685,4.061c0.735,0,1.528-0.168,2.831-0.603l0.191-1.192
		c-0.738,0.172-1.38,0.268-1.965,0.268c-1.701,0-2.513-0.89-2.513-2.72c0-2.627,1.36-4.233,3.55-4.233
		c0.586,0,1.247,0.095,1.928,0.284l0.209-1.267c-1.06-0.379-1.68-0.511-2.437-0.511C37.865,36.188,35.692,38.552,35.692,42.102"/>
	<path d="M67.151,36.188c-3.193,0-5.42,2.476-5.42,6.025c0,2.55,1.379,3.949,3.889,3.949c0.83,0,1.625-0.15,2.984-0.604l0.188-1.154
		c-0.81,0.189-1.642,0.303-2.379,0.303c-1.664,0-2.456-0.83-2.456-2.567c0-0.264,0-0.209,0.021-0.419h0.732
		c3.611,0,5.313-1.036,5.313-3.247C70.024,37.022,68.983,36.188,67.151,36.188 M64.396,40.516H64.11
		c0.244-1.909,1.207-3.042,2.623-3.042c0.758,0,1.176,0.376,1.176,1.078C67.909,39.855,66.733,40.516,64.396,40.516"/>
	<path d="M50.298,44.627c-0.812,0.303-1.437,0.405-2.096,0.39c-1.063-0.025-1.323-0.697-1.323-1.474
		c0-0.264,0.019-0.548,0.074-0.849l0.966-6.103h-2.173l-0.962,6.047c-0.078,0.527-0.113,0.999-0.113,1.453
		c0,1.435,0.977,2.105,2.529,2.322c1.177,0.169,2.755-0.18,4.156-0.726l0.992-0.438l1.371-8.658h-2.177L50.298,44.627z"/>
	<path d="M61.293,36.318c-0.021-0.004-0.044-0.005-0.065-0.01c-0.179-0.019-0.359-0.026-0.545-0.026
		c-0.229,0-0.447,0.015-0.662,0.038c-0.685,0.069-1.302,0.253-1.857,0.527c-1.396,0.698-2.355,2.017-2.7,3.75l-0.077,0.511
		l-0.779,4.902h2.164l0.082-0.507l0.392-2.479l0.313-1.971c0.01-0.104,0.028-0.207,0.045-0.305c0.135-0.743,0.412-1.363,0.803-1.849
		c0.127-0.158,0.266-0.303,0.418-0.427c0.326-0.25,0.729-0.4,1.164-0.416c0.035-0.002,0.07-0.005,0.104-0.005
		c0.01,0,0.02-0.005,0.029-0.005c0.441,0,0.857,0.091,1.24,0.245l0.088-0.53l0.211-1.286h-0.002l0.017-0.103
		C61.543,36.354,61.42,36.334,61.293,36.318"/>
	<polygon points="14.35,36.604 14.262,36.604 14.25,36.692 13.907,39.554 13.893,39.663 14.006,39.663 14.384,39.663 14.474,39.663 
		14.484,39.578 14.628,38.371 15.991,38.371 16.08,38.371 16.091,38.284 16.13,37.935 16.143,37.823 16.031,37.823 14.692,37.823 
		14.774,37.153 16.34,37.153 16.429,37.153 16.44,37.065 16.479,36.717 16.491,36.604 16.379,36.604 	"/>
	<path d="M18.451,36.548c-0.93,0-1.469,0.53-1.599,1.575c-0.068,0.557,0.017,0.974,0.254,1.24c0.21,0.238,0.54,0.358,0.979,0.358
		c0.93,0,1.467-0.526,1.597-1.571c0.071-0.567-0.012-0.973-0.251-1.244C19.222,36.67,18.891,36.548,18.451,36.548 M19.101,38.123
		c-0.092,0.746-0.384,1.063-0.976,1.063c-0.267,0-0.451-0.063-0.564-0.189c-0.138-0.157-0.177-0.426-0.126-0.847
		c0.093-0.76,0.373-1.065,0.97-1.065c0.264,0,0.449,0.065,0.563,0.196C19.11,37.439,19.152,37.708,19.101,38.123"/>
	<path d="M21.866,36.604h-1.225h-0.088l-0.01,0.088l-0.344,2.861l-0.014,0.11h0.114h0.374h0.09l0.011-0.086l0.128-1.045h0.721
		l0.448,1.069l0.026,0.062h0.066h0.447h0.155l-0.063-0.142l-0.498-1.092c0.339-0.139,0.552-0.426,0.602-0.85
		c0.038-0.3-0.017-0.538-0.165-0.704C22.482,36.698,22.223,36.604,21.866,36.604 M21.066,37.154h0.72
		c0.178,0,0.299,0.036,0.361,0.106c0.054,0.063,0.071,0.159,0.054,0.295c-0.028,0.224-0.113,0.429-0.541,0.429h-0.694L21.066,37.154
		z"/>
	<polygon points="24.646,36.604 24.557,36.604 24.547,36.692 24.506,37.043 24.493,37.153 24.606,37.153 25.447,37.153 
		25.158,39.554 25.145,39.663 25.258,39.663 25.663,39.663 25.752,39.663 25.763,39.578 26.055,37.153 26.923,37.153 27.012,37.153 
		27.021,37.068 27.062,36.717 27.074,36.604 26.962,36.604 	"/>
	<polygon points="29.787,36.604 29.698,36.604 29.689,36.692 29.55,37.823 28.105,37.823 28.239,36.717 28.253,36.604 28.14,36.604 
		27.762,36.604 27.675,36.604 27.664,36.692 27.32,39.554 27.307,39.663 27.418,39.663 27.797,39.663 27.886,39.663 27.897,39.578 
		28.039,38.371 29.487,38.371 29.346,39.554 29.332,39.663 29.444,39.663 29.822,39.663 29.911,39.663 29.921,39.578 30.264,36.717 
		30.278,36.604 30.166,36.604 	"/>
	<polygon points="33.226,36.604 31.137,36.604 31.049,36.604 31.038,36.692 30.695,39.554 30.682,39.663 30.795,39.663 
		32.883,39.663 32.973,39.663 32.983,39.575 33.022,39.227 33.034,39.116 32.923,39.116 31.325,39.116 31.415,38.371 32.837,38.371 
		32.926,38.371 32.936,38.284 32.976,37.935 32.989,37.823 32.877,37.823 31.48,37.823 31.564,37.153 33.185,37.153 33.276,37.153 
		33.285,37.068 33.325,36.717 33.338,36.604 	"/>
	<path d="M28.275,17.631c0,0.16-0.012,0.332-0.048,0.513l-0.581,3.684h1.311l0.583-3.648c0.047-0.32,0.067-0.604,0.067-0.879
		c0-0.867-0.59-1.271-1.527-1.402c-0.712-0.102-1.663,0.108-2.512,0.438l-0.596,0.267l-0.827,5.226h1.31l0.753-4.851
		c0.49-0.183,0.868-0.246,1.267-0.236C28.117,16.758,28.275,17.162,28.275,17.631"/>
	<path d="M10.177,20.775c-0.496,0.184-0.876,0.247-1.279,0.236c-0.647-0.016-0.807-0.424-0.807-0.897
		c0-0.161,0.013-0.335,0.048-0.519l0.587-3.72H7.401l-0.586,3.688c-0.047,0.32-0.07,0.607-0.07,0.886
		c0,0.874,0.596,1.282,1.542,1.416c0.719,0.102,1.68-0.11,2.535-0.443l0.604-0.27l0.834-5.276h-1.324L10.177,20.775z"/>
	<path d="M5.648,16.86c-0.541-0.15-0.954-0.219-1.379-0.219c-0.726,0-1.059,0.229-1.059,0.736c0,0.275,0.115,0.427,0.529,0.713
		l0.655,0.449c0.644,0.438,0.898,0.863,0.898,1.473c0,1.197-0.851,1.888-2.302,1.888c-0.46,0-0.828-0.08-1.737-0.368l0.115-0.737
		c0.598,0.174,1.093,0.255,1.554,0.255c0.736,0,1.104-0.277,1.104-0.817c0-0.299-0.138-0.496-0.472-0.727L2.91,19.069
		c-0.667-0.449-0.933-0.862-0.933-1.496c0-1.116,0.795-1.761,2.165-1.761c0.46,0,0.805,0.07,1.622,0.311L5.648,16.86z"/>
	<path d="M17.004,16.86c-0.54-0.15-0.955-0.219-1.38-0.219c-0.724,0-1.058,0.229-1.058,0.736c0,0.275,0.114,0.427,0.529,0.713
		l0.656,0.449c0.644,0.438,0.897,0.863,0.897,1.473c0,1.197-0.851,1.888-2.302,1.888c-0.46,0-0.828-0.08-1.737-0.368l0.115-0.737
		c0.598,0.174,1.093,0.255,1.555,0.255c0.735,0,1.104-0.277,1.104-0.817c0-0.299-0.138-0.496-0.472-0.727l-0.645-0.437
		c-0.668-0.449-0.933-0.862-0.933-1.496c0-1.116,0.795-1.761,2.165-1.761c0.46,0,0.804,0.07,1.622,0.311L17.004,16.86z"/>
	<path d="M22.312,21.797h-1.29l0.081-0.506c-0.07,0.033-0.117,0.068-0.149,0.079c-0.691,0.392-1.025,0.519-1.406,0.519
		c-1.092,0-1.76-0.874-1.76-2.313c0-2.186,1.323-3.751,3.166-3.751c1.192,0,2.172,0.775,2.172,0.775L22.312,21.797z M21.251,16.698
		c-1.323,0-2.106,1.047-2.106,2.809c0,0.896,0.346,1.357,1.013,1.357c0.299,0,0.666-0.081,1.035-0.242l0.589-3.735
		C21.673,16.774,21.391,16.698,21.251,16.698"/>
	<path d="M36.502,15.78c-2.125,0-3.392,1.363-3.392,3.647c0,1.546,0.837,2.397,2.356,2.397c0.437,0,1.016-0.095,1.723-0.282
		l0.077-0.022l0.012-0.076l0.376-2.39l0.022-0.139h-0.14h-0.891h-0.104l-0.015,0.102l-0.29,1.851
		c-0.162,0.027-0.342,0.044-0.504,0.044c-1.016,0-1.409-0.416-1.409-1.484c0-1.757,0.804-2.726,2.266-2.726
		c0.415,0,0.846,0.054,1.212,0.148l0.129,0.034l0.022-0.132l0.088-0.562l0.016-0.103l-0.1-0.03
		C37.277,15.843,36.95,15.78,36.502,15.78"/>
	<path d="M38.954,20.446c-0.466,0-0.754,0.303-0.754,0.786c0,0.277,0.111,0.609,0.642,0.609c0.465,0,0.753-0.301,0.753-0.785
		C39.595,20.778,39.484,20.446,38.954,20.446"/>
	<path d="M71.496,43.37c0.73,0,1.37,0.23,1.37,1.35c0,1.11-0.64,1.35-1.37,1.35c-0.729,0-1.368-0.239-1.368-1.35
		C70.128,43.601,70.767,43.37,71.496,43.37 M71.496,43.69c-0.589,0-1.02,0.149-1.02,1.029s0.431,1.03,1.02,1.03
		c0.591,0,1.021-0.15,1.021-1.03S72.087,43.69,71.496,43.69 M71.527,44.93l0.289,0.51h0.36l-0.319-0.569
		c0.149-0.071,0.21-0.22,0.21-0.41c0-0.271-0.131-0.46-0.501-0.46h-0.64v1.439h0.319v-0.51H71.527z M71.727,44.46
		c0,0.09-0.021,0.16-0.179,0.16h-0.302V44.3h0.302C71.706,44.3,71.727,44.37,71.727,44.46"/>
</g>
</svg>
