<?xml version="1.0" encoding="utf-8"?>
<!-- Generator: Adobe Illustrator 16.0.3, SVG Export Plug-In . SVG Version: 6.00 Build 0)  -->
<!DOCTYPE svg PUBLIC "-//W3C//DTD SVG 1.1//EN" "http://www.w3.org/Graphics/SVG/1.1/DTD/svg11.dtd">
<svg version="1.1" id="Layer_1" xmlns="http://www.w3.org/2000/svg" xmlns:xlink="http://www.w3.org/1999/xlink" x="0px" y="0px"
	 width="274px" height="172.5px" viewBox="0 0 274 172.5" enable-background="new 0 0 274 172.5" xml:space="preserve">
<g>
	<polyline points="11.382,150.533 19.189,150.533 18.751,152.808 14.01,152.808 13.422,155.433 18,155.433 17.552,157.707 
		13.038,157.707 12.051,162.539 8.906,162.539 11.382,150.533 	"/>
	<path d="M20.357,153.586h3.041l-1.802,8.953h-3.038L20.357,153.586 M21.129,149.846h3.043l-0.473,2.275h-3.041L21.129,149.846z"/>
	<path d="M24.802,163.377c0.788,0.469,1.594,0.69,2.527,0.703c2.104,0.035,2.859-0.782,3.327-3.069l-0.034-0.036
		c-0.671,0.993-1.656,1.564-2.841,1.564c-2.396,0-3.563-1.699-3.563-4.073c0-2.768,1.86-5.09,4.667-5.09
		c1.316,0,2.503,0.548,3.003,1.842h0.034l0.385-1.632h2.793c-0.115,0.477-0.333,1.18-0.55,2.145l-1.336,6.102
		c-0.772,3.475-1.979,4.522-5.586,4.522c-1.503,0-2.489-0.277-3.411-0.567L24.802,163.377 M29.499,155.75
		c-1.501,0-2.17,1.513-2.17,2.768c0,0.925,0.62,1.647,1.568,1.647c1.541,0,2.211-1.632,2.211-2.799
		C31.108,156.421,30.557,155.75,29.499,155.75"/>
	<path d="M37.588,149.644h3.045l-1.072,5.245h0.034c0.619-0.846,1.622-1.513,3.025-1.513c1.759,0,2.709,1.342,2.709,3.089
		c0,0.604-0.053,0.953-0.236,1.89l-0.798,4.185h-3.115l0.838-4.196c0.083-0.445,0.201-0.89,0.201-1.358
		c0-0.531-0.332-1.063-1.171-1.032c-1.269,0-2.019,1.136-2.241,2.466l-0.852,4.121h-3.01L37.588,149.644"/>
	<path d="M47.198,153.586h1.721l0.419-1.934l3.176-0.869l-0.6,2.803h2.071l-0.37,2.164h-2.184l-0.522,2.493
		c-0.135,0.667-0.252,1.112-0.252,1.537c0,0.607,0.387,1,0.992,1c0.31,0,0.646-0.135,0.963-0.258l-0.332,2.045
		c-0.631,0.106-1.271,0.175-1.876,0.175c-1.535,0-2.755-0.774-2.755-2.645c0-0.445,0.065-0.89,0.27-1.843l0.518-2.505h-1.606
		L47.198,153.586"/>
	<path d="M55.641,153.586h3.038l-1.805,8.953h-3.039L55.641,153.586 M56.41,149.846h3.039l-0.468,2.275h-3.042L56.41,149.846z"/>
	<path d="M60.439,155.921c0.147-0.778,0.282-1.533,0.369-2.335h2.785l-0.228,1.457h0.032c0.865-1,1.769-1.667,3.359-1.667
		c1.754,0,2.708,1.342,2.708,3.089c0,0.604-0.05,0.953-0.234,1.89l-0.802,4.185h-3.107l0.83-4.196
		c0.085-0.445,0.205-0.89,0.205-1.358c0-0.531-0.333-1.063-1.171-1.032c-1.269,0-2.023,1.136-2.239,2.466l-0.852,4.121H59.08
		L60.439,155.921"/>
	<path d="M71.23,163.377c0.788,0.469,1.595,0.69,2.527,0.703c2.104,0.035,2.86-0.782,3.323-3.069l-0.033-0.036
		c-0.669,0.993-1.648,1.564-2.839,1.564c-2.395,0-3.562-1.699-3.562-4.073c0-2.768,1.854-5.09,4.667-5.09
		c1.318,0,2.503,0.548,3.008,1.842h0.031l0.384-1.632h2.795c-0.121,0.477-0.336,1.18-0.552,2.145l-1.341,6.102
		c-0.764,3.475-1.971,4.522-5.582,4.522c-1.501,0-2.493-0.277-3.41-0.567L71.23,163.377 M75.928,155.75
		c-1.501,0-2.17,1.513-2.17,2.768c0,0.925,0.617,1.647,1.572,1.647c1.533,0,2.204-1.632,2.204-2.799
		C77.534,156.421,76.986,155.75,75.928,155.75"/>
	<polyline points="89.048,150.533 92.21,150.533 90.272,160.165 95.146,160.165 94.664,162.539 86.63,162.539 89.048,150.533 	"/>
	<path d="M100.734,162.742c-3.226,0-4.524-1.835-4.524-4.09c0-3.145,2.2-5.276,5.612-5.276c2.962,0,4.528,1.755,4.528,4.01
		C106.351,161.11,103.992,162.742,100.734,162.742 M101.67,155.543c-1.453,0-2.358,1.612-2.358,3.042
		c0,1.195,0.621,2.013,1.64,1.993c1.403,0,2.289-1.203,2.289-3.236C103.24,156.421,102.841,155.543,101.67,155.543"/>
	<path d="M116.499,160.201c-0.151,0.773-0.294,1.528-0.371,2.338h-2.796l0.24-1.461h-0.037c-0.87,0.996-1.767,1.664-3.357,1.664
		c-1.755,0-2.709-1.335-2.709-3.09c0-0.607,0.049-0.944,0.239-1.897l0.797-4.169h3.11l-0.84,4.188
		c-0.085,0.445-0.198,0.897-0.198,1.358c0,0.532,0.337,1.068,1.173,1.032c1.263,0,2.02-1.136,2.235-2.458l0.855-4.121h3.008
		L116.499,160.201"/>
	<path d="M135.128,153.359c-1.019-0.464-2.021-0.658-3.379-0.658c-3.121,0-4.373,2.274-4.373,4.542c0,2.132,1.324,3.124,2.91,3.124
		c0.393,0,0.802-0.067,1.234-0.202l0.521-2.37h-1.86l0.455-2.268h4.893l-1.383,6.683c-1.174,0.357-3.058,0.532-4.063,0.532
		c-3.76,0-5.917-2.287-5.917-5.587c0-3.99,2.322-6.825,7.731-6.825c1.426,0,2.629,0.242,3.901,0.588L135.128,153.359"/>
	<path d="M144.135,162.245c-1.059,0.322-2.172,0.497-3.044,0.497c-2.908,0-4.475-1.835-4.475-4.09c0-2.076,1.341-5.276,5.218-5.276
		c2.289,0,4.01,1.187,4.01,3.898c0,0.361-0.102,1.155-0.221,1.688h-6.166c0.034,0.961,0.501,1.724,2.337,1.724
		c0.806,0,1.89-0.211,2.733-0.62L144.135,162.245 M143.334,157.207c0-0.965-0.367-1.774-1.477-1.774
		c-1.296,0-1.999,0.913-2.211,1.774H143.334z"/>
	<path d="M149.06,149.644h3.037l-1.069,5.245h0.029c0.615-0.846,1.62-1.513,3.023-1.513c1.759,0,2.71,1.342,2.71,3.089
		c0,0.604-0.046,0.953-0.236,1.89l-0.796,4.185h-3.111l0.83-4.196c0.086-0.445,0.207-0.89,0.207-1.358
		c0-0.531-0.336-1.063-1.176-1.032c-1.269,0-2.021,1.136-2.237,2.466l-0.857,4.121h-2.996L149.06,149.644"/>
	<path d="M162.068,153.586l-0.329,1.834h0.029c0.488-1.048,1.455-2.044,2.69-2.044c0.396,0,0.873,0.047,1.269,0.222l-0.682,2.732
		c-0.385-0.311-0.823-0.378-1.383-0.378c-1.277,0-2.033,1.136-2.25,2.466l-0.85,4.121h-3.003l1.35-6.618
		c0.148-0.778,0.28-1.533,0.367-2.335H162.068"/>
	<path d="M167.107,153.586h3.035l-1.807,8.953h-3.033L167.107,153.586 M167.873,149.846h3.031l-0.458,2.275h-3.037L167.873,149.846z
		"/>
	<path d="M171.542,163.377c0.794,0.469,1.59,0.69,2.527,0.703c2.11,0.035,2.862-0.782,3.329-3.069l-0.034-0.036
		c-0.665,0.993-1.661,1.564-2.843,1.564c-2.386,0-3.56-1.699-3.56-4.073c0-2.768,1.858-5.09,4.667-5.09c1.316,0,2.502,0.548,3,1.842
		h0.038l0.385-1.632h2.793c-0.117,0.477-0.337,1.18-0.554,2.145l-1.336,6.102c-0.769,3.475-1.978,4.522-5.582,4.522
		c-1.505,0-2.498-0.277-3.411-0.567L171.542,163.377 M176.243,155.75c-1.505,0-2.174,1.513-2.174,2.768
		c0,0.925,0.619,1.647,1.574,1.647c1.534,0,2.205-1.632,2.205-2.799C177.849,156.421,177.299,155.75,176.243,155.75"/>
	<polyline points="184.882,150.533 187.86,150.533 185.364,155.198 182.959,155.198 184.882,150.533 	"/>
	<path d="M185.821,160.165c0.769,0.346,1.605,0.521,2.439,0.521c0.482,0,1.693-0.056,1.693-0.799c0-1.267-3.603-0.611-3.603-3.569
		c0-2.1,2.372-2.941,4.402-2.941c0.751,0,1.797,0.175,2.883,0.531l-0.631,2.025c-0.767-0.321-1.501-0.5-2.406-0.5
		c-0.665,0-1.397,0.154-1.397,0.778c0,0.996,3.756,0.929,3.756,3.184c0,2.216-1.824,3.315-4.08,3.348
		c-1.315,0.016-2.728-0.188-3.66-0.465L185.821,160.165"/>
	<path d="M201.48,150.533h4.04c3.712,0,5.963,1.619,5.963,4.819c0,5.015-3.071,7.187-7.446,7.187h-5.03L201.48,150.533
		 M202.647,160.165h1.37c3.064,0,4.246-2.354,4.246-4.59c0-2.199-1.461-2.66-3.369-2.66h-0.768L202.647,160.165z"/>
	<path d="M213.997,153.586h3.045l-1.813,8.953h-3.037L213.997,153.586 M214.763,149.846h3.044l-0.465,2.275h-3.037L214.763,149.846z
		"/>
	<path d="M217.862,160.165c0.766,0.346,1.602,0.521,2.441,0.521c0.484,0,1.682-0.056,1.682-0.799c0-1.267-3.592-0.611-3.592-3.569
		c0-2.1,2.377-2.941,4.396-2.941c0.753,0,1.809,0.175,2.893,0.531l-0.64,2.025c-0.768-0.321-1.5-0.5-2.405-0.5
		c-0.665,0-1.408,0.154-1.408,0.778c0,0.996,3.767,0.929,3.767,3.184c0,2.216-1.823,3.315-4.076,3.348
		c-1.32,0.016-2.724-0.188-3.664-0.465L217.862,160.165"/>
	<path d="M233.739,162.245c-1.062,0.322-2.174,0.497-3.047,0.497c-2.902,0-4.471-1.835-4.471-4.09c0-2.076,1.328-5.276,5.207-5.276
		c2.291,0,4.016,1.187,4.016,3.898c0,0.361-0.108,1.155-0.216,1.688h-6.17c0.033,0.961,0.5,1.724,2.336,1.724
		c0.801,0,1.891-0.211,2.72-0.62L233.739,162.245 M232.939,157.207c0-0.965-0.377-1.774-1.471-1.774
		c-1.307,0-2.012,0.913-2.228,1.774H232.939z"/>
	<path d="M242.025,161.284l-0.033-0.039v0.039c-0.632,1.028-1.753,1.458-2.921,1.458c-1.88,0-2.916-0.854-2.916-2.589
		c0-2.204,2.136-3.288,4.8-3.288c0.604,0,1.205,0.048,1.63,0.088c0.021-0.123,0.021-0.242,0.021-0.365
		c0-0.636-0.613-1.155-1.601-1.155c-1.09,0-1.814,0.179-2.82,0.71l0.298-2.255c0.879-0.302,1.834-0.512,3.191-0.512
		c2.073,0,3.772,0.842,3.772,3.045c0,1.409-0.759,3.419-1.1,6.118h-2.456L242.025,161.284 M240.021,160.686
		c1.288,0,2.055-0.918,2.267-2.121c-0.242-0.047-0.613-0.047-0.792-0.047c-1.44-0.052-2.501,0.48-2.501,1.263
		C238.994,160.201,239.386,160.686,240.021,160.686"/>
	<path d="M246.641,160.165c0.771,0.346,1.601,0.521,2.438,0.521c0.488,0,1.688-0.056,1.688-0.799c0-1.267-3.592-0.611-3.592-3.569
		c0-2.1,2.373-2.941,4.392-2.941c0.754,0,1.805,0.175,2.898,0.531l-0.642,2.025c-0.766-0.321-1.503-0.5-2.41-0.5
		c-0.669,0-1.399,0.154-1.399,0.778c0,0.996,3.766,0.929,3.766,3.184c0,2.216-1.826,3.315-4.081,3.348
		c-1.328,0.016-2.722-0.188-3.656-0.465L246.641,160.165"/>
	<path d="M262.517,162.245c-1.052,0.322-2.174,0.497-3.043,0.497c-2.902,0-4.482-1.835-4.482-4.09c0-2.076,1.34-5.276,5.217-5.276
		c2.289,0,4.002,1.187,4.002,3.898c0,0.361-0.094,1.155-0.213,1.688h-6.166c0.034,0.961,0.511,1.724,2.343,1.724
		c0.809,0,1.89-0.211,2.728-0.62L262.517,162.245 M261.713,157.207c0-0.965-0.371-1.774-1.464-1.774
		c-1.306,0-2.013,0.913-2.235,1.774H261.713z"/>
</g>
<g>
	<path fill="#E31937" d="M19.856,122.482h7.937l9.362,20.586h-7.097l-1.81-4.395h-9.124l-1.916,4.395h-6.579L19.856,122.482
		 M23.821,126.727h-0.065l-3.135,8.052h6.093L23.821,126.727z"/>
	<path fill="#E31937" d="M89.661,122.482h7.935l9.37,20.586h-7.108l-1.809-4.395h-9.12l-1.916,4.395h-6.582L89.661,122.482
		 M93.624,126.727h-0.063l-3.139,8.052h6.099L93.624,126.727z"/>
	<polyline fill="#E31937" points="37.956,122.482 44.435,122.482 44.435,138.999 54.46,138.999 54.46,143.068 37.956,143.068 
		37.956,122.482 	"/>
	<path fill="#E31937" d="M55.645,137.994c1.674,0.767,4.006,1.354,6.684,1.354c2.053,0,4.004-0.35,4.004-2.005
		c0-3.832-11.49-1.41-11.49-8.902c0-4.959,5.708-6.316,10.585-6.316c2.334,0,4.629,0.298,6.265,0.771l-0.421,4.252
		c-1.665-0.655-3.55-0.945-5.392-0.945c-1.638,0-4.352,0.115-4.352,1.914c0,3.331,11.488,1.088,11.488,8.528
		c0,5.332-5.295,6.781-10.688,6.781c-2.263,0-5.086-0.298-7.246-0.89L55.645,137.994"/>
	<path fill="#E31937" d="M108.169,139.269c1.407,0.505,3.477,1.013,5.65,1.013c1.238,0,2.439-0.162,2.439-1.183
		c0-2.498-8.551-0.743-8.551-6.06c0-3.395,3.938-4.788,7.411-4.788c2.072,0,4.181,0.199,6.122,0.854l-0.466,3.534
		c-1.277-0.647-3.179-0.988-4.686-0.988c-1.298,0-2.773,0.194-2.773,1.016c0,2.295,8.963,0.48,8.963,6.091
		c0,3.938-4.181,4.927-8.125,4.927c-2.708,0-4.546-0.222-6.318-0.71L108.169,139.269"/>
	<path fill="#E31937" d="M123.244,139.269c1.412,0.505,3.48,1.013,5.646,1.013c1.238,0,2.443-0.162,2.443-1.183
		c0-2.498-8.554-0.743-8.554-6.06c0-3.395,3.944-4.788,7.414-4.788c2.075,0,4.181,0.199,6.125,0.854l-0.477,3.534
		c-1.265-0.647-3.175-0.988-4.68-0.988c-1.304,0-2.767,0.194-2.767,1.016c0,2.295,8.948,0.48,8.948,6.091
		c0,3.938-4.17,4.927-8.119,4.927c-2.708,0-4.542-0.222-6.311-0.71L123.244,139.269"/>
	<path fill="#E31937" d="M137.784,135.981c0-4.899,4.377-7.73,10.128-7.73s10.127,2.831,10.127,7.73
		c0,4.872-4.376,7.702-10.127,7.702S137.784,140.854,137.784,135.981 M151.817,135.981c0-2.207-1.136-4.165-3.905-4.165
		c-2.771,0-3.913,1.958-3.913,4.165c0,2.18,1.142,4.138,3.913,4.138C150.682,140.119,151.817,138.161,151.817,135.981"/>
	<path fill="#E31937" d="M172.945,132.81c-1.109-0.568-2.209-0.818-3.646-0.818c-2.606,0-4.611,1.524-4.611,4.077
		c0,2.351,2.336,3.876,4.944,3.876c1.374,0,2.744-0.251,3.746-0.703l0.131,3.792c-1.498,0.429-3.313,0.65-4.913,0.65
		c-5.743,0-10.124-2.83-10.124-7.702c0-4.899,4.381-7.73,10.124-7.73c1.803,0,3.415,0.25,4.782,0.826L172.945,132.81"/>
	<path fill="#E31937" d="M181.103,126.187h-6.021v-3.74h6.021V126.187 M175.081,128.589h6.02v14.758h-6.02V128.589z"/>
	<path fill="#E31937" d="M195.301,143.347c-0.03-0.798-0.14-1.561-0.14-2.323h-0.067c-1.369,1.835-3.037,2.66-5.507,2.66
		c-3.442,0-6.52-1.444-6.52-4.645c0-4.503,5.777-5.035,8.989-5.035c0.973,0,2.039,0.08,2.813,0.195
		c-0.038-2.01-1.813-2.549-3.986-2.549c-1.932,0-3.875,0.31-5.539,1.104l-0.107-3.454c2.141-0.735,4.384-1.049,6.954-1.049
		c4.449,0,8.29,1.616,8.29,6.118v5.491c0,1.163,0.067,2.319,0.33,3.486H195.301 M191.157,140.281c2.273,0,3.713-1.747,3.713-3.478
		c-0.774-0.032-1.639-0.088-2.55-0.088c-2.038,0-3.639,0.54-3.639,1.958C188.682,139.693,189.75,140.281,191.157,140.281"/>
	<path fill="#E31937" d="M201.115,128.589h3.541v-3.308l5.916-1.557v4.864h4.211v3.565h-4.211v5.439c0,1.79,0.507,2.688,2.412,2.688
		c0.602,0,1.232-0.107,1.832-0.194l0.207,3.312c-1.138,0.115-2.279,0.285-3.784,0.285c-5.372,0-6.682-2.005-6.682-5.522v-6.007
		h-3.442V128.589"/>
	<path fill="#E31937" d="M222.573,126.187h-6.016v-3.74h6.016V126.187 M216.558,128.589h6.016v14.758h-6.016V128.589z"/>
	<path fill="#E31937" d="M224.546,135.981c0-4.899,4.371-7.73,10.123-7.73c5.757,0,10.13,2.831,10.13,7.73
		c0,4.872-4.373,7.702-10.13,7.702C228.917,143.684,224.546,140.854,224.546,135.981 M238.583,135.981
		c0-2.207-1.142-4.165-3.914-4.165c-2.768,0-3.903,1.958-3.903,4.165c0,2.18,1.136,4.138,3.903,4.138
		C237.441,140.119,238.583,138.161,238.583,135.981"/>
	<path fill="#E31937" d="M246.042,128.589h5.473v2.724h0.063c1.205-2.12,3.619-3.062,6.354-3.062c4.749,0,6.648,2.831,6.648,5.896
		v9.199h-6.013v-7.135c0-2.783-1.142-3.712-2.777-3.712c-2.474,0-3.74,1.444-3.74,4.617v6.229h-6.009V128.589"/>
</g>
<g>
	<path fill="#E31937" d="M81.686,8.797H50.392L10.801,115.539h29.847l0.128-0.375l3.474-10.172l3.282-9.623l0.77-2.221l-0.018,0.02
		l18.896-55.352h0.415l10.436,31.563l-2.214-2.063c0,0-1.843-1.713-3.553,0.124L52.171,88.994c0.377-0.1,0.635-0.104,0.635-0.104
		c3.542-0.006,3.553,5.021,3.553,5.021l0.036,14.744l23.221-24.914c0.941-1.008,1.795-1.568,2.548-1.859
		c1.999-0.775,3.253,0.391,3.253,0.391c2.369,2.205-1.062,5.885-1.062,5.885l-0.086,0.092L71.61,101.834
		c0.184,0.143,0.29,0.238,0.29,0.238l0.351,0.33l0.672,0.623l15.893-17.053c2.184-2.344,3.937-2.295,4.919-1.953l1.531,1.422
		c0.866,2.178-1.712,4.947-1.712,4.947l-15.893,17.053l1.348,1.258l14.552-15.607c3.425-3.68,5.796-1.471,5.796-1.471
		c2.369,2.207-1.058,5.887-1.058,5.887l-14.552,15.611l0.69,0.641l0.239,0.223c0.14,0.129,0.261,0.256,0.379,0.385l5.794-6.215
		l6.184-6.637c3.429-3.676,5.796-1.469,5.796-1.469c0.272,0.256,0.468,0.531,0.601,0.82c1.017,2.191-1.656,5.064-1.656,5.064
		l-8.606,9.232l0.126,0.375h27.771L81.686,8.797"/>
	<polyline fill="#E31937" points="122.592,112.402 125.132,112.402 125.132,112.877 124.136,112.877 124.136,115.539 
		123.586,115.539 123.586,112.877 122.592,112.877 122.592,112.402 	"/>
	<polyline fill="#E31937" points="125.487,112.402 126.264,112.402 127.129,114.855 127.136,114.855 127.979,112.402 
		128.744,112.402 128.744,115.539 128.218,115.539 128.218,113.119 128.213,113.119 127.342,115.539 126.892,115.539 
		126.019,113.119 126.014,113.119 126.014,115.539 125.487,115.539 125.487,112.402 	"/>
</g>
<g>
	<g>
		<path fill="#E31937" d="M234.843,49.556c-15.2-4.167-30.551-5.805-31.153-13.396c0-5.953,7.374-7.144,11.89-7.144
			c3.311,0,7.073,0.744,9.782,2.679c2.709,1.786,4.515,4.465,3.913,8.484h31.303C259.675,14.281,239.057,5.5,215.729,5.5
			c-22.123,0-43.344,10.567-43.344,35.126c0,21.432,19.414,26.046,36.421,30.809c18.511,5.209,23.177,6.698,23.177,12.204
			c0,7.889-8.277,9.676-13.695,9.676c-6.171,0-13.395-1.34-15.803-7.74c-0.752-1.936-1.204-4.316-1.204-6.995h-33.109
			c0.029,3.331,0.401,6.367,1.041,9.151h-19.851V7.816h-33.109v107.455H189.5V98.75l4.09,14.215l3.33,1.231l0,0
			c7.3,2.107,14.27,2.634,18.509,2.634c23.929,0,49.664-8.931,49.664-36.614C265.093,60.718,250.043,53.723,234.843,49.556z"/>
	</g>
</g>
</svg>
