<?xml version="1.0" encoding="utf-8"?>
<!-- Generator: Adobe Illustrator 19.2.1, SVG Export Plug-In . SVG Version: 6.00 Build 0)  -->
<svg version="1.1" id="Layer_1" xmlns="http://www.w3.org/2000/svg" xmlns:xlink="http://www.w3.org/1999/xlink" x="0px" y="0px"
	 viewBox="0 0 108.8 35.3" style="enable-background:new 0 0 108.8 35.3;" xml:space="preserve">
<style type="text/css">
	.st0{fill:#005682;}
	.st1{fill:#FFFFFF;}
</style>
<path class="st0" d="M3.8,1.5H105c1.1,0,2,0.9,2,2v22c0,1.1-0.9,2-2,2h-8.5v6.4l-8.9-6.4H3.8c-1.1,0-2-0.9-2-2v-22
	C1.8,2.4,2.7,1.5,3.8,1.5z"/>
<g>
	<g>
		<path class="st1" d="M11.4,8.7h1h5.8V8.4c0-0.4-0.3-0.7-0.7-0.7H7.3c-0.4,0-0.7,0.3-0.7,0.7v0.4h0.1H11.4z"/>
		<path class="st1" d="M10.5,11.3c-0.4,0-0.6-0.3-0.4-0.7l0.4-1.1c0-0.1-0.1-0.3-0.2-0.3H6.6v3h6.5c0.4,0,0.6,0.3,0.4,0.7l-0.4,1.2
			c-0.1,0.4-0.6,0.7-0.9,0.7H9.3c-0.4,0-0.6-0.3-0.4-0.7L9.2,13c0.1-0.1-0.1-0.3-0.2-0.3H6.6v3H9h1h6.1c0.4,0,0.6,0.3,0.4,0.7
			l-0.4,1.2c-0.1,0.4-0.6,0.7-0.9,0.7H8.1c-0.4,0-0.6-0.3-0.5-0.7L8,16.5c0.1-0.1-0.1-0.3-0.2-0.3H6.6v2.5c0,0.4,0.3,0.7,0.7,0.7
			h10.3c0.4,0,0.7-0.3,0.7-0.7v-7.6c-0.2,0.1-0.4,0.3-0.7,0.3L10.5,11.3L10.5,11.3z"/>
	</g>
</g>
<g>
	<g>
		<path class="st1" d="M22,13.3c-0.7-0.5-1-1.3-1.1-2.5c0-1.1,0.4-2,1.1-2.5c0.7-0.5,1.4-0.8,2.2-0.7c0.8,0,1.5,0.2,2.1,0.7
			c0.7,0.5,1,1.3,1.1,2.5c0,1.2-0.4,2-1.1,2.5c-0.7,0.5-1.4,0.8-2.1,0.7C23.4,14.1,22.7,13.8,22,13.3z M24.1,12.9
			c0.5,0,0.9-0.2,1.2-0.5c0.3-0.3,0.5-0.8,0.5-1.5c0-0.6-0.2-1.1-0.5-1.5C25,9,24.6,8.9,24.1,8.9c-0.5,0-0.9,0.2-1.2,0.5
			c-0.3,0.3-0.5,0.8-0.5,1.5c0,0.6,0.2,1.1,0.5,1.5C23.2,12.7,23.6,12.8,24.1,12.9L24.1,12.9L24.1,12.9z"/>
		<path class="st1" d="M27.9,14V7.7h1.6l2.7,3.9V7.7h1.4V14h-1.4l-2.9-4.2V14H27.9L27.9,14L27.9,14z"/>
		<path class="st1" d="M22.5,19.4v-3.7H21v-0.9h4.2v0.9h-1.5v3.7H22.5L22.5,19.4L22.5,19.4z"/>
		<path class="st1" d="M25.4,19.4v-4.6h1.1v1.8h2.1v-1.8h1.1v4.6h-1.1v-1.9h-2.1v1.9H25.4L25.4,19.4L25.4,19.4z"/>
		<path class="st1" d="M30.3,19.4v-4.6h3.4v0.9h-2.3v0.9h2v0.8h-2v1.1h2.3v0.9H30.3L30.3,19.4L30.3,19.4z"/>
	</g>
</g>
<g>
	<g>
		<path class="st1" d="M44.7,15.3l2.2,4.1h-3l-2-3.8h-2v3.8h-2.7V7.7h5.7c1.4,0,2.4,0.4,3.1,1.1c0.7,0.7,1.1,1.6,1.1,2.8
			c0,0.8-0.2,1.6-0.6,2.2C46.1,14.5,45.5,15,44.7,15.3L44.7,15.3z M40,13.4h2.3c0.6,0,1.1-0.1,1.4-0.4c0.4-0.3,0.5-0.7,0.6-1.4
			c0-0.7-0.2-1.2-0.5-1.4s-0.8-0.4-1.5-0.4H40V13.4L40,13.4L40,13.4z"/>
		<path class="st1" d="M48.4,19.4V7.7H57v2.3h-5.8v2.3h5v2.1h-5v2.7H57v2.2H48.4L48.4,19.4L48.4,19.4z"/>
		<path class="st1" d="M63.2,19.5c-1.7,0-3-0.5-4.1-1.6c-1-1-1.6-2.5-1.6-4.3c0.1-2.1,0.7-3.6,1.8-4.6c1.2-1,2.5-1.5,4.1-1.5
			c1.9,0,3.5,0.6,4.7,2l-1.8,1.7c-0.7-0.9-1.7-1.3-3-1.3c-0.8,0-1.5,0.3-2.1,0.9s-0.9,1.6-0.9,2.8c0,1.2,0.3,2.1,0.9,2.7
			s1.3,0.9,2.2,0.9c0.8,0,1.5-0.2,2-0.6s0.8-0.8,1.1-1.4l2.2,1c-0.5,1-1.2,1.8-2,2.4S64.5,19.5,63.2,19.5L63.2,19.5L63.2,19.5z"/>
		<path class="st1" d="M70.6,18.2c-1.2-0.9-1.9-2.5-2-4.6c0.1-2.1,0.7-3.7,2-4.6c1.2-0.9,2.6-1.4,4-1.4c1.4,0,2.7,0.4,4,1.4
			c1.2,0.9,1.9,2.5,2,4.6c-0.1,2.2-0.7,3.7-2,4.6c-1.2,0.9-2.6,1.4-4,1.4C73.2,19.6,71.9,19.1,70.6,18.2z M74.7,17.3
			c0.9,0,1.7-0.3,2.3-1c0.6-0.6,0.9-1.6,0.9-2.7c0-1.2-0.3-2.1-0.9-2.7c-0.6-0.6-1.4-1-2.3-1c-0.9,0-1.7,0.3-2.3,1
			c-0.6,0.6-0.9,1.6-0.9,2.7c0,1.2,0.3,2.1,0.9,2.7C73,17,73.7,17.3,74.7,17.3L74.7,17.3L74.7,17.3z"/>
		<path class="st1" d="M89.1,15.3l2.2,4.1h-3l-2-3.8h-2v3.8h-2.7V7.7h5.7c1.4,0,2.4,0.4,3.1,1.1c0.7,0.7,1.1,1.6,1.1,2.8
			c0,0.8-0.2,1.6-0.6,2.2C90.5,14.5,89.9,15,89.1,15.3L89.1,15.3z M84.4,13.4h2.3c0.6,0,1.1-0.1,1.4-0.4c0.4-0.3,0.5-0.7,0.6-1.4
			c0-0.7-0.2-1.2-0.5-1.4c-0.4-0.3-0.8-0.4-1.5-0.4h-2.3V13.4L84.4,13.4L84.4,13.4z"/>
		<path class="st1" d="M92.7,19.4V7.7h4c1.7,0,3.2,0.4,4.4,1.2s1.9,2.4,1.9,4.6c-0.1,2.2-0.7,3.7-2,4.6s-2.8,1.3-4.6,1.3L92.7,19.4
			L92.7,19.4z M95.5,17.1h1.4c1.2,0,2-0.2,2.6-0.8c0.6-0.5,0.9-1.5,0.9-2.8c0-1.3-0.3-2.2-0.9-2.7c-0.6-0.5-1.6-0.8-2.8-0.8h-1.2
			L95.5,17.1L95.5,17.1L95.5,17.1z"/>
	</g>
</g>
</svg>
