<?xml version="1.0" encoding="utf-8"?>
<!-- Generator: Adobe Illustrator 19.2.0, SVG Export Plug-In . SVG Version: 6.00 Build 0)  -->
<svg version="1.1" id="Layer_1" xmlns="http://www.w3.org/2000/svg" xmlns:xlink="http://www.w3.org/1999/xlink" x="0px" y="0px"
	 viewBox="0 0 202.2 53" style="enable-background:new 0 0 202.2 53;" xml:space="preserve">
<style type="text/css">
	.st0{fill:#287E42;}
	.st1{fill:#231F20;}
	.st2{fill:#4177BB;}
	.st3{fill:#6599CC;}
	.st4{fill:#4587C7;}
	.st5{fill:#406DB5;}
	.st6{fill:#3954A4;}
	.st7{fill:#174E9F;}
</style>
<g>
	<g>
		<g>
			<g>
				<g>
					<path class="st0" d="M27,14.2c0-5.9,4.8-10.7,10.8-10.7c6,0,10.8,4.8,10.8,10.7c0,5.9-4.8,10.7-10.8,10.7H27V14.2z"/>
				</g>
			</g>
			<g>
				<g>
					<path class="st0" d="M27,28h10.8c5.9,0,10.8,4.8,10.8,10.7c0,5.9-4.8,10.7-10.8,10.7c-6,0-10.8-4.8-10.8-10.7V28z"/>
				</g>
			</g>
			<g>
				<g>
					<path class="st0" d="M20.5,31.3v7.4c0,4.1-3.4,7.4-7.5,7.4c-4.1,0-7.5-3.3-7.5-7.4c0-4.1,3.3-7.4,7.5-7.4H20.5 M23.9,28H13
						C7.1,28,2.3,32.8,2.3,38.7c0,5.9,4.8,10.7,10.8,10.7c6,0,10.8-4.8,10.8-10.7V28L23.9,28z"/>
				</g>
			</g>
			<g>
				<g>
					<path class="st0" d="M23.9,25H13C7.1,25,2.3,20.2,2.3,14.2C2.3,8.3,7.1,3.5,13,3.5c6,0,10.8,4.8,10.8,10.7V25z"/>
				</g>
			</g>
		</g>
		<g>
			<g>
				<path class="st1" d="M115.5,42.6c-8.1,0-14.8-6.4-14.8-14.2c0-7.8,6.6-14.2,14.8-14.2c8.2,0,14.8,6.4,14.8,14.2
					C130.3,36.2,123.7,42.6,115.5,42.6z M115.5,20.9c-4.5,0-8.1,3.4-8.1,7.5c0,4.2,3.6,7.5,8.1,7.5c4.5,0,8.1-3.4,8.1-7.5
					C123.7,24.3,120,20.9,115.5,20.9z"/>
			</g>
		</g>
		<g>
			<g>
				<rect x="90.7" y="3.6" class="st1" width="6.6" height="38.1"/>
			</g>
		</g>
		<g>
			<g>
				<path class="st1" d="M195.5,41.7h-6.6V25.9c0-0.8,0.1-4.9,3.1-8.1c2.3-2.4,5.5-3.6,9.5-3.6v6.6c-2.1,0-3.7,0.5-4.7,1.5
					c-1.3,1.3-1.3,3.4-1.3,3.4l0,0.1l0,0V41.7z"/>
			</g>
		</g>
		<g>
			<g>
				<path class="st1" d="M74.6,36c-4.5,0-8.1-3.4-8.1-7.5c0-4.2,3.7-7.5,8.1-7.5c3,0,5.6,1.5,7,3.7l5.5-3.7c-2.6-4-7.2-6.7-12.5-6.7
					c-8.1,0-14.8,6.4-14.8,14.2c0,7.8,6.6,14.2,14.8,14.2c5.4,0,10.2-2.8,12.7-7l-5.4-4C80.6,34.2,77.8,36,74.6,36z"/>
			</g>
		</g>
		<g>
			<g>
				<polygon class="st1" points="144.1,28.1 137,14.6 129.5,14.6 144,42.3 158.9,14.6 151.3,14.6 				"/>
			</g>
		</g>
		<g>
			<g>
				<path class="st1" d="M171.4,36c-3.5,0-6.5-2-7.6-4.9H179l6.9,0c0.2-0.9,0.3-1.7,0.3-2.6c0-7.8-6.6-14.2-14.8-14.2
					c-8.1,0-14.8,6.4-14.8,14.2c0,7.8,6.6,14.2,14.8,14.2c4.4,0,8.3-1.8,11-4.7l-4.5-4.9C176.4,34.8,174.1,36,171.4,36z M171.4,20.9
					c2.9,0,5.4,1.4,6.9,3.5h-13.8C166,22.3,168.5,20.9,171.4,20.9z"/>
			</g>
		</g>
	</g>
</g>
<text transform="matrix(1 0 0 1 216.9155 274.8262)" style="font-family:'Roboto-Medium'; font-size:26.1051px;">Placement Program</text>
<g id="XMLID_1_">
	<g id="XMLID_3_">
		<path id="XMLID_9_" class="st2" d="M1.7-62l21-22.8H44L22.1-61.1c-1,1.1-2.4,1.7-3.9,1.7H2.8C1.5-59.3,0.8-61,1.7-62z"/>
		<path id="XMLID_8_" class="st3" d="M64.9-62l-21-22.8H22.6l21.8,23.7c1,1.1,2.4,1.7,3.9,1.7h15.3C65.1-59.3,65.8-61,64.9-62z"/>
		<polygon id="XMLID_7_" class="st4" points="33.2,-73.1 43.9,-84.7 43.8,-84.7 22.6,-84.7 22.6,-84.7 		"/>
		<path id="XMLID_6_" class="st5" d="M64.9-107.5l-21,22.8H22.6l21.8-23.7c1-1.1,2.4-1.7,3.9-1.7h15.3
			C65.1-110.1,65.8-108.5,64.9-107.5z"/>
		<path id="XMLID_5_" class="st6" d="M1.7-107.5l21,22.8H44l-21.8-23.7c-1-1.1-2.4-1.7-3.9-1.7H2.8C1.5-110.1,0.8-108.5,1.7-107.5z"
			/>
		<polygon id="XMLID_4_" class="st7" points="33.3,-96.3 22.7,-84.8 22.7,-84.7 43.9,-84.7 44,-84.8 		"/>
	</g>
	<g>
		<path d="M75.3-75.8v-18.9c0-1.1,0.9-2,2-2h13.3c1,0,1.8,0.8,1.8,1.8c0,1-0.8,1.8-1.8,1.8H79.3v6h9.9c1,0,1.8,0.8,1.8,1.8
			c0,1-0.8,1.8-1.8,1.8h-9.9v6.2h11.5c1,0,1.8,0.8,1.8,1.8c0,1-0.8,1.8-1.8,1.8H77.3C76.1-73.7,75.3-74.6,75.3-75.8z"/>
		<path d="M96-77l6.8-8.5l-6.4-8c-0.3-0.4-0.6-1-0.6-1.5c0-1.1,0.9-2,2-2c0.9,0,1.3,0.3,1.8,1l5.8,7.6l5.7-7.5
			c0.5-0.7,1.1-1.1,2-1.1c0.9,0,1.8,0.7,1.8,1.8c0,0.6-0.2,1-0.6,1.5l-6.4,8l6.8,8.4c0.3,0.4,0.6,0.9,0.6,1.5c0,1.1-0.9,2-2,2
			c-0.9,0-1.3-0.3-1.8-1l-6.2-8l-6.1,7.9c-0.6,0.7-1.1,1.1-2,1.1c-0.9,0-1.8-0.7-1.8-1.9C95.4-76,95.6-76.5,96-77z"/>
		<path d="M117.8-76.4l8.5-19c0.5-1,1.3-1.6,2.4-1.6h0.2c1.1,0,1.9,0.6,2.4,1.6l8.5,19c0.2,0.3,0.2,0.6,0.2,0.9
			c0,1.1-0.8,1.9-1.9,1.9c-1,0-1.6-0.6-2-1.4l-1.9-4.3h-11.1l-1.9,4.4c-0.3,0.8-1,1.3-1.9,1.3c-1,0-1.9-0.8-1.9-1.9
			C117.5-75.7,117.6-76,117.8-76.4z M132.8-82.9l-4-9.3l-4,9.3H132.8z"/>
		<path d="M146.8-92.9h-5.6c-1,0-1.9-0.9-1.9-1.9s0.8-1.9,1.9-1.9h15.2c1,0,1.8,0.9,1.8,1.9s-0.8,1.9-1.8,1.9h-5.6v17.4
			c0,1.1-0.9,2-2,2c-1.1,0-2-0.9-2-2V-92.9z"/>
		<path d="M159.5-85.1L159.5-85.1c0-6.5,5-11.9,12-11.9s12,5.3,12,11.8v0.1c0,6.5-5,11.9-12,11.9S159.5-78.7,159.5-85.1z
			 M179.2-85.1L179.2-85.1c0-4.5-3.2-8.2-7.8-8.2s-7.7,3.6-7.7,8.1v0.1c0,4.5,3.2,8.1,7.8,8.1C176.1-77.1,179.2-80.7,179.2-85.1z"/>
		<path d="M187.3-83.5v-11.4c0-1.1,0.9-2,2-2c1.1,0,2,0.9,2,2v11.2c0,4.3,2.2,6.5,5.8,6.5c3.6,0,5.8-2.1,5.8-6.4v-11.4
			c0-1.1,0.9-2,2-2c1.1,0,2,0.9,2,2v11.2c0,6.9-3.9,10.3-9.9,10.3C191.1-73.4,187.3-76.8,187.3-83.5z"/>
		<path d="M210.8-85.1L210.8-85.1c0-6.6,4.9-11.9,11.8-11.9c3.5,0,5.9,1,7.9,2.6c0.4,0.3,0.8,0.9,0.8,1.6c0,1.1-0.9,2-2,2
			c-0.6,0-1-0.2-1.2-0.4c-1.6-1.3-3.3-2.1-5.5-2.1c-4.4,0-7.6,3.6-7.6,8.1v0.1c0,4.5,3.2,8.1,7.6,8.1c2.4,0,4.1-0.8,5.7-2.2
			c0.3-0.3,0.7-0.5,1.2-0.5c1,0,1.9,0.9,1.9,1.9c0,0.6-0.3,1.1-0.7,1.4c-2.2,1.9-4.6,3.1-8.3,3.1C215.8-73.3,210.8-78.6,210.8-85.1z
			"/>
		<path d="M235.4-94.8c0-1.1,0.9-2,2-2c1.1,0,2,0.9,2,2v7.7h10.9v-7.7c0-1.1,0.9-2,2-2c1.1,0,2,0.9,2,2v19.3c0,1.1-0.9,2-2,2
			c-1.1,0-2-0.9-2-2v-7.8h-10.9v7.8c0,1.1-0.9,2-2,2c-1.1,0-2-0.9-2-2V-94.8z"/>
	</g>
</g>
</svg>
