<?xml version="1.0" encoding="utf-8"?>
<!-- Generator: Adobe Illustrator 16.0.3, SVG Export Plug-In . SVG Version: 6.00 Build 0)  -->
<!DOCTYPE svg PUBLIC "-//W3C//DTD SVG 1.1//EN" "http://www.w3.org/Graphics/SVG/1.1/DTD/svg11.dtd">
<svg version="1.1" id="Layer_1" xmlns="http://www.w3.org/2000/svg" xmlns:xlink="http://www.w3.org/1999/xlink" x="0px" y="0px"
	 width="372.667px" height="183.625px" viewBox="0 0 372.667 183.625" enable-background="new 0 0 372.667 183.625"
	 xml:space="preserve">
<g>
	<g>
		<g>
			<polygon fill="#005DAA" points="29.25,130.453 29.25,180.408 46.971,180.408 29.471,130.453 			"/>
			<path fill="#005DAA" d="M92.475,73.45c4.986,0,7.313-2.88,7.313-8.75V4.333H85.164V64.7C85.164,70.57,87.49,73.45,92.475,73.45z"
				/>
			<path fill="#005DAA" d="M113.521,4.333v59.813c0,13.734-7.977,21.266-21.047,21.266S71.43,77.88,71.43,64.146V4.333h-26.24
				c8.793,2.908,13.08,11.221,13.08,20.823v5.87H44.535v-6.202c0-6.757-3.102-9.636-6.646-9.636c-5.537,0-7.311,2.879-7.311,8.86
				v40.54c0,5.98,1.773,8.86,7.311,8.86c4.984,0,6.646-2.88,6.646-8.085v-9.637H58.27v9.193c0,11.297-6.646,20.49-20.381,20.49
				c-14.398,0-21.045-9.193-21.045-20.49V23.716c0-8.99,4.225-16.629,13.199-19.383H4.438v176.074h12.406v-79.973h12.738
				l16.725,45.746h0.223v-45.746h12.404v79.973h26.449v-33.23l-16.615-46.742h13.957l9.635,30.461h0.223l9.193-30.461h13.957
				l-16.615,46.742v33.23h81.395V4.333H113.521z"/>
			<path fill="#FFFFFF" d="M16.844,23.716v41.205c0,11.297,6.646,20.49,21.045,20.49c13.734,0,20.381-9.193,20.381-20.49v-9.193
				H44.535v9.637c0,5.205-1.662,8.085-6.646,8.085c-5.537,0-7.311-2.88-7.311-8.86v-40.54c0-5.981,1.773-8.86,7.311-8.86
				c3.545,0,6.646,2.879,6.646,9.636v6.202H58.27v-5.87c0-9.603-4.287-17.915-13.08-20.823H30.043
				C21.068,7.087,16.844,14.726,16.844,23.716z"/>
			<polygon fill="#FFFFFF" points="46.529,100.435 46.529,146.181 46.307,146.181 29.582,100.435 16.844,100.435 16.844,180.408 
				29.25,180.408 29.25,130.453 29.471,130.453 46.971,180.408 58.934,180.408 58.934,100.435 			"/>
			<polygon fill="#FFFFFF" points="115.732,100.435 101.775,100.435 92.582,130.896 92.359,130.896 82.725,100.435 68.768,100.435 
				85.383,147.177 85.383,180.408 99.117,180.408 99.117,147.177 			"/>
			<path fill="#FFFFFF" d="M92.475,85.412c13.07,0,21.047-7.531,21.047-21.266V4.333H99.787V64.7c0,5.87-2.326,8.75-7.313,8.75
				c-4.984,0-7.311-2.88-7.311-8.75V4.333H71.43v59.813C71.43,77.88,79.404,85.412,92.475,85.412z"/>
		</g>
	</g>
	<g>
		<path fill="#005DAA" d="M191.917,4.333h22.65V6.81h-9.813v30.627h-3.025V6.81h-9.813V4.333z"/>
		<path fill="#005DAA" d="M218.832,37.437V4.333h2.752v13.021c2.566-2.66,4.676-4.218,8.16-4.218c4.953,0,7.061,2.843,7.061,8.023
			v16.277h-2.75V21.436c0-3.943-1.191-6.098-4.859-6.098c-2.936,0-4.586,1.788-7.611,4.539v17.561H218.832z"/>
		<path fill="#005DAA" d="M243.132,25.608c0,5.41,2.248,10.087,7.658,10.087c3.072,0,4.584-1.055,6.969-4.814l2.246,1.192
			c-2.566,4.218-4.906,5.823-9.445,5.823c-6.234,0-10.178-3.989-10.178-12.379c0-7.382,3.76-12.379,9.813-12.379
			c6.465,0,9.535,5.089,9.535,12.471H243.132z M256.98,23.407c-0.551-4.906-2.705-8.023-6.877-8.069
			c-4.861-0.046-6.924,4.906-6.971,8.069H256.98z"/>
		<path fill="#005DAA" d="M294.164,14.054c-1.422-4.86-4.08-7.703-8.07-7.703c-6.557,0-9.445,6.419-9.445,14.534
			s2.889,14.534,9.768,14.534c5.318,0,7.244-3.759,8.344-8.069l2.844,0.504c-1.238,5.915-4.311,10.041-11.234,10.041
			c-8.023,0-12.746-6.786-12.746-17.01s4.723-17.01,12.746-17.01c5.914,0,9.17,4.172,10.592,9.583L294.164,14.054z"/>
		<path fill="#005DAA" d="M302.234,8.368V4.333h2.75v4.035H302.234z M304.984,37.437h-2.75V13.595h2.75V37.437z"/>
		<path fill="#005DAA" d="M312.732,13.595V5.801h2.752v7.794h5.227v2.201h-5.227v17.469c0,1.605,0.732,2.43,2.43,2.43
			c0.916,0,1.926-0.229,2.797-0.504v2.292c-0.918,0.138-1.881,0.413-2.797,0.413c-3.898,0-5.182-1.284-5.182-4.172V15.796h-3.576
			v-2.201H312.732z"/>
		<path fill="#005DAA" d="M333.41,32.99h0.092l6.648-19.395h2.934l-8.895,25.538c-1.604,4.677-3.301,6.74-7.611,6.74
			c-1.191,0-1.926-0.092-2.566-0.275v-2.247c0.824,0.092,1.695,0.321,2.75,0.321c1.926,0,4.035-1.696,5.365-6.602l-8.299-23.475
			h3.025L333.41,32.99z"/>
		<path fill="#005DAA" d="M195.944,52.266v22.558c0,6.327,3.072,8.528,8.941,8.528s8.939-2.201,8.939-8.528V52.266h3.027v22.283
			c0,7.519-3.943,11.279-11.967,11.279s-11.967-3.76-11.967-11.279V52.266H195.944z"/>
		<path fill="#005DAA" d="M221.756,85.37V61.528h2.752v3.76c2.566-2.66,4.676-4.218,8.16-4.218c4.953,0,7.061,2.843,7.061,8.023
			V85.37h-2.75V69.368c0-3.943-1.191-6.098-4.859-6.098c-2.936,0-4.586,1.788-7.611,4.539V85.37H221.756z"/>
		<path fill="#005DAA" d="M244.911,56.301v-4.035h2.752v4.035H244.911z M247.663,85.37h-2.752V61.528h2.752V85.37z"/>
		<path fill="#005DAA" d="M251.559,61.528h2.934l6.512,19.624h0.092l6.602-19.624h2.936l-8.209,23.842h-2.705L251.559,61.528z"/>
		<path fill="#005DAA" d="M274.528,73.541c0,5.41,2.248,10.087,7.658,10.087c3.072,0,4.584-1.055,6.969-4.814l2.246,1.192
			c-2.566,4.218-4.906,5.823-9.445,5.823c-6.234,0-10.178-3.989-10.178-12.379c0-7.382,3.76-12.379,9.813-12.379
			c6.465,0,9.535,5.089,9.535,12.471H274.528z M288.375,71.339c-0.551-4.906-2.705-8.023-6.877-8.069
			c-4.861-0.046-6.924,4.906-6.971,8.069H288.375z"/>
		<path fill="#005DAA" d="M295.483,85.37V61.528h2.75v4.539h0.092c1.285-2.935,3.852-4.998,6.878-4.998h1.236v2.659h-1.236
			c-3.027,0-6.97,3.576-6.97,8.161v13.48H295.483z"/>
		<path fill="#005DAA" d="M310.107,79.593c2.246,3.209,4.264,4.035,7.383,4.035c3.025,0,5.318-1.972,5.318-4.539
			c0-6.923-14.031-3.026-14.031-11.508c0-4.494,3.531-6.511,7.566-6.511c3.988,0,6.51,1.559,8.207,4.31l-2.109,1.467
			c-1.605-2.201-3.348-3.576-6.189-3.576c-2.66,0-4.723,1.284-4.723,4.172c0,5.823,14.029,2.384,14.029,11.646
			c0,4.264-3.943,6.74-8.252,6.74c-3.668,0-6.971-1.467-9.217-4.814L310.107,79.593z"/>
		<path fill="#005DAA" d="M330.098,56.301v-4.035h2.75v4.035H330.098z M332.848,85.37h-2.75V61.528h2.75V85.37z"/>
		<path fill="#005DAA" d="M340.139,61.528v-7.794h2.75v7.794h5.227v2.201h-5.227v17.469c0,1.605,0.734,2.43,2.43,2.43
			c0.918,0,1.926-0.229,2.797-0.504v2.292c-0.916,0.138-1.879,0.413-2.797,0.413c-3.896,0-5.18-1.284-5.18-4.172V63.729h-3.578
			v-2.201H340.139z"/>
		<path fill="#005DAA" d="M360.586,80.922h0.092l6.648-19.395h2.934l-8.895,25.538c-1.604,4.677-3.301,6.74-7.611,6.74
			c-1.191,0-1.926-0.092-2.566-0.275v-2.247c0.824,0.092,1.695,0.321,2.75,0.321c1.926,0,4.035-1.696,5.365-6.602l-8.299-23.475
			h3.025L360.586,80.922z"/>
		<path fill="#005DAA" d="M212.459,120.849c0,6.465-2.385,12.379-9.811,12.379c-7.428,0-9.813-5.914-9.813-12.379
			s2.385-12.381,9.813-12.381C210.075,108.468,212.459,114.384,212.459,120.849z M195.586,120.849
			c0,6.465,2.156,10.178,7.063,10.178c4.904,0,7.061-3.713,7.061-10.178s-2.156-10.18-7.061-10.18
			C197.743,110.669,195.586,114.384,195.586,120.849z"/>
		<path fill="#005DAA" d="M220.575,111.128v21.641h-2.75v-21.641h-3.943v-2.201h3.943v-3.393c0-4.127,1.65-6.328,5.73-6.328
			c1.01,0,1.973,0.184,2.98,0.367v2.293c-0.871-0.275-1.695-0.459-2.705-0.459c-2.154,0-3.256,1.055-3.256,3.807v3.713h4.861v2.201
			H220.575z"/>
		<path fill="#005DAA" d="M192.918,147.304h5.088l15.727,27.602h0.092v-27.602h3.027v33.104h-3.119l-17.697-30.629h-0.092v30.629
			h-3.025V147.304z"/>
		<path fill="#005DAA" d="M224.002,168.578c0,5.41,2.248,10.088,7.658,10.088c3.072,0,4.584-1.055,6.969-4.814l2.246,1.191
			c-2.566,4.219-4.906,5.822-9.445,5.822c-6.234,0-10.178-3.988-10.178-12.379c0-7.381,3.76-12.379,9.813-12.379
			c6.465,0,9.535,5.09,9.535,12.471H224.002z M237.85,166.376c-0.551-4.904-2.705-8.023-6.877-8.068
			c-4.861-0.047-6.924,4.906-6.971,8.068H237.85z"/>
		<path fill="#005DAA" d="M242.848,156.566h2.797l5.227,19.164h0.092l5.457-19.164h2.705l5.318,19.164h0.092l5.363-19.164h2.844
			l-6.924,23.842h-2.705l-5.365-19.166h-0.09l-5.32,19.166h-2.842L242.848,156.566z"/>
		<path fill="#005DAA" d="M292.319,166.376l-10.133-19.072h3.393l8.162,16.367l8.711-16.367h3.392l-10.498,19.072v14.031h-3.027
			V166.376z"/>
		<path fill="#005DAA" d="M322.305,168.486c0,6.465-2.385,12.379-9.811,12.379c-7.428,0-9.812-5.914-9.812-12.379
			s2.384-12.379,9.812-12.379C319.92,156.107,322.305,162.021,322.305,168.486z M305.432,168.486c0,6.465,2.156,10.18,7.063,10.18
			c4.904,0,7.061-3.715,7.061-10.18s-2.156-10.178-7.061-10.178C307.588,158.308,305.432,162.021,305.432,168.486z"/>
		<path fill="#005DAA" d="M326.156,180.408v-23.842h2.752v4.539H329c1.283-2.936,3.852-4.998,6.877-4.998h1.238v2.658h-1.238
			c-3.025,0-6.969,3.578-6.969,8.162v13.48H326.156z"/>
		<path fill="#005DAA" d="M340.92,180.408v-33.104h2.75v21.916l11.051-12.654h3.162l-7.748,8.895l8.941,14.947h-3.072l-7.611-13.021
			l-4.723,5.318v7.703H340.92z"/>
	</g>
</g>
</svg>
