<?xml version="1.0" encoding="utf-8"?>
<!-- Generator: Adobe Illustrator 19.2.0, SVG Export Plug-In . SVG Version: 6.00 Build 0)  -->
<svg version="1.1" id="Layer_1" xmlns="http://www.w3.org/2000/svg" xmlns:xlink="http://www.w3.org/1999/xlink" x="0px" y="0px"
	 viewBox="0 0 248 103" style="enable-background:new 0 0 248 103;" xml:space="preserve">
<style type="text/css">
	.st0{fill:#FFFFFF;}
</style>
<g>
	<path class="st0" d="M85.9,49.4c2.3,0,3,2.1,3,3.3c0,0-6.3,0-6.3,0C82.6,51,83.8,49.4,85.9,49.4z M92.6,59.2
		c-0.7,0.2-1.4,0.4-2.1,0.6c-0.8,0.2-1.7,0.3-2.5,0.3c-2.8,0-4.9-0.9-5.3-3.1h11.8c0.1-0.4,0.2-1.4,0.2-2.5c0-5-2.5-9.6-8.8-9.6
		c-6.1,0-9.4,4.8-9.4,10.2c0,6.2,4.3,9.8,10.4,9.8c1.5,0,2.7-0.1,3.6-0.3c1-0.2,2-0.5,2.9-0.9L92.6,59.2z"/>
	<path class="st0" d="M177.4,49.4c2.3,0,3,2.1,3,3.3c0,0-6.3,0-6.3,0C174.2,51,175.3,49.4,177.4,49.4z M184.2,59.2
		c-0.7,0.2-1.4,0.4-2.1,0.6c-0.8,0.2-1.7,0.3-2.5,0.3c-2.8,0-4.9-0.9-5.3-3.1h11.8c0.1-0.4,0.2-1.4,0.2-2.5c0-5-2.5-9.6-8.8-9.6
		c-6.1,0-9.4,4.8-9.4,10.2c0,6.2,4.3,9.8,10.4,9.8c1.5,0,2.7-0.1,3.6-0.3c1-0.2,2-0.5,2.9-0.9L184.2,59.2z"/>
	<path class="st0" d="M97.7,38.5v25.9h6.4V38.5H97.7z"/>
	<path class="st0" d="M116.9,60.1c-2.1,0-3.4-2.1-3.4-5.2c0-2.5,0.9-5.2,3.5-5.2c2.5,0,3.3,2.8,3.3,5.2
		C120.3,58.1,118.9,60.1,116.9,60.1z M116.8,64.9c5,0,10-3.1,10-10.2c0-4.2-2.5-9.8-9.7-9.8c-7.5,0-10.2,5.4-10.2,10.1
		C106.9,60.9,111,64.9,116.8,64.9z"/>
	<path class="st0" d="M129.6,45.3v19.1h6.4V45.3H129.6z"/>
	<path class="st0" d="M129.6,38.6v5h6.4v-5H129.6z"/>
	<path class="st0" d="M141.1,40.1v5.2h-2.5v4.7h2.5v7.8c0,4.3,2,6.9,6.5,6.9c0.8,0,1.8-0.1,2.7-0.2c0.8-0.1,1.5-0.3,1.8-0.4
		c0,0,0-5,0-5c-0.2,0.1-1.7,0.3-2.2,0.3c-0.5,0-1.3-0.1-1.8-0.6c-0.4-0.4-0.7-1-0.7-2.1v-6.8h4.1v-4.7c0,0-3.6,0-4.1,0
		c0-0.6,0-5.9,0-5.9L141.1,40.1z"/>
	<path class="st0" d="M155.9,40.1v5.2h-2.5v4.7h2.5v7.8c0,4.3,2,6.9,6.5,6.9c0.8,0,1.8-0.1,2.7-0.2c0.8-0.1,1.5-0.3,1.8-0.4
		c0,0,0-5,0-5c-0.2,0.1-1.7,0.3-2.2,0.3c-0.5,0-1.3-0.1-1.8-0.6c-0.4-0.4-0.7-1-0.7-2.1v-6.8h4.1v-4.7c0,0-3.6,0-4.1,0
		c0-0.6,0-5.9,0-5.9L155.9,40.1z"/>
	<circle class="st0" cx="192.6" cy="61.3" r="3.5"/>
	<path class="st0" d="M51.8,64.5h7.2c0.5,0,1.1,0,1.5,0c9.9-0.5,14-6.4,14-13.1c0-8.5-5.7-13.2-15.5-13.2c-2.5,0-4.8,0.1-7.3,0.3
		V64.5z M61.1,59.3c-0.3,0-0.7,0-0.9,0h-2c0,0,0-15.9,0-15.9c0.7-0.1,1.6-0.1,2.2-0.1c3.7,0,7.7,2.4,7.7,8
		C68,57.1,64.3,59.1,61.1,59.3z"/>
</g>
</svg>
