<?xml version="1.0" encoding="utf-8"?>
<!-- Generator: Adobe Illustrator 18.1.1, SVG Export Plug-In . SVG Version: 6.00 Build 0)  -->
<svg version="1.1" id="Layer_1" xmlns="http://www.w3.org/2000/svg" xmlns:xlink="http://www.w3.org/1999/xlink" x="0px" y="0px"
	 viewBox="0 309 864 176" enable-background="new 0 309 864 176" xml:space="preserve">
<g id="Layer_2" display="none">
	<g display="inline">
		<rect x="-375.5" y="669.4" fill="#F9F9FA" width="242" height="5949"/>
		<rect x="0.9" y="669.4" fill="#F9F9FA" width="242" height="5949"/>
		<rect x="376.9" y="669.4" fill="#F9F9FA" width="242" height="5949"/>
		<rect x="753.3" y="669.4" fill="#F9F9FA" width="242" height="5949"/>
		<rect x="1129.3" y="669.4" fill="#F9F9FA" width="242" height="5949"/>
		<rect x="1505.3" y="669.4" fill="#F9F9FA" width="242" height="5949"/>
		<rect x="1881.7" y="669.4" fill="#F9F9FA" width="242" height="5949"/>
		<rect x="2257.7" y="669.4" fill="#F9F9FA" width="242" height="5949"/>
		<rect x="2634.1" y="669.4" fill="#F9F9FA" width="242" height="5949"/>
		<rect x="3010.1" y="669.4" fill="#F9F9FA" width="242" height="5949"/>
		<rect x="3386.1" y="669.4" fill="#F9F9FA" width="242" height="5949"/>
		<rect x="3762.5" y="669.4" fill="#F9F9FA" width="242" height="5949"/>
	</g>
	<g display="inline">
		<rect x="7849.5" y="669.4" fill="#F9F9FA" width="121" height="13842.4"/>
		<rect x="8024.3" y="669.4" fill="#F9F9FA" width="121" height="13842.4"/>
		<rect x="8199" y="669.4" fill="#F9F9FA" width="121" height="13842.4"/>
		<rect x="8373.8" y="669.4" fill="#F9F9FA" width="121" height="13842.4"/>
		<rect x="8548.6" y="669.4" fill="#F9F9FA" width="121" height="13842.4"/>
		<rect x="8723.4" y="669.4" fill="#F9F9FA" width="121" height="13842.4"/>
		<rect x="8898.1" y="669.4" fill="#F9F9FA" width="121" height="13842.4"/>
		<rect x="9072.9" y="669.4" fill="#F9F9FA" width="121" height="13842.4"/>
	</g>
	<g display="inline">
		<rect x="4281.5" y="669.4" fill="#F9F9FA" width="197.2" height="5953"/>
		<rect x="4567.8" y="669.4" fill="#F9F9FA" width="197.2" height="5953"/>
		<rect x="4854.2" y="669.4" fill="#F9F9FA" width="197.2" height="5953"/>
		<rect x="5140.5" y="669.4" fill="#F9F9FA" width="197.2" height="5953"/>
		<rect x="5426.9" y="669.4" fill="#F9F9FA" width="197.2" height="5953"/>
		<rect x="5713.2" y="669.4" fill="#F9F9FA" width="197.2" height="5953"/>
		<rect x="5999.6" y="669.4" fill="#F9F9FA" width="197.2" height="5953"/>
		<rect x="6286" y="669.4" fill="#F9F9FA" width="197.2" height="5953"/>
		<rect x="6572.3" y="669.4" fill="#F9F9FA" width="197.2" height="5953"/>
		<rect x="6859.1" y="669.4" fill="#F9F9FA" width="197.2" height="5953"/>
		<rect x="7145.5" y="669.4" fill="#F9F9FA" width="197.2" height="5953"/>
		<rect x="7431.8" y="669.4" fill="#F9F9FA" width="197.2" height="5953"/>
	</g>
</g>
<g>
	<g>
		<path fill="#BB2025" d="M154.2,416.6l-8.5-8.1c-0.9-0.9-3.1-2.2-5.4-3.1c-2.2,5.8-7.2,11.7-8.1,12.1l-4,4.5l-1.3-5.8
			c-1.8-7.2-3.6-13.4-5.4-19.3H117v73.9h67.7c7.2,0,13-5.8,13-13v-60.5h-49.7c2.2,4.9,3.1,8.1,3.1,8.1L154.2,416.6z"/>
		<path fill="#BB2025" d="M85.6,397.3c-1.8,5.4-3.6,11.7-5.4,19.3l-1.3,5.8l-4-4.5c-0.9-0.9-5.8-6.3-8.1-12.1
			c-2.2,0.9-4.5,2.2-5.8,3.1l-7.6,5.8l2.7-9.4c0-0.4,0.9-3.6,3.1-8.1H9.9v60.9c0,7.2,5.8,13,13,13h67.2v-73.9H85.6z"/>
		<path fill="#BB2025" d="M51.1,363.3c-3.6-1.3-6.3-3.1-8.5-5.4H22.9c-7.2,0-13,5.8-13,13v7.6h59.6c2.7-3.1,5.4-6.7,9-10.3
			C69.9,368.2,60,366.4,51.1,363.3z"/>
		<path fill="#BB2025" d="M155.1,363.3c-9,3.1-18.8,4.9-27.3,4.9c3.6,3.6,6.3,7.2,9,10.3h59.6v-7.6c0-7.2-5.8-13-13-13h-20.2
			C160.9,360.1,158.2,361.9,155.1,363.3z"/>
	</g>
</g>
<path fill="#BB2025" d="M141.6,316.2c-12.5,0-30.5,13-35,35H99c-4.5-21.5-22.9-35-35-35c-13.4,0-18.8,11.2-18.8,11.2
	s-13.4,26,7.2,33.2c9,3.1,18.8,4.9,27.8,4.9c2.7,0,5.4,0,8.1-0.4c-23.8,20.2-29.6,41.7-29.6,41.7c2.7-2.2,9.9-5.4,9.9-5.4
	c0.9,6.3,8.1,14.3,8.1,14.3c5.8-22.4,12.1-36.7,16.6-44.8v100.4h19.3V370c4.5,8.1,11.2,22.4,17,45.3c0,0,7.6-8.1,8.1-14.3
	c0,0,7.2,2.7,9.9,5.4c0,0-5.8-21.5-29.6-41.7c2.2,0.4,4.9,0.4,8.1,0.4c8.5,0,18.4-1.8,27.8-4.9c20.6-7.2,7.2-33.2,7.2-33.2
	S155.5,316.2,141.6,316.2z M53.8,332.8c2.2-0.4,4-0.4,5.8-0.4c20.2,0,28.7,15.2,31.8,23.3C79.3,354.8,60.9,350.3,53.8,332.8z
	 M114.3,355.7c3.1-7.6,11.7-23.3,31.8-23.3c1.8,0,4,0,5.8,0.4C144.7,350.3,126.4,354.8,114.3,355.7z"/>
<g>
	<path fill="#BB2025" d="M240.6,388.8c1.3-2.7,3.1-4.9,5.4-6.7c2.2-1.8,4.5-3.6,7.2-4.9c2.7-1.3,5.4-2.2,8.5-2.7
		c3.1-0.4,5.8-0.9,8.5-0.9c2.7,0,5.4,1.3,7.6,2.7c2.2,1.8,3.6,4,4.5,6.7c0.9,2.7,0.9,5.8,0.4,9c-0.4,3.1-1.8,6.7-4.5,9.9
		c-2.7,3.6-5.4,6.3-8.1,8.1c-2.7,1.8-5.4,3.1-8.1,4s-5.4,1.3-8.1,1.3c0,3.6,0.4,6.7,1.3,9.4c0.4,1.3,0.9,2.2,1.3,3.1
		s1.3,1.8,2.2,2.7s1.8,1.3,3.1,1.8s2.7,0.4,4.5,0c3.6-0.4,6.3-1.8,8.5-4c2.2-1.8,4-4,5.4-5.8c1.3-2.2,2.7-3.6,3.6-5.4
		c0.9-1.3,1.8-2.2,2.7-1.8c0.9,0.4,1.8,1.8,1.8,3.6c0,1.8-0.4,4-1.3,6.7c-0.9,2.7-2.2,5.4-4.5,8.1c-1.8,2.7-4.5,4.9-7.2,7.2
		c-2.7,1.8-6.3,3.1-9.9,4c-3.6,0.9-8.1,0.4-12.5-0.9c-3.6-1.3-6.7-3.1-9.4-5.4c-2.7-2.7-4.5-5.4-5.8-8.5c-1.3-3.1-2.2-6.7-2.7-10.8
		c-0.4-3.6-0.4-7.6,0-11.2c0.4-3.6,0.9-7.2,2.2-10.8C237.5,393.8,238.9,391.1,240.6,388.8z M254.1,404.5c1.3,0,2.7-0.4,4-1.3
		c1.3-0.4,2.7-1.3,4.5-2.2s3.1-2.2,4.9-4c1.8-1.8,3.1-3.1,3.6-4.9c0.4-1.3,0.9-2.7,0.9-4s0-2.2-0.4-3.6c-1.3-0.4-2.7-0.4-4.5,0
		c-1.3,0.4-2.7,1.3-4.5,2.2c-1.8,1.3-3.1,3.1-4.9,5.4c-1.3,1.8-2.2,3.6-2.7,4.9c-0.4,1.3-0.9,2.7-1.3,3.6
		C253.6,402.7,253.6,403.6,254.1,404.5z"/>
	<path fill="#BB2025" d="M351.3,471.3c-2.7,2.2-5.4,3.6-9,4.5c-3.1,0.9-6.3,1.3-9.4,0.9c-3.1-0.4-5.8-1.3-8.1-2.7s-3.6-3.6-4-6.3
		c-0.4-2.7-0.4-5.8,0-8.5c0.4-2.7,1.3-5.4,2.7-7.6s2.7-4.9,4.5-7.2s4-4.5,6.3-6.7c2.7-2.7,5.4-4.9,8.1-6.7c2.7-1.8,5.4-3.6,8.1-5.4
		c0-1.8,0-4,0-6.7c0-2.7,0-6.3,0-9.4c0-3.6,0-6.7-0.4-10.3s-0.4-6.7-0.9-9.9c-2.2,5.8-4,11.2-6.3,16.6s-4.5,10.3-7.2,15.2
		c-2.7,4.5-5.8,8.5-9.4,12.1c-3.6,3.6-7.6,5.8-12.5,7.6c-3.6,1.3-6.7,1.3-9.4,0.4c-2.7-0.9-4.9-2.7-6.3-4.9c-1.8-2.2-3.1-5.4-4-9
		c-0.9-3.6-1.3-7.2-1.8-10.8c0-3.6,0-7.6,0.4-11.2s0.9-7.2,1.8-9.9c1.3-4.9,3.6-10.3,5.8-15.7c2.7-5.4,5.4-10.8,9-15.2
		c3.6-4.9,7.2-9,11.2-12.5c4-3.6,8.1-5.8,12.5-6.7c3.1-0.9,5.8-0.9,8.1,0c2.2,0.9,4.5,1.8,6.7,3.1c1.8,1.3,3.6,3.1,4.9,4.9
		s2.2,3.6,3.1,5.4s0.9,3.1,0.9,4.5s-0.4,1.8-0.9,2.2c-1.3,0.4-2.7-0.4-4.5-2.7c-1.8-1.8-4-4-6.7-7.2c-0.9-0.9-2.2-1.3-4-0.9
		c-1.8,0-3.1,0.9-4.9,1.8c-1.8,0.9-3.6,2.2-5.4,4c-1.8,1.8-3.6,3.6-4.9,6.3c-2.7,4-5.4,8.1-7.2,12.1c-2.2,4-3.6,8.1-4.9,12.1
		c-1.3,4-2.2,8.5-2.7,13c-0.4,4.5-0.4,9.4-0.4,14.3c0,4.5,0.4,7.6,1.8,9c1.3,1.3,2.7,1.8,4.5,1.3c1.8-0.4,4-2.2,6.3-4.5
		c2.2-2.2,4.5-4.9,6.7-8.5c2.2-3.1,4-6.7,5.8-10.3c1.8-3.6,3.1-7.2,4-10.3c0.9-2.7,1.8-5.4,3.1-8.1c1.3-2.7,3.1-5.4,4.9-7.2
		c1.8-1.8,4-3.1,6.3-3.6c2.2-0.4,4.9,0,8.1,2.2c0.9,0.9,1.8,2.2,2.2,4c0.4,2.2,1.3,4.5,1.3,7.6c0.4,2.7,0.9,5.8,0.9,9
		s0.4,6.3,0.4,9.4s0,5.8,0,8.1s0,4,0,5.4c1.3-0.9,2.2-1.3,4-2.7c1.8-1.3,2.7-1.8,4.5-2.7c1.3-0.4,2.7-0.9,4-0.9
		c1.3,0,2.2,0.4,3.6,1.3c0.9,0.9,0.9,1.8,0,3.1c-0.9,1.3-2.2,2.7-4,4s-3.6,3.1-5.8,4.5c-2.2,1.3-4,3.1-5.8,4.5c0,0-0.4,1.8-0.4,4.5
		c0,2.7-0.4,6.3-1.3,10.3s-2.2,8.1-4,12.5C359.4,465,355.4,468.1,351.3,471.3z M351.3,438.6c-2.2,1.3-4.5,3.1-6.7,4.9
		c-1.8,1.8-3.6,3.6-5.4,5.8c-1.8,2.2-3.1,4.9-4,7.6c-0.4,3.1-0.4,5.4,0,6.7s1.3,2.2,2.7,2.2c1.3,0,2.7-0.4,4.5-1.3
		c1.8-0.9,3.1-2.2,4.9-4c1.8-1.3,3.1-3.1,3.6-5.8c0.4-2.2,0.9-4.9,0.9-7.2C352.2,444.8,351.8,441.7,351.3,438.6z"/>
	<path fill="#BB2025" d="M373.7,405.9c0.4-2.2,0.9-4.5,1.3-6.7c0.4-2.2,0.9-4,1.8-5.8c0.9-1.8,1.3-3.6,2.2-4.9
		c0.9-1.3,1.8-2.2,2.7-2.7c0.9-0.4,2.2-0.9,4-1.3c1.8-0.4,3.1-0.9,4.9-0.4c1.3,0,2.7,0.9,3.6,2.2s0.9,3.1,0,6.3
		c-0.4,1.8-0.9,3.6-0.9,6.3c-0.4,2.7-0.4,4.9-0.4,8.1c0,2.7,0,5.8,0,8.5c0,2.7,0.4,5.4,0.9,8.1c0.4,2.7,1.3,4.5,2.2,6.3
		c0.9,1.8,2.2,2.7,3.6,3.1c2.7,0.9,5.4,0.9,7.2-0.4c2.2-1.3,4-3.1,5.8-5.4c0.9-0.9,1.3-1.8,2.2-2.7c0.9-0.9,1.8-0.9,2.2-0.9
		c0.4,0,0.9,0.9,0.9,1.8c0,1.3-0.4,3.1-1.8,5.8c-1.3,2.7-3.1,5.4-4.9,7.6c-2.2,2.2-4.5,3.6-6.7,4.9c-2.7,1.3-5.4,1.8-8.1,2.2
		c-2.7,0-5.8-0.4-8.5-1.3c-2.7-0.9-5.4-2.2-7.2-4c-1.8-1.8-3.1-4-4.5-7.2c-0.9-3.1-1.8-6.7-2.2-10.8
		C373.7,417.1,373.7,412.1,373.7,405.9z M380.5,354.3c0.9-2.2,2.7-3.6,4.9-4c2.2-0.4,4.5-0.4,6.3,0c2.2,0.4,4,1.8,5.4,3.1
		c1.3,1.3,2.2,3.1,1.8,4.9c-0.4,2.2-1.8,4-3.6,5.8c-2.2,1.8-5.4,2.2-9.4,1.8c-1.3,0-2.2-0.4-3.1-1.3c-0.9-0.9-1.8-1.8-2.2-2.7
		s-0.9-2.2-0.9-3.6C379.6,356.6,380,355.2,380.5,354.3z"/>
	<path fill="#BB2025" d="M454,343.1c0,1.3-0.9,2.2-2.2,2.7c-1.3,0.4-3.1,0.4-4.9,0.4c-1.8,0-3.1,0.4-4.9,0.9
		c-1.8,0.4-3.1,1.3-3.6,2.7c-0.9,1.3-1.3,3.1-1.8,5.4c-0.4,2.2-0.9,4.5-0.9,6.7c-0.4,2.7-0.4,4.9-0.4,7.6c0,2.7,0,5.4,0,8.1
		c0,5.8,0,12.5,0.4,19.3c0.9-0.4,2.2-0.4,4-0.9c1.3-0.4,3.1-0.4,4.9-0.9c2.2-0.4,4.5-0.9,7.2-1.3c2.7-0.4,5.4-0.4,6.7,0
		c1.8,0.4,2.7,0.9,3.6,1.8c0.4,0.9,0.4,1.3,0,2.2c-0.4,0.9-1.8,1.3-3.1,1.8c-3.1,0.9-6.3,1.8-9,2.7s-5.4,1.8-7.2,2.7
		c-2.7,0.9-4.9,2.2-6.7,3.1c0.4,7.6,0.9,14.3,0.4,20.2c0,2.7,0,5.4,0,8.1s-0.4,4.9-0.4,7.2c-0.4,2.2-0.9,4-1.3,5.8
		c-0.4,1.8-1.3,2.7-1.8,3.6c-1.3,1.3-2.7,2.2-4.5,3.1c-1.8,0.9-3.1,1.3-4.5,1.8c-1.3,0.4-2.7,0-3.6,0c-0.9-0.4-1.8-1.3-2.2-2.7
		c0-0.9-0.4-1.8-0.4-3.6c0-1.8,0-3.6,0-5.4s0-4,0-6.3s0-4.5,0-6.7c0-5.4,0-11.2,0.4-17.5c-0.4,0-0.9,0.4-1.3,0.9
		c-0.9,0.4-2.2,0.9-3.6,0.9c-2.2,0.4-3.6-0.4-4.9-1.8c-0.9-1.3-0.9-3.6,0-5.8c0.4-1.3,1.3-2.2,2.2-3.1s1.8-1.8,3.1-2.7
		c1.3-0.9,2.2-1.8,4-2.2c-0.4-7.6-0.4-14.8-0.4-21.5c0-2.7,0-5.8,0.4-9c0-3.1,0.4-6.3,0.9-9c0.4-3.1,0.9-5.8,1.3-8.5
		c0.4-2.7,1.3-4.9,2.2-6.7c1.3-3.1,3.1-5.4,5.4-7.2c2.2-1.8,4.5-2.7,6.7-3.1c2.2-0.4,4.9-0.4,7.2,0c2.2,0.4,4.5,0.9,6.7,1.8
		c1.8,0.9,3.6,1.8,4.5,2.7C453.5,341.8,454,342.7,454,343.1z"/>
	<path fill="#BB2025" d="M469.2,339.5c0.4-1.8,1.3-2.7,3.1-2.7s3.6,0,5.4,1.3c1.8,0.9,3.6,2.2,5.4,4s2.7,3.6,2.7,5.8s0,4.5,0.4,6.7
		s0,4.5,0.4,6.3c0,2.2,0,4.5,0.4,6.3c3.1-0.4,6.3-0.4,8.5-0.4c2.2,0,4,0.4,5.8,0.9c1.8,0.4,2.7,1.3,2.7,2.7s-0.9,2.7-2.7,3.6
		s-3.6,1.8-5.8,2.7c-2.7,0.9-5.4,1.3-8.5,2.2c0,6.3,0.4,13,0.4,18.8c0,5.4,0,10.8,0,16.6c0,5.8-0.4,10.8-0.4,15.2
		c-0.4,4.5-1.3,7.6-2.2,9.4c-0.9,2.2-2.2,3.1-3.6,4c-1.3,0.4-2.7,0.9-4,0.4c-1.3-0.4-2.7-0.9-3.6-1.3c-0.4,0-0.9-1.3-1.8-3.1
		c-0.4-1.8-0.9-4-1.3-7.2c-0.4-2.7-0.4-6.3-0.9-9.9c0-3.6-0.4-7.2-0.4-11.2c-0.4-9-0.4-18.8-0.4-30c-2.7,0.4-4.9,0.9-7.2,0.9
		c-1.8,0-3.6-0.4-5.4-0.9c-1.8-0.4-2.7-1.8-3.1-3.6c-0.4-1.3,0.4-2.7,1.8-3.6s3.1-1.8,4.9-2.7c2.2-0.9,4.9-1.8,7.6-2.2v-2.2
		c0-0.9,0-1.3,0-2.2s0-1.3,0-1.8c0-4,0-7.2,0-9.4s0-4.5,0-5.8c0-1.8,0-2.7,0-4C468.7,341.8,468.7,340.9,469.2,339.5z"/>
	<path fill="#1E1E1E" d="M546.3,424.2c0-4.5-1.3-8.1-3.6-10.8c-2.2-2.7-6.7-4.9-12.5-7.2c-7.2-2.2-12.1-4.9-15.7-8.5
		s-5.4-8.1-5.4-14.3s1.8-11.2,5.8-15.2c4-4,9-5.8,15.7-5.8s12.1,2.2,16.1,6.7s5.8,10.3,5.8,17h-6.3c0-5.4-1.3-9.9-4-13
		c-2.7-3.1-6.7-4.9-11.7-4.9s-8.5,1.3-11.2,4c-2.7,2.7-4,6.3-4,10.8c0,4,1.3,7.2,3.6,9.9c2.7,2.7,6.7,4.9,13,7.2
		c6.7,2.2,12.1,5.4,15.2,9c3.6,3.6,4.9,8.5,4.9,14.8c0,6.7-1.8,11.7-5.8,15.2s-9.4,5.4-16.1,5.4c-6.3,0-12.1-1.8-16.6-5.8
		s-7.2-9.9-7.2-17.9h6.3c0,6.3,1.8,11.2,4.9,13.9c3.1,2.7,7.2,4.5,12.1,4.5c4.9,0,8.5-1.3,11.2-4
		C544.9,432.7,546.3,429.2,546.3,424.2z"/>
	<path fill="#1E1E1E" d="M559.7,409.9c0-8.1,1.8-14.3,5.4-19.3c3.6-4.9,8.5-7.2,15.2-7.2c6.3,0,11.7,2.2,15.2,7.2
		c3.6,4.9,5.4,11.2,5.4,19.3v9c0,8.1-1.8,14.3-5.4,19.3c-3.6,4.9-8.5,7.2-15.2,7.2c-6.3,0-11.7-2.2-15.2-7.2
		c-3.6-4.9-5.4-11.2-5.4-19.3V409.9z M566,418.9c0,6.3,1.3,11.2,3.6,14.8c2.2,3.6,5.8,5.8,10.8,5.8c4.5,0,8.1-1.8,10.3-5.8
		c2.2-4,3.6-9,3.6-14.8v-9c0-5.8-1.3-10.8-3.6-14.8s-5.8-5.8-10.8-5.8s-8.1,1.8-10.3,5.8s-3.6,9-3.6,14.8V418.9z"/>
	<path fill="#1E1E1E" d="M618,444h-6.3v-86h6.3V444z"/>
	<path fill="#1E1E1E" d="M661,435.4L661,435.4c-1.8,3.1-3.6,5.8-5.8,7.2c-2.2,1.8-5.4,2.7-8.5,2.7c-4.9,0-9-2.2-11.7-6.3
		c-2.7-4-4-10.8-4-19.7v-34.5h6.3v35c0,7.2,0.9,12.5,2.7,15.7s4.5,4.5,7.6,4.5c3.6,0,6.3-0.9,8.5-3.1c2.2-1.8,3.6-4.9,4.5-8.5v-43.5
		h6.3v59.6H661L661,435.4z"/>
	<path fill="#1E1E1E" d="M688.3,369.1v15.2h9.4v5.4h-9.4v38.5c0,4,0.4,6.7,1.3,8.1s2.2,2.2,3.6,2.2c0.9,0,1.3,0,2.2,0
		s1.3-0.4,2.2-0.4l0.9,4.9c-0.9,0.4-1.8,0.9-2.7,0.9c-1.3,0.4-2.2,0.4-3.6,0.4c-3.1,0-5.8-1.3-7.6-4c-1.8-2.7-2.7-6.7-2.7-12.5
		v-38.5h-7.2v-5.4h7.2v-14.8H688.3z"/>
	<path fill="#1E1E1E" d="M713.9,367.3h-6.3v-9.4h6.3V367.3z M713.9,444h-6.3v-59.6h6.3V444z"/>
	<path fill="#1E1E1E" d="M724.6,409.9c0-8.1,1.8-14.3,5.4-19.3c3.6-4.9,8.5-7.2,15.2-7.2c6.3,0,11.7,2.2,15.2,7.2
		c3.6,4.9,5.4,11.2,5.4,19.3v9c0,8.1-1.8,14.3-5.4,19.3c-3.6,4.9-8.5,7.2-15.2,7.2c-6.3,0-11.7-2.2-15.2-7.2
		c-3.6-4.9-5.4-11.2-5.4-19.3V409.9z M730.9,418.9c0,6.3,1.3,11.2,3.6,14.8c2.2,3.6,5.8,5.8,10.8,5.8c4.5,0,8.1-1.8,10.3-5.8
		c2.2-4,3.6-9,3.6-14.8v-9c0-5.8-1.3-10.8-3.6-14.8s-5.8-5.8-10.8-5.8c-4.9,0-8.1,1.8-10.3,5.8c-2.2,4-3.6,9-3.6,14.8V418.9z"/>
	<path fill="#1E1E1E" d="M781.5,384.3l0.4,9.4l0,0c1.3-3.1,3.6-5.8,5.8-8.1s5.4-2.7,8.5-2.7c4.9,0,9,1.8,11.7,5.8
		c2.7,3.6,4,9.9,4,17.9V444h-6.7v-36.7c0-6.7-0.9-11.2-2.7-13.9c-1.8-2.7-4.5-4-8.1-4c-3.1,0-5.4,0.9-7.6,3.1
		c-2.2,2.2-3.6,4.9-4.9,8.5v43h-6.3v-59.6H781.5z"/>
	<path fill="#1E1E1E" d="M851.5,429.6c0-2.7-0.9-4.9-2.2-7.2c-1.8-1.8-4.5-4-9-6.3c-5.8-2.7-9.9-4.9-12.5-7.6c-2.7-2.7-4-5.8-4-10.3
		s1.3-8.1,4.5-11.2c3.1-3.1,7.2-4.5,12.5-4.5c5.4,0,9.9,1.8,12.5,4.9c3.1,3.1,4.5,7.6,4.5,13h-6.3c0-3.1-0.9-6.3-3.1-8.5
		c-1.8-2.2-4.5-3.6-8.1-3.6s-6.3,0.9-8.1,2.7c-1.8,1.8-2.7,4-2.7,6.7c0,2.7,0.9,4.9,2.2,6.3s4.5,3.6,9.4,5.8
		c5.8,2.2,9.9,4.9,12.5,7.6c2.7,2.7,4,6.3,4,10.8c0,4.9-1.8,8.5-4.9,11.7c-3.1,2.7-7.6,4.5-12.5,4.5c-5.8,0-10.3-1.8-13.9-4.9
		c-3.1-3.6-4.9-7.6-4.9-12.5h6.3c0,4.5,1.3,7.6,3.6,9.4c2.2,1.8,4.9,2.7,8.5,2.7c3.6,0,6.3-0.9,8.1-2.7
		C850.6,435,851.5,432.7,851.5,429.6z"/>
</g>
</svg>
