<?xml version="1.0" encoding="utf-8"?>
<!-- Generator: Adobe Illustrator 19.2.1, SVG Export Plug-In . SVG Version: 6.00 Build 0)  -->
<svg version="1.1" id="Layer_1" xmlns="http://www.w3.org/2000/svg" xmlns:xlink="http://www.w3.org/1999/xlink" x="0px" y="0px"
	 viewBox="0 0 864 176" style="enable-background:new 0 0 864 176;" xml:space="preserve">
<style type="text/css">
	.st0{display:none;}
	.st1{display:inline;}
	.st2{fill:#F9F9FA;}
	.st3{fill:#FFFFFF;}
</style>
<g id="Layer_2" class="st0">
	<g class="st1">
		<rect x="-375.5" y="669.4" class="st2" width="242" height="5949"/>
		<rect x="0.9" y="669.4" class="st2" width="242" height="5949"/>
		<rect x="376.9" y="669.4" class="st2" width="242" height="5949"/>
		<rect x="753.3" y="669.4" class="st2" width="242" height="5949"/>
		<rect x="1129.3" y="669.4" class="st2" width="242" height="5949"/>
		<rect x="1505.3" y="669.4" class="st2" width="242" height="5949"/>
		<rect x="1881.7" y="669.4" class="st2" width="242" height="5949"/>
		<rect x="2257.7" y="669.4" class="st2" width="242" height="5949"/>
		<rect x="2634.1" y="669.4" class="st2" width="242" height="5949"/>
		<rect x="3010.1" y="669.4" class="st2" width="242" height="5949"/>
		<rect x="3386.1" y="669.4" class="st2" width="242" height="5949"/>
		<rect x="3762.5" y="669.4" class="st2" width="242" height="5949"/>
	</g>
	<g class="st1">
		<rect x="7849.5" y="669.4" class="st2" width="121" height="13842.4"/>
		<rect x="8024.3" y="669.4" class="st2" width="121" height="13842.4"/>
		<rect x="8199" y="669.4" class="st2" width="121" height="13842.4"/>
		<rect x="8373.8" y="669.4" class="st2" width="121" height="13842.4"/>
		<rect x="8548.6" y="669.4" class="st2" width="121" height="13842.4"/>
		<rect x="8723.4" y="669.4" class="st2" width="121" height="13842.4"/>
		<rect x="8898.1" y="669.4" class="st2" width="121" height="13842.4"/>
		<rect x="9072.9" y="669.4" class="st2" width="121" height="13842.4"/>
	</g>
	<g class="st1">
		<rect x="4281.5" y="669.4" class="st2" width="197.2" height="5953"/>
		<rect x="4567.8" y="669.4" class="st2" width="197.2" height="5953"/>
		<rect x="4854.2" y="669.4" class="st2" width="197.2" height="5953"/>
		<rect x="5140.5" y="669.4" class="st2" width="197.2" height="5953"/>
		<rect x="5426.9" y="669.4" class="st2" width="197.2" height="5953"/>
		<rect x="5713.2" y="669.4" class="st2" width="197.2" height="5953"/>
		<rect x="5999.6" y="669.4" class="st2" width="197.2" height="5953"/>
		<rect x="6286" y="669.4" class="st2" width="197.2" height="5953"/>
		<rect x="6572.3" y="669.4" class="st2" width="197.2" height="5953"/>
		<rect x="6859.1" y="669.4" class="st2" width="197.2" height="5953"/>
		<rect x="7145.5" y="669.4" class="st2" width="197.2" height="5953"/>
		<rect x="7431.8" y="669.4" class="st2" width="197.2" height="5953"/>
	</g>
</g>
<g>
	<g>
		<path class="st3" d="M154.2,115.7l-8.5-8.1c-0.9-0.9-3.1-2.2-5.4-3.1c-2.2,5.8-7.2,11.7-8.1,12.1l-4,4.5l-1.3-5.8
			c-1.8-7.2-3.6-13.4-5.4-19.3H117v73.9h67.7c7.2,0,13-5.8,13-13V96.4H148c2.2,4.9,3.1,8.1,3.1,8.1L154.2,115.7z"/>
		<path class="st3" d="M85.6,96.4c-1.8,5.4-3.6,11.7-5.4,19.3l-1.3,5.8l-4-4.5c-0.9-0.9-5.8-6.3-8.1-12.1c-2.2,0.9-4.5,2.2-5.8,3.1
			l-7.6,5.8l2.7-9.4c0-0.4,0.9-3.6,3.1-8.1H9.9v60.9c0,7.2,5.8,13,13,13h67.2V96.3h-4.5V96.4z"/>
		<path class="st3" d="M51.1,62.4c-3.6-1.3-6.3-3.1-8.5-5.4H22.9c-7.2,0-13,5.8-13,13v7.6h59.6c2.7-3.1,5.4-6.7,9-10.3
			C69.9,67.3,60,65.5,51.1,62.4z"/>
		<path class="st3" d="M155.1,62.4c-9,3.1-18.8,4.9-27.3,4.9c3.6,3.6,6.3,7.2,9,10.3h59.6V70c0-7.2-5.8-13-13-13h-20.2
			C160.9,59.2,158.2,61,155.1,62.4z"/>
	</g>
</g>
<path class="st3" d="M141.6,15.3c-12.5,0-30.5,13-35,35H99c-4.5-21.5-22.9-35-35-35c-13.4,0-18.8,11.2-18.8,11.2s-13.4,26,7.2,33.2
	c9,3.1,18.8,4.9,27.8,4.9c2.7,0,5.4,0,8.1-0.4c-23.8,20.2-29.6,41.7-29.6,41.7c2.7-2.2,9.9-5.4,9.9-5.4c0.9,6.3,8.1,14.3,8.1,14.3
	C82.5,92.4,88.8,78.1,93.3,70v100.4h19.3V69.1c4.5,8.1,11.2,22.4,17,45.3c0,0,7.6-8.1,8.1-14.3c0,0,7.2,2.7,9.9,5.4
	c0,0-5.8-21.5-29.6-41.7c2.2,0.4,4.9,0.4,8.1,0.4c8.5,0,18.4-1.8,27.8-4.9c20.6-7.2,7.2-33.2,7.2-33.2S155.5,15.3,141.6,15.3z
	 M53.8,31.9c2.2-0.4,4-0.4,5.8-0.4c20.2,0,28.7,15.2,31.8,23.3C79.3,53.9,60.9,49.4,53.8,31.9z M114.3,54.8
	c3.1-7.6,11.7-23.3,31.8-23.3c1.8,0,4,0,5.8,0.4C144.7,49.4,126.4,53.9,114.3,54.8z"/>
<g>
	<path class="st3" d="M240.6,87.9c1.3-2.7,3.1-4.9,5.4-6.7c2.2-1.8,4.5-3.6,7.2-4.9s5.4-2.2,8.5-2.7c3.1-0.4,5.8-0.9,8.5-0.9
		s5.4,1.3,7.6,2.7c2.2,1.8,3.6,4,4.5,6.7s0.9,5.8,0.4,9c-0.4,3.1-1.8,6.7-4.5,9.9c-2.7,3.6-5.4,6.3-8.1,8.1c-2.7,1.8-5.4,3.1-8.1,4
		s-5.4,1.3-8.1,1.3c0,3.6,0.4,6.7,1.3,9.4c0.4,1.3,0.9,2.2,1.3,3.1s1.3,1.8,2.2,2.7s1.8,1.3,3.1,1.8s2.7,0.4,4.5,0
		c3.6-0.4,6.3-1.8,8.5-4c2.2-1.8,4-4,5.4-5.8c1.3-2.2,2.7-3.6,3.6-5.4c0.9-1.3,1.8-2.2,2.7-1.8c0.9,0.4,1.8,1.8,1.8,3.6
		c0,1.8-0.4,4-1.3,6.7s-2.2,5.4-4.5,8.1c-1.8,2.7-4.5,4.9-7.2,7.2c-2.7,1.8-6.3,3.1-9.9,4s-8.1,0.4-12.5-0.9
		c-3.6-1.3-6.7-3.1-9.4-5.4c-2.7-2.7-4.5-5.4-5.8-8.5c-1.3-3.1-2.2-6.7-2.7-10.8c-0.4-3.6-0.4-7.6,0-11.2s0.9-7.2,2.2-10.8
		C237.5,92.9,238.9,90.2,240.6,87.9z M254.1,103.6c1.3,0,2.7-0.4,4-1.3c1.3-0.4,2.7-1.3,4.5-2.2s3.1-2.2,4.9-4s3.1-3.1,3.6-4.9
		c0.4-1.3,0.9-2.7,0.9-4s0-2.2-0.4-3.6c-1.3-0.4-2.7-0.4-4.5,0c-1.3,0.4-2.7,1.3-4.5,2.2c-1.8,1.3-3.1,3.1-4.9,5.4
		c-1.3,1.8-2.2,3.6-2.7,4.9c-0.4,1.3-0.9,2.7-1.3,3.6C253.6,101.8,253.6,102.7,254.1,103.6z"/>
	<path class="st3" d="M351.3,170.4c-2.7,2.2-5.4,3.6-9,4.5c-3.1,0.9-6.3,1.3-9.4,0.9s-5.8-1.3-8.1-2.7s-3.6-3.6-4-6.3
		c-0.4-2.7-0.4-5.8,0-8.5s1.3-5.4,2.7-7.6s2.7-4.9,4.5-7.2s4-4.5,6.3-6.7c2.7-2.7,5.4-4.9,8.1-6.7c2.7-1.8,5.4-3.6,8.1-5.4
		c0-1.8,0-4,0-6.7s0-6.3,0-9.4c0-3.6,0-6.7-0.4-10.3s-0.4-6.7-0.9-9.9c-2.2,5.8-4,11.2-6.3,16.6s-4.5,10.3-7.2,15.2
		c-2.7,4.5-5.8,8.5-9.4,12.1s-7.6,5.8-12.5,7.6c-3.6,1.3-6.7,1.3-9.4,0.4c-2.7-0.9-4.9-2.7-6.3-4.9c-1.8-2.2-3.1-5.4-4-9
		c-0.9-3.6-1.3-7.2-1.8-10.8c0-3.6,0-7.6,0.4-11.2s0.9-7.2,1.8-9.9c1.3-4.9,3.6-10.3,5.8-15.7c2.7-5.4,5.4-10.8,9-15.2
		c3.6-4.9,7.2-9,11.2-12.5c4-3.6,8.1-5.8,12.5-6.7c3.1-0.9,5.8-0.9,8.1,0c2.2,0.9,4.5,1.8,6.7,3.1c1.8,1.3,3.6,3.1,4.9,4.9
		s2.2,3.6,3.1,5.4s0.9,3.1,0.9,4.5s-0.4,1.8-0.9,2.2c-1.3,0.4-2.7-0.4-4.5-2.7c-1.8-1.8-4-4-6.7-7.2c-0.9-0.9-2.2-1.3-4-0.9
		c-1.8,0-3.1,0.9-4.9,1.8s-3.6,2.2-5.4,4s-3.6,3.6-4.9,6.3c-2.7,4-5.4,8.1-7.2,12.1c-2.2,4-3.6,8.1-4.9,12.1s-2.2,8.5-2.7,13
		c-0.4,4.5-0.4,9.4-0.4,14.3c0,4.5,0.4,7.6,1.8,9c1.3,1.3,2.7,1.8,4.5,1.3c1.8-0.4,4-2.2,6.3-4.5c2.2-2.2,4.5-4.9,6.7-8.5
		c2.2-3.1,4-6.7,5.8-10.3c1.8-3.6,3.1-7.2,4-10.3c0.9-2.7,1.8-5.4,3.1-8.1c1.3-2.7,3.1-5.4,4.9-7.2c1.8-1.8,4-3.1,6.3-3.6
		c2.2-0.4,4.9,0,8.1,2.2c0.9,0.9,1.8,2.2,2.2,4c0.4,2.2,1.3,4.5,1.3,7.6c0.4,2.7,0.9,5.8,0.9,9s0.4,6.3,0.4,9.4s0,5.8,0,8.1
		s0,4,0,5.4c1.3-0.9,2.2-1.3,4-2.7c1.8-1.3,2.7-1.8,4.5-2.7c1.3-0.4,2.7-0.9,4-0.9s2.2,0.4,3.6,1.3c0.9,0.9,0.9,1.8,0,3.1
		c-0.9,1.3-2.2,2.7-4,4s-3.6,3.1-5.8,4.5c-2.2,1.3-4,3.1-5.8,4.5c0,0-0.4,1.8-0.4,4.5s-0.4,6.3-1.3,10.3s-2.2,8.1-4,12.5
		C359.4,164.1,355.4,167.2,351.3,170.4z M351.3,137.7c-2.2,1.3-4.5,3.1-6.7,4.9c-1.8,1.8-3.6,3.6-5.4,5.8c-1.8,2.2-3.1,4.9-4,7.6
		c-0.4,3.1-0.4,5.4,0,6.7s1.3,2.2,2.7,2.2c1.3,0,2.7-0.4,4.5-1.3s3.1-2.2,4.9-4c1.8-1.3,3.1-3.1,3.6-5.8c0.4-2.2,0.9-4.9,0.9-7.2
		C352.2,143.9,351.8,140.8,351.3,137.7z"/>
	<path class="st3" d="M373.7,105c0.4-2.2,0.9-4.5,1.3-6.7s0.9-4,1.8-5.8s1.3-3.6,2.2-4.9c0.9-1.3,1.8-2.2,2.7-2.7
		c0.9-0.4,2.2-0.9,4-1.3s3.1-0.9,4.9-0.4c1.3,0,2.7,0.9,3.6,2.2s0.9,3.1,0,6.3c-0.4,1.8-0.9,3.6-0.9,6.3c-0.4,2.7-0.4,4.9-0.4,8.1
		c0,2.7,0,5.8,0,8.5s0.4,5.4,0.9,8.1c0.4,2.7,1.3,4.5,2.2,6.3c0.9,1.8,2.2,2.7,3.6,3.1c2.7,0.9,5.4,0.9,7.2-0.4
		c2.2-1.3,4-3.1,5.8-5.4c0.9-0.9,1.3-1.8,2.2-2.7c0.9-0.9,1.8-0.9,2.2-0.9c0.4,0,0.9,0.9,0.9,1.8c0,1.3-0.4,3.1-1.8,5.8
		c-1.3,2.7-3.1,5.4-4.9,7.6c-2.2,2.2-4.5,3.6-6.7,4.9c-2.7,1.3-5.4,1.8-8.1,2.2c-2.7,0-5.8-0.4-8.5-1.3s-5.4-2.2-7.2-4
		c-1.8-1.8-3.1-4-4.5-7.2c-0.9-3.1-1.8-6.7-2.2-10.8C373.7,116.2,373.7,111.2,373.7,105z M380.5,53.4c0.9-2.2,2.7-3.6,4.9-4
		c2.2-0.4,4.5-0.4,6.3,0c2.2,0.4,4,1.8,5.4,3.1c1.3,1.3,2.2,3.1,1.8,4.9c-0.4,2.2-1.8,4-3.6,5.8c-2.2,1.8-5.4,2.2-9.4,1.8
		c-1.3,0-2.2-0.4-3.1-1.3c-0.9-0.9-1.8-1.8-2.2-2.7s-0.9-2.2-0.9-3.6C379.6,55.7,380,54.3,380.5,53.4z"/>
	<path class="st3" d="M454,42.2c0,1.3-0.9,2.2-2.2,2.7c-1.3,0.4-3.1,0.4-4.9,0.4s-3.1,0.4-4.9,0.9c-1.8,0.4-3.1,1.3-3.6,2.7
		c-0.9,1.3-1.3,3.1-1.8,5.4c-0.4,2.2-0.9,4.5-0.9,6.7c-0.4,2.7-0.4,4.9-0.4,7.6s0,5.4,0,8.1c0,5.8,0,12.5,0.4,19.3
		c0.9-0.4,2.2-0.4,4-0.9c1.3-0.4,3.1-0.4,4.9-0.9c2.2-0.4,4.5-0.9,7.2-1.3s5.4-0.4,6.7,0c1.8,0.4,2.7,0.9,3.6,1.8
		c0.4,0.9,0.4,1.3,0,2.2c-0.4,0.9-1.8,1.3-3.1,1.8c-3.1,0.9-6.3,1.8-9,2.7s-5.4,1.8-7.2,2.7c-2.7,0.9-4.9,2.2-6.7,3.1
		c0.4,7.6,0.9,14.3,0.4,20.2c0,2.7,0,5.4,0,8.1s-0.4,4.9-0.4,7.2c-0.4,2.2-0.9,4-1.3,5.8s-1.3,2.7-1.8,3.6c-1.3,1.3-2.7,2.2-4.5,3.1
		s-3.1,1.3-4.5,1.8c-1.3,0.4-2.7,0-3.6,0c-0.9-0.4-1.8-1.3-2.2-2.7c0-0.9-0.4-1.8-0.4-3.6c0-1.8,0-3.6,0-5.4s0-4,0-6.3s0-4.5,0-6.7
		c0-5.4,0-11.2,0.4-17.5c-0.4,0-0.9,0.4-1.3,0.9c-0.9,0.4-2.2,0.9-3.6,0.9c-2.2,0.4-3.6-0.4-4.9-1.8c-0.9-1.3-0.9-3.6,0-5.8
		c0.4-1.3,1.3-2.2,2.2-3.1s1.8-1.8,3.1-2.7c1.3-0.9,2.2-1.8,4-2.2c-0.4-7.6-0.4-14.8-0.4-21.5c0-2.7,0-5.8,0.4-9
		c0-3.1,0.4-6.3,0.9-9c0.4-3.1,0.9-5.8,1.3-8.5s1.3-4.9,2.2-6.7c1.3-3.1,3.1-5.4,5.4-7.2c2.2-1.8,4.5-2.7,6.7-3.1s4.9-0.4,7.2,0
		c2.2,0.4,4.5,0.9,6.7,1.8c1.8,0.9,3.6,1.8,4.5,2.7C453.5,40.9,454,41.8,454,42.2z"/>
	<path class="st3" d="M469.2,38.6c0.4-1.8,1.3-2.7,3.1-2.7s3.6,0,5.4,1.3c1.8,0.9,3.6,2.2,5.4,4s2.7,3.6,2.7,5.8s0,4.5,0.4,6.7
		s0,4.5,0.4,6.3c0,2.2,0,4.5,0.4,6.3c3.1-0.4,6.3-0.4,8.5-0.4s4,0.4,5.8,0.9c1.8,0.4,2.7,1.3,2.7,2.7s-0.9,2.7-2.7,3.6
		s-3.6,1.8-5.8,2.7c-2.7,0.9-5.4,1.3-8.5,2.2c0,6.3,0.4,13,0.4,18.8c0,5.4,0,10.8,0,16.6c0,5.8-0.4,10.8-0.4,15.2
		c-0.4,4.5-1.3,7.6-2.2,9.4c-0.9,2.2-2.2,3.1-3.6,4c-1.3,0.4-2.7,0.9-4,0.4c-1.3-0.4-2.7-0.9-3.6-1.3c-0.4,0-0.9-1.3-1.8-3.1
		c-0.4-1.8-0.9-4-1.3-7.2c-0.4-2.7-0.4-6.3-0.9-9.9c0-3.6-0.4-7.2-0.4-11.2c-0.4-9-0.4-18.8-0.4-30c-2.7,0.4-4.9,0.9-7.2,0.9
		c-1.8,0-3.6-0.4-5.4-0.9c-1.8-0.4-2.7-1.8-3.1-3.6c-0.4-1.3,0.4-2.7,1.8-3.6s3.1-1.8,4.9-2.7c2.2-0.9,4.9-1.8,7.6-2.2v-2.2
		c0-0.9,0-1.3,0-2.2c0-0.9,0-1.3,0-1.8c0-4,0-7.2,0-9.4s0-4.5,0-5.8c0-1.8,0-2.7,0-4C468.7,40.9,468.7,40,469.2,38.6z"/>
	<path class="st3" d="M546.3,123.3c0-4.5-1.3-8.1-3.6-10.8c-2.2-2.7-6.7-4.9-12.5-7.2c-7.2-2.2-12.1-4.9-15.7-8.5s-5.4-8.1-5.4-14.3
		s1.8-11.2,5.8-15.2c4-4,9-5.8,15.7-5.8s12.1,2.2,16.1,6.7s5.8,10.3,5.8,17h-6.3c0-5.4-1.3-9.9-4-13s-6.7-4.9-11.7-4.9
		s-8.5,1.3-11.2,4s-4,6.3-4,10.8c0,4,1.3,7.2,3.6,9.9c2.7,2.7,6.7,4.9,13,7.2c6.7,2.2,12.1,5.4,15.2,9c3.6,3.6,4.9,8.5,4.9,14.8
		c0,6.7-1.8,11.7-5.8,15.2s-9.4,5.4-16.1,5.4c-6.3,0-12.1-1.8-16.6-5.8s-7.2-9.9-7.2-17.9h6.3c0,6.3,1.8,11.2,4.9,13.9
		c3.1,2.7,7.2,4.5,12.1,4.5c4.9,0,8.5-1.3,11.2-4C544.9,131.8,546.3,128.3,546.3,123.3z"/>
	<path class="st3" d="M559.7,109c0-8.1,1.8-14.3,5.4-19.3c3.6-4.9,8.5-7.2,15.2-7.2c6.3,0,11.7,2.2,15.2,7.2
		c3.6,4.9,5.4,11.2,5.4,19.3v9c0,8.1-1.8,14.3-5.4,19.3c-3.6,4.9-8.5,7.2-15.2,7.2c-6.3,0-11.7-2.2-15.2-7.2
		c-3.6-4.9-5.4-11.2-5.4-19.3V109z M566,118c0,6.3,1.3,11.2,3.6,14.8c2.2,3.6,5.8,5.8,10.8,5.8c4.5,0,8.1-1.8,10.3-5.8
		s3.6-9,3.6-14.8v-9c0-5.8-1.3-10.8-3.6-14.8s-5.8-5.8-10.8-5.8s-8.1,1.8-10.3,5.8s-3.6,9-3.6,14.8V118z"/>
	<path class="st3" d="M618,143.1h-6.3v-86h6.3V143.1z"/>
	<path class="st3" d="M661,134.5L661,134.5c-1.8,3.1-3.6,5.8-5.8,7.2c-2.2,1.8-5.4,2.7-8.5,2.7c-4.9,0-9-2.2-11.7-6.3
		c-2.7-4-4-10.8-4-19.7V83.9h6.3v35c0,7.2,0.9,12.5,2.7,15.7s4.5,4.5,7.6,4.5c3.6,0,6.3-0.9,8.5-3.1c2.2-1.8,3.6-4.9,4.5-8.5V84h6.3
		v59.6H661V134.5z"/>
	<path class="st3" d="M688.3,68.2v15.2h9.4v5.4h-9.4v38.5c0,4,0.4,6.7,1.3,8.1s2.2,2.2,3.6,2.2c0.9,0,1.3,0,2.2,0s1.3-0.4,2.2-0.4
		l0.9,4.9c-0.9,0.4-1.8,0.9-2.7,0.9c-1.3,0.4-2.2,0.4-3.6,0.4c-3.1,0-5.8-1.3-7.6-4s-2.7-6.7-2.7-12.5V88.4h-7.2V83h7.2V68.2
		L688.3,68.2L688.3,68.2z"/>
	<path class="st3" d="M713.9,66.4h-6.3V57h6.3V66.4z M713.9,143.1h-6.3V83.5h6.3V143.1z"/>
	<path class="st3" d="M724.6,109c0-8.1,1.8-14.3,5.4-19.3c3.6-4.9,8.5-7.2,15.2-7.2c6.3,0,11.7,2.2,15.2,7.2
		c3.6,4.9,5.4,11.2,5.4,19.3v9c0,8.1-1.8,14.3-5.4,19.3c-3.6,4.9-8.5,7.2-15.2,7.2c-6.3,0-11.7-2.2-15.2-7.2
		c-3.6-4.9-5.4-11.2-5.4-19.3V109z M730.9,118c0,6.3,1.3,11.2,3.6,14.8c2.2,3.6,5.8,5.8,10.8,5.8c4.5,0,8.1-1.8,10.3-5.8
		s3.6-9,3.6-14.8v-9c0-5.8-1.3-10.8-3.6-14.8s-5.8-5.8-10.8-5.8c-4.9,0-8.1,1.8-10.3,5.8s-3.6,9-3.6,14.8V118z"/>
	<path class="st3" d="M781.5,83.4l0.4,9.4l0,0c1.3-3.1,3.6-5.8,5.8-8.1s5.4-2.7,8.5-2.7c4.9,0,9,1.8,11.7,5.8c2.7,3.6,4,9.9,4,17.9
		v37.4h-6.7v-36.7c0-6.7-0.9-11.2-2.7-13.9c-1.8-2.7-4.5-4-8.1-4c-3.1,0-5.4,0.9-7.6,3.1c-2.2,2.2-3.6,4.9-4.9,8.5v43h-6.3V83.5h5.9
		V83.4z"/>
	<path class="st3" d="M851.5,128.7c0-2.7-0.9-4.9-2.2-7.2c-1.8-1.8-4.5-4-9-6.3c-5.8-2.7-9.9-4.9-12.5-7.6c-2.7-2.7-4-5.8-4-10.3
		s1.3-8.1,4.5-11.2c3.1-3.1,7.2-4.5,12.5-4.5c5.4,0,9.9,1.8,12.5,4.9c3.1,3.1,4.5,7.6,4.5,13h-6.3c0-3.1-0.9-6.3-3.1-8.5
		c-1.8-2.2-4.5-3.6-8.1-3.6s-6.3,0.9-8.1,2.7c-1.8,1.8-2.7,4-2.7,6.7s0.9,4.9,2.2,6.3s4.5,3.6,9.4,5.8c5.8,2.2,9.9,4.9,12.5,7.6
		c2.7,2.7,4,6.3,4,10.8c0,4.9-1.8,8.5-4.9,11.7c-3.1,2.7-7.6,4.5-12.5,4.5c-5.8,0-10.3-1.8-13.9-4.9c-3.1-3.6-4.9-7.6-4.9-12.5h6.3
		c0,4.5,1.3,7.6,3.6,9.4c2.2,1.8,4.9,2.7,8.5,2.7s6.3-0.9,8.1-2.7C850.6,134.1,851.5,131.8,851.5,128.7z"/>
</g>
</svg>
