<?xml version="1.0" encoding="utf-8"?>
<!-- Generator: Adobe Illustrator 19.2.0, SVG Export Plug-In . SVG Version: 6.00 Build 0)  -->
<svg version="1.1" id="Layer_1" xmlns="http://www.w3.org/2000/svg" xmlns:xlink="http://www.w3.org/1999/xlink" x="0px" y="0px"
	 viewBox="0 0 248 103" style="enable-background:new 0 0 248 103;" xml:space="preserve">
<style type="text/css">
	.st0{fill:#FFFFFF;}
</style>
<g>
	<g>
		<path class="st0" d="M83.9,33.1c4.5,3.5,5.6,10.5,2.5,16.6c-3.4,6.8-10.8,10.1-16.6,7.5c0.2,0.1,0.3,0.2,0.5,0.3
			c6,2.9,13.7-0.2,17.1-7.1C90.7,43.9,89.1,36.4,83.9,33.1z"/>
	</g>
	<g>
		<path class="st0" d="M68.9,56.8c-4.5-3.5-5.6-10.5-2.5-16.6c3.4-6.8,10.8-10.1,16.6-7.5c-0.2-0.1-0.3-0.2-0.5-0.3
			c-6-2.9-13.7,0.2-17.1,7.1C62.1,46.1,63.7,53.5,68.9,56.8z"/>
	</g>
	<g>
		<path class="st0" d="M84.9,30.1h-3.8v25.2c1.4-1.1,2.7-2.4,3.8-4v-17c0,1.9,0,1.6,0-0.3V34c-0.2-0.2-0.5-0.4-0.7-0.6
			c0.2,0.2,0.5,0.3,0.7,0.5V30.1z"/>
		<path class="st0" d="M84.9,57.4v-2.8c-1.1,1.1-2.4,2.1-3.7,2.8H84.9z"/>
		<path class="st0" d="M76.7,57.4H77c1.2-0.4,2.4-0.9,3.5-1.7V33.4h-3.8V57.4z"/>
		<rect x="72.3" y="36.8" class="st0" width="3.8" height="20.5"/>
		<path class="st0" d="M70.6,57.4h1.1V40.1h-3.8v15.4c0.1,0.1,0.2,0.2,0.3,0.3C69,56.4,69.8,56.9,70.6,57.4z"/>
	</g>
	<g>
		<path class="st0" d="M95.8,41V30.2h6.6v1.1H97v3.4h3.1v1.1H97v4.1h5.6V41H95.8z"/>
		<path class="st0" d="M108.3,34.1c-0.2-0.1-0.3-0.2-0.5-0.2c-0.2-0.1-0.4-0.1-0.7-0.1c-0.6,0-1,0.2-1.3,0.7c-0.3,0.4-0.5,1-0.5,1.8
			V41h-1.2v-8.1h1.2v1c0.2-0.3,0.5-0.6,0.8-0.8c0.4-0.2,0.8-0.3,1.2-0.3c0.3,0,0.5,0,0.8,0.1c0.2,0,0.4,0.1,0.5,0.1L108.3,34.1z"/>
		<path class="st0" d="M114.9,41v-4.8c0-0.9-0.2-1.5-0.5-1.9c-0.3-0.4-0.8-0.6-1.4-0.6c-0.6,0-1,0.2-1.4,0.6
			c-0.4,0.4-0.6,1.1-0.6,1.9V41h-1.2v-8.1h1.2l0,1c0.2-0.3,0.5-0.6,0.9-0.8c0.4-0.2,0.8-0.3,1.3-0.3c0.4,0,0.8,0.1,1.2,0.2
			c0.4,0.1,0.7,0.3,0.9,0.6c0.2,0.3,0.4,0.6,0.6,1c0.1,0.4,0.2,0.9,0.2,1.5v5H114.9z"/>
		<path class="st0" d="M123.3,38.9c0,0.4-0.1,0.7-0.2,1c-0.2,0.3-0.4,0.5-0.6,0.7c-0.3,0.2-0.6,0.3-0.9,0.4c-0.3,0.1-0.7,0.1-1,0.1
			c-0.6,0-1.1-0.1-1.6-0.3c-0.5-0.2-0.9-0.4-1.3-0.8l0.7-0.9c0.3,0.3,0.7,0.5,1.1,0.7c0.4,0.2,0.8,0.2,1.2,0.2c0.6,0,1-0.1,1.2-0.3
			c0.3-0.2,0.4-0.5,0.4-0.9c0-0.2,0-0.3-0.1-0.4c-0.1-0.1-0.2-0.3-0.3-0.4c-0.2-0.1-0.3-0.3-0.6-0.4c-0.2-0.1-0.5-0.3-0.9-0.4
			c-0.4-0.2-0.8-0.3-1-0.5c-0.3-0.2-0.5-0.3-0.7-0.5c-0.2-0.2-0.3-0.4-0.4-0.6c-0.1-0.2-0.1-0.5-0.1-0.8c0-0.3,0.1-0.6,0.2-0.8
			c0.1-0.3,0.3-0.5,0.5-0.7c0.2-0.2,0.5-0.3,0.8-0.4c0.3-0.1,0.7-0.1,1-0.1c0.6,0,1.1,0.1,1.5,0.2c0.4,0.2,0.8,0.4,1.1,0.6l-0.7,0.9
			c-0.3-0.2-0.6-0.4-0.9-0.5c-0.3-0.1-0.7-0.2-1.1-0.2c-0.4,0-0.8,0.1-1,0.3c-0.2,0.2-0.3,0.4-0.3,0.7c0,0.2,0,0.3,0.1,0.4
			c0.1,0.1,0.2,0.2,0.3,0.4c0.1,0.1,0.3,0.2,0.6,0.4c0.2,0.1,0.5,0.3,0.9,0.4c0.4,0.2,0.7,0.3,1,0.5c0.3,0.2,0.6,0.3,0.8,0.5
			c0.2,0.2,0.4,0.4,0.5,0.7C123.2,38.2,123.3,38.6,123.3,38.9z"/>
		<path class="st0" d="M126.5,33.9v5.3c0,0.4,0.1,0.6,0.2,0.8c0.1,0.1,0.3,0.2,0.6,0.2c0.2,0,0.4,0,0.6-0.1c0.2,0,0.3-0.1,0.5-0.2
			l-0.1,1c-0.2,0.1-0.5,0.2-0.7,0.2c-0.2,0-0.5,0.1-0.8,0.1c-0.5,0-0.9-0.1-1.2-0.4c-0.3-0.3-0.4-0.8-0.4-1.4v-5.5h-1v-1h1v-2.5
			l1.2-0.7v3.2h2v1H126.5z"/>
		<path class="st0" d="M147.6,36.7V41h-1.2v-4.3l-3.7-6.6h1.4l1.7,3.1c0.2,0.4,0.4,0.8,0.7,1.2c0.2,0.4,0.4,0.8,0.6,1.1
			c0.2-0.3,0.3-0.7,0.6-1.1c0.2-0.4,0.4-0.8,0.7-1.2l1.7-3.1h1.3L147.6,36.7z"/>
		<path class="st0" d="M158,36.9c0,0.7-0.1,1.3-0.3,1.8c-0.2,0.5-0.4,1-0.8,1.3c-0.3,0.4-0.7,0.6-1.1,0.8c-0.4,0.2-0.9,0.3-1.4,0.3
			c-0.5,0-1-0.1-1.4-0.3c-0.4-0.2-0.8-0.4-1.1-0.8c-0.3-0.4-0.6-0.8-0.7-1.3c-0.2-0.5-0.3-1.1-0.3-1.8c0-0.7,0.1-1.3,0.3-1.8
			c0.2-0.5,0.4-1,0.8-1.3c0.3-0.4,0.7-0.6,1.1-0.8c0.4-0.2,0.9-0.3,1.4-0.3c0.5,0,1,0.1,1.4,0.3c0.4,0.2,0.8,0.4,1.1,0.8
			c0.3,0.4,0.6,0.8,0.7,1.3C158,35.6,158,36.2,158,36.9z M156.9,37c0-1.1-0.2-1.9-0.7-2.4c-0.4-0.5-1-0.8-1.7-0.8
			c-0.7,0-1.3,0.3-1.7,0.8c-0.4,0.5-0.6,1.3-0.6,2.4c0,1.1,0.2,1.9,0.6,2.4c0.4,0.6,1,0.8,1.7,0.8c0.7,0,1.3-0.3,1.7-0.8
			C156.7,38.8,156.9,38,156.9,37z"/>
		<path class="st0" d="M164.9,41v-1c-0.2,0.3-0.5,0.6-0.9,0.8c-0.4,0.2-0.8,0.3-1.3,0.3c-0.4,0-0.8-0.1-1.2-0.2
			c-0.4-0.1-0.7-0.3-0.9-0.6c-0.2-0.3-0.4-0.6-0.6-1c-0.1-0.4-0.2-0.9-0.2-1.5v-5h1.2v4.8c0,0.9,0.2,1.5,0.5,1.9
			c0.3,0.4,0.8,0.6,1.4,0.6c0.6,0,1-0.2,1.4-0.6c0.4-0.4,0.6-1.1,0.6-1.9v-4.8h1.2V41H164.9z"/>
		<path class="st0" d="M173.1,41v-4.8c0-0.9-0.2-1.5-0.5-1.9c-0.3-0.4-0.8-0.6-1.4-0.6c-0.6,0-1,0.2-1.4,0.6
			c-0.4,0.4-0.6,1.1-0.6,1.9V41H168v-8.1h1.2l0,1c0.2-0.3,0.5-0.6,0.9-0.8c0.4-0.2,0.8-0.3,1.3-0.3c0.4,0,0.8,0.1,1.2,0.2
			c0.4,0.1,0.7,0.3,0.9,0.6c0.2,0.3,0.4,0.6,0.6,1c0.1,0.4,0.2,0.9,0.2,1.5v5H173.1z"/>
		<path class="st0" d="M182.6,40.3c0,0.6-0.1,1.1-0.2,1.6c-0.1,0.5-0.4,0.8-0.7,1.1c-0.3,0.3-0.8,0.5-1.3,0.7
			c-0.5,0.2-1.2,0.3-1.9,0.3l-0.4-0.9c0.7,0,1.2-0.1,1.7-0.2c0.4-0.1,0.8-0.3,1-0.5c0.2-0.2,0.4-0.5,0.5-0.8
			c0.1-0.3,0.1-0.7,0.1-1.2V40c-0.3,0.3-0.6,0.6-1,0.8c-0.4,0.2-0.9,0.3-1.4,0.3c-0.4,0-0.8-0.1-1.1-0.2c-0.4-0.2-0.7-0.4-0.9-0.7
			c-0.3-0.3-0.5-0.8-0.6-1.3c-0.2-0.5-0.2-1.1-0.2-1.9c0-0.7,0.1-1.4,0.2-1.9c0.2-0.5,0.4-1,0.7-1.4c0.3-0.4,0.6-0.6,1-0.8
			c0.4-0.2,0.8-0.3,1.2-0.3c0.5,0,1,0.1,1.3,0.3c0.4,0.2,0.7,0.5,1,0.8v-0.9h1.2V40.3z M181.4,35c-0.2-0.3-0.5-0.6-0.9-0.9
			c-0.4-0.2-0.8-0.4-1.3-0.4c-0.7,0-1.2,0.3-1.5,0.9c-0.3,0.6-0.5,1.4-0.5,2.5c0,1,0.2,1.8,0.5,2.3c0.4,0.5,0.9,0.8,1.5,0.8
			c0.4,0,0.8-0.1,1.2-0.3c0.4-0.2,0.7-0.5,1-0.9V35z"/>
	</g>
	<g>
		<path class="st0" d="M139.5,41c-0.3-0.3-0.6-0.6-1-1.1c-0.9,0.9-1.9,1.2-3.1,1.2c-2.1,0-3.3-1.4-3.3-3c0-1.5,0.9-2.5,2.1-3.2v0
			c-0.6-0.7-0.9-1.5-0.9-2.3c0-1.3,0.9-2.7,2.7-2.7c1.3,0,2.3,0.9,2.3,2.3c0,1.1-0.6,2-2.3,2.9v0c0.9,1.1,1.9,2.2,2.6,3
			c0.5-0.8,0.8-1.8,1-3.2h1.3c-0.3,1.7-0.7,3-1.5,4c0.6,0.6,1.1,1.2,1.7,1.9H139.5z M137.8,39.2c-0.6-0.7-1.8-2-3-3.4
			c-0.6,0.4-1.4,1.1-1.4,2.2c0,1.2,0.9,2.2,2.2,2.2C136.6,40.2,137.3,39.7,137.8,39.2z M134.6,32.6c0,0.8,0.3,1.4,0.8,1.9
			c1.1-0.6,1.8-1.2,1.8-2.1c0-0.7-0.4-1.4-1.2-1.4C135.1,31,134.6,31.8,134.6,32.6z"/>
	</g>
	<g>
		<path class="st0" d="M95.4,57.4V46.5h7v1.6H97v2.6h3.1v1.6H97v3.4h5.6v1.6H95.4z"/>
		<path class="st0" d="M109.4,57.4v-4.6c0-0.8-0.1-1.4-0.4-1.7c-0.3-0.3-0.7-0.5-1.2-0.5c-0.5,0-0.9,0.2-1.2,0.5
			c-0.3,0.4-0.4,0.9-0.4,1.5v4.8h-1.6v-8.1h1.6l0,0.8c0.2-0.3,0.5-0.5,0.9-0.7c0.4-0.2,0.8-0.2,1.2-0.2c1,0,1.7,0.3,2.2,0.9
			c0.5,0.6,0.7,1.5,0.7,2.7v4.7H109.4z"/>
		<path class="st0" d="M116.4,57.2c-0.2,0.1-0.4,0.2-0.7,0.3c-0.3,0.1-0.6,0.1-0.9,0.1c-0.6,0-1-0.2-1.3-0.5
			c-0.3-0.4-0.5-0.9-0.5-1.6v-4.7h-1.2v-1.5h1.2v-2.3l1.6-0.8v3.2h2v1.5h-2v4.4c0,0.4,0.1,0.6,0.2,0.8c0.1,0.1,0.3,0.2,0.6,0.2
			c0.2,0,0.4,0,0.6-0.1c0.2-0.1,0.4-0.1,0.5-0.2L116.4,57.2z"/>
		<path class="st0" d="M122.6,50.9c-0.2-0.1-0.4-0.2-0.5-0.2c-0.2-0.1-0.4-0.1-0.7-0.1c-0.5,0-0.9,0.2-1.2,0.5
			c-0.3,0.4-0.4,0.9-0.4,1.6v4.6h-1.6v-8.1h1.6V50c0.2-0.3,0.4-0.5,0.8-0.7c0.3-0.2,0.7-0.3,1.1-0.3c0.3,0,0.6,0,0.8,0.1
			c0.2,0.1,0.4,0.1,0.6,0.3L122.6,50.9z"/>
		<path class="st0" d="M130.6,53.1c0,0.1,0,0.3,0,0.4c0,0.1,0,0.2,0,0.3h-5.4c0,0.4,0.1,0.7,0.2,1c0.1,0.3,0.3,0.5,0.5,0.7
			c0.2,0.2,0.4,0.3,0.6,0.4c0.2,0.1,0.5,0.1,0.7,0.1c0.3,0,0.7-0.1,0.9-0.2c0.3-0.1,0.6-0.3,0.8-0.5l0.9,1c-0.4,0.3-0.8,0.6-1.2,0.8
			c-0.4,0.2-1,0.3-1.6,0.3c-0.5,0-0.9-0.1-1.4-0.3c-0.4-0.2-0.8-0.5-1.1-0.8c-0.3-0.4-0.6-0.8-0.8-1.3c-0.2-0.5-0.3-1.1-0.3-1.8
			c0-0.7,0.1-1.3,0.3-1.8c0.2-0.5,0.4-1,0.7-1.3c0.3-0.4,0.7-0.6,1.1-0.8c0.4-0.2,0.9-0.3,1.4-0.3c0.6,0,1.1,0.1,1.5,0.3
			c0.4,0.2,0.8,0.5,1.1,0.9c0.3,0.4,0.5,0.8,0.6,1.3C130.5,52.1,130.6,52.6,130.6,53.1z M128.9,52.5c0-0.3-0.1-0.5-0.1-0.8
			c-0.1-0.2-0.2-0.5-0.3-0.7c-0.2-0.2-0.3-0.3-0.6-0.4c-0.2-0.1-0.5-0.2-0.8-0.2c-0.5,0-1,0.2-1.3,0.5c-0.3,0.4-0.5,0.9-0.6,1.5
			H128.9z"/>
		<path class="st0" d="M139.1,53.4c0,0.7-0.1,1.3-0.3,1.8c-0.2,0.5-0.4,0.9-0.7,1.3c-0.3,0.3-0.6,0.6-1,0.8
			c-0.4,0.2-0.8,0.2-1.2,0.2c-0.4,0-0.8-0.1-1.2-0.3c-0.4-0.2-0.7-0.4-0.9-0.6v2.9l-1.6,0.8V49.2h1.6l0,0.8c0.3-0.3,0.6-0.5,1-0.7
			c0.3-0.2,0.7-0.3,1.2-0.3c0.4,0,0.8,0.1,1.2,0.2c0.4,0.2,0.7,0.4,1,0.8c0.3,0.4,0.5,0.8,0.7,1.4C139,52,139.1,52.7,139.1,53.4z
			 M137.5,53.5c0-1-0.2-1.8-0.5-2.2c-0.3-0.5-0.8-0.7-1.4-0.7c-0.4,0-0.7,0.1-1.1,0.3c-0.3,0.2-0.6,0.5-0.8,0.7V55
			c0.1,0.1,0.2,0.2,0.3,0.4c0.1,0.1,0.3,0.2,0.4,0.3c0.2,0.1,0.3,0.2,0.5,0.3c0.2,0.1,0.4,0.1,0.6,0.1c0.6,0,1-0.2,1.3-0.6
			C137.3,55,137.5,54.3,137.5,53.5z"/>
		<path class="st0" d="M144.9,50.9c-0.2-0.1-0.4-0.2-0.5-0.2c-0.2-0.1-0.4-0.1-0.7-0.1c-0.5,0-0.9,0.2-1.2,0.5
			c-0.3,0.4-0.4,0.9-0.4,1.6v4.6h-1.6v-8.1h1.6V50c0.2-0.3,0.4-0.5,0.8-0.7c0.3-0.2,0.7-0.3,1.1-0.3c0.3,0,0.6,0,0.8,0.1
			c0.2,0.1,0.4,0.1,0.6,0.3L144.9,50.9z"/>
		<path class="st0" d="M153.1,53.1c0,0.1,0,0.3,0,0.4c0,0.1,0,0.2,0,0.3h-5.4c0,0.4,0.1,0.7,0.2,1c0.1,0.3,0.3,0.5,0.5,0.7
			c0.2,0.2,0.4,0.3,0.6,0.4c0.2,0.1,0.5,0.1,0.7,0.1c0.3,0,0.7-0.1,0.9-0.2c0.3-0.1,0.6-0.3,0.8-0.5l0.9,1c-0.4,0.3-0.8,0.6-1.2,0.8
			c-0.4,0.2-1,0.3-1.6,0.3c-0.5,0-0.9-0.1-1.4-0.3c-0.4-0.2-0.8-0.5-1.1-0.8c-0.3-0.4-0.6-0.8-0.8-1.3c-0.2-0.5-0.3-1.1-0.3-1.8
			c0-0.7,0.1-1.3,0.3-1.8c0.2-0.5,0.4-1,0.7-1.3c0.3-0.4,0.7-0.6,1.1-0.8c0.4-0.2,0.9-0.3,1.4-0.3c0.6,0,1.1,0.1,1.5,0.3
			c0.4,0.2,0.8,0.5,1.1,0.9c0.3,0.4,0.5,0.8,0.6,1.3C153.1,52.1,153.1,52.6,153.1,53.1z M151.5,52.5c0-0.3-0.1-0.5-0.1-0.8
			c-0.1-0.2-0.2-0.5-0.3-0.7c-0.2-0.2-0.3-0.3-0.6-0.4c-0.2-0.1-0.5-0.2-0.8-0.2c-0.5,0-1,0.2-1.3,0.5c-0.3,0.4-0.5,0.9-0.6,1.5
			H151.5z"/>
		<path class="st0" d="M159.4,57.4v-4.6c0-0.8-0.1-1.4-0.4-1.7c-0.3-0.3-0.7-0.5-1.2-0.5c-0.5,0-0.9,0.2-1.2,0.5
			c-0.3,0.4-0.4,0.9-0.4,1.5v4.8h-1.6v-8.1h1.6l0,0.8c0.2-0.3,0.5-0.5,0.9-0.7c0.4-0.2,0.8-0.2,1.2-0.2c1,0,1.7,0.3,2.2,0.9
			c0.5,0.6,0.7,1.5,0.7,2.7v4.7H159.4z"/>
		<path class="st0" d="M169.6,53.1c0,0.1,0,0.3,0,0.4c0,0.1,0,0.2,0,0.3h-5.4c0,0.4,0.1,0.7,0.2,1c0.1,0.3,0.3,0.5,0.5,0.7
			c0.2,0.2,0.4,0.3,0.6,0.4c0.2,0.1,0.5,0.1,0.7,0.1c0.3,0,0.7-0.1,0.9-0.2c0.3-0.1,0.6-0.3,0.8-0.5l0.9,1c-0.4,0.3-0.8,0.6-1.2,0.8
			c-0.4,0.2-1,0.3-1.6,0.3c-0.5,0-0.9-0.1-1.4-0.3c-0.4-0.2-0.8-0.5-1.1-0.8c-0.3-0.4-0.6-0.8-0.8-1.3c-0.2-0.5-0.3-1.1-0.3-1.8
			c0-0.7,0.1-1.3,0.3-1.8c0.2-0.5,0.4-1,0.7-1.3c0.3-0.4,0.7-0.6,1.1-0.8c0.4-0.2,0.9-0.3,1.4-0.3c0.6,0,1.1,0.1,1.5,0.3
			c0.4,0.2,0.8,0.5,1.1,0.9c0.3,0.4,0.5,0.8,0.6,1.3C169.5,52.1,169.6,52.6,169.6,53.1z M168,52.5c0-0.3-0.1-0.5-0.1-0.8
			c-0.1-0.2-0.2-0.5-0.3-0.7c-0.2-0.2-0.3-0.3-0.6-0.4c-0.2-0.1-0.5-0.2-0.8-0.2c-0.5,0-1,0.2-1.3,0.5c-0.3,0.4-0.5,0.9-0.6,1.5H168
			z"/>
		<path class="st0" d="M175.9,57.4v-0.8c-0.2,0.3-0.5,0.5-0.9,0.7c-0.4,0.2-0.8,0.2-1.2,0.2c-1,0-1.7-0.3-2.2-0.9
			c-0.5-0.6-0.7-1.5-0.7-2.7v-4.7h1.6v4.6c0,0.8,0.1,1.4,0.4,1.7c0.3,0.3,0.7,0.5,1.2,0.5c0.5,0,0.9-0.2,1.2-0.5
			c0.3-0.4,0.4-0.9,0.4-1.5v-4.8h1.6v8.1H175.9z"/>
		<path class="st0" d="M183.9,50.9c-0.2-0.1-0.4-0.2-0.5-0.2c-0.2-0.1-0.4-0.1-0.7-0.1c-0.5,0-0.9,0.2-1.2,0.5
			c-0.3,0.4-0.4,0.9-0.4,1.6v4.6h-1.6v-8.1h1.6V50c0.2-0.3,0.4-0.5,0.8-0.7c0.3-0.2,0.7-0.3,1.1-0.3c0.3,0,0.6,0,0.8,0.1
			c0.2,0.1,0.4,0.1,0.6,0.3L183.9,50.9z"/>
		<path class="st0" d="M104.2,67.7c0,0.8-0.1,1.6-0.3,2.3c-0.2,0.7-0.5,1.3-0.9,1.8c-0.4,0.5-0.9,0.9-1.4,1.2
			c-0.6,0.3-1.2,0.4-1.9,0.4c-0.7,0-1.3-0.1-1.9-0.4c-0.6-0.3-1-0.7-1.4-1.2c-0.4-0.5-0.7-1.1-0.9-1.8c-0.2-0.7-0.3-1.4-0.3-2.3
			c0-0.8,0.1-1.6,0.3-2.3c0.2-0.7,0.5-1.3,0.9-1.8c0.4-0.5,0.9-0.9,1.4-1.2c0.6-0.3,1.2-0.4,1.9-0.4c0.7,0,1.3,0.1,1.9,0.4
			c0.6,0.3,1.1,0.7,1.4,1.2c0.4,0.5,0.7,1.1,0.9,1.8C104.1,66.1,104.2,66.8,104.2,67.7z M102.6,67.7c0-1.2-0.3-2.2-0.8-2.9
			c-0.5-0.7-1.2-1.1-2.2-1.1c-1,0-1.7,0.4-2.2,1.1c-0.5,0.7-0.8,1.7-0.8,2.9c0,1.2,0.3,2.2,0.8,2.9c0.5,0.7,1.2,1.1,2.2,1.1
			c1,0,1.7-0.4,2.2-1.1C102.3,69.8,102.6,68.9,102.6,67.7z"/>
		<path class="st0" d="M108.9,63.2c-0.3,0-0.5,0.1-0.6,0.2c-0.1,0.1-0.2,0.3-0.2,0.6v0.9h1.5v1.5h-1.5v6.7h-1.6v-6.7h-1.1v-1.5h1.1
			v-1.1c0-0.4,0.1-0.7,0.2-0.9c0.1-0.3,0.3-0.5,0.4-0.6c0.2-0.2,0.4-0.3,0.7-0.4c0.3-0.1,0.5-0.1,0.8-0.1c0.2,0,0.4,0,0.6,0
			c0.2,0,0.4,0.1,0.6,0.1v1.4C109.5,63.3,109.1,63.2,108.9,63.2z"/>
		<path class="st0" d="M118.9,63.8v9.2h-1.6v-9.2h-3.2v-1.6h7.9v1.6H118.9z"/>
		<path class="st0" d="M128.3,73.1v-4.6c0-0.8-0.1-1.4-0.4-1.7c-0.3-0.3-0.7-0.5-1.2-0.5c-0.5,0-0.9,0.2-1.2,0.5
			c-0.3,0.4-0.4,0.9-0.4,1.5v4.8h-1.6V62.6l1.6-0.8l0,3.9c0.2-0.3,0.5-0.5,0.9-0.7c0.4-0.2,0.8-0.2,1.2-0.2c1,0,1.7,0.3,2.2,0.9
			c0.5,0.6,0.7,1.5,0.7,2.7v4.7H128.3z"/>
		<path class="st0" d="M138.2,68.9c0,0.1,0,0.3,0,0.4c0,0.1,0,0.2,0,0.3h-5.4c0,0.4,0.1,0.7,0.2,1c0.1,0.3,0.3,0.5,0.5,0.7
			c0.2,0.2,0.4,0.3,0.6,0.4c0.2,0.1,0.5,0.1,0.7,0.1c0.3,0,0.7-0.1,0.9-0.2c0.3-0.1,0.6-0.3,0.8-0.5l0.9,1c-0.4,0.3-0.8,0.6-1.2,0.8
			c-0.4,0.2-1,0.3-1.6,0.3c-0.5,0-0.9-0.1-1.4-0.3c-0.4-0.2-0.8-0.5-1.1-0.8c-0.3-0.4-0.6-0.8-0.8-1.3c-0.2-0.5-0.3-1.1-0.3-1.8
			c0-0.7,0.1-1.3,0.3-1.8c0.2-0.5,0.4-1,0.7-1.3c0.3-0.4,0.7-0.6,1.1-0.8c0.4-0.2,0.9-0.3,1.4-0.3c0.6,0,1.1,0.1,1.5,0.3
			c0.4,0.2,0.8,0.5,1.1,0.9c0.3,0.4,0.5,0.8,0.6,1.3C138.1,67.8,138.2,68.3,138.2,68.9z M136.6,68.3c0-0.3-0.1-0.5-0.1-0.8
			c-0.1-0.2-0.2-0.5-0.3-0.7c-0.2-0.2-0.3-0.3-0.6-0.4c-0.2-0.1-0.5-0.2-0.8-0.2c-0.5,0-1,0.2-1.3,0.5c-0.3,0.4-0.5,0.9-0.6,1.5
			H136.6z"/>
		<path class="st0" d="M146.8,68.8v4.3h-1.6v-4.3l-3.9-6.6h1.9l1.7,3c0.1,0.2,0.2,0.4,0.3,0.6c0.1,0.2,0.2,0.4,0.3,0.6
			c0.1,0.2,0.2,0.4,0.3,0.6c0.1,0.2,0.1,0.3,0.2,0.4c0-0.1,0.1-0.2,0.2-0.4c0.1-0.2,0.2-0.4,0.3-0.6c0.1-0.2,0.2-0.4,0.3-0.6
			c0.1-0.2,0.2-0.4,0.3-0.6l1.7-3h1.9L146.8,68.8z"/>
		<path class="st0" d="M157.3,68.9c0,0.1,0,0.3,0,0.4c0,0.1,0,0.2,0,0.3h-5.4c0,0.4,0.1,0.7,0.2,1c0.1,0.3,0.3,0.5,0.5,0.7
			c0.2,0.2,0.4,0.3,0.6,0.4c0.2,0.1,0.5,0.1,0.7,0.1c0.3,0,0.7-0.1,0.9-0.2c0.3-0.1,0.6-0.3,0.8-0.5l0.9,1c-0.4,0.3-0.8,0.6-1.2,0.8
			c-0.4,0.2-1,0.3-1.6,0.3c-0.5,0-0.9-0.1-1.4-0.3c-0.4-0.2-0.8-0.5-1.1-0.8c-0.3-0.4-0.6-0.8-0.8-1.3s-0.3-1.1-0.3-1.8
			c0-0.7,0.1-1.3,0.3-1.8c0.2-0.5,0.4-1,0.7-1.3c0.3-0.4,0.7-0.6,1.1-0.8c0.4-0.2,0.9-0.3,1.4-0.3c0.6,0,1.1,0.1,1.5,0.3
			c0.4,0.2,0.8,0.5,1.1,0.9c0.3,0.4,0.5,0.8,0.6,1.3C157.2,67.8,157.3,68.3,157.3,68.9z M155.7,68.3c0-0.3-0.1-0.5-0.1-0.8
			c-0.1-0.2-0.2-0.5-0.3-0.7c-0.2-0.2-0.3-0.3-0.6-0.4c-0.2-0.1-0.5-0.2-0.8-0.2c-0.5,0-1,0.2-1.3,0.5c-0.3,0.4-0.5,0.9-0.6,1.5
			H155.7z"/>
		<path class="st0" d="M163.5,73.1v-0.8c-0.3,0.3-0.6,0.5-1,0.7c-0.4,0.2-0.8,0.3-1.2,0.3c-0.3,0-0.7,0-1-0.1
			c-0.3-0.1-0.6-0.3-0.9-0.5c-0.3-0.2-0.5-0.5-0.7-0.9c-0.2-0.4-0.3-0.8-0.3-1.3c0-0.5,0.1-0.8,0.2-1.2c0.2-0.3,0.4-0.6,0.7-0.8
			c0.3-0.2,0.6-0.4,1-0.5c0.4-0.1,0.8-0.2,1.3-0.2c0.7,0,1.3,0.1,1.8,0.3v-0.6c0-0.4-0.1-0.8-0.4-1c-0.3-0.2-0.6-0.4-1.1-0.4
			c-0.4,0-0.8,0-1.1,0.1c-0.3,0.1-0.7,0.2-1,0.4l-0.6-1.2c0.4-0.2,0.8-0.4,1.3-0.5c0.4-0.1,1-0.2,1.5-0.2c0.9,0,1.6,0.2,2.2,0.7
			c0.6,0.4,0.8,1.1,0.8,2.1v5.6H163.5z M163.5,69.6c-0.2-0.1-0.5-0.2-0.8-0.3c-0.3-0.1-0.7-0.1-1.1-0.1c-0.5,0-0.9,0.1-1.2,0.3
			c-0.3,0.2-0.4,0.5-0.4,0.9c0,0.4,0.1,0.7,0.4,1c0.3,0.2,0.7,0.4,1.2,0.4c0.4,0,0.8-0.1,1.2-0.3c0.3-0.2,0.6-0.5,0.8-0.7V69.6z"/>
		<path class="st0" d="M171.5,66.6c-0.2-0.1-0.4-0.2-0.5-0.2c-0.2-0.1-0.4-0.1-0.7-0.1c-0.5,0-0.9,0.2-1.2,0.5
			c-0.3,0.4-0.4,0.9-0.4,1.6v4.6h-1.6v-8.1h1.6v0.8c0.2-0.3,0.4-0.5,0.8-0.7c0.3-0.2,0.7-0.3,1.1-0.3c0.3,0,0.6,0,0.8,0.1
			c0.2,0.1,0.4,0.1,0.6,0.3L171.5,66.6z"/>
	</g>
	<g>
		<g>
			<path class="st0" d="M175.4,65.2v-2h0.8c0.2,0,0.3,0,0.4,0.1c0.1,0,0.1,0.1,0.2,0.2c0,0.1,0.1,0.2,0.1,0.3c0,0.1,0,0.3-0.1,0.4
				c-0.1,0.1-0.2,0.2-0.4,0.2c0.1,0,0.1,0.1,0.1,0.1c0.1,0.1,0.1,0.2,0.2,0.3l0.3,0.5h-0.3l-0.2-0.4c-0.1-0.1-0.1-0.2-0.2-0.3
				c0-0.1-0.1-0.1-0.1-0.1c0,0-0.1,0-0.1-0.1c0,0-0.1,0-0.1,0h-0.3v0.9H175.4z M175.6,64.1h0.5c0.1,0,0.2,0,0.3,0
				c0.1,0,0.1-0.1,0.1-0.1c0-0.1,0-0.1,0-0.2c0-0.1,0-0.2-0.1-0.2c-0.1-0.1-0.2-0.1-0.3-0.1h-0.6V64.1z"/>
		</g>
	</g>
	<g>
		<path class="st0" d="M176.1,66.2c-1.1,0-2-0.9-2-2c0-1.1,0.9-2,2-2c1.1,0,2,0.9,2,2C178.1,65.3,177.2,66.2,176.1,66.2z
			 M176.1,62.6c-0.9,0-1.6,0.7-1.6,1.6s0.7,1.6,1.6,1.6c0.9,0,1.6-0.7,1.6-1.6S177,62.6,176.1,62.6z"/>
	</g>
</g>
</svg>
