<?xml version="1.0" encoding="utf-8"?>
<!-- Generator: Adobe Illustrator 21.0.0, SVG Export Plug-In . SVG Version: 6.00 Build 0)  -->
<svg version="1.1" id="Layer_1" xmlns="http://www.w3.org/2000/svg" xmlns:xlink="http://www.w3.org/1999/xlink" x="0px" y="0px"
	 viewBox="0 0 267 53" style="enable-background:new 0 0 267 53;" xml:space="preserve">
<style type="text/css">
	.st0{fill:#231F20;}
	.st1{fill:#4077BB;}
	.st2{fill:#6598CB;}
	.st3{fill:#4586C6;}
	.st4{fill:#3F6DB4;}
	.st5{fill:#3853A4;}
	.st6{fill:#154E9E;}
</style>
<g>
	<g>
		<g>
			<path class="st0" d="M75.7,18.8v5.3h11.8v4.6H75.7V34h13.4v4.6H70.2V14.2h18.6v4.6H75.7z"/>
			<path class="st0" d="M114.6,38.6H108l-5.7-8.1l-5.6,8.1h-6.4l8.7-12.5l-8.1-11.9h6.4l5.1,7.4l5.1-7.4h6.5l-8.1,11.7L114.6,38.6z"
				/>
			<path class="st0" d="M122.3,33.8l-1.9,4.7h-5.7l10.6-24.4h5.7l10.4,24.4h-5.9l-1.9-4.7H122.3z M128,19.9l-3.9,9.5h7.7L128,19.9z"
				/>
			<path class="st0" d="M151,18.9v19.7h-5.5V18.9h-7.4v-4.7h20.4v4.7H151z"/>
			<path class="st0" d="M183.7,26.4c0,7-5.6,12.4-13.1,12.4c-7.4,0-13.1-5.4-13.1-12.4c0-7.1,5.6-12.4,13.1-12.4
				C178,14,183.7,19.3,183.7,26.4z M163.1,26.4c0,4.3,3.4,7.6,7.5,7.6s7.4-3.3,7.4-7.6c0-4.3-3.3-7.6-7.4-7.6
				C166.5,18.8,163.1,22.1,163.1,26.4z"/>
			<path class="st0" d="M208,28.4c0,6.4-4.2,10.4-10.9,10.4c-6.8,0-11.1-4-11.1-10.4V14.2h5.5v14.2c0,3.5,2.3,5.6,5.6,5.6
				c3.3,0,5.4-2.1,5.4-5.6V14.2h5.5V28.4z"/>
			<path class="st0" d="M232.8,18.1l-3.2,3.9c-1.7-1.9-4.1-3.2-6.3-3.2c-4.2,0-7.4,3.2-7.4,7.5c0,4.2,3.2,7.5,7.4,7.5
				c2.2,0,4.6-1.1,6.3-2.9l3.2,3.5c-2.6,2.6-6.3,4.4-9.8,4.4c-7.3,0-12.8-5.4-12.8-12.5c0-7,5.6-12.3,13-12.3
				C226.7,14,230.4,15.6,232.8,18.1z"/>
			<path class="st0" d="M251.8,38.6V29h-11v9.6h-5.5V14.2h5.5v10.2h11V14.2h5.5v24.4H251.8z"/>
			<path class="st0" d="M266.5,13.4c0,1.5-1.2,2.9-2.8,2.9c-1.6,0-2.8-1.3-2.8-2.8s1.2-2.9,2.8-2.9
				C265.3,10.6,266.5,11.9,266.5,13.4z M266.1,13.4c0-1.3-1.1-2.5-2.5-2.5c-1.4,0-2.5,1.1-2.5,2.5s1.1,2.5,2.5,2.5
				C265.1,15.9,266.1,14.8,266.1,13.4z M264.2,13.8l0.7,1h-0.4l-0.6-0.9c-0.1,0-0.1,0-0.2,0H263v0.9h-0.4v-2.9h1.1
				c0.8,0,1.2,0.4,1.2,1C264.9,13.3,264.7,13.7,264.2,13.8z M263.7,13.6c0.5,0,0.8-0.3,0.8-0.7c0-0.4-0.3-0.7-0.8-0.7H263v1.4H263.7
				z"/>
		</g>
	</g>
	<g>
		<path id="XMLID_42_" class="st1" d="M0.8,47.3L20,26.5h18.9L18.4,48.7c-0.2,0.2-0.5,0.3-0.7,0.3H1.5C0.6,49,0.2,48,0.8,47.3z"/>
		<path id="XMLID_41_" class="st2" d="M58.1,47.3L38.9,26.5H20l20.5,22.2c0.2,0.2,0.5,0.3,0.7,0.3h16.2C58.2,49,58.7,48,58.1,47.3z"
			/>
		<polygon id="XMLID_40_" class="st3" points="29.4,36.7 38.9,26.5 38.9,26.5 20,26.5 20,26.5 		"/>
		<path id="XMLID_39_" class="st4" d="M58.1,5.7L38.9,26.5H20L40.5,4.3C40.6,4.1,40.9,4,41.2,4h16.2C58.2,4,58.7,5,58.1,5.7z"/>
		<path id="XMLID_8_" class="st5" d="M0.8,5.7L20,26.5h18.9L18.4,4.3C18.2,4.1,17.9,4,17.7,4H1.5C0.6,4,0.2,5,0.8,5.7z"/>
		<polygon id="XMLID_7_" class="st6" points="29.4,16.3 20,26.5 20,26.5 38.9,26.5 38.9,26.5 		"/>
	</g>
</g>
</svg>
