<?xml version="1.0" encoding="utf-8"?>
<!-- Generator: Adobe Illustrator 19.2.1, SVG Export Plug-In . SVG Version: 6.00 Build 0)  -->
<svg version="1.1" id="Layer_1" xmlns="http://www.w3.org/2000/svg" xmlns:xlink="http://www.w3.org/1999/xlink" x="0px" y="0px"
	 viewBox="0 0 248 103" style="enable-background:new 0 0 248 103;" xml:space="preserve">
<style type="text/css">
	.st0{opacity:0.5;}
	.st1{fill:#FFFFFF;}
</style>
<g>
	<g>
		<g class="st0">
			<path class="st1" d="M164,48.8c-0.5,3.3,0,7,1,9.4c0.2,0.5,0.5,1.1,0.7,1.5c0.1-0.2,0.3-0.5,0.4-0.7c2.4-4.7,2.2-11.9-0.2-16.1
				C165,44.6,164.4,46.6,164,48.8z"/>
			<path class="st1" d="M184.6,42.9c-1,1.6-1.7,3.6-2,5.9c-0.5,3.3,0,7,1,9.4c0.2,0.5,0.5,1.1,0.7,1.5c0.1-0.2,0.3-0.5,0.4-0.7
				C187.2,54.4,186.9,47.2,184.6,42.9z"/>
			<path class="st1" d="M145.7,47.6c-0.1,0.4-0.2,0.8-0.2,1.2c-0.5,3.3,0,7,1,9.4c0.5,1.1,1,2.1,1.7,3l0,0c1.2-1.6,2.1-3.8,2.1-6.1
				C150.3,51.6,148.4,49,145.7,47.6z"/>
			<path class="st1" d="M149.3,40.7c-1,0.9-1.8,2-2.4,3.2c0.7,0,1.3,0,2,0C149.1,42.9,149.2,41.8,149.3,40.7z"/>
		</g>
		<g>
			<path class="st1" d="M184,41.8c-1.8-2.4-5-4.2-9.1-3.9c-1.7,0.1-3.1,0.4-4.4,1c-1.9,0.9-3.3,2.2-4.3,3.9
				c2.3,4.3,2.6,11.4,0.2,16.1c-0.1,0.2-0.3,0.5-0.4,0.7c1.1,1.9,2.5,3.2,4.4,4.1c3,1.4,6.4,1.3,9,0.3c2.6-1,4.4-3,5.6-5.2
				C187.4,53.8,186.9,45.8,184,41.8z M178.5,56.2c-0.4,1.5-1,2.7-2.1,3.2c-0.5,0.2-1.7,0.3-2.4,0c-2.9-1.2-2.7-7.3-2.3-11.2
				c0.2-1.4,0.4-2.8,0.9-3.6c0.4-0.6,1.1-1.3,2.3-1.5c2.3-0.3,3.2,1.7,3.6,3.4C179.1,49.4,179.2,53.4,178.5,56.2z"/>
			<path class="st1" d="M182.4,48.7c0.3-2.3,1-4.2,2-5.9c-0.2-0.4-0.4-0.7-0.6-1c-1.8-2.4-5-4.2-9.1-3.9c-1.7,0.1-3.1,0.4-4.4,1
				c-1.9,0.9-3.3,2.2-4.3,3.9c2.3,4.3,2.6,11.4,0.2,16.1c-0.1,0.2-0.3,0.5-0.4,0.7c1.1,1.9,2.5,3.2,4.4,4.1c3,1.4,6.4,1.3,9,0.3
				c2.3-0.9,4-2.5,5.2-4.5c-0.3-0.5-0.5-1-0.7-1.5C182.4,55.7,181.9,52,182.4,48.7z M178.2,56.2c-0.4,1.5-1,2.7-2.1,3.2
				c-0.5,0.2-1.7,0.3-2.4,0c-2.9-1.2-2.7-7.3-2.3-11.2c0.2-1.4,0.4-2.8,0.9-3.6c0.4-0.6,1.1-1.3,2.3-1.5c2.3-0.3,3.2,1.7,3.6,3.4
				C178.9,49.4,178.9,53.4,178.2,56.2z"/>
			<path class="st1" d="M164,48.7c0.3-2.3,1-4.2,2-5.9c-0.2-0.4-0.4-0.7-0.6-1c-1.8-2.4-5-4.2-9.1-3.9c-1.7,0.1-3.1,0.4-4.4,1
				c-0.9,0.5-1.8,1-2.5,1.7c0.1-0.7,0.1-1.4,0.2-2.1c-6.4,0-12.7,0-19.1,0c-0.6,4.5-1,9.3-1.5,13.9c1.4,0.3,3,0.4,4.6,0.6
				c0.5,0.1,1.1,0.3,1.5,0.2c0.4-0.1,0.5-0.4,0.8-0.7s0.7-0.5,1-0.7c1.4-0.5,3-0.1,3.8,0.3c2.5,1.4,2.3,6.7-0.9,7.5
				c-2.5,0.6-5-0.8-4.6-4c-2.5,0.3-5.1,0.5-7.7,0.8c0,0.1,0,0.1,0,0.2c0.7,4.6,3.6,7.3,8.3,8.1c5,0.8,9.9-0.4,12.3-3.5
				c-0.7-0.8-1.2-1.8-1.7-3c-1-2.5-1.5-6.1-1-9.4c0.1-0.4,0.1-0.8,0.2-1.2c-1-0.5-2.1-0.9-3.3-1c-2.3-0.3-4.9-0.1-6.9,0.9
				c0.1-1.2,0.3-2.3,0.3-3.6c3.7,0,7.4,0,11.1,0c0.6-1.3,1.4-2.3,2.4-3.2c-0.1,1.1-0.2,2.2-0.4,3.2c-0.7,0-1.3,0-2,0
				c-0.5,1.1-0.9,2.3-1.2,3.7c2.7,1.4,4.6,4,4.6,7.4c0,2.3-0.8,4.5-2.1,6.1l0,0c0.9,1.1,2,2,3.4,2.7c3,1.4,6.4,1.3,9,0.3
				c2.3-0.9,4-2.5,5.2-4.5c-0.3-0.5-0.5-1-0.7-1.5C164,55.7,163.6,52,164,48.7z M159.9,56.2c-0.4,1.5-1,2.7-2.1,3.2
				c-0.5,0.2-1.7,0.3-2.4,0c-2.9-1.2-2.7-7.3-2.3-11.2c0.2-1.4,0.4-2.8,0.9-3.6c0.4-0.6,1.1-1.3,2.3-1.5c2.3-0.3,3.2,1.7,3.6,3.4
				C160.5,49.4,160.6,53.4,159.9,56.2z"/>
			<ellipse class="st1" cx="166" cy="42.8" rx="0" ry="0"/>
			<polygon class="st1" points="165.8,59.6 165.8,59.6 165.8,59.6 			"/>
			<polygon class="st1" points="184.3,59.6 184.3,59.6 184.3,59.6 			"/>
			<ellipse class="st1" cx="184.6" cy="42.8" rx="0" ry="0"/>
			<polygon class="st1" points="148.2,61.1 148.2,61.1 148.2,61.1 			"/>
			<ellipse class="st1" cx="145.7" cy="47.5" rx="0" ry="0"/>
		</g>
		<g>
			<path class="st1" d="M76.6,61.6v-1.9h-2.8c0-3.9,0-7.9,0-11.8c0.9,0,1.9,0,2.8,0c0-1.7,0-3.4,0-5.1c-5.1,0-10.1,0-15.2,0
				c0,1.7,0,3.4,0,5.1c1,0,1.9,0,2.9,0c0,3.9,0,7.9,0,11.8h-2.9v0.1c0,1.6,0,3.1,0,4.7l0,0h0.2c4.8,0.1,10,0,14.9,0.1c0,0,0,0,0-0.1
				h0.1v-1C76.6,62.8,76.6,62.2,76.6,61.6z"/>
			<path class="st1" d="M114.5,58.3c0,1.7-1.3,2.6-2.8,2.6c-2.3,0-2.9-2.1-2.9-4.6c0-2.2,0.5-3.9,1.9-4.4c0.5-0.1,1.5-0.2,2.2,0.1
				c1.1,0.5,1.4,1.8,1.5,3.5c2.1-0.3,4.3-0.5,6.5-0.7c-0.5-4.2-3.4-6.6-7.8-6.9c-4.9-0.3-9.3,1.4-11,4.8c-0.9,1.8-1.1,4.6-0.2,6.9
				h-1.8c-0.2-3.6,0.7-7.5-1-9.6s-6.5-2.7-9.5-1.3c-1.2,0.6-1.9,1.5-2.6,2.2v-3.1h-0.1c-3.1,0-6.2,0-9.3,0h-0.1v4.8l0,0
				c0.7,0,1.4,0,2.1,0v7c0,0,0,0,0,0.1h-2.1v4.8l0,0c0,0,0,0,0,0.1c4,0,7.9,0,11.9,0c0-1.6,0-3.2,0-4.8l0,0v-0.1h-2.2v-0.1
				c0-0.5,0-1,0-1.5v-2.9c0-0.2,0.1-0.3,0.1-0.4c0.5-1.5,2.6-2.5,4.2-1.7c1.8,0.8,1,4.3,1.1,6.8h-2.4v4.8h0.1c0,0,0,0,0,0.1
				c3.9,0,7.7,0,11.6,0c0,0,0,0,0-0.1h0.1v-4.4c1.3,2.8,4.6,4.6,8.5,4.8c5.2,0.4,10-1.6,10.3-6.6C118.8,58.3,116.6,58.3,114.5,58.3z
				"/>
			<path class="st1" d="M122.8,59.2c-1.4,0.2-2.2,1.1-2.4,2.2c-0.4,2.2,1.7,3.6,3.5,3.2c0.9-0.2,1.9-1.2,1.9-2.6
				C125.8,60.2,124.3,59,122.8,59.2z"/>
		</g>
	</g>
</g>
</svg>
