<?xml version="1.0" encoding="utf-8"?>
<!-- Generator: Adobe Illustrator 16.0.3, SVG Export Plug-In . SVG Version: 6.00 Build 0)  -->
<!DOCTYPE svg PUBLIC "-//W3C//DTD SVG 1.1//EN" "http://www.w3.org/Graphics/SVG/1.1/DTD/svg11.dtd">
<svg version="1.1" id="Layer_1" xmlns="http://www.w3.org/2000/svg" xmlns:xlink="http://www.w3.org/1999/xlink" x="0px" y="0px"
	 width="3362.029px" height="1821.354px" viewBox="0 0 3362.029 1821.354" enable-background="new 0 0 3362.029 1821.354"
	 xml:space="preserve">
<g>
	<path fill-rule="evenodd" clip-rule="evenodd" fill="#130553" d="M3329.814,1626.804c2.267,3.345,1.119,7.111,1.126,10.657
		c0.087,48.854,0.041,97.708,0.093,146.562c0.004,3.616-0.683,7.312,0.689,10.854c-1096.667,0-2193.333,0-3290,0
		c-0.032-52.989-0.064-105.979-0.093-158.969c-0.001-1.333,0.059-2.666,0.044-3.998c-0.038-3.223,1.375-4.978,4.758-4.948
		c3.666,0.031,7.331-0.052,10.997-0.052c1087.464-0.002,2174.928-0.002,3262.392-0.007
		C3323.152,1626.903,3326.483,1626.838,3329.814,1626.804z M3192.759,1717.744c-0.619,0.168-1.238,0.335-1.858,0.502
		c-1.485-2.424-3.046-4.806-4.445-7.279c-6.221-11-12.386-22.031-18.591-33.04c-8.728-15.483-8.735-15.479-26.604-15.022
		c-7.061,0.181-7.211,0.181-7.232,7.102c-0.072,23.636-0.031,47.272-0.032,70.909c-0.001,16.498,0,16.498,16.136,16.122
		c7.202-0.168,7.267-0.168,7.297-7.975c0.053-13.316-0.017-26.634,0.049-39.949c0.012-2.42-0.532-5.031,1.343-8.537
		c8.035,14.387,15.448,27.649,22.853,40.918c9.024,16.174,9.018,15.973,27.242,15.673c5.211-0.086,6.757-1.607,6.695-6.822
		c-0.264-22.635,0.009-45.275-0.189-67.911c-0.055-6.215,2.933-14.614-1.404-18.122c-4.941-3.997-13.273-1.345-21.258-0.972
		C3192.759,1681.628,3192.759,1699.687,3192.759,1717.744z M213.828,1719.526c-3.982-3.348-5.146-6.421-6.708-9.169
		c-6.242-10.979-13.705-21.485-18.305-33.12c-5.169-13.075-13.862-15.832-26.242-14.413c-6.961,0.799-7.166,0.27-7.186,7.109
		c-0.071,23.625-0.032,47.251-0.034,70.876c-0.001,16.907-0.005,16.656,16.91,16.345c5.161-0.095,5.98-1.996,5.908-6.468
		c-0.232-14.305-0.163-28.616-0.022-42.923c0.02-2-1.427-4.646,2.096-6.412c7.636,13.596,16.421,26.67,22.543,40.891
		c5.588,12.98,13.865,16.617,26.949,15.025c5.262-0.641,6.556-1.974,6.511-6.959c-0.213-23.956-0.094-47.916-0.095-71.874
		c0-16.436,0.004-16.267-16.736-15.605c-4.388,0.173-5.734,1.597-5.648,5.84c0.214,10.644,0.063,21.295,0.06,31.942
		C213.826,1706.41,213.828,1712.208,213.828,1719.526z M450.752,1713.17c2.175-1.678,3.21-2.453,4.221-3.26
		c8.879-7.078,10.597-16.663,8.628-27.007c-1.87-9.825-8.899-15.227-18.055-18.078c-3.805-1.186-7.671-2.002-11.752-1.966
		c-14.313,0.126-28.629,0.002-42.943,0.063c-7.4,0.031-7.504,0.118-7.521,7.687c-0.055,22.97-0.109,45.939,0.042,68.908
		c0.037,5.549-2.534,12.813,1.227,16.228c4.078,3.702,11.418,0.822,17.307,1.316c4.138,0.347,6.139-1.028,5.813-5.536
		c-0.31-4.305-0.064-8.649-0.064-12.978c0.001-16.654,0.001-16.654,16.296-15.961c10.839,0.46,14.747,4.134,15.982,15.021
		c0.562,4.946,1.153,9.891,1.677,14.842c0.336,3.181,1.925,4.74,5.227,4.578c6.27-0.307,12.595,0.661,19.104-0.64
		c-1.55-7.394-1.979-14.67-2.691-21.923C462.432,1726.152,460.147,1718.071,450.752,1713.17z M700.036,1709.887
		c0,13.324-0.054,26.648,0.021,39.973c0.04,6.992,0.143,7.125,7.105,7.153c18.653,0.076,37.31,0.225,55.96-0.031
		c16.715-0.23,13.843,3.601,14.385-14.921c0.15-5.146-2.041-6.13-6.506-6.061c-12.321,0.193-24.648,0.098-36.973,0.052
		c-8.579-0.032-8.58-0.079-8.625-8.669c-0.007-1.332,0.113-2.676-0.02-3.994c-0.385-3.835,1.202-5.289,5.106-5.212
		c9.656,0.19,19.319,0.128,28.979,0.041c13.45-0.121,11.645,1.825,12.067-12.485c0.15-5.084-1.286-7.065-6.655-6.898
		c-11.314,0.353-22.651-0.07-33.971,0.188c-4.423,0.102-6.005-1.507-5.534-5.732c0.184-1.645,0.228-3.355-0.004-4.988
		c-0.718-5.086,1.771-6.131,6.332-6.01c10.319,0.273,20.652,0.213,30.976,0.055c14.461-0.221,12.654,2.844,13.069-13.441
		c0.128-5.031-1.823-6.123-6.409-6.081c-20.983,0.188-41.973,0.271-62.953-0.039c-5.696-0.084-6.497,2.385-6.421,7.132
		C700.18,1683.237,700.041,1696.563,700.036,1709.887z M2573.629,1709.211c0.49-4.817-0.566-10.365-2.066-15.814
		c-5.363-19.484-21.598-31.781-41.621-32.587c-24.086-0.969-40.245,12.029-46.319,30.272c-2.57,7.72-2.935,15.621-2.475,23.63
		c1.83,31.859,28.29,50.958,59.203,42.741C2561.36,1751.868,2573.567,1734.501,2573.629,1709.211z M1905.117,1709.415
		c0.286,3.769,0.352,6.768,0.764,9.719c3.25,23.305,20.102,39.048,42.605,39.887c25.471,0.949,43.499-12.458,48.58-36.451
		c1.734-8.19,1.709-16.581,0.075-24.785c-4.509-22.641-21.52-36.712-44.186-36.893c-24.499-0.195-41.67,13.136-46.57,36.414
		C1905.501,1701.5,1905.468,1705.874,1905.117,1709.415z M356.489,1710.666c-0.132-0.013-0.264-0.025-0.396-0.038
		c0-1.994,0.1-3.995-0.015-5.982c-1.391-24.149-18.344-42.179-41.053-43.698c-26.697-1.786-45.947,12.34-50.726,37.408
		c-1.377,7.227-1.407,14.574-0.208,21.841c3.784,22.933,20.378,38.007,42.583,38.831c25.135,0.934,42.788-11.979,48.247-35.542
		C355.887,1719.314,355.989,1714.944,356.489,1710.666z M1788.956,1707.765c0.097,14.329,2.606,23.624,7.948,31.806
		c10.285,15.755,30.345,23.125,50.087,18.401c19.384-4.639,32.403-19.721,34.401-40.323c0.51-5.256,0.551-10.659-0.026-15.902
		c-2.507-22.752-19.287-39.377-40.791-40.81c-25.755-1.716-44.394,10.961-50.107,34.421
		C1789.299,1700.155,1789.248,1705.225,1788.956,1707.765z M3061.773,1660.896c-25.638-0.158-42.325,14.441-46.664,39.849
		c-1.334,7.81-0.651,15.226,0.824,22.688c4.044,20.442,20.632,34.621,41.236,35.594c23.59,1.113,41.297-10.395,47.764-31.118
		c2.301-7.373,2.939-14.961,2.517-22.651C3106.005,1678.993,3087.534,1661.056,3061.773,1660.896z M670.115,1710.625
		c0-13.973-0.098-27.946,0.06-41.917c0.046-4.062-0.964-6.185-5.52-5.854c-4.303,0.312-8.656,0.248-12.967,0.002
		c-4.233-0.242-5.954,1.27-5.805,5.668c0.259,7.643-0.169,15.311,0.149,22.949c0.187,4.489-1.518,5.729-5.753,5.568
		c-7.309-0.277-14.644-0.302-21.95-0.009c-4.189,0.168-5.026-1.675-4.943-5.318c0.175-7.647-0.104-15.307,0.104-22.952
		c0.112-4.109-1.005-6.244-5.563-5.911c-3.971,0.29-7.98-0.004-11.972,0.069c-6.813,0.124-6.948,0.16-6.969,7.287
		c-0.069,22.955-0.154,45.911,0.055,68.864c0.053,5.8-2.817,13.411,1.632,16.957c4.171,3.325,11.531,0.582,17.456,1.055
		c4.738,0.378,5.454-2.072,5.371-6.022c-0.188-8.979,0.082-17.967-0.138-26.944c-0.1-4.077,0.841-6.109,5.47-5.904
		c7.305,0.323,14.638,0.211,21.952,0.029c3.769-0.094,5.335,1.103,5.239,5.115c-0.23,9.643,0.024,19.296-0.119,28.941
		c-0.051,3.385,1.136,4.862,4.583,4.762c4.653-0.136,9.327-0.251,13.967,0.039c4.235,0.265,5.845-1.078,5.762-5.556
		C669.962,1737.908,670.124,1724.265,670.115,1710.625z M2456.174,1691.024c-0.64-13.025-6.588-21.48-17.607-26.179
		c-14.203-6.057-28.622-5.616-42.591,0.681c-10.191,4.594-16.082,12.588-16.019,24.249c0.063,11.48,6.603,18.389,16.357,22.832
		c6.671,3.038,13.796,4.742,20.901,6.494c4.816,1.188,9.782,2.23,13.854,5.315c4.717,3.574,4.735,8.95,0.219,12.601
		c-8.136,6.573-24.676,3.562-28.311-5.974c-1.918-5.03-4.57-5.658-8.817-5.512c-3.989,0.138-7.991,0.162-11.979,0.016
		c-4.104-0.151-5.171,1.736-4.599,5.544c1.802,11.976,8.445,20.073,19.622,24.285c14.599,5.501,29.355,5.314,43.831-0.373
		c12.027-4.725,18.435-14.565,18.394-27.029c-0.037-11.346-6.18-19.614-18.501-24.595c-7.417-2.998-15.257-4.596-22.986-6.551
		c-3.534-0.894-7.136-1.77-10.142-3.966c-4.403-3.216-4.49-7.471-0.35-10.708c6.212-4.856,19.308-3.06,22.951,4.028
		c2.074,4.032,4.224,5.082,8.241,4.903C2444.244,1690.838,2449.865,1691.024,2456.174,1691.024z M984.064,1691.024
		c0.486-12.935-5.71-21.117-16.103-25.774c-15.071-6.754-30.381-6.213-45.248,1.221c-9.537,4.768-14.499,12.914-14.462,23.268
		c0.038,10.588,5.938,18.075,15.543,22.448c6.976,3.176,14.372,5.071,21.806,6.878c4.818,1.171,9.78,2.245,13.898,5.227
		c4.618,3.344,4.997,8.036,1.216,11.907c-6.475,6.629-25.251,5.289-28.197-3.137c-2.77-7.918-7.451-7.888-13.581-7.527
		c-2.653,0.155-5.334,0.2-7.981,0.003c-4.9-0.366-5.568,2.406-4.875,6.251c1.836,10.169,7.171,17.994,16.608,22.249
		c16.338,7.365,33.053,7.229,49.257-0.144c11.039-5.021,15.915-14.479,15.71-26.663c-0.192-11.449-6.435-18.313-16.261-22.883
		c-7.607-3.537-15.766-5.135-23.785-7.229c-3.87-1.012-7.814-1.871-11.146-4.141c-4.2-2.861-4.334-7.851-0.52-10.856
		c6.098-4.805,19.598-2.972,22.938,4.094c2.016,4.264,4.251,4.967,8.122,4.852C972.596,1690.899,978.198,1691.024,984.064,1691.024z
		 M1239.425,1691.024c0.478-12.169-4.601-20.966-15.584-25.773c-15.146-6.63-30.428-6.268-45.283,1.196
		c-9.473,4.76-14.45,12.791-14.43,23.287c0.021,10.76,6.013,17.971,15.519,22.429c6.963,3.266,14.401,5.052,21.821,6.913
		c4.505,1.13,9.091,2.221,13.081,4.703c5.006,3.114,5.822,7.592,2.679,11.739c-4.964,6.548-26.488,6.905-28.965-2.455
		c-2.237-8.457-7.486-7.704-13.465-7.52c-2.994,0.093-5.997,0.124-8.99,0.019c-3.68-0.129-4.452,1.689-4.009,4.994
		c1.727,12.887,9.01,21.344,21.03,25.395c13.983,4.712,28.15,4.68,42.012-0.78c12.33-4.856,18.521-13.954,18.631-26.735
		c0.104-12.098-5.767-20.39-18.81-25.199c-7.147-2.636-14.665-4.28-22.036-6.297c-3.532-0.966-7.155-1.758-10.208-3.846
		c-4.765-3.26-4.734-8.253-0.093-11.362c6.37-4.267,19.26-2.546,22.163,4.242c2.193,5.129,5.14,5.082,9.131,5.059
		C1228.904,1691.001,1234.188,1691.024,1239.425,1691.024z M2353.367,1690.458c0.682-11.576-4.279-20.19-15.381-25.184
		c-14.431-6.489-29.181-6.194-43.553,0.162c-10.262,4.54-16.344,12.745-16.29,24.177c0.052,11.151,6.397,18.515,16.354,22.947
		c6.712,2.988,13.824,4.68,20.911,6.495c4.809,1.231,9.775,2.284,13.904,5.25c4.726,3.394,5.123,7.971,1.384,11.87
		c-5.604,5.843-26.346,6.043-28.9-3.857c-1.688-6.543-5.515-7.151-10.863-6.802c-3.646,0.238-7.326,0.175-10.983,0.032
		c-3.686-0.143-4.521,1.652-4.095,4.942c1.496,11.554,7.512,19.874,18.193,24.292c14.766,6.107,29.87,6.136,44.752,0.423
		c12.74-4.89,18.814-14.309,18.675-27.675c-0.121-11.513-5.964-19.539-18.667-24.253c-7.139-2.648-14.643-4.33-22.016-6.321
		c-3.538-0.955-7.154-1.73-10.23-3.782c-4.77-3.183-4.824-8.222-0.277-11.381c5.857-4.07,19.059-2.982,21.578,3.274
		c2.656,6.6,6.768,6.111,11.666,5.939C2344.146,1690.845,2348.815,1691.639,2353.367,1690.458z M1603.49,1710.977
		c-5.382,0-9.685,0.133-13.975-0.042c-3.391-0.139-5.72,0.572-6.207,4.499c-0.18,1.452-0.903,3.187-3.722,3.401
		c-2.435-2.931-5.107-6.148-7.769-9.353c16.936-15.3,19.882-27.225,10.029-39.317c-8.817-10.822-26.945-12.569-38.872-3.745
		c-11.501,8.509-12.253,20.137-2.091,36.135c-2.938,2.048-5.991,3.987-8.836,6.194c-8.121,6.299-12.992,14.337-11.487,24.92
		c1.698,11.943,8.547,19.892,20.119,23.593c11.079,3.543,21.747,2.284,31.677-3.544c4.285-2.515,7.892-5.402,11.223,0.903
		c0.82,1.554,2.358,2.329,4.135,2.336c7.734,0.026,15.468,0.011,24.903,0.011c-6.414-7.486-11.259-13.341-16.34-18.982
		c-2.383-2.646-2.679-4.669-0.258-7.597C1600.333,1725.174,1602.5,1718.941,1603.49,1710.977z M2687.596,1721.455
		c-6.949-1.299-13.605-0.29-20.184-0.754c-3.844-0.271-4.02,2.58-5.044,4.902c-4.773,10.823-12.937,14.722-24.104,11.642
		c-7.058-1.946-11.271-6.872-13.724-13.366c-3.543-9.381-3.455-18.972,0.156-28.258c2.941-7.565,8.139-12.857,16.939-13.37
		c8.836-0.515,16.746,0.795,20.678,10.133c1.143,2.713,2.596,4.306,5.897,4.04c6.241-0.501,12.567,0.585,19.06-0.688
		c0.6-8.46-2.844-15.138-8.277-20.743c-12.391-12.783-27.756-16.453-44.8-13.026c-17.576,3.534-28.57,14.725-34.082,31.485
		c-2.094,6.366-2.644,12.998-2.247,19.699c2.438,41.141,41.26,54.858,69.676,40.705
		C2680.453,1747.424,2686.688,1736.108,2687.596,1721.455z M1268.035,1708.874c0,9.974-0.185,19.952,0.07,29.92
		c0.15,5.862-2.707,13.478,1.502,17.124c4.028,3.489,11.492,0.604,17.396,1.181c5.527,0.539,6.784-2.016,6.483-6.948
		c-0.343-5.631-0.13-11.299-0.067-16.95c0.088-7.829,0.125-7.828,8.38-7.927c6.314-0.076,12.649,0.129,18.939-0.301
		c8.648-0.592,16.43-3.721,21.198-11.273c7.04-11.152,7.828-23.258,2.284-35.173c-5.218-11.213-15.518-15.128-27.032-15.498
		c-14.28-0.46-28.59,0.034-42.882-0.206c-4.666-0.079-6.47,1.228-6.362,6.159
		C1268.234,1682.273,1268.043,1695.576,1268.035,1708.874z M1711.828,1757.035c1.337-8.816,0.629-17.118,0.607-25.374
		c-0.013-4.635,1.48-6.621,6.324-6.457c6.979,0.236,13.985,0.147,20.964-0.167c8.687-0.392,16.579-3.299,21.538-10.716
		c7.337-10.974,8.36-23.031,3.082-35.138c-4.986-11.433-15.175-15.63-26.673-16.103c-14.623-0.602-29.29-0.045-43.936-0.224
		c-4.236-0.052-5.906,1.297-5.796,5.69c0.243,9.647,0.067,19.307,0.066,28.961c-0.001,17.644,0.208,35.291-0.124,52.929
		c-0.102,5.395,1.733,6.985,6.821,6.676C1700.314,1756.771,1705.961,1757.035,1711.828,1757.035z M1447.158,1757.038
		c1.08-3.858-0.949-6.441-1.944-9.146c-8.608-23.391-17.389-46.719-26.118-70.064c-5.627-15.049-5.627-15.046-22.293-14.925
		c-10.265,0.074-8.151-0.398-11.212,7.699c-9.635,25.489-19.184,51.011-28.673,76.555c-1.111,2.991-3.098,5.837-2.438,9.876
		c6.382,0,12.688-0.132,18.986,0.053c3.515,0.103,5.301-1.126,6.523-4.588c1.4-3.965,1.372-9.206,5.231-11.436
		c3.704-2.14,8.479-0.553,12.775-0.767c1.992-0.1,3.994-0.017,5.991-0.017c12.898,0,13.128-0.081,17.319,11.708
		c1.373,3.861,3.195,5.261,7.13,5.113C1434.723,1756.866,1441.024,1757.038,1447.158,1757.038z M2759.884,1757.037
		c7.586,0,13.898-0.119,20.203,0.047c3.414,0.09,5.407-0.875,6.561-4.439c1.297-4.011,1.408-9.281,5.104-11.489
		c3.953-2.361,9.12-0.611,13.748-0.858c1.993-0.106,3.997-0.018,5.996-0.018c11.888,0.001,11.85,0.016,16.508,11.531
		c0.937,2.316,1.246,5.293,4.987,5.227c7.104-0.128,14.213-0.037,22.123-0.037c-1.146-3.319-1.747-5.196-2.436-7.04
		c-8.734-23.361-17.477-46.72-26.228-70.075c-6.973-18.609-6.971-18.498-26.869-17.076c-3.617,0.259-5.133,1.643-6.337,4.9
		C2782.418,1697.002,2771.417,1726.231,2759.884,1757.037z M2259.165,1757.039c0.103-4.147-1.488-6.767-2.511-9.518
		c-8.574-23.058-17.191-46.099-25.846-69.125c-1.866-4.968-2.647-11.476-6.257-14.355c-4.101-3.271-10.914-1.015-16.541-1.083
		c-7.995-0.097-8.056,0.016-11.049,7.991c-9.11,24.274-18.229,48.547-27.194,72.875c-1.467,3.98-3.909,7.723-3.844,13.212
		c3.968,0,7.845,0,11.721,0c11.814,0.002,12.053,0.087,15.908-10.802c1.594-4.5,3.789-6.319,8.633-6.057
		c7.306,0.396,14.651,0.223,21.975,0.051c3.566-0.084,5.914,1.221,6.324,4.752c1.301,11.203,8.313,13.458,18.058,12.129
		C2251.794,1756.666,2255.159,1757.039,2259.165,1757.039z M796.401,1757.019c6.366,0,12.985-0.1,19.599,0.042
		c3.265,0.07,5.217-1.44,5.542-4.438c1.301-12.007,8.977-13.869,19.016-12.385c1.956,0.289,3.991,0.042,5.99,0.042
		c12.056,0.001,12.07-0.005,16.538,11.505c0.937,2.412,1.131,5.297,4.855,5.244c7.123-0.1,14.248-0.028,22.375-0.028
		c-9.95-26.665-19.294-51.873-28.791-77.022c-2.1-5.558-2.455-12.96-7.071-16.073c-4.618-3.114-11.675-0.52-17.617-1.068
		c-5.15-0.475-7.498,1.546-9.277,6.454c-9.745,26.884-19.928,53.61-29.88,80.42C796.897,1751.814,795.296,1753.83,796.401,1757.019z
		 M1046.64,1662.904c-8.323,0-16.646,0-24.969,0c-15.72,0-15.577-0.007-14.835,15.511c0.198,4.151,1.29,6.095,5.741,5.864
		c5.313-0.274,10.667,0.206,15.972-0.132c5.23-0.333,6.909,1.583,6.813,6.861c-0.302,16.64-0.272,33.292-0.014,49.934
		c0.08,5.16-2.615,11.848,1.441,15.138c3.772,3.06,10.24,0.863,15.513,0.902c6.978,0.052,7.094-0.124,7.122-7.085
		c0.068-17.312,0.022-34.623,0.022-51.935c0.001-13.741,0.004-13.559,13.478-13.79c16.688-0.287,14.254,3.678,14.644-15.837
		c0.092-4.605-1.96-5.54-5.974-5.485C1069.946,1663.01,1058.292,1662.907,1046.64,1662.904z M2937.125,1662.904
		c-21.286,0-42.907-0.001-64.527,0c-16.361,0-16.425,0.168-14.857,16.528c0.316,3.298,1.398,4.834,4.765,4.787
		c5.662-0.079,11.353,0.335,16.983-0.093c5.489-0.417,6.629,1.934,6.552,6.904c-0.253,16.321-0.095,32.648-0.095,48.973
		c0,17.773-0.004,17.566,18.248,17.168c4.917-0.107,6.152-1.611,6.093-6.313c-0.237-18.653-0.129-37.313-0.083-55.969
		c0.027-11.227-1.47-10.657,10.793-10.675c19.493-0.029,19.495-0.041,16.929-19.845
		C2937.884,1664.063,2937.615,1663.785,2937.125,1662.904z M511.955,1720.253c0,6.997,0,13.993,0,20.989
		c0,15.905,0,15.909,15.491,15.796c9.394-0.068,8.748,1.046,8.752-8.416c0.009-19.323,0.123-38.647-0.082-57.968
		c-0.049-4.643,1.212-6.752,6.141-6.498c5.648,0.291,11.324,0.058,16.987,0.055c2.381-0.002,5.045,0.1,5.1-3.202
		c0.092-5.618,2.067-12.07-0.903-16.605c-2.456-3.749-8.627-0.993-13.122-1.458c-2.308-0.237-4.66-0.041-6.992-0.041
		c-17.657,0.001-35.314-0.025-52.972,0.037c-2.19,0.008-5.667-0.964-6.096,1.779c-0.918,5.881-1.059,11.964,0.158,17.862
		c0.354,1.714,2.67,1.604,4.333,1.609c5.663,0.019,11.343,0.282,16.986-0.048c4.704-0.275,6.496,1.167,6.321,6.128
		C511.706,1700.255,511.953,1710.259,511.955,1720.253z M2025.359,1710.443c0,13.32,0.219,26.647-0.109,39.96
		c-0.128,5.186,1.394,6.825,6.672,6.718c15.979-0.327,31.971,0.069,47.953-0.166c16.117-0.238,13.277,3.301,13.8-14.467
		c0.139-4.714-1.271-6.531-6.155-6.407c-10.649,0.271-21.318-0.159-31.965,0.164c-4.985,0.151-6.236-1.768-6.179-6.397
		c0.203-16.315,0.079-32.636,0.078-48.954c-0.001-18.808,0.003-18.664-18.381-18.056c-4.241,0.141-5.845,1.244-5.777,5.645
		C2025.508,1682.467,2025.375,1696.456,2025.359,1710.443z M2714.028,1710.296c0,13.647,0.125,27.297-0.075,40.941
		c-0.061,4.189,1.089,6.118,5.57,5.862c4.977-0.285,9.989-0.228,14.974-0.018c4.06,0.171,4.985-1.758,4.972-5.418
		c-0.103-27.628-0.116-55.257-0.004-82.884c0.017-4.078-0.941-6.255-5.534-5.936c-4.307,0.3-8.651-0.017-12.977,0.08
		c-6.748,0.151-6.854,0.201-6.899,7.427C2713.973,1683.666,2714.032,1696.981,2714.028,1710.296z M2987.492,1710.174
		c0-10.649,0.001-21.299,0-31.949c-0.002-15.514-0.003-15.514-15.994-15.319c-8.112,0.099-8.205,0.098-8.223,8.001
		c-0.052,22.964-0.118,45.928,0.049,68.89c0.04,5.516-2.514,12.645,1.413,16.146c3.813,3.401,10.837,0.539,16.397,1.15
		c5.607,0.617,6.537-2.142,6.444-6.983C2987.326,1736.801,2987.491,1723.486,2987.492,1710.174z"/>
	<path fill-rule="evenodd" clip-rule="evenodd" fill="#21479D" d="M37.722,1508.877c24.057-11.791,50.342-14.375,76.288-17.829
		c67.707-9.015,135.805-13.942,203.924-18.621c69.123-4.748,138.292-8.619,207.487-12.115
		c74.516-3.766,149.044-7.216,223.603-10.013c44.926-1.686,89.848-3.521,134.771-5.307c1.322-0.053,2.638-0.291,3.957-0.442
		l0.975,0.218l0.949-0.31c1.382-0.007,2.765-0.014,4.146-0.021c6.337,1.888,13.306-1.673,19.407,2.249
		c-10.65,0.196-21.313,0.141-31.949,0.633c-53.923,2.49-107.847,4.985-161.756,7.75c-41.266,2.116-82.518,4.498-123.761,7.013
		c-46.232,2.818-92.467,5.632-138.662,8.981c-42.533,3.083-85.036,6.606-127.451,11.138c-31.805,3.397-63.572,6.987-95.057,12.715
		c-11.797,2.146-23.572,4.511-34.779,8.883c-3.888,1.517-9.35,2.797-9.409,7.773c-0.059,4.985,5.292,6.315,9.228,7.86
		c15.285,5.999,31.376,8.818,47.472,11.481c52.628,8.707,105.689,13.671,158.784,18.438c80.325,7.212,160.789,12.441,241.278,17.296
		c41.567,2.508,83.165,4.52,124.751,6.724c1.641,0.087,3.3-0.151,4.953-0.238c-3.295,2.868-7.554,0.477-11.092,2.027
		c-30.262-1.399-60.525-2.736-90.783-4.213c-50.56-2.467-101.121-4.885-151.668-7.582c-50.215-2.681-100.43-5.416-150.613-8.622
		c-42.536-2.719-85.029-6.122-127.538-9.264c-36.864-2.725-73.653-6.264-110.352-10.669c-24.451-2.935-48.827-6.339-72.916-11.699
		c-8.446-1.879-15.788-6.513-24.187-8.234C37.722,1512.877,37.722,1510.877,37.722,1508.877z"/>
	<path fill-rule="evenodd" clip-rule="evenodd" fill="#21479D" d="M3329.814,1626.804c-3.331,0.034-6.662,0.1-9.994,0.1
		c-1087.464,0.005-2174.928,0.005-3262.392,0.007c-3.666,0-7.332,0.083-10.997,0.052c-3.383-0.029-4.795,1.726-4.758,4.948
		c0.015,1.332-0.045,2.665-0.044,3.998c0.029,52.989,0.062,105.979,0.093,158.969c-1.255-0.824-4.243,1.947-4.023-2.001
		c0.129-2.326,0.023-4.666,0.023-6.999c0-53,0-106,0-159c3.131-1.136,6.298-1.846,9.694-1.666c3.656,0.193,7.329,0.047,10.995,0.047
		c1087.076,0,2174.151-0.003,3261.227,0.104C3322.979,1625.363,3326.854,1623.445,3329.814,1626.804z"/>
	<path fill-rule="evenodd" clip-rule="evenodd" fill="#120452" d="M1898.239,1234.372c-1.15,5.183-2.236,10.38-3.462,15.544
		c-9.237,38.936-31.012,69.503-62.876,93.067c-32,23.665-68.29,36.676-107.521,41.948c-60.105,8.078-116.249-5.592-170.175-31.197
		c-42.606-20.23-81.021-47.048-118.274-75.651c-11.068-8.498-21.97-17.213-33.519-26.276c10.445-10.576,20.439-20.695,30.434-30.815
		c6.063-5.678,12.223-11.258,18.174-17.052c20.266-19.729,40.441-39.553,60.691-59.299c5.106-4.979,5.216-4.948,9.904,0.193
		c6.277,6.885,12.326,13.983,18.748,20.728c12.829,13.471,25.438,27.214,41.269,37.383c14.041,11.702,30.234,19.109,48.224,21.263
		c22.189,2.656,41.904-3.14,56.798-21.047c10.465-10.864,14.828-24.21,15.457-38.925c1.298-30.337-7.908-57.709-24.438-82.729
		c-11.014-16.671-23.801-32.042-36.911-47.098c-27.307-31.357-55.06-62.33-82.09-93.922c-26.42-30.88-50.844-63.249-69.564-99.569
		c-13.408-26.013-22.127-53.293-23.437-82.743c-0.579-13.015,1.123-25.855,2.178-38.754c3.309-9.639,5.03-19.726,8.646-29.3
		c7.324-19.392,18.597-36.295,31.843-52.023c20.305-19.452,42.896-35.439,68.998-46.324c15.663-6.531,32.073-10.371,48.424-14.502
		c16.217-1.71,32.429-3.218,48.78-3.13c23.408,0.125,46.364,3.648,69.206,8.301c4.113,1.214,8.213,2.483,12.345,3.632
		c28.535,7.934,54.891,20.807,80.476,35.434c17.595,11.875,35.119,23.844,51.246,37.712c1.258,1.081,2.448,2.276,3.827,3.176
		c3.758,2.45,4.679,5.049,1.467,8.823c-2.567,3.016-4.588,6.496-6.846,9.774c-14.675,21.311-29.366,42.61-44.002,63.947
		c-1.862,2.715-4.203,5.183-4.978,8.541c-6.464,6.567-9.93,15.498-16.928,22.222c-4.241-3.928-8.129-7.532-12.021-11.13
		c-8.851-8.181-18.525-15.235-29.106-21.003c-12.203-6.651-25.403-11.139-39.173-10.265c-37.958,2.407-71.938,28.354-73.971,75.817
		c-0.846,19.741,6.384,37.126,16.977,53.352c12.599,19.297,27.015,37.197,41.937,54.706c28.535,33.482,59.041,65.235,87.095,99.141
		c23.621,28.55,45.673,58.167,62.311,91.484c14.755,29.547,24.064,60.521,25.317,93.726
		C1900.132,1212.54,1898.754,1223.428,1898.239,1234.372z"/>
	<path fill-rule="evenodd" clip-rule="evenodd" fill="#120452" d="M1956.999,635.833c0.163-1.265,0.597-2.562,0.444-3.786
		c-0.681-5.485,2.73-4.364,5.867-3.769c14.193,4.479,28.487,8.663,42.558,13.499c24.392,8.384,48.645,17.172,72.956,25.79
		c17.613,7.743,35.301,15.324,52.822,23.27c24.818,11.253,48.928,23.902,72.671,37.28c13.054,7.354,25.015,16.294,37.399,24.621
		c18.762,16.187,35.556,34.193,50.202,54.191c8.355,14.731,17.16,29.208,23.516,45.006c14.844,36.896,19.485,75.175,16.046,114.61
		c-0.23,2.646-0.33,5.305-0.489,7.959c-3.425,18.258-7.341,36.368-13.751,53.887c-9.784,26.739-23.829,51.095-40.541,74.014
		c-0.779,0.617-1.698,1.119-2.315,1.87c-27.543,33.519-62.474,57.256-100.938,76.325c-7.707,3.821-15.387,7.697-23.079,11.549
		c-9.264,3.712-18.515,7.454-27.798,11.118c-3.111,1.229-4.603,3.11-4.563,6.716c0.276,24.98,0.361,49.963,0.508,74.944
		c-0.152,13.617-0.36,27.233-0.439,40.852c-0.075,12.965-0.005,25.931-0.02,38.896c-0.012,9.425,0.774,8.592-8.557,8.594
		c-47.872,0.011-95.745,0.005-143.617,0.006c-9.336,0-8.364,0.412-8.367-8.827c-0.012-35.571,0.009-71.144-0.027-106.715
		c-0.004-3.641-0.309-7.281-0.475-10.922c0.139-3.316,0.399-6.634,0.399-9.95c0.02-196.692,0.02-393.384-0.001-590.076
		C1957.41,643.134,1957.142,639.483,1956.999,635.833z M2185.901,894.47c-13.333-25.431-52.723-50.547-76.908-48.555
		c0,3.226,0,6.512,0,9.799c0,22.322-0.101,44.646,0.041,66.967c0.071,11.31-0.698,22.637,0.499,33.931
		c-1.765,11.593-1.591,23.193-0.146,34.8c-1.073,21.139-0.268,42.251-0.58,64.809c21.811-8.972,41.019-18.546,57.064-33.452
		c11.317-10.516,20.604-22.553,25.548-37.479c5.011-8.549,6.558-18.165,7.456-27.699
		C2200.974,935.327,2198.25,913.857,2185.901,894.47z"/>
	<path fill-rule="evenodd" clip-rule="evenodd" fill="#120452" d="M1299.413,1248.01c18.963,0.125,37.927,0.244,56.891,0.377
		c8.805,0.062,8.882,0.072,8.89,8.501c0.033,35.28,0.039,70.561,0,105.841c-0.01,7.937-0.113,8.024-8.351,8.026
		c-87.202,0.021-174.403,0.021-261.605-0.003c-8.142-0.002-8.231-0.093-8.257-8.088c-0.058-18.307,0.022-36.612-0.055-54.918
		c-0.014-3.271,0.751-6.67-0.951-9.796c0.813-17.041,0.746-34.083,0.034-51.126c1.502-2.806,0.987-5.855,0.989-8.816
		c0.027-40.588,0.031-81.176-0.015-121.764c-0.003-2.593,0.719-5.344-0.991-7.744c0.156-15.216,0.452-30.433,0.435-45.648
		c-0.029-24.816-0.263-49.632-0.41-74.447c1.458-2.822,0.92-5.874,0.922-8.834c0.031-46.602,0.028-93.202,0.006-139.804
		c-0.002-3.3,0.477-6.685-1.168-9.802c0.225-3.283,0.622-6.564,0.644-9.849c0.08-11.904,0.32-23.82-0.096-35.711
		c-0.188-5.345,1.449-8.801,6.145-11.168c2.644-1.332,5.063-3.114,7.571-4.711c15.587-9.921,31.171-19.847,46.756-29.771
		c8.954-3.651,16.892-9.171,25.276-13.855c34.858-19.475,70.834-36.597,107.751-51.776c2.146-0.883,4.24-1.896,6.358-2.847
		c15.557-5.771,31.084-11.625,46.68-17.289c14.938-5.426,29.946-10.654,44.923-15.97c6.136-1.846,6.263,2.48,6.682,6.51
		c-0.147,3.323-0.421,6.643-0.423,9.962c-0.031,38.62-0.146,77.241,0.114,115.859c0.038,5.616-1.524,8.229-6.981,9.959
		c-9.161,2.902-18.446,5.628-27.109,9.953c-19.477,5.979-38.188,13.779-56.085,23.525c-21.257,8.645-41.13,20.052-61.389,30.694
		c-3.305,1.736-4.712,4.028-4.685,7.876c0.222,30.235,0.261,60.472,0.355,90.708c-0.773,16.978-0.905,33.954,0.059,50.93
		c0.162,7.41,0.161,7.434,6.38,7.632c2.33,0.074,4.664,0.014,6.997,0.014c31.321,0,62.643-0.034,93.964,0.025
		c7.565,0.015,7.698,0.157,7.708,7.726c0.049,38.985,0.048,77.971,0.001,116.956c-0.009,7.488-0.139,7.617-7.747,7.631
		c-29.655,0.057-59.311,0.022-88.966,0.024c-13.247,0.001-13.247,0.003-12.496,13.498c-0.941,7.797-0.825,15.598-0.084,23.401
		c-0.089,23.926-0.058,47.853-0.361,71.776c-0.066,5.262,1.797,6.892,6.903,6.806
		C1260.214,1248.154,1279.814,1248.141,1299.413,1248.01z"/>
	<path fill-rule="evenodd" clip-rule="evenodd" fill="#FEC30C" d="M1299.413,1248.01c-19.599,0.131-39.198,0.145-58.792,0.475
		c-5.106,0.086-6.97-1.544-6.903-6.806c0.304-23.924,0.272-47.851,0.36-71.78c10.127-4.377,19.865-9.442,31.234-16.064
		c-11.989-2.822-21.569-5.078-31.149-7.333c-0.751-13.495-0.751-13.497,12.496-13.498c29.655-0.002,59.311,0.032,88.966-0.024
		c7.608-0.014,7.738-0.143,7.747-7.631c0.047-38.985,0.048-77.971-0.001-116.956c-0.01-7.568-0.143-7.711-7.708-7.726
		c-31.321-0.06-62.643-0.025-93.964-0.025c-2.333,0-4.667,0.061-6.997-0.014c-6.219-0.198-6.218-0.222-6.38-7.632
		c22.001,0.313,43.985,2.752,68.519,1.416c-24.211-18.479-46.394-35.413-68.577-52.346c-0.095-30.236-0.134-60.473-0.355-90.708
		c-0.027-3.848,1.38-6.14,4.685-7.876c20.259-10.643,40.132-22.05,61.389-30.694c30.163,15.451,60.327,30.902,90.49,46.354
		c0.479-0.547,0.96-1.093,1.439-1.64c-11.948-22.746-23.896-45.493-35.845-68.239c8.663-4.325,17.948-7.051,27.109-9.953
		c5.457-1.73,7.02-4.343,6.981-9.959c-0.261-38.618-0.146-77.239-0.114-115.859c0.002-3.319,0.275-6.639,0.423-9.962
		c19.391,17.743,38.782,35.49,58.171,53.24c8.334,7.629,16.239,15.734,25.212,22.651c-1.055,12.899-2.757,25.74-2.178,38.755
		c1.31,29.45,10.028,56.73,23.437,82.743c18.721,36.32,43.145,68.689,69.564,99.569c27.03,31.592,54.783,62.564,82.09,93.922
		c13.11,15.056,25.897,30.427,36.911,47.098c16.53,25.02,25.736,52.392,24.438,82.729c-0.629,14.715-4.992,28.061-15.457,38.926
		c-2.622-0.36-5.233-0.884-7.868-1.058c-30.113-1.982-60.247-1.474-90.377-0.521c-2.271,0.071-4.519,0.891-6.776,1.362
		c-15.83-10.169-28.439-23.912-41.269-37.383c-6.422-6.744-12.471-13.843-18.748-20.728c-4.688-5.142-4.798-5.173-9.904-0.193
		c-20.25,19.746-40.426,39.569-60.691,59.299c-5.951,5.794-12.11,11.374-18.174,17.052c-13.005,0.472-25.569,3.806-38.224,6.288
		c-27.659,5.426-55.186,11.53-82.75,17.432C1307.676,1245.609,1303.564,1246.9,1299.413,1248.01z"/>
	<path fill-rule="evenodd" clip-rule="evenodd" fill="#130553" d="M2416.91,967.843c9.064-17.662,18.13-35.324,27.498-53.576
		c16.508,15.279,30.284,32.29,45.523,47.883c17.365,21.744,34.735,43.492,52.104,65.24c10.595,15.725,21.419,31.302,31.748,47.199
		c58.29,89.713,100.314,186.823,131.096,289.025c0.574,1.908,1.36,3.774,0.614,5.959c-2.225,1.853-4.969,0.955-7.477,0.959
		c-40.655,0.065-81.311,0.064-121.967,0.034c-10.629-0.008-8.805,0.985-12.188-9.095c-5.287-15.758-9.44-31.884-15.973-47.244
		c-2.229-5.24-4.955-7.441-11.029-7.396c-40.986,0.312-81.978,0.309-122.964,0.002c-6.049-0.046-8.669,2.066-10.787,7.408
		c-6.622,16.697-13.929,33.123-20.62,49.794c-1.846,4.598-4.027,6.69-9.353,6.668c-50.652-0.214-101.306-0.131-151.958-0.155
		c-0.949-0.001-1.898-0.276-4.058-0.611c8.88-18.546,17.563-36.684,26.247-54.82c8.076-14.767,15.812-29.702,22.469-45.175
		c1.074-1.651,2.324-3.214,3.199-4.965c29.704-59.485,59.373-118.988,89.051-178.487c0.879-1.763,2.207-3.374,1.77-5.553
		l-0.076,0.082c1.354-0.007,1.573-0.879,1.504-1.971c0.71-1.116,1.527-2.18,2.115-3.357c17.002-34.068,33.977-68.149,50.976-102.219
		c0.743-1.488,1.595-2.905,1.4-4.658l-0.12,0.117C2416.558,969.127,2416.903,968.679,2416.91,967.843z M2467.915,1157.131
		c-10.153,24.566-19.701,47.67-29.452,71.264c23.699,0,46.341,0,70.03,0C2496.284,1203.816,2482.923,1181.105,2467.915,1157.131z"/>
	<path fill-rule="evenodd" clip-rule="evenodd" fill="#130553" d="M867.784,980.867c0.725-3.281,2.097-6.131,4.345-8.769
		c40.271-47.249,82.818-92.216,131.226-131.331c1.271-1.027,2.389-2.344,4.402-2.455c2.326,2.029,1.136,4.854,1.148,7.281
		c0.231,43.984,0.351,87.969,0.523,131.954c0.011,2.653,0.268,5.307,0.41,7.96c-1.267,13.543,0.052,27.09,0.022,40.636
		c-0.047,21.168,0.243,42.337,0.39,63.511c-0.159,2.316-0.456,4.628-0.455,6.939c0.023,40.188,0.028,80.376,0.156,120.563
		c0.071,22.572,0.358,45.143,0.548,67.713c0.359,10.227,0.719,20.453,1.078,30.68c-2.246,13.886-1.075,27.86-0.801,41.781
		c0.265,13.449,0.635,13.441-12.774,13.441c-33.649,0.001-67.3-0.146-100.947,0.144c-5.934,0.051-9.686-1.688-13.266-6.458
		c-14.99-19.977-30.375-39.658-45.687-59.394c-2.008-2.589-3.544-5.646-6.903-7.702c-3.872,3.708-5.325,8.798-7.334,13.46
		c-7.512,17.431-13.583,35.407-19.204,53.511c-1.595,5.137-4.052,6.562-9.158,6.54c-41.978-0.176-83.956-0.093-125.935-0.117
		c-1.613-0.001-3.227-0.296-4.86-0.456c10.861-67.42,77.443-215.914,134.498-299.57c22.894,25.605,44.675,51.766,67.035,77.136
		c2.134-0.294,2.177-1.664,2.178-2.97c0.017-29.318,0.026-58.636-0.009-87.954c-0.002-1.306-0.441-2.61-0.678-3.915
		C868.49,1028.973,868.379,1004.92,867.784,980.867z"/>
	<path fill-rule="evenodd" clip-rule="evenodd" fill="#FEC30C" d="M1956.999,635.833c0.144,3.65,0.411,7.301,0.411,10.951
		c0.021,196.692,0.021,393.384,0.001,590.076c0,3.316-0.261,6.634-0.399,9.95c-19.591-4.146-39.182-8.292-58.772-12.438
		c0.516-10.945,1.894-21.833,1.479-32.842c-1.253-33.204-10.563-64.179-25.317-93.726c-16.638-33.317-38.689-62.935-62.311-91.484
		c-28.054-33.905-58.56-65.658-87.095-99.141c-14.922-17.509-29.338-35.409-41.937-54.706
		c-10.593-16.226-17.822-33.61-16.977-53.352c2.033-47.464,36.013-73.41,73.971-75.817c13.77-0.874,26.97,3.613,39.173,10.265
		c10.581,5.768,20.256,12.822,29.106,21.003c3.893,3.598,7.78,7.202,12.021,11.13c6.998-6.724,10.464-15.654,16.928-22.222
		c0.281,4.636,0.563,9.271,0.876,14.412c4.236-0.314,5.821-3.941,7.988-6.403c35.377-40.189,70.657-80.464,105.979-120.702
		C1953.65,639.05,1955.37,637.48,1956.999,635.833z"/>
	<path fill-rule="evenodd" clip-rule="evenodd" fill="#FEC30C" d="M1625.759,577.271c-16.351,4.131-32.761,7.971-48.424,14.502
		c-26.102,10.885-48.693,26.872-68.998,46.324c-21.54-198.141-43.081-396.279-64.824-596.277c3.802,5.069,4.616,9.432,5.982,13.476
		c25.243,74.697,50.421,149.416,75.615,224.13c32.849,97.414,65.698,194.827,98.558,292.236
		C1624.306,573.553,1625.059,575.402,1625.759,577.271z"/>
	<path fill-rule="evenodd" clip-rule="evenodd" fill="#21479D" d="M2114.85,1511.919c-3.834,5.035-9.812,5.421-15.173,6.602
		c-14.323,3.153-28.899,4.9-43.49,6.198c-106.283,9.452-212.851,11.798-319.479,12.3c-67.635,0.318-135.27,0.408-202.896-1.247
		c-57.621-1.41-115.223-3.288-172.732-7.177c-29.563-1.999-59.146-4.157-88.336-9.698c-4.908-0.932-9.837-1.977-14.254-4.405
		c-3.283-1.806-3.295-3.995-0.15-5.92c3.447-2.109,7.37-2.972,11.277-3.843c18.577-4.14,37.476-6.06,56.377-7.628
		c90.354-7.494,180.916-9.722,271.538-10.974c52.309-0.722,104.608-1.013,156.907-0.394c69.284,0.819,138.57,2.091,207.773,5.701
		c38.903,2.029,77.831,4.179,116.479,9.467c8.564,1.172,17.115,2.669,25.528,4.633
		C2108.173,1506.458,2113.029,1506.82,2114.85,1511.919z"/>
	<path fill-rule="evenodd" clip-rule="evenodd" fill="#FEC30C" d="M2078.824,667.567c-24.312-8.618-48.564-17.406-72.956-25.79
		c-14.07-4.836-28.364-9.021-42.558-13.499c21.861-25.069,43.68-50.178,65.594-75.202
		c78.914-90.113,157.857-180.201,236.799-270.291c15.787-18.018,31.594-36.02,47.446-53.98c1.946-2.205,3.438-4.946,6.39-6.125
		c0.337,0.363,0.681,0.72,1.032,1.069c-4.596,11.839-11.454,22.515-17.504,33.587c-73.132,133.839-146.39,267.608-219.607,401.4
		C2081.864,661.652,2080.367,664.622,2078.824,667.567z"/>
	<path fill-rule="evenodd" clip-rule="evenodd" fill="#FEC30C" d="M1146.795,738.756c-15.585,9.924-31.169,19.85-46.756,29.771
		c-2.509,1.597-4.928,3.379-7.571,4.711c-4.695,2.367-6.332,5.823-6.145,11.168c0.416,11.891,0.176,23.807,0.096,35.711
		c-0.021,3.284-0.419,6.565-0.644,9.849c-19.292-14.785-38.674-29.454-57.861-44.374
		C897.471,684.154,767.069,582.666,636.659,481.186c-2.525-1.965-4.978-4.024-6.815-7.061c13.874,7.029,27.766,14.022,41.618,21.093
		c64.634,32.989,129.248,66.016,193.885,98.999c91.621,46.752,183.258,93.478,274.883,140.223
		C1142.571,735.634,1145.206,736.408,1146.795,738.756z"/>
	<path fill-rule="evenodd" clip-rule="evenodd" fill="#130553" d="M2202.371,1462.892c30.633,0.857,61.27,1.606,91.898,2.603
		c29.628,0.965,59.252,2.07,88.871,3.313c77.878,3.267,155.756,6.54,233.625,10.008c59.57,2.652,119.098,6.17,178.563,10.523
		c38.518,2.82,77.05,5.796,115.274,11.617c7.561,1.151,15.052,2.758,22.563,4.215c1.296,0.251,2.546,0.771,3.796,1.224
		c3.323,1.203,8.304,1.445,8.251,5.729c-0.043,3.548-4.64,4.207-7.813,5.068c-4.813,1.307-9.631,2.688-14.531,3.558
		c-27.909,4.954-56.111,7.601-84.321,9.919c-31.873,2.618-63.799,4.628-95.713,6.718c-62.174,4.071-124.405,7.048-186.657,9.614
		c-39.282,1.62-78.556,3.482-117.846,4.894c-75.246,2.702-150.499,5.217-225.753,7.695c-39.621,1.305-79.23,3.06-118.883,3.261
		c-4.168-0.109-8.351-0.043-12.502-0.374c-4.691-0.374-9.65,1.559-14.048-1.516c0.556-0.317,1.136-0.37,1.725-0.157
		c9.544,0.975,19.091,0.008,28.63-0.33c3.793-0.135,7.929,1.403,11.4-1.481c21.946-1.276,43.881-2.774,65.839-3.786
		c60.577-2.792,121.091-6.662,181.571-10.956c48.836-3.467,97.643-7.49,146.246-13.534c19.82-2.465,39.618-5.16,59.051-9.936
		c5.483-1.347,11.05-2.678,15.828-5.877c3.466-2.32,3.511-4.74,0.066-6.991c-3.929-2.567-8.437-3.882-12.961-5.059
		c-23.933-6.225-48.436-9.017-72.904-11.896c-41.702-4.907-83.547-8.367-125.425-11.296c-46.538-3.255-93.104-6.122-139.678-8.817
		c-44.576-2.581-89.176-4.75-133.768-7.052c-21.629-1.116-43.263-2.123-64.895-3.18c0.899-1.06,2.036-1.699,3.431-1.682
		c12.264,0.156,24.553-0.1,36.786,0.603c22.819,1.311,45.634,1.811,68.478,1.261c0.653,0.056,1.306,0.112,1.947,0.167
		c0.836,0.457,1.684,1.314,2.529,1.313C2161.49,1462.214,2181.918,1463.79,2202.371,1462.892z"/>
	<path fill-rule="evenodd" clip-rule="evenodd" fill="#130553" d="M1299.602,1462.607c-76.482,4.142-152.99,7.852-229.438,12.553
		c-70.129,4.312-140.23,9.308-209.983,18.061c-18.148,2.277-36.298,4.823-54.021,9.624c-4.182,1.133-8.376,2.294-12.095,4.557
		c-4.583,2.787-4.616,5.231-0.086,7.947c4.902,2.938,10.43,4.284,15.931,5.601c24.978,5.976,50.435,8.941,75.888,11.824
		c61.879,7.009,123.994,11.289,186.109,15.425c40.864,2.72,81.782,4.66,122.679,6.896c36.564,1.999,73.133,3.925,109.693,5.883
		c-2.753,2.463-6.107,1.461-9.242,1.56c-5.779,0.182-11.563,0.232-17.346,0.338c-43.638-0.352-87.235-2.148-130.84-3.661
		c-99.532-3.451-199.074-6.688-298.588-10.635c-62.901-2.494-125.784-5.552-188.637-9.227
		c-49.885-2.917-99.751-6.024-149.502-10.677c-23.523-2.199-47.077-4.488-70.217-9.648c-4.234-0.944-8.463-1.921-12.248-4.096
		c-3.164-1.818-3.27-4.102-0.141-6.052c3.428-2.135,7.35-3.082,11.254-3.926c25.104-5.427,50.55-8.301,76.116-10.153
		c6.749,0.158,13.562,0.862,20.061-1.847c0.606-0.315,1.234-0.37,1.872-0.163c7.43,0.162,14.93,1.015,22.126-1.821
		c0.627-0.305,1.273-0.352,1.924-0.14c8.091,0.206,16.233,0.899,24.114-1.84c0.631-0.291,1.276-0.329,1.924-0.115
		c9.381,0.09,18.821,0.865,28.022-1.896c0.657-0.053,1.313-0.105,1.955-0.157c1.302,0.127,2.626,0.422,3.933,0.355
		c31.187-1.591,62.371-3.21,93.553-4.893c0.884-0.048,1.728-0.845,2.59-1.293c0.626-0.305,1.271-0.352,1.92-0.142
		c4.302,0.068,8.628,0.373,12.93,0.166c38.539-1.855,77.061-4.147,115.614-5.613c32.58-1.238,65.146-2.837,97.724-3.974
		c36.241-1.264,72.479-2.567,108.71-4.099c27.927-1.18,55.882-1.665,83.821-2.558c11.298-0.361,22.602-0.853,33.891-1.275
		c39.576-1.481,79.182-2.165,118.779-3.032C1293.5,1460.396,1297.125,1459.327,1299.602,1462.607z"/>
	<path fill-rule="evenodd" clip-rule="evenodd" fill="#21479D" d="M2552.805,1575.161c7.979,0.04,15.984,0.51,23.937,0.053
		c54.872-3.157,109.736-6.459,164.597-9.813c32.594-1.994,65.181-4.104,97.763-6.278c55.85-3.727,111.643-8.13,167.352-13.629
		c39.457-3.895,78.855-8.163,117.977-14.678c14.119-2.353,28.185-5.037,41.831-9.536c3.813-1.257,7.616-2.558,10.897-4.876
		c4.568-3.228,4.611-6.108,0.156-9.313c-4.111-2.957-8.944-4.447-13.73-5.851c-16.655-4.883-33.736-7.775-50.87-10.256
		c-60.372-8.742-121.123-13.771-181.907-18.553c-79.068-6.222-158.241-10.797-237.423-15.16
		c-62.216-3.429-124.479-6.007-186.725-8.91c-30.616-1.429-61.237-2.751-91.857-4.08c-2.636-0.115-5.317-0.703-7.926,0.313
		c3.28-2.296,7.385-0.257,10.77-2.032c14.946,0.654,29.888,1.417,44.838,1.94c47.257,1.654,94.531,2.887,141.772,4.894
		c84.177,3.575,168.34,7.476,252.498,11.471c80.173,3.807,160.288,8.673,240.334,14.569c48.48,3.571,96.934,7.65,145.19,13.644
		c23.446,2.911,46.903,5.913,69.848,11.832c5.795,1.494,11.693,2.929,16.634,6.511c3.953,2.866,3.719,5.653-0.617,8.597
		c-3.611,2.451-7.763,3.762-11.938,4.95c-21.201,6.033-42.971,9.021-64.748,11.854c-71.365,9.282-143.11,14.528-214.864,19.438
		c-73.43,5.024-146.906,9.361-220.434,12.798c-61.876,2.893-123.738,6.085-185.613,9.002c-24.265,1.144-48.549,1.897-72.823,2.829
		C2556.083,1576.313,2554.444,1575.737,2552.805,1575.161z"/>
	<path fill-rule="evenodd" clip-rule="evenodd" fill="#FEC30C" d="M2542.036,1027.39c-17.369-21.748-34.739-43.496-52.104-65.24
		c20.899-1.692,41.793-3.422,62.692-5.079c40.479-3.209,80.956-6.421,121.439-9.55c29.867-2.309,59.749-4.424,89.614-6.744
		c29.863-2.319,59.713-4.813,89.573-7.165c5.953-0.47,11.93-0.648,18.19,0.429c-9.023,2.614-18.033,5.274-27.071,7.836
		c-100.125,28.372-200.254,56.729-300.383,85.083C2543.347,1027.141,2542.687,1027.248,2542.036,1027.39z"/>
	<path fill-rule="evenodd" clip-rule="evenodd" fill="#FEC30C" d="M1377.784,637.019c-14.977,5.315-29.985,10.544-44.923,15.97
		c-15.596,5.664-31.123,11.519-46.68,17.289c-13.57-25.874-27.06-51.79-40.729-77.611c-24.862-46.962-49.851-93.857-74.706-140.822
		c-1.479-2.795-4.212-5.348-2.914-9.096l-0.153,0.197c5.697,2.947,9.74,7.893,14.322,12.132
		c63.934,59.16,127.783,118.41,191.642,177.651C1375.098,634.078,1376.407,635.585,1377.784,637.019z"/>
	<path fill-rule="evenodd" clip-rule="evenodd" fill="#FEC30C" d="M1836.566,621.508c-25.585-14.627-51.94-27.5-80.476-35.434
		c-4.132-1.148-8.231-2.418-12.345-3.632c19.912-49.041,39.835-98.078,59.733-147.125c8.761-21.594,17.424-43.227,26.265-64.787
		c1.054-2.568,1.285-5.774,5.385-8.243c0,8.047-0.032,15.204,0.005,22.361c0.359,69.307,0.72,138.613,1.108,207.92
		C1836.295,602.215,1837.527,611.849,1836.566,621.508z"/>
	<path fill-rule="evenodd" clip-rule="evenodd" fill="#FEC30C" d="M867.784,980.867c0.596,24.053,0.706,48.105-0.051,72.158
		c-39.961-10.049-79.936-20.051-119.882-30.158c-65.722-16.629-131.426-33.325-197.134-50.004c-0.893-0.227-2.073,0.063-2.336-0.935
		c16.576,0,33.281-0.039,49.986,0.029c3.653,0.016,7.301,0.504,10.956,0.617c53.561,1.649,107.122,3.224,160.681,4.919
		C802.6,978.526,835.191,979.737,867.784,980.867z"/>
	<path fill-rule="evenodd" clip-rule="evenodd" fill="#FEC30C" d="M2265.837,1269.942c-6.657,15.473-14.393,30.408-22.469,45.175
		c-41.618-10.063-83.237-20.126-124.855-30.189c-0.146-24.981-0.231-49.964-0.508-74.944c-0.04-3.605,1.451-5.487,4.563-6.716
		c9.283-3.664,18.534-7.406,27.798-11.117c18.126,12.255,36.235,24.534,54.383,36.758
		C2225.093,1242.612,2245.472,1256.267,2265.837,1269.942z"/>
	<path fill-rule="evenodd" clip-rule="evenodd" fill="#FEC30C" d="M2415.776,968.814c0.194,1.753-0.657,3.17-1.4,4.658
		c-16.999,34.069-33.974,68.15-50.976,102.219c-0.588,1.178-1.405,2.241-2.115,3.357c-0.796,0.433-2.469,0.194-1.504,1.971
		c0,0,0.076-0.082,0.076-0.083c-3.734-1.813-7.064,0.27-10.453,1.207c-24.248,6.706-48.473,13.497-72.705,20.262
		c16.712-22.919,30.757-47.274,40.541-74.014c6.41-17.519,10.326-35.629,13.751-53.887c25.642-1.961,51.283-3.943,76.931-5.846
		C2410.521,968.466,2413.157,968.751,2415.776,968.814z"/>
	<path fill-rule="evenodd" clip-rule="evenodd" fill="#FEC30C" d="M2291.918,806.93c-14.646-19.998-31.44-38.005-50.202-54.191
		c27.659-11.294,55.291-22.655,82.982-33.868c44.339-17.953,88.715-35.812,133.082-53.693c2.101-0.847,4.27-1.521,7.462-0.694
		C2407.468,711.965,2349.693,759.447,2291.918,806.93z"/>
	<path fill-rule="evenodd" clip-rule="evenodd" fill="#FEC30C" d="M1010.252,1089.649c-0.148-21.169-0.438-42.338-0.392-63.506
		c0.029-13.546-1.289-27.093-0.022-40.636c25.392,0.967,50.784,1.933,76.177,2.897c0.148,24.814,0.382,49.63,0.411,74.446
		c0.018,15.216-0.278,30.433-0.435,45.647C1060.745,1102.215,1035.499,1095.932,1010.252,1089.649z"/>
	<path fill-rule="evenodd" clip-rule="evenodd" fill="#FEC30C" d="M1011.578,1315.549c-0.359-10.227-0.719-20.453-1.078-30.68
		c2.99-1.421,6.013-2.777,8.965-4.273c22.189-11.241,44.364-22.511,66.544-33.771c0.712,17.043,0.778,34.085-0.034,51.126
		c-21.886,5.244-43.77,10.498-65.659,15.726C1017.418,1314.368,1014.491,1314.928,1011.578,1315.549z"/>
	<path fill-rule="evenodd" clip-rule="evenodd" fill="#130553" d="M1299.602,1462.607c-2.478-3.28-6.102-2.212-9.251-2.143
		c-39.598,0.867-79.203,1.551-118.779,3.032c-11.289,0.423-22.593,0.914-33.891,1.275c-27.939,0.893-55.895,1.378-83.821,2.558
		c-36.231,1.531-72.469,2.835-108.71,4.099c-32.577,1.137-65.144,2.735-97.724,3.974c-38.554,1.466-77.075,3.758-115.614,5.613
		c-4.302,0.207-8.628-0.098-12.93-0.166c20.521-2.659,41.201-2.731,61.797-3.667c74.883-3.401,149.789-6.294,224.696-9.127
		c57.929-2.19,115.866-4.162,173.809-5.948c70.594-2.176,141.196-4.04,211.795-6.072c16.969-0.488,33.935-1.109,50.899-1.669
		c6.33,1.804,13.247-1.233,19.363,2.344c-12.967,0.279-25.941,0.359-38.899,0.881c-24.617,0.99-49.225,2.245-73.838,3.346
		c-1.644,0.073-3.304-0.222-4.955-0.345c-13.135-3.989-26.299-0.18-39.452,0.225c9.842,0,19.683,0,29.523,0
		C1322.345,1462.627,1311,1463.123,1299.602,1462.607z"/>
	<path fill-rule="evenodd" clip-rule="evenodd" fill="#130553" d="M2136.568,1460.794c-22.844,0.55-45.658,0.05-68.478-1.261
		c-12.233-0.702-24.522-0.446-36.786-0.603c-1.395-0.018-2.531,0.622-3.431,1.682c-11.986,0.505-23.925,0.06-35.791-1.824
		c0.636-0.126,1.351-0.108,1.899-0.401c2.479-1.324,0.631-1.158-0.426-1.106c-7.156,0.353-14.383-0.729-21.471,1.032
		c-16.876-0.563-33.752-1.156-50.629-1.67c-4.295-0.131-8.598-0.012-12.9-0.007c6.703-3.561,14.117-0.498,21.019-2.24
		c32.852,0.867,65.717,1.384,98.551,2.696C2064.268,1458.535,2100.467,1458.244,2136.568,1460.794z"/>
	<path fill-rule="evenodd" clip-rule="evenodd" fill="#21479D" d="M2552.805,1575.161c1.639,0.576,3.277,1.152,4.916,1.729
		c-2.591,3.077-6.161,2.01-9.338,1.976c-29.208-0.316-58.354,1.95-87.535,2.636c-18.174,0.428-36.507-0.019-54.598,1.734
		c-12.593,1.221-25.103,1.576-37.681,1.628c-2.239,0.01-4.655,0.732-6.742-0.872c0.507-0.357,1-1.009,1.455-0.982
		c17.943,1.036,35.717-2.313,53.611-2.118c22.563,0.244,45.043-1.933,67.564-2.661c14.184-0.459,28.445-0.891,42.666-1.441
		C2535.698,1576.457,2544.106,1573.517,2552.805,1575.161z"/>
	<path fill-rule="evenodd" clip-rule="evenodd" fill="#21479D" d="M817.142,1575.219c9.345-1.418,18.534,1.489,27.702,1.334
		c24.618-0.417,49.101,2.162,73.66,2.829c16.2,0.439,32.597-0.056,48.668,1.817c14.166,1.65,28.353,1.083,42.482,3.646
		c-11.838,0-23.863,1.308-35.46-0.361c-11.99-1.727-23.851-1.012-35.757-1.572c-23.545-1.109-47.14-1.377-70.646-2.511
		c-15.581-0.752-31.158-0.93-46.731-1.492c-2.602-0.095-5.416,0.515-7.341-2.04C814.861,1576.318,816.001,1575.769,817.142,1575.219
		z"/>
	<path fill-rule="evenodd" clip-rule="evenodd" fill="#130553" d="M2067.147,1560.96c4.397,3.074,9.356,1.142,14.048,1.516
		c4.151,0.331,8.334,0.265,12.502,0.374c-19.457,2.217-39.017,1.792-58.542,2.301c-25.84,0.672-51.678,1.457-77.516,2.194
		c-3.936-1.604-8.752,1.329-12.277-2.386c31.344,0.385,62.575-2.378,93.869-3.405
		C2048.538,1561.249,2057.826,1560.497,2067.147,1560.96z"/>
	<path fill-rule="evenodd" clip-rule="evenodd" fill="#130553" d="M1277.691,1562.875c5.782-0.105,11.566-0.156,17.346-0.338
		c3.135-0.099,6.489,0.903,9.242-1.56c24.628-0.363,49.16,1.796,73.736,2.71c15.952,0.593,31.888,1.553,47.856,1.325
		c-3.487,3.547-8.199,0.757-12.063,2.337c-40.44-1.085-80.883-2.15-121.322-3.281
		C1287.542,1563.931,1282.548,1564.186,1277.691,1562.875z"/>
	<path fill-rule="evenodd" clip-rule="evenodd" fill="#21479D" d="M951.708,1442.619c2.412-2.557,5.571-1.722,8.476-1.753
		c9.313-0.102,18.684,0.576,27.933-0.21c25.85-2.196,51.732-1.65,77.613-1.913c5.926-0.06,11.622-2.418,17.721-1.987
		c5.907,0.418,11.867,0.091,18.256,0.091c-2.214,3.263-4.85,1.737-7.072,2.04c-17.807,2.429-35.864,0.708-53.591,2.498
		c-15.96,1.611-31.852,0.486-47.691,1.75c-13.23,1.056-26.408,2.346-39.694,1.705
		C953.884,1443.331,952.458,1443.271,951.708,1442.619z"/>
	<path fill-rule="evenodd" clip-rule="evenodd" fill="#21479D" d="M2417.645,1442.563c-3.385,1.775-7.489-0.264-10.77,2.032
		c-10.019,1.864-19.66-2.296-29.684-1.703c-26.567,1.571-53.012-2.397-79.593-2.376c-9.004,0.008-18.291-1.686-27.531-2.258
		c7.217-2.121,14.787-2.373,21.755-1.016c9.308,1.813,18.502,1.38,27.757,1.531c10.643,0.174,21.366-0.753,31.919,0.239
		c20.54,1.932,41.088,1.741,61.652,1.837C2414.867,1440.857,2416.433,1441.242,2417.645,1442.563z"/>
	<path fill-rule="evenodd" clip-rule="evenodd" fill="#130553" d="M1413.808,1567.35c3.864-1.58,8.576,1.21,12.063-2.337
		c23.913-1.015,47.673,3.347,71.611,1.892c9.504-0.578,18.626,3.549,28.269,2.935c-15.892,0.219-31.728,2.727-47.532-0.349
		c-2.901-0.564-5.952-0.469-8.935-0.481c-15.301-0.063-30.603-0.004-45.903-0.133
		C1420.16,1568.849,1416.672,1569.86,1413.808,1567.35z"/>
	<path fill-rule="evenodd" clip-rule="evenodd" fill="#130553" d="M1945.362,1564.959c3.525,3.715,8.342,0.782,12.277,2.386
		c-1.568,1.561-3.57,1.551-5.575,1.555c-4.321,0.01-8.65,0.216-12.961,0.018c-27.888-1.283-55.65,2.534-83.515,1.97
		c-3.247-0.066-6.611,0.794-10.819-1.241c8.635-1.418,16.623-2.401,24.063-2.367
		C1894.391,1567.396,1919.837,1564.983,1945.362,1564.959z"/>
	<path fill-rule="evenodd" clip-rule="evenodd" fill="#130553" d="M1929.575,1454.396c-6.901,1.742-14.315-1.32-21.019,2.24
		c-18.31,1.614-36.416-3.18-54.738-1.772c-2.816,0.217-6.063,0.944-9.082-2.734c4.933,0.255,9.104,0.643,13.276,0.657
		c20.66,0.071,41.321-0.004,61.98,0.101C1923.213,1452.902,1926.71,1451.848,1929.575,1454.396z"/>
	<path fill-rule="evenodd" clip-rule="evenodd" fill="#21479D" d="M716.962,1480.991c-0.862,0.448-1.706,1.245-2.59,1.293
		c-31.182,1.683-62.366,3.302-93.553,4.893c-1.307,0.066-2.631-0.229-3.933-0.355
		C650.187,1483.71,683.541,1481.764,716.962,1480.991z"/>
	<path fill-rule="evenodd" clip-rule="evenodd" fill="#130553" d="M1461.242,1456.71c-6.116-3.577-13.033-0.54-19.363-2.344
		c2.872-2.504,6.355-1.467,9.57-1.484c19.607-0.104,39.216-0.04,58.824-0.083c5.189-0.012,10.416,0.543,17.396-2.106
		c-5.819,4.227-5.819,4.172-21.802,4.283c-7.629,0.054-15.41-0.519-22.839,0.797
		C1475.691,1457.072,1468.512,1456.733,1461.242,1456.71z"/>
	<path fill-rule="evenodd" clip-rule="evenodd" fill="#130553" d="M2202.371,1462.892c-20.452,0.898-40.881-0.678-61.326-0.618
		c-0.846,0.002-1.693-0.855-2.529-1.313C2159.847,1460.324,2181.115,1461.4,2202.371,1462.892z"/>
	<path fill-rule="evenodd" clip-rule="evenodd" fill="#21479D" d="M913.229,1446.686c-6.102-3.922-13.07-0.361-19.407-2.249
		c6.19-3.158,12.825-1.066,19.238-1.563c3.577-0.277,7.201,0.063,10.806,0.125c3.444,3.539,8.078,0.524,11.867,2.158
		C928.432,1448.617,920.747,1446.416,913.229,1446.686z"/>
	<path fill-rule="evenodd" clip-rule="evenodd" fill="#21479D" d="M765.779,1575.16c3.538-1.551,7.797,0.841,11.092-2.027
		c6.964,0.392,14.18-2.339,20.858,1.665c-2.304,1.403-5.406-0.425-7.494,1.851C782.067,1576.406,773.748,1578.669,765.779,1575.16z"
		/>
	<path fill-rule="evenodd" clip-rule="evenodd" fill="#130553" d="M2108.902,1558.991c-3.472,2.885-7.607,1.347-11.4,1.481
		c-9.539,0.338-19.086,1.305-28.63,0.33C2082.19,1559.434,2095.508,1558.37,2108.902,1558.991z"/>
	<path fill-rule="evenodd" clip-rule="evenodd" fill="#130553" d="M1333.621,1460.816c-9.841,0-19.682,0-29.523,0
		c13.153-0.404,26.317-4.214,39.452-0.225C1340.24,1460.667,1336.93,1460.741,1333.621,1460.816z"/>
	<path fill-rule="evenodd" clip-rule="evenodd" fill="#21479D" d="M614.932,1486.979c-9.201,2.762-18.642,1.986-28.022,1.896
		C596.199,1487.347,605.514,1486.398,614.932,1486.979z"/>
	<path fill-rule="evenodd" clip-rule="evenodd" fill="#21479D" d="M935.733,1445.157c-3.789-1.634-8.423,1.381-11.867-2.158
		c9.286,0.315,18.573,0.558,27.843-0.38c0.75,0.652,2.176,0.712,1.949,2.221C947.671,1444.313,941.697,1444.427,935.733,1445.157z"
		/>
	<path fill-rule="evenodd" clip-rule="evenodd" fill="#21479D" d="M790.235,1576.648c2.088-2.275,5.19-0.447,7.494-1.851
		c6.453,0.917,12.927,0.941,19.412,0.42c-1.14,0.551-2.28,1.101-3.421,1.651C805.899,1576.036,798.067,1576.308,790.235,1576.648z"
		/>
	<path fill-rule="evenodd" clip-rule="evenodd" fill="#21479D" d="M584.986,1488.99c-7.881,2.739-16.023,2.046-24.114,1.84
		C568.848,1489.285,576.866,1488.462,584.986,1488.99z"/>
	<path fill-rule="evenodd" clip-rule="evenodd" fill="#130553" d="M1972.085,1458.313c7.088-1.761,14.314-0.68,21.471-1.032
		c1.057-0.052,2.904-0.218,0.426,1.106c-0.549,0.293-1.264,0.275-1.899,0.401C1985.417,1458.63,1978.751,1458.471,1972.085,1458.313
		z"/>
	<path fill-rule="evenodd" clip-rule="evenodd" fill="#21479D" d="M558.948,1490.97c-7.196,2.836-14.696,1.983-22.126,1.821
		C544.127,1491.233,551.481,1490.412,558.948,1490.97z"/>
	<path fill-rule="evenodd" clip-rule="evenodd" fill="#21479D" d="M534.95,1492.954c-6.499,2.709-13.312,2.005-20.061,1.847
		C521.49,1493.144,528.167,1492.469,534.95,1492.954z"/>
	<path fill-rule="evenodd" clip-rule="evenodd" fill="#21479D" d="M889.675,1444.458l-0.949,0.31l-0.975-0.218
		C888.347,1443.571,888.986,1443.475,889.675,1444.458z"/>
	<path fill-rule="evenodd" clip-rule="evenodd" fill="#FEC30C" d="M2319.539,222.68c0.289-0.817,0.652-2.005,1.68-1.18
		c0.865,0.695,0.063,1.62-0.655,2.244C2320.219,223.399,2319.875,223.043,2319.539,222.68z"/>
	<path fill-rule="evenodd" clip-rule="evenodd" fill="#FEC30C" d="M2416.91,967.843c-0.007,0.836-0.352,1.284-1.254,1.089
		C2415.387,967.779,2416.07,967.721,2416.91,967.843z"/>
	<path fill-rule="evenodd" clip-rule="evenodd" fill="#FEC30C" d="M1167.833,442.748c-0.659,0.554-1.654,0.166-1.401-0.294
		c0.943-1.722,0.942-0.036,1.247,0.492C1167.679,442.945,1167.833,442.748,1167.833,442.748z"/>
	<path fill-rule="evenodd" clip-rule="evenodd" fill="#F7F8F9" d="M3192.759,1717.744c0-18.058,0-36.116,0-54.404
		c7.984-0.373,16.316-3.025,21.258,0.972c4.337,3.508,1.35,11.907,1.404,18.122c0.198,22.636-0.074,45.276,0.189,67.911
		c0.062,5.215-1.484,6.736-6.695,6.822c-18.225,0.3-18.218,0.501-27.242-15.673c-7.404-13.269-14.817-26.531-22.853-40.918
		c-1.875,3.506-1.331,6.117-1.343,8.537c-0.065,13.315,0.004,26.633-0.049,39.949c-0.03,7.807-0.095,7.807-7.297,7.975
		c-16.136,0.376-16.137,0.376-16.136-16.122c0.001-23.637-0.04-47.273,0.032-70.909c0.021-6.921,0.172-6.921,7.232-7.102
		c17.868-0.457,17.876-0.461,26.604,15.022c6.205,11.009,12.37,22.04,18.591,33.04c1.399,2.474,2.96,4.855,4.445,7.279
		C3191.521,1718.079,3192.14,1717.912,3192.759,1717.744z"/>
	<path fill-rule="evenodd" clip-rule="evenodd" fill="#FFFFFF" d="M213.828,1719.526c0-7.318-0.001-13.116,0-18.915
		c0.003-10.647,0.155-21.299-0.06-31.942c-0.085-4.243,1.26-5.667,5.648-5.84c16.741-0.661,16.736-0.83,16.736,15.605
		c0.001,23.958-0.118,47.918,0.095,71.874c0.044,4.985-1.25,6.318-6.511,6.959c-13.084,1.592-21.361-2.045-26.949-15.025
		c-6.122-14.221-14.907-27.295-22.543-40.891c-3.523,1.767-2.077,4.412-2.096,6.412c-0.141,14.307-0.21,28.618,0.022,42.923
		c0.072,4.472-0.747,6.373-5.908,6.468c-16.915,0.312-16.911,0.563-16.91-16.345c0.001-23.625-0.037-47.251,0.034-70.876
		c0.02-6.84,0.225-6.311,7.186-7.109c12.38-1.419,21.073,1.338,26.242,14.413c4.6,11.635,12.063,22.141,18.305,33.12
		C208.682,1713.105,209.845,1716.179,213.828,1719.526z"/>
	<path fill-rule="evenodd" clip-rule="evenodd" fill="#F7F8F9" d="M450.752,1713.17c9.395,4.901,11.68,12.982,12.495,21.296
		c0.712,7.253,1.142,14.529,2.691,21.923c-6.509,1.301-12.834,0.333-19.104,0.64c-3.302,0.162-4.891-1.397-5.227-4.578
		c-0.523-4.951-1.115-9.896-1.677-14.842c-1.235-10.888-5.144-14.562-15.982-15.021c-16.295-0.693-16.295-0.693-16.296,15.961
		c0,4.328-0.245,8.673,0.064,12.978c0.325,4.508-1.676,5.883-5.813,5.536c-5.889-0.494-13.229,2.386-17.307-1.316
		c-3.761-3.414-1.189-10.679-1.227-16.228c-0.151-22.969-0.097-45.938-0.042-68.908c0.018-7.568,0.121-7.655,7.521-7.687
		c14.314-0.062,28.63,0.063,42.943-0.063c4.081-0.036,7.947,0.78,11.752,1.966c9.155,2.852,16.185,8.253,18.055,18.078
		c1.969,10.344,0.251,19.929-8.628,27.007C453.962,1710.717,452.927,1711.492,450.752,1713.17z M421.139,1682.579
		c-13.745-0.218-13.744-0.218-13.486,13.585c0.024,1.332,0.042,2.663,0.034,3.994c-0.013,2.411,1.212,3.746,3.58,3.746
		c6.317,0.001,12.68,0.332,18.941-0.297c6.477-0.649,9.672-4.64,9.729-10.571c0.057-5.846-3.285-9.563-9.828-10.394
		C427.165,1682.269,424.132,1682.579,421.139,1682.579z"/>
	<path fill-rule="evenodd" clip-rule="evenodd" fill="#F7F8F9" d="M700.039,1709.887c0.002-13.323,0.142-26.649-0.072-39.971
		c-0.076-4.747,0.725-7.216,6.421-7.132c20.98,0.31,41.97,0.228,62.953,0.039c4.586-0.042,6.537,1.05,6.409,6.081
		c-0.415,16.285,1.392,13.221-13.069,13.441c-10.323,0.158-20.656,0.219-30.976-0.055c-4.562-0.121-7.05,0.924-6.332,6.01
		c0.231,1.633,0.188,3.344,0.004,4.988c-0.471,4.226,1.111,5.834,5.534,5.732c11.319-0.258,22.656,0.165,33.971-0.188
		c5.369-0.167,6.806,1.814,6.655,6.898c-0.423,14.311,1.383,12.364-12.067,12.485c-9.659,0.087-19.322,0.149-28.979-0.041
		c-3.904-0.077-5.491,1.377-5.106,5.212c0.133,1.318,0.013,2.662,0.02,3.994c0.045,8.59,0.046,8.637,8.625,8.669
		c12.324,0.046,24.651,0.142,36.973-0.052c4.465-0.069,6.656,0.915,6.506,6.061c-0.542,18.521,2.33,14.69-14.385,14.921
		c-18.65,0.256-37.307,0.107-55.96,0.031c-6.963-0.028-7.065-0.161-7.105-7.153C699.982,1736.535,700.036,1723.211,700.039,1709.887
		z"/>
	<path fill-rule="evenodd" clip-rule="evenodd" fill="#F7F8F9" d="M2573.629,1709.211c-0.063,25.29-12.27,42.657-33.278,48.242
		c-30.913,8.217-57.373-10.882-59.203-42.741c-0.46-8.009-0.096-15.91,2.475-23.63c6.074-18.243,22.233-31.241,46.319-30.272
		c20.023,0.806,36.258,13.103,41.621,32.587C2573.063,1698.846,2574.12,1704.394,2573.629,1709.211z M2505.458,1709.912
		c-0.074,3.897,0.029,7.521,1.05,11.084c3.111,10.864,10.373,16.978,20.431,17.104c10.501,0.131,17.839-6.118,21.015-17.539
		c2.206-7.933,1.846-15.767-0.567-23.486c-2.95-9.438-9.645-14.543-18.817-14.836c-10.649-0.34-16.841,3.635-20.896,13.3
		C2505.701,1700.24,2505.202,1705.134,2505.458,1709.912z"/>
	<path fill-rule="evenodd" clip-rule="evenodd" fill="#F7F8F9" d="M1905.117,1709.415c0.352-3.541,0.385-7.915,1.269-12.109
		c4.9-23.278,22.071-36.609,46.57-36.414c22.666,0.181,39.677,14.252,44.186,36.893c1.634,8.204,1.659,16.595-0.075,24.785
		c-5.081,23.993-23.109,37.4-48.58,36.451c-22.504-0.839-39.355-16.582-42.605-39.887
		C1905.468,1716.183,1905.403,1713.184,1905.117,1709.415z M1973.808,1710.338c0.23-5.748-0.762-12.264-4.181-18.176
		c-3.984-6.888-9.876-10.066-18.052-10.063c-8.229,0.005-14.27,3.282-17.837,10.324c-5.911,11.673-5.879,23.696,0.136,35.348
		c3.66,7.091,10.01,10.371,17.974,10.309c7.951-0.063,14.004-3.494,17.88-10.518
		C1972.51,1722.521,1973.707,1717.064,1973.808,1710.338z"/>
	<path fill-rule="evenodd" clip-rule="evenodd" fill="#F7F8F9" d="M356.489,1710.666c-0.5,4.278-0.602,8.648-1.567,12.819
		c-5.459,23.563-23.111,36.476-48.247,35.542c-22.205-0.824-38.799-15.898-42.583-38.831c-1.199-7.267-1.169-14.614,0.208-21.841
		c4.779-25.068,24.029-39.194,50.726-37.408c22.708,1.52,39.662,19.549,41.053,43.698c0.114,1.987,0.015,3.988,0.015,5.982
		C356.225,1710.641,356.357,1710.653,356.489,1710.666z M331.93,1710.359c0.21-6.08-0.865-11.929-3.683-17.315
		c-3.875-7.407-9.887-11.006-18.516-10.931c-8.602,0.075-14.727,3.557-18.3,11.194c-5.044,10.779-5.133,21.758-0.292,32.666
		c3.605,8.124,10.019,12.082,18.848,12.103c8.922,0.021,15.099-4.38,18.807-12.276
		C331.072,1720.948,332.09,1715.746,331.93,1710.359z"/>
	<path fill-rule="evenodd" clip-rule="evenodd" fill="#F7F8F9" d="M1788.956,1707.765c0.292-2.54,0.344-7.609,1.512-12.407
		c5.714-23.46,24.353-36.137,50.107-34.421c21.504,1.433,38.284,18.058,40.791,40.81c0.577,5.243,0.536,10.646,0.026,15.902
		c-1.998,20.603-15.018,35.685-34.401,40.323c-19.742,4.724-39.802-2.646-50.087-18.401
		C1791.562,1731.389,1789.052,1722.094,1788.956,1707.765z M1813.48,1709.603c-0.366,5.238,0.329,10.484,2.533,15.416
		c3.715,8.309,9.924,13.079,19.317,13.058c9.365-0.022,15.735-4.611,19.238-13.093c4.107-9.941,3.992-20.084,0.048-30.004
		c-3.66-9.207-10.026-12.974-20.246-12.738c-9.182,0.212-15.145,4.564-18.691,13.587
		C1813.954,1700.218,1813.198,1704.752,1813.48,1709.603z"/>
	<path fill-rule="evenodd" clip-rule="evenodd" fill="#F7F8F9" d="M3061.773,1660.896c25.761,0.159,44.232,18.097,45.677,44.361
		c0.423,7.69-0.216,15.278-2.517,22.651c-6.467,20.724-24.174,32.231-47.764,31.118c-20.604-0.973-37.192-15.151-41.236-35.594
		c-1.476-7.463-2.158-14.879-0.824-22.688C3019.448,1675.338,3036.135,1660.738,3061.773,1660.896z M3039.398,1707.16
		c0.104,5.68-0.281,10.01,0.931,14.234c3.046,10.612,10.652,16.743,20.757,16.714c10.083-0.029,17.584-6.285,20.567-16.933
		c2.405-8.584,2.103-17.046-1.001-25.346c-3.38-9.039-9.533-13.397-18.696-13.607c-10.339-0.236-16.096,3.463-20.274,12.727
		C3039.709,1699.321,3039.259,1703.856,3039.398,1707.16z"/>
	<path fill-rule="evenodd" clip-rule="evenodd" fill="#F7F8F9" d="M670.119,1710.625c0.005,13.64-0.156,27.283,0.097,40.918
		c0.083,4.478-1.526,5.82-5.762,5.556c-4.64-0.29-9.313-0.175-13.967-0.039c-3.447,0.101-4.634-1.377-4.583-4.762
		c0.144-9.646-0.111-19.299,0.119-28.941c0.096-4.013-1.471-5.209-5.239-5.115c-7.314,0.182-14.647,0.294-21.952-0.029
		c-4.629-0.205-5.569,1.827-5.47,5.904c0.22,8.978-0.05,17.966,0.138,26.944c0.083,3.95-0.633,6.4-5.371,6.022
		c-5.925-0.473-13.285,2.271-17.456-1.055c-4.449-3.546-1.579-11.157-1.632-16.957c-0.209-22.953-0.124-45.909-0.055-68.864
		c0.021-7.127,0.155-7.163,6.969-7.287c3.991-0.073,8.001,0.221,11.972-0.069c4.559-0.333,5.676,1.802,5.563,5.911
		c-0.208,7.646,0.071,15.305-0.104,22.952c-0.083,3.644,0.754,5.486,4.943,5.318c7.307-0.293,14.642-0.269,21.95,0.009
		c4.235,0.161,5.939-1.079,5.753-5.568c-0.318-7.639,0.109-15.307-0.149-22.949c-0.149-4.398,1.571-5.91,5.805-5.668
		c4.311,0.246,8.664,0.31,12.967-0.002c4.556-0.33,5.565,1.793,5.52,5.854C670.017,1682.679,670.115,1696.652,670.119,1710.625z"/>
	<path fill-rule="evenodd" clip-rule="evenodd" fill="#F7F8F9" d="M2456.174,1691.024c-6.31,0-11.931-0.187-17.531,0.063
		c-4.018,0.179-6.167-0.871-8.241-4.903c-3.644-7.088-16.739-8.885-22.951-4.028c-4.141,3.237-4.054,7.492,0.35,10.708
		c3.006,2.196,6.607,3.072,10.142,3.966c7.729,1.955,15.569,3.553,22.986,6.551c12.321,4.98,18.464,13.249,18.501,24.595
		c0.041,12.464-6.366,22.305-18.394,27.029c-14.476,5.688-29.232,5.874-43.831,0.373c-11.177-4.212-17.82-12.31-19.622-24.285
		c-0.572-3.808,0.494-5.695,4.599-5.544c3.988,0.146,7.99,0.122,11.979-0.016c4.247-0.146,6.899,0.481,8.817,5.512
		c3.635,9.535,20.175,12.547,28.311,5.974c4.517-3.65,4.498-9.026-0.219-12.601c-4.071-3.085-9.037-4.128-13.854-5.315
		c-7.105-1.752-14.23-3.456-20.901-6.494c-9.755-4.443-16.295-11.352-16.357-22.832c-0.063-11.661,5.827-19.655,16.019-24.249
		c13.969-6.297,28.388-6.737,42.591-0.681C2449.586,1669.544,2455.535,1677.999,2456.174,1691.024z"/>
	<path fill-rule="evenodd" clip-rule="evenodd" fill="#F7F8F9" d="M984.064,1691.024c-5.866,0-11.468-0.125-17.062,0.043
		c-3.871,0.115-6.106-0.588-8.122-4.852c-3.34-7.065-16.84-8.898-22.938-4.094c-3.814,3.006-3.681,7.995,0.52,10.856
		c3.332,2.27,7.276,3.129,11.146,4.141c8.02,2.094,16.178,3.691,23.785,7.229c9.826,4.569,16.068,11.434,16.261,22.883
		c0.205,12.185-4.671,21.642-15.71,26.663c-16.204,7.372-32.919,7.509-49.257,0.144c-9.438-4.255-14.772-12.08-16.608-22.249
		c-0.693-3.845-0.025-6.617,4.875-6.251c2.647,0.197,5.328,0.152,7.981-0.003c6.13-0.36,10.812-0.391,13.581,7.527
		c2.946,8.426,21.723,9.766,28.197,3.137c3.781-3.871,3.402-8.563-1.216-11.907c-4.118-2.981-9.08-4.056-13.898-5.227
		c-7.434-1.807-14.83-3.702-21.806-6.878c-9.604-4.373-15.505-11.86-15.543-22.448c-0.037-10.354,4.925-18.5,14.462-23.268
		c14.867-7.434,30.177-7.975,45.248-1.221C978.354,1669.907,984.55,1678.09,984.064,1691.024z"/>
	<path fill-rule="evenodd" clip-rule="evenodd" fill="#F7F8F9" d="M1239.425,1691.024c-5.237,0-10.521-0.023-15.806,0.008
		c-3.991,0.023-6.938,0.07-9.131-5.059c-2.903-6.788-15.793-8.509-22.163-4.242c-4.642,3.109-4.672,8.103,0.093,11.362
		c3.053,2.088,6.676,2.88,10.208,3.846c7.371,2.017,14.889,3.661,22.036,6.297c13.043,4.81,18.913,13.102,18.81,25.199
		c-0.109,12.781-6.301,21.879-18.631,26.735c-13.861,5.46-28.028,5.492-42.012,0.78c-12.021-4.051-19.304-12.508-21.03-25.395
		c-0.443-3.305,0.329-5.123,4.009-4.994c2.993,0.105,5.996,0.074,8.99-0.019c5.979-0.185,11.228-0.938,13.465,7.52
		c2.477,9.36,24.001,9.003,28.965,2.455c3.144-4.147,2.327-8.625-2.679-11.739c-3.99-2.482-8.576-3.573-13.081-4.703
		c-7.42-1.861-14.858-3.647-21.821-6.913c-9.506-4.458-15.498-11.669-15.519-22.429c-0.021-10.496,4.957-18.527,14.43-23.287
		c14.855-7.464,30.137-7.826,45.283-1.196C1234.825,1670.059,1239.903,1678.855,1239.425,1691.024z"/>
	<path fill-rule="evenodd" clip-rule="evenodd" fill="#F7F8F9" d="M2353.367,1690.458c-4.552,1.181-9.221,0.387-13.838,0.55
		c-4.898,0.172-9.01,0.66-11.666-5.939c-2.52-6.257-15.721-7.345-21.578-3.274c-4.547,3.159-4.492,8.198,0.277,11.381
		c3.076,2.052,6.692,2.827,10.23,3.782c7.373,1.991,14.877,3.673,22.016,6.321c12.703,4.714,18.546,12.74,18.667,24.253
		c0.14,13.366-5.935,22.785-18.675,27.675c-14.882,5.713-29.986,5.685-44.752-0.423c-10.682-4.418-16.697-12.738-18.193-24.292
		c-0.426-3.29,0.409-5.085,4.095-4.942c3.657,0.143,7.337,0.206,10.983-0.032c5.349-0.35,9.176,0.259,10.863,6.802
		c2.555,9.9,23.297,9.7,28.9,3.857c3.739-3.899,3.342-8.477-1.384-11.87c-4.129-2.966-9.096-4.019-13.904-5.25
		c-7.087-1.815-14.199-3.507-20.911-6.495c-9.957-4.433-16.303-11.796-16.354-22.947c-0.054-11.432,6.028-19.637,16.29-24.177
		c14.372-6.356,29.122-6.651,43.553-0.162C2349.087,1670.268,2354.048,1678.882,2353.367,1690.458z"/>
	<path fill-rule="evenodd" clip-rule="evenodd" fill="#F7F8F9" d="M1603.49,1710.977c-0.99,7.965-3.156,14.197-7.47,19.412
		c-2.421,2.928-2.125,4.95,0.258,7.597c5.081,5.642,9.926,11.496,16.34,18.982c-9.436,0-17.169,0.016-24.903-0.011
		c-1.776-0.007-3.314-0.782-4.135-2.336c-3.331-6.306-6.938-3.418-11.223-0.903c-9.93,5.828-20.598,7.087-31.677,3.544
		c-11.572-3.701-18.421-11.649-20.119-23.593c-1.505-10.583,3.366-18.621,11.487-24.92c2.845-2.207,5.897-4.146,8.836-6.194
		c-10.162-15.998-9.41-27.626,2.091-36.135c11.927-8.824,30.055-7.077,38.872,3.745c9.853,12.093,6.906,24.018-10.029,39.317
		c2.661,3.204,5.334,6.422,7.769,9.353c2.818-0.215,3.542-1.949,3.722-3.401c0.487-3.927,2.816-4.638,6.207-4.499
		C1593.805,1711.109,1598.108,1710.977,1603.49,1710.977z M1566.599,1733.612c-3.927-4.663-7.561-8.945-11.154-13.262
		c-1.432-1.721-2.972-2.307-5.182-1.337c-6.315,2.772-9.834,10.113-7.252,15.41c2.72,5.579,10.132,8.079,16.24,5.267
		C1561.92,1738.461,1564.672,1737.14,1566.599,1733.612z M1569.063,1683.672c-0.277-4.278-4.507-7.589-9.013-7.056
		c-4.344,0.515-6.926,3.768-6.512,8.206c0.334,3.585,4.824,9.89,7.073,9.932C1563.623,1694.81,1569.302,1687.361,1569.063,1683.672z
		"/>
	<path fill-rule="evenodd" clip-rule="evenodd" fill="#F7F8F9" d="M2687.596,1721.455c-0.908,14.653-7.144,25.969-20.056,32.4
		c-28.416,14.153-67.237,0.436-69.676-40.705c-0.396-6.701,0.153-13.333,2.247-19.699c5.512-16.761,16.506-27.951,34.082-31.485
		c17.044-3.427,32.409,0.243,44.8,13.026c5.434,5.605,8.877,12.283,8.277,20.743c-6.492,1.273-12.818,0.188-19.06,0.688
		c-3.302,0.266-4.755-1.327-5.897-4.04c-3.932-9.338-11.842-10.647-20.678-10.133c-8.801,0.513-13.998,5.805-16.939,13.37
		c-3.611,9.286-3.699,18.877-0.156,28.258c2.453,6.494,6.666,11.42,13.724,13.366c11.168,3.08,19.331-0.818,24.104-11.642
		c1.024-2.322,1.2-5.173,5.044-4.902C2673.991,1721.165,2680.647,1720.156,2687.596,1721.455z"/>
	<path fill-rule="evenodd" clip-rule="evenodd" fill="#F7F8F9" d="M1268.04,1708.874c0.004-13.298,0.194-26.601-0.095-39.893
		c-0.107-4.932,1.696-6.238,6.362-6.159c14.292,0.24,28.602-0.254,42.882,0.206c11.515,0.37,21.814,4.285,27.032,15.498
		c5.544,11.915,4.756,24.021-2.284,35.173c-4.769,7.553-12.55,10.682-21.198,11.273c-6.29,0.43-12.625,0.225-18.939,0.301
		c-8.255,0.099-8.292,0.098-8.38,7.927c-0.063,5.651-0.275,11.319,0.067,16.95c0.301,4.933-0.956,7.487-6.483,6.948
		c-5.904-0.576-13.368,2.309-17.396-1.181c-4.209-3.646-1.352-11.262-1.502-17.124
		C1267.85,1728.826,1268.035,1718.848,1268.04,1708.874z M1304.179,1706.896c3.596-0.169,7.611,0.445,11.463-1.129
		c4.903-2.004,7.896-6.508,7.586-11.659c-0.322-5.354-3.535-9.972-8.536-11.031c-6.54-1.386-14.104-2.556-19.584,0.156
		c-4.24,2.098-1.061,9.777-1.691,14.93c-0.08,0.655,0.061,1.339-0.024,1.993c-0.635,4.912,0.894,7.682,6.437,6.771
		C1301.125,1706.715,1302.484,1706.896,1304.179,1706.896z"/>
	<path fill-rule="evenodd" clip-rule="evenodd" fill="#F7F8F9" d="M1711.828,1757.035c-5.866,0-11.514-0.264-17.125,0.078
		c-5.088,0.31-6.923-1.281-6.821-6.676c0.332-17.638,0.123-35.285,0.124-52.929c0.001-9.654,0.177-19.313-0.066-28.961
		c-0.11-4.394,1.56-5.742,5.796-5.69c14.646,0.179,29.313-0.378,43.936,0.224c11.498,0.473,21.687,4.67,26.673,16.103
		c5.278,12.106,4.255,24.164-3.082,35.138c-4.959,7.417-12.852,10.324-21.538,10.716c-6.979,0.314-13.984,0.403-20.964,0.167
		c-4.844-0.164-6.337,1.822-6.324,6.457C1712.457,1739.917,1713.165,1748.219,1711.828,1757.035z M1712.5,1694.517
		c0.175,14.48-1.753,12.152,12.91,12.364c2.315,0.033,4.68,0.099,6.943-0.298c6.982-1.223,10.813-5.826,10.525-12.313
		c-0.297-6.677-4.216-10.862-11.188-11.709c-2.293-0.278-4.638-0.196-6.958-0.18
		C1710.857,1682.481,1712.648,1680.849,1712.5,1694.517z"/>
	<path fill-rule="evenodd" clip-rule="evenodd" fill="#F7F8F9" d="M1447.158,1757.038c-6.134,0-12.435-0.172-18.721,0.063
		c-3.935,0.147-5.757-1.252-7.13-5.113c-4.191-11.789-4.421-11.708-17.319-11.708c-1.997,0-3.999-0.083-5.991,0.017
		c-4.297,0.214-9.071-1.373-12.775,0.767c-3.859,2.229-3.831,7.471-5.231,11.436c-1.223,3.462-3.009,4.69-6.523,4.588
		c-6.298-0.185-12.604-0.053-18.986-0.053c-0.66-4.039,1.326-6.885,2.438-9.876c9.489-25.544,19.038-51.065,28.673-76.555
		c3.061-8.098,0.947-7.625,11.212-7.699c16.666-0.121,16.666-0.124,22.293,14.925c8.729,23.346,17.51,46.674,26.118,70.064
		C1446.208,1750.597,1448.238,1753.18,1447.158,1757.038z M1411.142,1721.401c-3.195-10.701-5.827-20.91-10.713-31.878
		c-3.639,11.319-6.833,21.258-10.233,31.836C1397.51,1722.459,1403.89,1722.451,1411.142,1721.401z"/>
	<path fill-rule="evenodd" clip-rule="evenodd" fill="#F7F8F9" d="M2759.884,1757.037c11.533-30.806,22.534-60.035,33.36-89.328
		c1.204-3.258,2.72-4.642,6.337-4.9c19.898-1.422,19.896-1.533,26.869,17.076c8.751,23.355,17.493,46.714,26.228,70.075
		c0.688,1.844,1.29,3.721,2.436,7.04c-7.91,0-15.019-0.091-22.123,0.037c-3.741,0.066-4.051-2.91-4.987-5.227
		c-4.658-11.516-4.62-11.53-16.508-11.531c-1.999,0-4.003-0.089-5.996,0.018c-4.628,0.247-9.795-1.503-13.748,0.858
		c-3.695,2.208-3.807,7.479-5.104,11.489c-1.153,3.564-3.146,4.529-6.561,4.439
		C2773.783,1756.918,2767.47,1757.037,2759.884,1757.037z M2807.011,1689.258c-3.193,12.064-7.579,21.461-9.504,32.213
		c7.01,1.009,13.323,0.763,20.574,0.241C2814.5,1710.859,2812.246,1700.767,2807.011,1689.258z"/>
	<path fill-rule="evenodd" clip-rule="evenodd" fill="#F7F8F9" d="M2259.165,1757.039c-4.006,0-7.37-0.373-10.623,0.07
		c-9.744,1.329-16.757-0.926-18.058-12.129c-0.41-3.531-2.758-4.836-6.324-4.752c-7.323,0.172-14.669,0.346-21.975-0.051
		c-4.844-0.263-7.039,1.557-8.633,6.057c-3.855,10.889-4.094,10.804-15.908,10.802c-3.876,0-7.753,0-11.721,0
		c-0.065-5.489,2.377-9.231,3.844-13.212c8.965-24.328,18.084-48.601,27.194-72.875c2.993-7.976,3.054-8.088,11.049-7.991
		c5.627,0.068,12.44-2.188,16.541,1.083c3.609,2.88,4.391,9.388,6.257,14.355c8.654,23.026,17.271,46.067,25.846,69.125
		C2257.676,1750.272,2259.267,1752.892,2259.165,1757.039z M2223,1721.749c-3.558-11.257-6.67-21.104-10.548-33.375
		c-4.057,12.498-7.351,22.646-10.833,33.375C2209.08,1721.749,2215.279,1721.749,2223,1721.749z"/>
	<path fill-rule="evenodd" clip-rule="evenodd" fill="#F7F8F9" d="M796.401,1757.019c-1.104-3.188,0.496-5.204,1.278-7.309
		c9.952-26.81,20.135-53.536,29.88-80.42c1.779-4.908,4.127-6.929,9.277-6.454c5.942,0.549,12.999-2.046,17.617,1.068
		c4.616,3.113,4.972,10.516,7.071,16.073c9.497,25.149,18.841,50.357,28.791,77.022c-8.127,0-15.252-0.071-22.375,0.028
		c-3.725,0.053-3.919-2.832-4.855-5.244c-4.468-11.51-4.482-11.504-16.538-11.505c-1.999,0-4.034,0.247-5.99-0.042
		c-10.039-1.484-17.715,0.378-19.016,12.385c-0.325,2.998-2.277,4.509-5.542,4.438
		C809.386,1756.919,802.767,1757.019,796.401,1757.019z M853.163,1721.748c-3.617-11.35-6.778-21.267-10.354-32.488
		c-4.607,11.328-7.833,21.534-10.712,32.488C839.322,1721.748,845.527,1721.748,853.163,1721.748z"/>
	<path fill-rule="evenodd" clip-rule="evenodd" fill="#F7F8F9" d="M1046.64,1662.905c11.652,0.002,23.306,0.104,34.955-0.055
		c4.014-0.055,6.065,0.88,5.974,5.485c-0.39,19.515,2.045,15.55-14.644,15.837c-13.474,0.231-13.477,0.049-13.478,13.79
		c0,17.312,0.046,34.623-0.022,51.935c-0.028,6.961-0.145,7.137-7.122,7.085c-5.272-0.039-11.74,2.157-15.513-0.902
		c-4.057-3.29-1.361-9.978-1.441-15.138c-0.259-16.642-0.288-33.294,0.014-49.934c0.096-5.278-1.583-7.194-6.813-6.861
		c-5.305,0.338-10.659-0.143-15.972,0.132c-4.451,0.23-5.543-1.713-5.741-5.864c-0.742-15.518-0.885-15.511,14.835-15.511
		C1029.994,1662.904,1038.317,1662.904,1046.64,1662.905z"/>
	<path fill-rule="evenodd" clip-rule="evenodd" fill="#F7F8F9" d="M2937.125,1662.904c0.49,0.881,0.76,1.158,0.8,1.466
		c2.566,19.804,2.564,19.815-16.929,19.845c-12.263,0.018-10.766-0.552-10.793,10.675c-0.046,18.656-0.154,37.315,0.083,55.969
		c0.06,4.702-1.176,6.206-6.093,6.313c-18.252,0.398-18.248,0.605-18.248-17.168c0-16.324-0.158-32.651,0.095-48.973
		c0.077-4.971-1.063-7.321-6.552-6.904c-5.631,0.428-11.321,0.014-16.983,0.093c-3.366,0.047-4.448-1.489-4.765-4.787
		c-1.567-16.36-1.504-16.528,14.857-16.528C2894.217,1662.903,2915.838,1662.904,2937.125,1662.904z"/>
	<path fill-rule="evenodd" clip-rule="evenodd" fill="#F7F8F9" d="M511.954,1720.253c-0.001-9.994-0.248-19.998,0.104-29.98
		c0.175-4.961-1.617-6.403-6.321-6.128c-5.644,0.33-11.323,0.066-16.986,0.048c-1.663-0.005-3.979,0.104-4.333-1.609
		c-1.217-5.898-1.076-11.981-0.158-17.862c0.429-2.743,3.905-1.771,6.096-1.779c17.657-0.063,35.314-0.036,52.972-0.037
		c2.332,0,4.685-0.196,6.992,0.041c4.495,0.465,10.666-2.291,13.122,1.458c2.971,4.535,0.995,10.987,0.903,16.605
		c-0.055,3.302-2.719,3.2-5.1,3.202c-5.663,0.003-11.339,0.236-16.987-0.055c-4.929-0.254-6.189,1.855-6.141,6.498
		c0.205,19.32,0.091,38.645,0.082,57.968c-0.004,9.462,0.642,8.348-8.752,8.416c-15.491,0.113-15.491,0.109-15.491-15.796
		C511.955,1734.246,511.955,1727.25,511.954,1720.253z"/>
	<path fill-rule="evenodd" clip-rule="evenodd" fill="#FFFFFF" d="M2025.367,1710.443c0.008-13.987,0.142-27.977-0.071-41.961
		c-0.067-4.4,1.536-5.504,5.777-5.645c18.384-0.608,18.38-0.752,18.381,18.056c0.001,16.318,0.125,32.639-0.078,48.954
		c-0.058,4.63,1.193,6.549,6.179,6.397c10.646-0.323,21.315,0.107,31.965-0.164c4.885-0.124,6.294,1.693,6.155,6.407
		c-0.522,17.768,2.317,14.229-13.8,14.467c-15.982,0.235-31.975-0.161-47.953,0.166c-5.278,0.107-6.8-1.532-6.672-6.718
		C2025.578,1737.091,2025.359,1723.764,2025.367,1710.443z"/>
	<path fill-rule="evenodd" clip-rule="evenodd" fill="#F7F8F9" d="M2714.03,1710.296c0.002-13.314-0.057-26.63,0.024-39.944
		c0.045-7.226,0.151-7.275,6.899-7.427c4.325-0.097,8.67,0.22,12.977-0.08c4.593-0.319,5.551,1.857,5.534,5.936
		c-0.112,27.627-0.099,55.256,0.004,82.884c0.014,3.66-0.912,5.589-4.972,5.418c-4.984-0.21-9.997-0.268-14.974,0.018
		c-4.481,0.256-5.631-1.673-5.57-5.862C2714.153,1737.593,2714.028,1723.943,2714.03,1710.296z"/>
	<path fill-rule="evenodd" clip-rule="evenodd" fill="#F7F8F9" d="M2987.492,1710.174c-0.001,13.313-0.166,26.627,0.087,39.935
		c0.093,4.842-0.837,7.601-6.444,6.983c-5.561-0.611-12.584,2.251-16.397-1.15c-3.927-3.501-1.373-10.63-1.413-16.146
		c-0.167-22.962-0.101-45.926-0.049-68.89c0.018-7.903,0.11-7.902,8.223-8.001c15.991-0.194,15.992-0.194,15.994,15.319
		C2987.493,1688.875,2987.492,1699.524,2987.492,1710.174z"/>
	<path fill-rule="evenodd" clip-rule="evenodd" fill="#FEC30C" d="M2185.901,894.47c-23.342,19.134-46.679,38.274-70.036,57.39
		c-2.04,1.67-4.218,3.172-6.332,4.752c-1.197-11.294-0.428-22.621-0.499-33.931c-0.142-22.321-0.041-44.645-0.041-66.967
		c0-3.287,0-6.573,0-9.799C2133.178,843.923,2172.568,869.039,2185.901,894.47z"/>
	<path fill-rule="evenodd" clip-rule="evenodd" fill="#FEC30C" d="M2109.386,991.411c27.344-2.041,54.688-4.083,82.033-6.124
		c-4.944,14.928-14.231,26.965-25.549,37.48c-16.046,14.906-35.254,24.48-57.064,33.452
		C2109.119,1033.662,2108.313,1012.55,2109.386,991.411z"/>
	<path fill-rule="evenodd" clip-rule="evenodd" fill="#FFFFFF" d="M2359.781,1081.02c-0.965-1.776,0.708-1.538,1.504-1.971
		C2361.354,1080.141,2361.134,1081.013,2359.781,1081.02z"/>
	<path fill-rule="evenodd" clip-rule="evenodd" fill="#130553" d="M421.139,1682.579c2.993,0,6.025-0.311,8.97,0.063
		c6.543,0.83,9.885,4.548,9.828,10.394c-0.057,5.932-3.252,9.922-9.729,10.571c-6.262,0.629-12.624,0.298-18.941,0.297
		c-2.368,0-3.593-1.335-3.58-3.746c0.008-1.331-0.01-2.662-0.034-3.994C407.395,1682.361,407.394,1682.361,421.139,1682.579z"/>
	<path fill-rule="evenodd" clip-rule="evenodd" fill="#130553" d="M2505.458,1709.912c-0.256-4.778,0.243-9.672,2.215-14.374
		c4.055-9.665,10.246-13.64,20.896-13.3c9.173,0.293,15.867,5.397,18.817,14.836c2.413,7.72,2.773,15.554,0.567,23.486
		c-3.176,11.421-10.514,17.67-21.015,17.539c-10.058-0.126-17.319-6.239-20.431-17.104
		C2505.487,1717.434,2505.383,1713.81,2505.458,1709.912z"/>
	<path fill-rule="evenodd" clip-rule="evenodd" fill="#130553" d="M1973.808,1710.338c-0.102,6.727-1.298,12.183-4.08,17.225
		c-3.876,7.023-9.929,10.455-17.88,10.518c-7.964,0.063-14.313-3.218-17.974-10.309c-6.015-11.651-6.047-23.675-0.136-35.348
		c3.567-7.042,9.607-10.319,17.837-10.324c8.176-0.004,14.067,3.175,18.052,10.063
		C1973.046,1698.074,1974.039,1704.59,1973.808,1710.338z"/>
	<path fill-rule="evenodd" clip-rule="evenodd" fill="#130553" d="M331.934,1710.354c0.157,5.392-0.862,10.594-3.14,15.445
		c-3.708,7.896-9.885,12.298-18.807,12.276c-8.83-0.021-15.243-3.979-18.848-12.103c-4.841-10.908-4.752-21.887,0.292-32.666
		c3.574-7.638,9.698-11.119,18.3-11.194c8.629-0.075,14.641,3.523,18.516,10.931C331.065,1698.431,332.14,1704.279,331.934,1710.354
		z"/>
	<path fill-rule="evenodd" clip-rule="evenodd" fill="#130553" d="M1813.48,1709.603c-0.282-4.851,0.474-9.385,2.199-13.774
		c3.547-9.022,9.51-13.375,18.691-13.587c10.22-0.235,16.586,3.531,20.246,12.738c3.944,9.92,4.06,20.063-0.048,30.004
		c-3.503,8.481-9.873,13.07-19.238,13.093c-9.394,0.021-15.603-4.749-19.317-13.058
		C1813.809,1720.087,1813.114,1714.841,1813.48,1709.603z"/>
	<path fill-rule="evenodd" clip-rule="evenodd" fill="#130553" d="M3039.398,1707.16c-0.139-3.304,0.312-7.839,2.283-12.211
		c4.179-9.264,9.936-12.963,20.274-12.727c9.163,0.21,15.316,4.568,18.696,13.607c3.104,8.3,3.406,16.762,1.001,25.346
		c-2.983,10.647-10.484,16.903-20.567,16.933c-10.104,0.029-17.711-6.102-20.757-16.714
		C3039.117,1717.17,3039.502,1712.84,3039.398,1707.16z"/>
	<path fill-rule="evenodd" clip-rule="evenodd" fill="#130553" d="M1566.599,1733.612c-1.927,3.527-4.679,4.849-7.348,6.078
		c-6.108,2.813-13.521,0.313-16.24-5.267c-2.582-5.297,0.937-12.638,7.252-15.41c2.21-0.97,3.75-0.384,5.182,1.337
		C1559.039,1724.667,1562.672,1728.949,1566.599,1733.612z"/>
	<path fill-rule="evenodd" clip-rule="evenodd" fill="#130553" d="M1569.063,1683.672c0.239,3.689-5.44,11.138-8.451,11.082
		c-2.249-0.042-6.739-6.347-7.073-9.932c-0.414-4.438,2.168-7.691,6.512-8.206
		C1564.556,1676.083,1568.786,1679.394,1569.063,1683.672z"/>
	<path fill-rule="evenodd" clip-rule="evenodd" fill="#130553" d="M1304.179,1706.896c-1.695,0-3.055-0.182-4.351,0.031
		c-5.543,0.91-7.071-1.859-6.437-6.771c0.085-0.654-0.056-1.338,0.024-1.993c0.631-5.152-2.549-12.832,1.691-14.93
		c5.48-2.712,13.044-1.542,19.584-0.156c5.001,1.06,8.214,5.677,8.536,11.031c0.311,5.151-2.683,9.655-7.586,11.659
		C1311.791,1707.342,1307.775,1706.728,1304.179,1706.896z"/>
	<path fill-rule="evenodd" clip-rule="evenodd" fill="#130553" d="M1712.5,1694.517c0.148-13.668-1.643-12.035,12.232-12.135
		c2.32-0.017,4.665-0.099,6.958,0.18c6.973,0.847,10.892,5.032,11.188,11.709c0.288,6.486-3.543,11.09-10.525,12.313
		c-2.264,0.396-4.628,0.331-6.943,0.298C1710.747,1706.669,1712.674,1708.997,1712.5,1694.517z"/>
	<path fill-rule="evenodd" clip-rule="evenodd" fill="#130553" d="M1411.142,1721.401c-7.252,1.05-13.632,1.058-20.946-0.042
		c3.4-10.578,6.595-20.517,10.233-31.836C1405.315,1700.491,1407.947,1710.7,1411.142,1721.401z"/>
	<path fill-rule="evenodd" clip-rule="evenodd" fill="#130553" d="M2807.011,1689.258c5.234,11.509,7.488,21.602,11.07,32.454
		c-7.251,0.521-13.564,0.768-20.574-0.241C2799.432,1710.719,2803.818,1701.322,2807.011,1689.258z"/>
	<path fill-rule="evenodd" clip-rule="evenodd" fill="#130553" d="M2223,1721.749c-7.721,0-13.92,0-21.381,0
		c3.482-10.729,6.776-20.877,10.833-33.375C2216.33,1700.646,2219.442,1710.492,2223,1721.749z"/>
	<path fill-rule="evenodd" clip-rule="evenodd" fill="#130553" d="M853.163,1721.748c-7.636,0-13.841,0-21.066,0
		c2.879-10.954,6.104-21.16,10.712-32.488C846.384,1700.481,849.545,1710.398,853.163,1721.748z"/>
</g>
</svg>
