<?xml version="1.0" encoding="utf-8"?>
<!-- Generator: Adobe Illustrator 16.0.3, SVG Export Plug-In . SVG Version: 6.00 Build 0)  -->
<!DOCTYPE svg PUBLIC "-//W3C//DTD SVG 1.1//EN" "http://www.w3.org/Graphics/SVG/1.1/DTD/svg11.dtd">
<svg version="1.1" id="Layer_1" xmlns="http://www.w3.org/2000/svg" xmlns:xlink="http://www.w3.org/1999/xlink" x="0px" y="0px"
	 width="143.875px" height="34.625px" viewBox="0 0 143.875 34.625" enable-background="new 0 0 143.875 34.625"
	 xml:space="preserve">
<g>
	<path d="M1.935,24.492h3.31c1.955,0,3.19,1.134,3.19,2.853v0.024c0,1.914-1.511,2.914-3.358,2.914H3.41v2.743H1.935V24.492z
		 M5.125,28.93c1.116,0,1.811-0.634,1.811-1.523v-0.024c0-1-0.708-1.524-1.811-1.524H3.41v3.072H5.125z"/>
	<path d="M12.083,24.432h1.367l3.694,8.595h-1.559l-0.852-2.061h-3.97L9.9,33.026H8.389L12.083,24.432z M14.193,29.637l-1.451-3.413
		l-1.439,3.413H14.193z"/>
	<path d="M18.584,24.492h3.742c1.056,0,1.883,0.317,2.423,0.854c0.444,0.463,0.695,1.097,0.695,1.841v0.024
		c0,1.402-0.827,2.243-2.003,2.585l2.267,3.23h-1.739l-2.063-2.975H20.06v2.975h-1.475V24.492z M22.218,28.723
		c1.056,0,1.727-0.561,1.727-1.427v-0.024c0-0.914-0.647-1.414-1.739-1.414H20.06v2.865H22.218z"/>
	<path d="M27.257,24.492h3.742c1.056,0,1.883,0.317,2.423,0.854c0.444,0.463,0.695,1.097,0.695,1.841v0.024
		c0,1.402-0.827,2.243-2.003,2.585l2.267,3.23h-1.739l-2.063-2.975h-1.847v2.975h-1.475V24.492z M30.891,28.723
		c1.056,0,1.727-0.561,1.727-1.427v-0.024c0-0.914-0.647-1.414-1.739-1.414h-2.146v2.865H30.891z"/>
	<path d="M36.014,24.492h1.475v8.534h-1.475V24.492z"/>
	<path d="M39.168,31.783l0.888-1.073c0.803,0.707,1.607,1.109,2.65,1.109c0.912,0,1.487-0.427,1.487-1.073v-0.024
		c0-0.609-0.336-0.938-1.895-1.304c-1.787-0.439-2.794-0.976-2.794-2.549v-0.024c0-1.463,1.199-2.475,2.866-2.475
		c1.224,0,2.195,0.378,3.046,1.073l-0.792,1.134c-0.755-0.573-1.511-0.878-2.279-0.878c-0.863,0-1.367,0.451-1.367,1.012v0.024
		c0,0.658,0.384,0.951,1.991,1.341c1.775,0.439,2.698,1.085,2.698,2.5v0.024c0,1.597-1.235,2.548-2.999,2.548
		C41.387,33.148,40.176,32.697,39.168,31.783z"/>
	<path d="M47.409,24.492h1.475v3.548h4.006v-3.548h1.475v8.534H52.89V29.43h-4.006v3.597h-1.475V24.492z"/>
	<path d="M63.099,24.432h1.367l3.694,8.595h-1.56l-0.852-2.061h-3.97l-0.863,2.061h-1.511L63.099,24.432z M65.209,29.637
		l-1.451-3.413l-1.439,3.413H65.209z"/>
	<path d="M69.601,24.492h3.742c1.055,0,1.883,0.317,2.422,0.854c0.444,0.463,0.696,1.097,0.696,1.841v0.024
		c0,1.402-0.828,2.243-2.003,2.585l2.267,3.23h-1.739l-2.063-2.975h-1.847v2.975h-1.475V24.492z M73.234,28.723
		c1.056,0,1.728-0.561,1.728-1.427v-0.024c0-0.914-0.648-1.414-1.739-1.414h-2.147v2.865H73.234z"/>
	<path d="M80.301,25.882h-2.663v-1.39h6.813v1.39h-2.662v7.145h-1.487V25.882z"/>
	<path d="M89.608,24.492h1.571l2.555,4.035l2.555-4.035h1.571v8.534h-1.476v-6.12l-2.65,4.023h-0.048l-2.627-3.999v6.096h-1.451
		V24.492z"/>
	<path d="M99.889,29.405v-4.913h1.476v4.853c0,1.585,0.804,2.438,2.123,2.438c1.307,0,2.11-0.805,2.11-2.378v-4.913h1.476v4.84
		c0,2.548-1.415,3.828-3.61,3.828C101.28,33.16,99.889,31.88,99.889,29.405z"/>
	<path d="M108.537,31.783l0.888-1.073c0.804,0.707,1.607,1.109,2.65,1.109c0.911,0,1.487-0.427,1.487-1.073v-0.024
		c0-0.609-0.336-0.938-1.895-1.304c-1.787-0.439-2.795-0.976-2.795-2.549v-0.024c0-1.463,1.199-2.475,2.866-2.475
		c1.224,0,2.195,0.378,3.047,1.073l-0.792,1.134c-0.756-0.573-1.511-0.878-2.278-0.878c-0.864,0-1.367,0.451-1.367,1.012v0.024
		c0,0.658,0.384,0.951,1.99,1.341c1.775,0.439,2.699,1.085,2.699,2.5v0.024c0,1.597-1.235,2.548-2.999,2.548
		C110.756,33.148,109.545,32.697,108.537,31.783z"/>
	<path d="M116.777,24.492h6.225v1.341h-4.749v2.219h4.21v1.342h-4.21v2.292h4.81v1.341h-6.285V24.492z"/>
	<path d="M124.683,29.405v-4.913h1.476v4.853c0,1.585,0.804,2.438,2.123,2.438c1.307,0,2.11-0.805,2.11-2.378v-4.913h1.476v4.84
		c0,2.548-1.416,3.828-3.61,3.828C126.074,33.16,124.683,31.88,124.683,29.405z"/>
	<path d="M133.896,24.492h1.571l2.555,4.035l2.555-4.035h1.571v8.534h-1.476v-6.12l-2.65,4.023h-0.048l-2.627-3.999v6.096h-1.451
		V24.492z"/>
</g>
<g>
	<rect x="1.938" y="16.75" width="50.563" height="1"/>
</g>
<g>
	<rect x="7.438" y="7.125" width="1" height="10.085"/>
</g>
<g>
	<rect x="23.375" y="7.125" width="1" height="10.085"/>
</g>
<g>
	<polygon points="30.034,11.853 16.002,2.417 2.22,11.85 1.655,11.025 15.998,1.208 30.591,11.022 	"/>
</g>
<g>
	<rect x="45.75" y="7.125" width="1" height="10.085"/>
</g>
<g>
	<rect x="29.813" y="7.125" width="1" height="10.085"/>
</g>
<g>
	<polygon points="52.53,12.225 38.185,2.417 24.154,11.853 23.596,11.022 38.19,1.208 53.095,11.4 	"/>
</g>
</svg>
