<?xml version="1.0" encoding="utf-8"?>
<!-- Generator: Adobe Illustrator 19.2.1, SVG Export Plug-In . SVG Version: 6.00 Build 0)  -->
<svg version="1.1" id="Layer_1" xmlns="http://www.w3.org/2000/svg" xmlns:xlink="http://www.w3.org/1999/xlink" x="0px" y="0px"
	 viewBox="0 0 195 103" style="enable-background:new 0 0 195 103;" xml:space="preserve">
<style type="text/css">
	.st0{fill:#FFFFFF;}
</style>
<g>
	<path class="st0" d="M81.2,48.5c0-3-3.1-3.1-3.1-3.1h-2.3v6.3H78C78,51.6,81.2,51.5,81.2,48.5z"/>
	<path class="st0" d="M118.7,40.3h9v23.3l14.3-4.6L125.5,22l-72.5,4l13.7,37.3v-23h6.2h2.9H80c0,0,9.8,0,9.8,8.1s-9.9,8.2-9.9,8.2
		h-4.2v7.3h-8.9L73.1,81l52.6-16.7h-7V40.3z M106.8,64.3c-8.3,0-15.3-3.9-15.3-13.2c0-8.3,9.3-11.3,15.7-11.3c4,0,7.3,1,7.3,1v6.6
		c-1.3-1.3-13.5-5.2-13.5,4.7s13.9,5.2,13.9,5.2v5.6C115,62.9,115.1,64.3,106.8,64.3z M122.6,27.6c0.1,0,0.2,0,0.3,0
		c0.1,0,0.2,0,0.3,0c0.1,0,0.2,0,0.3,0c0.1,0,0.2,0,0.3,0c2.8,0,5.1,2.3,5.1,5.1s-2.3,5.1-5.1,5.1c-0.1,0-0.2,0-0.3,0
		c-0.1,0-0.2,0-0.3,0c-0.1,0-0.2,0-0.3,0c-0.1,0-0.2,0-0.3,0c-2.8,0-5.1-2.3-5.1-5.1S119.8,27.6,122.6,27.6z"/>
</g>
</svg>
