<?xml version="1.0" encoding="utf-8"?>
<!-- Generator: Adobe Illustrator 19.2.1, SVG Export Plug-In . SVG Version: 6.00 Build 0)  -->
<svg version="1.1" id="Layer_1" xmlns="http://www.w3.org/2000/svg" xmlns:xlink="http://www.w3.org/1999/xlink" x="0px" y="0px"
	 viewBox="0 0 40 40" style="enable-background:new 0 0 40 40;" xml:space="preserve">
<style type="text/css">
	.st0{fill:#005682;}
</style>
<g>
	<rect x="-175.5" y="11.2" class="st0" width="11.2" height="5.6"/>
	<rect x="-158.6" y="11.2" class="st0" width="11.2" height="5.6"/>
	
		<rect x="-167" y="2.8" transform="matrix(2.260929e-011 1 -1 2.260929e-011 -155.8483 167.0314)" class="st0" width="11.2" height="5.6"/>
	
		<rect x="-167.1" y="19.6" transform="matrix(2.268922e-011 1 -1 2.268922e-011 -138.9832 183.8965)" class="st0" width="11.3" height="5.6"/>
</g>
<g>
	<g>
		<g>
			<path class="st0" d="M153.5,14.9l-1.3-1.2c-0.1-0.1-0.5-0.3-0.8-0.5c-0.3,0.9-1.1,1.7-1.2,1.8l-0.6,0.7l-0.2-0.9
				c-0.3-1.1-0.5-2-0.8-2.9H148v11h10c1.1,0,1.9-0.9,1.9-1.9v-9h-7.4c0.3,0.7,0.5,1.2,0.5,1.2L153.5,14.9z"/>
			<path class="st0" d="M143.3,12c-0.3,0.8-0.5,1.7-0.8,2.9l-0.2,0.9l-0.6-0.7c-0.1-0.1-0.9-0.9-1.2-1.8c-0.3,0.1-0.7,0.3-0.9,0.5
				l-1.1,0.9l0.4-1.4c0-0.1,0.1-0.5,0.5-1.2h-7.3v9c0,1.1,0.9,1.9,1.9,1.9h10V12L143.3,12L143.3,12z"/>
			<path class="st0" d="M138.2,7c-0.5-0.2-0.9-0.5-1.3-0.8H134c-1.1,0-1.9,0.9-1.9,1.9v1.1h8.8c0.4-0.5,0.8-1,1.3-1.5
				C141,7.7,139.5,7.5,138.2,7z"/>
			<path class="st0" d="M153.6,7c-1.3,0.5-2.8,0.7-4.1,0.7c0.5,0.5,0.9,1.1,1.3,1.5h8.8V8.1c0-1.1-0.9-1.9-1.9-1.9h-3
				C154.5,6.5,154.1,6.8,153.6,7z"/>
		</g>
	</g>
	<path class="st0" d="M151.6,0c-1.9,0-4.5,1.9-5.2,5.2h-1.1C144.6,2,141.9,0,140.1,0c-2,0-2.8,1.7-2.8,1.7s-2,3.9,1.1,4.9
		c1.3,0.5,2.8,0.7,4.1,0.7c0.4,0,0.8,0,1.2-0.1c-3.5,3-4.4,6.2-4.4,6.2c0.4-0.3,1.5-0.8,1.5-0.8c0.1,0.9,1.2,2.1,1.2,2.1
		c0.9-3.3,1.8-5.4,2.5-6.6V23h2.9V8c0.7,1.2,1.7,3.3,2.5,6.7c0,0,1.1-1.2,1.2-2.1c0,0,1.1,0.4,1.5,0.8c0,0-0.9-3.2-4.4-6.2
		c0.3,0.1,0.7,0.1,1.2,0.1c1.3,0,2.7-0.3,4.1-0.7c3.1-1.1,1.1-4.9,1.1-4.9S153.7,0,151.6,0z M138.6,2.5c0.3-0.1,0.6-0.1,0.9-0.1
		c3,0,4.3,2.3,4.7,3.5C142.4,5.7,139.7,5.1,138.6,2.5z M147.6,5.9c0.5-1.1,1.7-3.5,4.7-3.5c0.3,0,0.6,0,0.9,0.1
		C152.1,5.1,149.4,5.7,147.6,5.9z"/>
</g>
<g>
	<path class="st0" d="M13.3,10.9c0-1.2-1.3-1.3-1.3-1.3h-0.9v2.6H12C12,12.2,13.3,12.1,13.3,10.9z"/>
	<path class="st0" d="M28.7,7.5h3.7v9.6l5.9-1.9L31.5,0L1.7,1.6L7.3,17V7.5h2.6h1.2h1.7c0,0,4,0,4,3.3s-4.1,3.4-4.1,3.4H11v3H7.4
		l2.6,7l21.6-6.9h-2.9V7.5z M23.8,17.4c-3.4,0-6.3-1.6-6.3-5.4c0-3.4,3.8-4.7,6.5-4.7c1.6,0,3,0.4,3,0.4v2.7
		c-0.5-0.5-5.6-2.1-5.6,1.9s5.7,2.1,5.7,2.1v2.3C27.2,16.8,27.2,17.4,23.8,17.4z M30.3,2.3c0,0,0.1,0,0.1,0c0,0,0.1,0,0.1,0
		c0,0,0.1,0,0.1,0c0,0,0.1,0,0.1,0c1.2,0,2.1,0.9,2.1,2.1S32,6.5,30.8,6.5c0,0-0.1,0-0.1,0c0,0-0.1,0-0.1,0s-0.1,0-0.1,0
		c0,0-0.1,0-0.1,0c-1.2,0-2.1-0.9-2.1-2.1S29.2,2.3,30.3,2.3z"/>
</g>
<g>
	<path class="st0" d="M107.2,16.3L110,5.7H86.9l-0.8-3.4C85.8,0.9,84.7,0,83.4,0h-4v2.5h4c0.1,0,0.2,0.1,0.3,0.3l4.1,18.7
		c0.3,1.3,1.4,2.2,2.7,2.2h16.7v-2.5H90.5c-0.1,0-0.2-0.1-0.3-0.2l-0.4-2l15.9-1.5C106.4,17.5,107.1,17,107.2,16.3z"/>
	<path class="st0" d="M91.9,24.4c-1.4,0-2.5,1.1-2.5,2.5c0,1.4,1.1,2.5,2.5,2.5s2.5-1.1,2.5-2.5C94.4,25.5,93.3,24.4,91.9,24.4z"/>
	<path class="st0" d="M103.5,24.4c-1.4,0-2.5,1.1-2.5,2.5c0,1.4,1.1,2.5,2.5,2.5s2.5-1.1,2.5-2.5C106,25.5,104.9,24.4,103.5,24.4z"
		/>
</g>
<path class="st0" d="M225.6,11c0-6.1-7.4-11-16.6-11c-9.1,0-16.6,4.9-16.6,11c0,6.1,7.4,11,16.6,11c1.2,0,2.4-0.1,3.5-0.3l5.9,1.9
	l-2.2-2.8C221.8,19.2,225.6,15.4,225.6,11z"/>
</svg>
