<?xml version="1.0" encoding="utf-8"?>
<!-- Generator: Adobe Illustrator 19.2.1, SVG Export Plug-In . SVG Version: 6.00 Build 0)  -->
<svg version="1.1" id="Layer_1" xmlns="http://www.w3.org/2000/svg" xmlns:xlink="http://www.w3.org/1999/xlink" x="0px" y="0px"
	 viewBox="0 0 424.8 67.7" style="enable-background:new 0 0 424.8 67.7;" xml:space="preserve">
<style type="text/css">
	.st0{fill:#095194;}
	.st1{fill:#FFFFFF;}
</style>
<g>
	<g>
		<g>
			<circle class="st0" cx="36.2" cy="29.3" r="28.2"/>
		</g>
		<g>
			<g>
				<path class="st1" d="M36.2,54.4c-13.8,0-25.1-11.3-25.1-25.1c0-13.8,11.3-25.1,25.1-25.1s25.1,11.3,25.1,25.1
					C61.3,43.2,50,54.4,36.2,54.4z M36.2,6.6c-12.6,0-22.8,10.2-22.8,22.8c0,12.6,10.2,22.8,22.8,22.8C48.7,52.1,59,41.9,59,29.3
					C59,16.8,48.7,6.6,36.2,6.6z"/>
			</g>
		</g>
		<g>
			<path class="st1" d="M43.9,42.3h-16v-1c0,0,0.4-1,1-1h14c0.6,0,1,0.5,1,1V42.3z"/>
			<path class="st1" d="M45.9,17.2h-20c-1.7,0-3,1.3-3,3v14c0,1.7,1.3,3,3,3h7v1c0,0.6,0.5,1,1,1h4c0.6,0,1-0.5,1-1c0-0.2,0-0.6,0-1
				h7c1.7,0,3-1.3,3-3v-14C48.9,18.6,47.6,17.2,45.9,17.2z M24.9,32.2v-12c0-0.6,0.5-1,1-1h20c0.6,0,1,0.5,1,1v12c0,0.6-0.5,1-1,1
				h-20C25.3,33.2,24.9,32.8,24.9,32.2z M45.9,36.3c-0.6,0-1-0.5-1-1c0-0.6,0.5-1,1-1c0.6,0,1,0.5,1,1
				C46.9,35.8,46.5,36.3,45.9,36.3z"/>
		</g>
		<path class="st1" d="M50.8,26.1c0,0.9-0.3,1.6-0.7,1.6h-2c-0.4,0-0.7-0.7-0.7-1.6v-3.4c0-0.9,0.3-1.6,0.7-1.6h2
			c0.4,0,0.7,0.7,0.7,1.6V26.1z"/>
		<path class="st1" d="M37.4,24.2v-2.7c0-0.2-0.1-0.3-0.3-0.3H37c-0.2,0-0.3,0.1-0.3,0.3v2.6c-0.6-0.1-1.3-0.1-1.9,0v-2.6
			c0-0.2-0.1-0.3-0.3-0.3h-0.1c-0.2,0-0.3,0.1-0.3,0.3v2.7c-1.2,0.2-2.1,0.6-2.1,1.3c0,1.5,1,2.8,2.5,3.3v0.6c0,0.2,0.1,0.3,0.3,0.3
			h0.7c0,0.6,0.2,1.3,1,1.8c0,0,0.1,0,0.1,0c0.1,0,0.1,0,0.2-0.1c0.1-0.1,0-0.2-0.1-0.3c-0.6-0.3-0.7-0.9-0.8-1.4h0.9
			c0.2,0,0.3-0.1,0.3-0.3v-0.6c1.4-0.5,2.5-1.8,2.5-3.3C39.5,24.8,38.6,24.4,37.4,24.2z"/>
	</g>
	<g>
		<g>
			<path d="M78.1,9.2h11.7c1.4,0,2.9,0.2,4.4,0.5c1.5,0.3,3,0.9,4.2,1.7c1.3,0.8,2.3,1.9,3.1,3.3c0.8,1.4,1.2,3.1,1.2,5.2
				c0,1.8-0.3,3.4-1,4.8c-0.7,1.3-1.6,2.4-2.7,3.3c-1.1,0.9-2.4,1.5-3.9,1.9c-1.5,0.4-3,0.6-4.6,0.6h-8.8v19.2h-3.8V9.2z M81.8,27
				h8.6c1.1,0,2.1-0.1,3.1-0.4c1-0.2,1.9-0.6,2.7-1.2c0.8-0.6,1.5-1.3,1.9-2.2c0.5-0.9,0.7-2,0.7-3.4c0-1.3-0.3-2.4-0.8-3.3
				c-0.5-0.9-1.2-1.7-2-2.3c-0.8-0.6-1.8-1-2.8-1.3c-1.1-0.3-2.1-0.4-3.2-0.4h-8.4V27z"/>
			<path d="M106.3,9.2H117c0.5,0,1.3,0,2.2,0.1c0.9,0,1.9,0.2,3,0.3c1.1,0.2,2.2,0.5,3.3,0.9c1.1,0.4,2.1,1,3,1.8
				c0.9,0.8,1.6,1.8,2.2,3c0.6,1.2,0.9,2.7,0.9,4.5c0,1.9-0.3,3.6-1,4.8c-0.7,1.3-1.5,2.3-2.5,3.1c-1,0.8-2.1,1.4-3.3,1.7
				c-1.2,0.4-2.4,0.6-3.5,0.8l11.8,19.5h-4.3l-11.4-19.2h-7v19.2h-3.8V9.2z M110.1,27h8c2,0,3.6-0.2,4.8-0.7
				c1.2-0.5,2.2-1.1,2.9-1.8c0.7-0.7,1.2-1.5,1.4-2.3c0.2-0.8,0.4-1.6,0.4-2.3s-0.1-1.5-0.4-2.3c-0.2-0.8-0.7-1.6-1.4-2.3
				c-0.7-0.7-1.7-1.3-2.9-1.8c-1.2-0.5-2.9-0.7-4.8-0.7h-8V27z"/>
			<path d="M133.1,29.4c0-3.1,0.5-5.9,1.5-8.5c1-2.6,2.5-4.8,4.3-6.7s4-3.4,6.6-4.4c2.6-1.1,5.4-1.6,8.5-1.6c3.1,0,5.9,0.5,8.5,1.6
				c2.6,1.1,4.8,2.5,6.6,4.4c1.8,1.9,3.3,4.1,4.3,6.7c1,2.6,1.5,5.4,1.5,8.5s-0.5,5.9-1.5,8.6c-1,2.6-2.5,4.9-4.3,6.8
				c-1.8,1.9-4,3.4-6.6,4.4c-2.6,1-5.4,1.6-8.5,1.6c-3.1,0-5.9-0.5-8.5-1.6s-4.8-2.5-6.6-4.4s-3.3-4.1-4.3-6.8
				C133.6,35.4,133.1,32.5,133.1,29.4z M136.9,29.4c0,2.5,0.4,4.9,1.2,7s1.9,4.1,3.4,5.7s3.3,2.9,5.4,3.8s4.5,1.4,7.1,1.4
				c2.6,0,5-0.5,7.1-1.4s3.9-2.2,5.4-3.8c1.5-1.6,2.6-3.5,3.4-5.7s1.2-4.5,1.2-7s-0.4-4.9-1.2-7c-0.8-2.2-1.9-4.1-3.4-5.7
				c-1.5-1.6-3.3-2.9-5.4-3.8s-4.5-1.4-7.1-1.4c-2.6,0-5,0.5-7.1,1.4s-3.9,2.2-5.4,3.8s-2.6,3.5-3.4,5.7
				C137.3,24.6,136.9,26.9,136.9,29.4z"/>
			<path d="M200.6,33.6l11.2,1.4c-1.3,4.6-3.5,8.3-6.7,11.2c-3.2,2.9-7.2,4.4-12,4.4c-5.2,0-9.4-1.8-12.5-5.3
				c-3.1-3.6-4.6-8.1-4.6-13.7c0-6.4,1.9-12.1,5.7-17.1c3.8-5,9.1-7.4,15.7-7.4c4.9,0,8.8,1.5,11.8,4.5c3,3,4.5,6.9,4.6,11.8
				L202,24.1c0-2.6-0.4-4.5-1.2-5.7c-0.8-1.3-2-1.9-3.8-1.9c-3.1,0-5.2,2.3-6.3,6.9s-1.7,8.2-1.7,10.8c0,4.3,1.7,6.4,5,6.4
				c1.7,0,3-0.6,4-1.7C199,37.8,199.9,36,200.6,33.6z"/>
			<path d="M237.3,32.9h-10.8l-2.8,16.8h-12.1l7-41.7h12.1L228,23.3h10.8L241.4,8h12.1l-7,41.7h-12.1L237.3,32.9z"/>
			<path d="M273.6,41.2h-11.2l-3.9,8.5h-10.3L267.6,8h13.1l6.5,41.7h-12.3L273.6,41.2z M272.9,32.6l-1.7-12.1l-5.5,12.1H272.9z"/>
			<path d="M319.3,32.2l4.5,17.5h-12.3l-3.7-15.9h-4.9l-2.7,15.9h-11.9l7-41.7h18.2c5,0,8.6,1.1,11,3.3s3.6,5.1,3.6,8.9
				C328,26,325.1,30.1,319.3,32.2z M304.3,25.2h4.7c4.5,0,6.8-1.5,6.8-4.6c0-2.6-1.9-3.9-5.7-3.9h-4.4L304.3,25.2z"/>
			<path d="M347.9,26.8h18.4l-3.8,22.9h-6l-0.4-4.6c-2.4,3.6-6.1,5.4-11.3,5.4c-3.8,0-6.9-0.8-9.3-2.4c-2.4-1.6-4.3-3.7-5.6-6.3
				c-1.3-2.6-2-5.6-2-9.1c0-7,2-13,6-18.1c4-5.1,9.3-7.6,15.9-7.6c9.4,0,15.2,4.5,17.6,13.4l-11.5,1.9c-0.8-3.7-2.9-5.6-6.3-5.6
				c-3.1,0-5.2,1.9-6.6,5.7c-1.3,3.8-2,7.5-2,11.1c0,4.9,1.9,7.3,5.8,7.3c3,0,5.1-1.7,6.4-5.2h-6.8L347.9,26.8z"/>
			<path d="M399.1,40.1l-1.6,9.6h-30.8l7-41.7h30l-1.5,9.1h-17.9l-1.1,6.5h15l-1.5,9.1h-15l-1.2,7.4H399.1z"/>
		</g>
		<g>
			<path d="M407.6,13.2c0-0.6,0.1-1.2,0.4-1.8c0.2-0.6,0.6-1,1-1.5s0.9-0.7,1.5-1c0.6-0.2,1.2-0.4,1.8-0.4s1.2,0.1,1.8,0.4
				s1,0.6,1.5,1c0.4,0.4,0.7,0.9,1,1.5c0.2,0.6,0.4,1.2,0.4,1.8c0,0.6-0.1,1.2-0.4,1.8s-0.6,1-1,1.5c-0.4,0.4-0.9,0.7-1.5,1
				s-1.2,0.4-1.8,0.4s-1.2-0.1-1.8-0.4c-0.6-0.2-1-0.6-1.5-1c-0.4-0.4-0.7-0.9-1-1.5S407.6,13.8,407.6,13.2z M408.3,13.2
				c0,0.5,0.1,1.1,0.3,1.5s0.5,0.9,0.8,1.2c0.4,0.4,0.8,0.6,1.2,0.8s1,0.3,1.5,0.3c0.5,0,1.1-0.1,1.5-0.3c0.5-0.2,0.9-0.5,1.2-0.8
				c0.4-0.4,0.6-0.8,0.8-1.2s0.3-1,0.3-1.5c0-0.5-0.1-1.1-0.3-1.5s-0.5-0.9-0.8-1.2s-0.8-0.6-1.2-0.8c-0.5-0.2-1-0.3-1.5-0.3
				c-0.5,0-1.1,0.1-1.5,0.3c-0.5,0.2-0.9,0.5-1.2,0.8s-0.6,0.8-0.8,1.2S408.3,12.7,408.3,13.2z M411.2,15.8h-0.7v-5.3h2
				c0.6,0,1,0.1,1.3,0.4c0.3,0.3,0.4,0.6,0.4,1.1c0,0.2,0,0.5-0.1,0.6c-0.1,0.2-0.2,0.3-0.3,0.4c-0.1,0.1-0.3,0.2-0.4,0.3
				c-0.2,0.1-0.3,0.1-0.5,0.2l1.6,2.3h-0.8l-1.6-2.3h-1V15.8z M411.2,12.9h0.9c0.2,0,0.4,0,0.5,0c0.2,0,0.3,0,0.5-0.1
				c0.1-0.1,0.3-0.2,0.4-0.3c0.1-0.1,0.1-0.3,0.1-0.5c0-0.2,0-0.3-0.1-0.4c-0.1-0.1-0.2-0.2-0.3-0.3s-0.2-0.1-0.4-0.1s-0.3,0-0.4,0
				h-1.2V12.9z"/>
		</g>
	</g>
	<g>
		<g>
			<path class="st0" d="M106.9,54.2h10.2c0.9,0,1.6,0.1,2.2,0.3c0.6,0.2,1,0.5,1.4,0.9c0.3,0.4,0.6,0.8,0.7,1.3s0.2,1.1,0.2,1.7v1
				c0,0.5-0.1,0.9-0.2,1.4s-0.3,0.9-0.6,1.3c-0.3,0.4-0.6,0.7-1.1,0.9c-0.4,0.2-1,0.4-1.7,0.4h-7.5v3.1h-3.8V54.2z M110.7,60.3h5.8
				c0.4,0,0.8-0.1,0.9-0.4c0.2-0.3,0.3-0.6,0.3-0.9v-0.5c0-0.4-0.1-0.7-0.3-1c-0.2-0.2-0.6-0.3-1.2-0.3h-5.5V60.3z"/>
			<path class="st0" d="M123.3,58.5c0-0.9,0.1-1.6,0.4-2.2c0.2-0.6,0.6-1,1.1-1.4c0.5-0.3,1-0.6,1.7-0.7c0.7-0.1,1.4-0.2,2.3-0.2h6
				c0.8,0,1.6,0.1,2.3,0.2c0.7,0.1,1.2,0.4,1.7,0.7c0.5,0.3,0.8,0.8,1.1,1.4c0.2,0.6,0.4,1.3,0.4,2.2v3.7c0,0.9-0.1,1.6-0.4,2.2
				c-0.2,0.6-0.6,1-1.1,1.4c-0.5,0.3-1,0.6-1.7,0.7c-0.7,0.1-1.4,0.2-2.3,0.2h-6c-0.8,0-1.6-0.1-2.3-0.2c-0.7-0.1-1.2-0.4-1.7-0.7
				c-0.5-0.3-0.8-0.8-1.1-1.4c-0.2-0.6-0.4-1.3-0.4-2.2V58.5z M127.2,61c0,0.4,0,0.8,0.1,1.1s0.2,0.6,0.3,0.8s0.4,0.3,0.7,0.4
				c0.3,0.1,0.6,0.1,1.1,0.1h4.8c0.4,0,0.8,0,1.1-0.1c0.3-0.1,0.5-0.2,0.7-0.4c0.2-0.2,0.3-0.4,0.3-0.8c0.1-0.3,0.1-0.7,0.1-1.1
				v-1.3c0-0.4,0-0.7-0.1-1s-0.2-0.6-0.3-0.8c-0.2-0.2-0.4-0.4-0.7-0.5c-0.3-0.1-0.7-0.2-1.2-0.2h-4.4c-0.5,0-0.9,0.1-1.2,0.2
				c-0.3,0.1-0.5,0.3-0.7,0.5c-0.2,0.2-0.3,0.5-0.3,0.8c-0.1,0.3-0.1,0.6-0.1,1V61z"/>
			<path class="st0" d="M142.6,54.2h3.8v12.2h-3.8V54.2z"/>
			<path class="st0" d="M149.1,54.2h5.8l7,8.9h0v-8.9h3.8v12.2h-5.8l-7-8.9h0v8.9h-3.8V54.2z"/>
			<path class="st0" d="M167.4,54.2h14.3v3h-5.3v9.2h-3.8v-9.2h-5.3V54.2z"/>
			<path class="st0" d="M191.4,58.5c0-0.9,0.1-1.6,0.4-2.2c0.2-0.6,0.6-1,1.1-1.4c0.5-0.3,1-0.6,1.7-0.7c0.7-0.1,1.4-0.2,2.3-0.2h6
				c0.8,0,1.6,0.1,2.3,0.2c0.7,0.1,1.2,0.4,1.7,0.7c0.5,0.3,0.8,0.8,1.1,1.4c0.2,0.6,0.4,1.3,0.4,2.2v3.7c0,0.9-0.1,1.6-0.4,2.2
				c-0.2,0.6-0.6,1-1.1,1.4c-0.5,0.3-1,0.6-1.7,0.7c-0.7,0.1-1.4,0.2-2.3,0.2h-6c-0.8,0-1.6-0.1-2.3-0.2c-0.7-0.1-1.2-0.4-1.7-0.7
				c-0.5-0.3-0.8-0.8-1.1-1.4c-0.2-0.6-0.4-1.3-0.4-2.2V58.5z M195.3,61c0,0.4,0,0.8,0.1,1.1s0.2,0.6,0.3,0.8s0.4,0.3,0.7,0.4
				c0.3,0.1,0.6,0.1,1.1,0.1h4.8c0.4,0,0.8,0,1.1-0.1c0.3-0.1,0.5-0.2,0.7-0.4c0.2-0.2,0.3-0.4,0.3-0.8c0.1-0.3,0.1-0.7,0.1-1.1
				v-1.3c0-0.4,0-0.7-0.1-1s-0.2-0.6-0.3-0.8c-0.2-0.2-0.4-0.4-0.7-0.5c-0.3-0.1-0.7-0.2-1.2-0.2h-4.4c-0.5,0-0.9,0.1-1.2,0.2
				c-0.3,0.1-0.5,0.3-0.7,0.5c-0.2,0.2-0.3,0.5-0.3,0.8c-0.1,0.3-0.1,0.6-0.1,1V61z"/>
			<path class="st0" d="M210.5,54.2h12.8v2.9h-9v2.3h8.6v2.8h-8.6v4.2h-3.8V54.2z"/>
			<path class="st0" d="M233.6,62.4h3.8c0,0.3,0,0.6,0.1,0.8c0.1,0.2,0.2,0.3,0.3,0.4c0.1,0.1,0.3,0.2,0.5,0.2s0.4,0,0.7,0h4.6
				c0.2,0,0.4,0,0.6,0c0.2,0,0.4-0.1,0.5-0.1s0.3-0.2,0.4-0.3c0.1-0.1,0.1-0.3,0.1-0.6c0-0.3,0-0.5-0.1-0.6s-0.3-0.3-0.7-0.3
				s-0.9-0.1-1.6-0.1c-0.7,0-1.7,0-2.9,0c-1.4,0-2.5-0.1-3.4-0.2s-1.5-0.3-1.9-0.6c-0.4-0.3-0.7-0.6-0.8-1.1
				c-0.1-0.5-0.2-1.1-0.2-1.9c0-0.6,0-1.1,0.1-1.5c0.1-0.5,0.3-0.9,0.6-1.2s0.8-0.6,1.5-0.8c0.7-0.2,1.6-0.3,2.8-0.3h5.2
				c1.1,0,1.9,0.1,2.6,0.3c0.6,0.2,1.1,0.4,1.4,0.7s0.5,0.7,0.6,1.1s0.1,0.9,0.1,1.5v0.4h-3.8c0-0.2,0-0.4,0-0.6
				c0-0.2-0.1-0.3-0.2-0.4c-0.1-0.1-0.3-0.2-0.6-0.2s-0.6-0.1-1-0.1h-4.2c-0.4,0-0.8,0.1-1,0.2c-0.3,0.2-0.4,0.4-0.4,0.7
				c0,0.3,0,0.5,0.1,0.6c0.1,0.1,0.3,0.3,0.6,0.3c0.3,0.1,0.8,0.1,1.4,0.1c0.6,0,1.4,0,2.4,0c1.5,0,2.6,0,3.6,0.1s1.7,0.2,2.2,0.5
				c0.5,0.3,0.9,0.7,1.1,1.2s0.3,1.2,0.3,2.1c0,0.8-0.1,1.5-0.3,2c-0.2,0.5-0.5,0.9-0.9,1.2c-0.5,0.3-1.1,0.5-1.9,0.5
				s-1.8,0.1-3.1,0.1h-4.5c-0.9,0-1.6,0-2.2-0.1c-0.6-0.1-1.1-0.3-1.5-0.5c-0.4-0.2-0.7-0.6-0.8-1c-0.2-0.4-0.3-1-0.3-1.6V62.4z"/>
			<path class="st0" d="M256.8,54.2h4.9l6.7,12.2h-4.2l-1.2-2.2h-7.6l-1.1,2.2h-4.2L256.8,54.2z M256.9,61.6h4.8l-2.4-4.6
				L256.9,61.6z"/>
			<path class="st0" d="M269.8,54.2h3.8v9.1h8.4v3.1h-12.2V54.2z"/>
			<path class="st0" d="M283.5,54.2h13.4V57h-9.6v2h9.1v2.5h-9.1v2h9.9v2.9h-13.6V54.2z"/>
			<path class="st0" d="M307.8,54.2H318c0.9,0,1.6,0.1,2.2,0.3c0.6,0.2,1,0.5,1.4,0.9c0.3,0.4,0.6,0.8,0.7,1.3
				c0.1,0.5,0.2,1.1,0.2,1.7v1c0,0.5-0.1,0.9-0.2,1.4c-0.1,0.5-0.3,0.9-0.6,1.3c-0.3,0.4-0.6,0.7-1.1,0.9c-0.4,0.2-1,0.4-1.7,0.4
				h-7.5v3.1h-3.8V54.2z M311.5,60.3h5.8c0.4,0,0.8-0.1,0.9-0.4c0.2-0.3,0.3-0.6,0.3-0.9v-0.5c0-0.4-0.1-0.7-0.3-1
				c-0.2-0.2-0.6-0.3-1.2-0.3h-5.5V60.3z"/>
			<path class="st0" d="M324.4,54.2h3.8v9.1h8.4v3.1h-12.2V54.2z"/>
			<path class="st0" d="M338.2,54.2h3.8v7.1c0,0.8,0.2,1.3,0.5,1.7c0.3,0.3,0.9,0.5,1.6,0.5h3.7c0.8,0,1.3-0.2,1.6-0.5
				c0.3-0.3,0.5-0.9,0.5-1.7v-7.1h3.8v7.9c0,1.5-0.4,2.7-1.2,3.4c-0.8,0.7-2.1,1.1-3.8,1.1h-5.4c-1.7,0-3-0.4-3.8-1.1
				c-0.8-0.7-1.2-1.9-1.2-3.4V54.2z"/>
			<path class="st0" d="M355.9,58.5c0-0.9,0.1-1.6,0.4-2.2c0.2-0.6,0.6-1,1.1-1.4c0.5-0.3,1-0.6,1.7-0.7c0.7-0.1,1.4-0.2,2.3-0.2
				h5.6c1.1,0,1.9,0.1,2.6,0.3c0.6,0.2,1.1,0.4,1.5,0.8c0.3,0.3,0.6,0.8,0.7,1.2c0.1,0.5,0.2,1,0.2,1.6v0.4h-3.7
				c0-0.3,0-0.5-0.1-0.7c-0.1-0.2-0.2-0.3-0.4-0.4c-0.2-0.1-0.4-0.2-0.6-0.2c-0.2,0-0.5,0-0.8,0h-4.1c-0.5,0-0.9,0-1.2,0.1
				c-0.3,0.1-0.6,0.2-0.7,0.4s-0.3,0.5-0.4,0.8c-0.1,0.3-0.1,0.8-0.1,1.3v1.5c0,0.5,0,1,0.1,1.3c0.1,0.3,0.2,0.6,0.4,0.8
				s0.4,0.3,0.7,0.4s0.7,0.1,1.2,0.1h4c0.2,0,0.5,0,0.7,0c0.2,0,0.4-0.1,0.6-0.2c0.2-0.1,0.3-0.2,0.4-0.4c0.1-0.2,0.2-0.4,0.2-0.7
				v-0.4h-4.7v-2.5h8.4v3.5c0,0.9-0.1,1.6-0.4,2.1s-0.6,0.9-1.1,1.1s-1.1,0.4-1.9,0.4c-0.8,0.1-1.7,0.1-2.7,0.1h-4.5
				c-0.8,0-1.6-0.1-2.3-0.2s-1.2-0.4-1.7-0.7c-0.5-0.3-0.8-0.8-1.1-1.4c-0.2-0.6-0.4-1.3-0.4-2.2V58.5z"/>
			<path class="st0" d="M374.3,54.2h3.8v12.2h-3.8V54.2z"/>
			<path class="st0" d="M380.8,54.2h5.8l7,8.9h0v-8.9h3.8v12.2h-5.8l-7-8.9h0v8.9h-3.8V54.2z"/>
		</g>
	</g>
</g>
</svg>
