<?xml version="1.0" encoding="utf-8"?>
<!-- Generator: Adobe Illustrator 19.2.1, SVG Export Plug-In . SVG Version: 6.00 Build 0)  -->
<svg version="1.1" id="Layer_1" xmlns="http://www.w3.org/2000/svg" xmlns:xlink="http://www.w3.org/1999/xlink" x="0px" y="0px"
	 viewBox="0 0 89.8 21.4" style="enable-background:new 0 0 89.8 21.4;" xml:space="preserve">
<g>
	<g>
		<path d="M2,2.9c0.9-0.1,2.1-0.3,3.8-0.3c1.7,0,3,0.3,3.8,1C10.4,4.3,11,5.3,11,6.6s-0.4,2.3-1.1,3c-1,0.9-2.4,1.3-4,1.3
			c-0.4,0-0.7,0-1-0.1v4.4H2V2.9z M4.8,8.6C5,8.6,5.3,8.7,5.7,8.7c1.5,0,2.4-0.8,2.4-2c0-1.1-0.8-1.8-2.2-1.8c-0.6,0-1,0.1-1.2,0.1
			V8.6z"/>
		<path d="M14.2,6.2l1.3,4.4c0.1,0.5,0.3,1.2,0.4,1.7H16c0.1-0.5,0.3-1.2,0.4-1.7l1.1-4.4h3l-2.1,5.9c-1.3,3.6-2.2,5-3.2,5.9
			c-1,0.8-2,1.1-2.7,1.2L12,16.9c0.4-0.1,0.8-0.2,1.2-0.5c0.4-0.2,0.9-0.7,1.2-1.1c0.1-0.1,0.1-0.3,0.1-0.4c0-0.1,0-0.2-0.1-0.5
			L11,6.2H14.2z"/>
		<path d="M21,9.1c0-1.1,0-2.1-0.1-2.9h2.4l0.1,1.2h0.1C23.8,6.8,24.6,6,26.2,6c1.2,0,2.1,0.6,2.5,1.5h0c0.3-0.5,0.7-0.8,1.2-1.1
			C30.4,6.1,30.9,6,31.6,6c1.7,0,3,1.2,3,3.9v5.3h-2.7v-4.9c0-1.3-0.4-2.1-1.3-2.1c-0.6,0-1.1,0.4-1.3,1c-0.1,0.2-0.1,0.5-0.1,0.7
			v5.3h-2.7v-5.1c0-1.1-0.4-1.9-1.3-1.9c-0.7,0-1.1,0.6-1.3,1c-0.1,0.2-0.1,0.5-0.1,0.7v5.3H21V9.1z"/>
		<path d="M36.1,9.1c0-1.1,0-2.1-0.1-2.9h2.4l0.1,1.2h0.1C39,6.8,40,6,41.5,6c1.8,0,3.2,1.2,3.2,3.9v5.4h-2.8v-5c0-1.2-0.4-2-1.4-2
			c-0.8,0-1.2,0.5-1.4,1.1C39,9.5,38.9,9.7,38.9,10v5.2h-2.8V9.1z"/>
		<path d="M49.2,3.6v2.6h2v2.1h-2v3.3c0,1.1,0.3,1.6,1.1,1.6c0.4,0,0.6,0,0.8-0.1l0,2.1c-0.4,0.1-1,0.2-1.8,0.2
			c-0.9,0-1.7-0.3-2.1-0.8c-0.5-0.5-0.8-1.4-0.8-2.7V8.3h-1.2V6.2h1.2v-2L49.2,3.6z"/>
		<path d="M52.1,12.8c0.5,0.3,1.6,0.7,2.4,0.7c0.8,0,1.2-0.3,1.2-0.8c0-0.5-0.3-0.7-1.3-1c-1.9-0.6-2.6-1.6-2.6-2.7
			c0-1.7,1.4-3,3.7-3c1.1,0,2,0.2,2.5,0.5l-0.5,1.9c-0.4-0.2-1.2-0.5-2-0.5c-0.7,0-1.1,0.3-1.1,0.7c0,0.4,0.4,0.6,1.5,1
			c1.7,0.6,2.4,1.5,2.5,2.8c0,1.7-1.3,2.9-3.9,2.9c-1.2,0-2.2-0.3-2.9-0.6L52.1,12.8z"/>
		<path d="M59.8,3c0.7-0.2,1.6-0.3,2.5-0.3c1.6,0,2.6,0.3,3.2,1c0.5,0.5,0.8,1.2,0.8,2c0,1.3-0.9,2.3-2.1,2.8v0.1
			c1.1,0.2,2.6,1.1,2.6,3.2c0,1-0.4,1.8-0.9,2.4c-0.8,0.8-2.2,1.2-4,1.2c-0.9,0-1.7-0.1-2.2-0.1V3z M60.7,8.2h1.8
			c1.8,0,2.9-1.1,2.9-2.4c0-1.8-1.3-2.4-3.2-2.4c-0.8,0-1.3,0.1-1.6,0.1V8.2z M60.7,14.5c0.4,0.1,0.9,0.1,1.5,0.1
			c1.9,0,3.7-0.7,3.7-2.8c0-2-1.7-2.8-3.7-2.8h-1.6V14.5z"/>
		<path d="M68.3,2.1h0.9v13.1h-0.9V2.1z"/>
		<path d="M74.8,15.4c-2.3,0-4.1-1.8-4.1-4.6c0-3,2-4.7,4.2-4.7c2.5,0,4.1,1.8,4.1,4.6C79.1,14,76.8,15.4,74.8,15.4L74.8,15.4z
			 M74.9,14.7c1.8,0,3.3-1.7,3.3-3.9c0-1.6-0.9-3.9-3.2-3.9c-2.3,0-3.3,2-3.3,3.9C71.7,13,73.1,14.7,74.9,14.7L74.9,14.7z"/>
		<path d="M87.7,13.9c0,2.3-0.5,3.4-1.2,4.1c-0.8,0.8-2,1.1-3,1.1c-1,0-2.1-0.3-2.8-0.8l0.3-0.7c0.6,0.4,1.5,0.7,2.6,0.7
			c1.9,0,3.2-1,3.2-3.6v-1.3h0c-0.5,0.9-1.5,1.7-3.1,1.7c-2.2,0-3.8-1.9-3.8-4.4c0-3.1,2-4.7,4-4.7c1.8,0,2.6,1,3,1.7h0l0.1-1.5h0.8
			c-0.1,0.7-0.1,1.4-0.1,2.3V13.9z M86.8,9.8c0-0.3,0-0.6-0.1-0.9c-0.4-1.1-1.3-2-2.8-2c-1.9,0-3.2,1.5-3.2,3.9c0,2,1.1,3.7,3.1,3.7
			c1.2,0,2.3-0.7,2.8-2c0.1-0.3,0.1-0.6,0.1-0.9V9.8z"/>
	</g>
</g>
</svg>
