<?xml version="1.0" encoding="utf-8"?>
<!-- Generator: Adobe Illustrator 16.0.3, SVG Export Plug-In . SVG Version: 6.00 Build 0)  -->
<!DOCTYPE svg PUBLIC "-//W3C//DTD SVG 1.1//EN" "http://www.w3.org/Graphics/SVG/1.1/DTD/svg11.dtd">
<svg version="1.1" id="Layer_1" xmlns="http://www.w3.org/2000/svg" xmlns:xlink="http://www.w3.org/1999/xlink" x="0px" y="0px"
	 width="745.615px" height="303.921px" viewBox="0 0 745.615 303.921" enable-background="new 0 0 745.615 303.921"
	 xml:space="preserve">
<path fill-rule="evenodd" clip-rule="evenodd" fill="#21378C" d="M687.367,246.547c-58.463,0-116.244,0-174.024,0
	c-0.031-0.163-0.062-0.327-0.093-0.49c0.399-0.184,0.781-0.448,1.2-0.538c4.69-1.01,9.371-2.081,14.088-2.945
	c2.168-0.396,2.887-1.309,2.864-3.577c-0.125-12.033-0.062-24.066-0.063-36.101c0-0.938,0-1.877,0-3.264c3.219,0,6.278,0,9.338,0
	c2.063,0.001,4.141,0.161,6.185-0.035c2.538-0.242,2.769,1.178,2.773,3.115c0.027,10.486,0.105,20.972,0.164,31.457
	c0.007,1.255,0.001,2.511,0.001,3.982c8.253-1.819,16.106-3.558,23.962-5.28c3.098-0.678,6.185-1.435,9.31-1.938
	c2.138-0.344,2.899-1.188,2.894-3.479c-0.05-19.081,0.043-38.162,0.102-57.243c0.033-10.57,0.025-21.143,0.171-31.712
	c0.031-2.235-0.713-3.131-2.899-3.1c-3.768,0.056-7.538,0.016-11.665,0.016c0,4.672,0,9.176,0,13.679
	c-0.248,0.129-0.497,0.258-0.745,0.387c-9.894-10.313-19.787-20.625-29.808-31.071c-5.621,5.112-10.625,9.797-15.776,14.315
	c-6.908,6.061-13.956,11.961-20.884,17.997c-1.857,1.618-3.131,1.327-4.2-0.746c-1.49-2.887-3.327-5.657-4.378-8.698
	c-2.263-6.551-0.806-9.866,5.582-13.406c-1.604-0.479-2.909-0.856-4.205-1.259c-9.653-2.999-11.842-11.214-4.855-18.598
	c1.747-1.846,3.897-3.309,5.927-5.002c-5.99-3.724-7.507-9.293-6.25-16.121c0.783-4.244,3.313-6.172,7.693-6.614
	c-1.188-6.321-2.719-12.514,1.277-18.263c3.608-5.19,7.403-10.019,14.134-10.168c0-3.901,0.061-7.635-0.011-11.366
	c-0.204-10.585,11.387-17.646,19.919-16.964c1.948,0.156,3.883,0.482,5.935,0.742c0.577-1.251,1.105-2.506,1.722-3.717
	c5.085-9.99,10.859-11.979,21.91-8.38c3.143,1.023,6.05,2.771,9.37,4.329c5.564-4.941,11.828-9.537,20.202-8.842
	c8.648,0.717,12.968,7.247,17.326,13.755c6.097-6.083,13.154-6.778,20.637-3.441c8.13,3.627,8.724,11.158,9.033,18.748
	c3.239-0.848,6.4-2.043,9.657-2.423c3.269-0.382,6.722-0.401,9.94,0.218c6.781,1.304,10.596,6.638,9.857,13.54
	c-0.426,3.985-1.418,7.911-2.193,11.856c-0.326,1.656-0.748,3.296-1.184,5.188c2.599,0.166,4.925,0.094,7.165,0.495
	c11.476,2.054,15.784,8.731,12.729,20.044c-1.017,3.766-2.784,7.327-4.332,11.298c0.624,0.595,1.563,1.594,2.605,2.469
	c4.91,4.125,6.242,9.227,4.295,15.272c-1.346,4.184-3.414,7.827-7.138,10.424c-0.523,0.365-0.72,1.758-0.509,2.522
	c1.26,4.579,1.553,9.018-0.329,13.578c-2.852,6.909-7.891,10.584-15.271,11.183c-0.844,0.069-1.69,0.105-2.933,0.182
	c2.99,4.246,2.843,8.701,1.739,13.184c-2.179,8.845-8.52,12.639-17.483,10.72c-4.018-0.858-7.615-2.452-10.696-5.728
	c0.252,2.933,0.791,5.402,0.606,7.817c-0.414,5.421-5.503,9.271-11.338,8.705c-1.847-0.181-3.716-0.716-5.446-1.409
	c-3.844-1.539-8.017,0.984-8.271,5.244c-0.133,2.227-0.023,4.467-0.023,6.699c0,9.713,0.137,19.428-0.082,29.134
	c-0.067,2.934,1.196,4.05,3.651,4.501c3.625,0.666,7.284,1.156,10.892,1.899c8.474,1.744,16.924,3.609,25.39,5.396
	c9.898,2.09,19.807,4.126,29.701,6.236C683.772,245.286,685.262,245.887,687.367,246.547z M580.719,122.797
	c4.026-3.978,7.871-7.757,11.693-11.562c1.209-1.204,2.53-2.35,3.502-3.731c2.208-3.136,1.979-7.164-0.347-9.761
	c-2.181-2.436-5.867-3.111-9.191-1.415c-1.802,0.919-3.394,2.25-4.938,3.298c-2.222-1.173-4.306-2.567-6.594-3.416
	c-3.774-1.4-7.511-0.107-9.551,2.921c-1.808,2.682-1.669,6.414,0.99,9.248C570.908,113.304,575.831,117.945,580.719,122.797z
	 M617.091,71.187c-1.349-0.83-2.726-1.882-4.264-2.579c-2.894-1.312-5.729-0.705-7.509,1.368c-1.866,2.173-2.202,5.367-0.152,7.834
	c3.593,4.324,7.534,8.358,11.395,12.585c3.948-4.134,7.679-7.919,11.242-11.857c0.869-0.96,1.375-2.374,1.71-3.666
	c0.59-2.268-0.23-4.266-1.938-5.785c-1.766-1.573-3.894-1.88-5.995-0.811C619.994,69.082,618.573,70.21,617.091,71.187z
	 M588.427,40.142c-1.605-0.87-3.106-1.921-4.768-2.533c-2.744-1.01-5.675-0.025-7.131,2.095c-1.415,2.06-1.428,4.504,0.563,6.617
	c3.46,3.67,7.181,7.095,11.187,11.007c3.54-3.646,7.211-7.239,10.65-11.041c1.985-2.197,1.88-5.349,0.195-7.337
	c-1.66-1.958-4.43-2.508-7.025-1.213C590.807,38.378,589.664,39.318,588.427,40.142z"/>
<path fill-rule="evenodd" clip-rule="evenodd" fill="#21378C" d="M414.436,242.397c-8.818,0-17.396,0-26.177,0
	c-0.109-1.778-0.207-3.357-0.35-5.66c-1.326,0.868-2.259,1.529-3.238,2.112c-11.896,7.085-24.091,7.343-35.806,0.191
	c-14.45-8.822-14.388-29.425-0.034-38.896c11.816-7.798,24.479-8.379,37.467-2.898c0.663,0.279,1.305,0.609,2.009,0.94
	c1.247-6.316-0.364-10.502-5.883-12.616c-4.343-1.664-9.103-2.632-13.749-3.01c-6.156-0.5-12.383-0.123-18.813-0.123
	c0-5.943,0-12.375,0-19.172c14.705-1.434,29.237-2.109,43.411,2.484c13.805,4.475,20.971,14.049,21.377,29.191
	c0.412,15.353,0.104,30.725,0.098,46.089C414.746,241.384,414.592,241.735,414.436,242.397z M377.116,228.731
	c2.521-0.856,5.539-1.409,8.059-2.84c4.631-2.628,5.213-9.539,1.457-13.312c-4.359-4.38-13.389-4.983-18.332-1.225
	c-5.592,4.251-4.859,12.431,1.509,15.354C371.915,227.677,374.326,227.983,377.116,228.731z"/>
<path fill-rule="evenodd" clip-rule="evenodd" fill="#21378C" d="M331.993,211.135c-19.484,0-38.145,0-57.313,0
	c1.652,7.247,5.293,12.146,11.786,14.417c9.964,3.486,17.757-0.263,24.362-8.332c5.544,4.051,11.032,8.061,16.877,12.329
	c-0.784,0.964-1.399,1.822-2.115,2.587c-19.452,20.757-57.2,16.309-70.427-8.57c-12.337-23.207-2.029-56.65,32.386-61.175
	c7.956-1.047,15.729-0.511,23.068,2.863c11.943,5.491,17.945,15.506,20.053,27.981C331.618,198.85,331.548,204.635,331.993,211.135z
	 M306.956,194.512c0.179-8.641-6.296-14.995-14.886-15.119c-8.799-0.127-17.265,6.351-17.028,15.119
	C285.588,194.512,296.139,194.512,306.956,194.512z"/>
<path fill-rule="evenodd" clip-rule="evenodd" fill="#21378C" d="M119.445,216.523c5.704,4.192,11.107,8.164,16.781,12.333
	c-4.545,6.161-10.425,9.929-17.103,12.603c-16.829,6.74-38.251,2.32-49.759-10.557c-10.752-12.03-13.122-26.167-8.478-41.254
	c4.635-15.059,15.599-23.839,30.712-27.093c13.049-2.81,25.692-1.85,36.201,7.707c8.579,7.802,11.555,18.109,12.233,29.264
	c0.204,3.352,0.032,6.725,0.032,10.635c-18.714,0-37.486,0-56.252,0c0.001,6.103,4.443,12.163,10.614,14.477
	C104.646,228.47,112.661,224.817,119.445,216.523z M115.566,193.769c0.291-8.396-6.308-14.939-14.879-15.048
	c-9.468-0.12-17.153,6.586-17.031,15.048C94.188,193.769,104.725,193.769,115.566,193.769z"/>
<path fill-rule="evenodd" clip-rule="evenodd" fill="#21378C" d="M456.204,163.671c3.929,0,7.613,0,11.727,0
	c-0.747,6.006-1.429,11.49-2.148,17.278c-3.286,0-6.24,0-9.727,0c0,3.661-0.005,6.983,0.001,10.307
	c0.014,6.995-0.017,13.991,0.062,20.987c0.09,7.965,2.037,10.084,10.473,11.141c0,5.86,0.068,11.805-0.102,17.742
	c-0.019,0.631-1.47,1.773-2.215,1.74c-7.075-0.31-14.231-0.277-21.184-1.435c-6.564-1.092-10.689-5.837-12.187-12.311
	c-0.921-3.979-1.438-8.128-1.519-12.213c-0.209-10.614-0.072-21.235-0.09-31.854c-0.001-1.219-0.104-2.438-0.176-3.992
	c-3.167,0-6.116,0-9.703,0c0.745-5.532,1.354-10.656,2.224-15.734c0.111-0.653,1.522-1.388,2.421-1.532
	c1.555-0.251,3.179-0.069,5.258-0.069c0-5.904-0.072-11.359,0.055-16.811c0.029-1.238,0.377-2.895,1.216-3.623
	c8.281-7.197,16.698-14.238,25.614-21.779C456.204,135.821,456.204,149.511,456.204,163.671z"/>
<path fill-rule="evenodd" clip-rule="evenodd" fill="#21378C" d="M178.704,134.56c0,9.885,0,19.219,0,29.029
	c3.969,0,7.651,0,11.791,0c-0.743,6.016-1.42,11.5-2.138,17.314c-3.184,0-6.138,0-9.413,0c-0.13,1.398-0.313,2.468-0.316,3.539
	c-0.024,9.24-0.052,18.481-0.008,27.723c0.038,7.856,2.144,10.177,10.469,11.225c0,5.848,0.068,11.786-0.099,17.717
	c-0.018,0.635-1.436,1.792-2.162,1.76c-7.072-0.315-14.232-0.266-21.174-1.449c-6.881-1.175-11.031-6.139-12.339-12.999
	c-0.813-4.264-1.352-8.637-1.439-12.973c-0.224-11.108-0.125-22.223-0.17-33.335c-0.001-0.222-0.176-0.441-0.462-1.113
	c-2.853,0-5.906,0-9.283,0c0.702-5.284,1.2-10.106,2.092-14.854c0.179-0.949,1.75-1.981,2.875-2.316
	c1.35-0.4,2.909-0.094,4.883-0.094c0-5.744,0.082-11.069-0.04-16.39c-0.049-2.142,0.457-3.282,2.719-4.046
	C162.382,140.634,170.173,137.666,178.704,134.56z"/>
<path fill-rule="evenodd" clip-rule="evenodd" fill="#21378C" d="M227.879,163.713c0.135,2.619,0.245,4.772,0.389,7.569
	c5.758-6.283,12.383-9.131,20.499-9.405c0,7.633,0,15.042,0,22.626c-3.481,0-6.997-0.466-10.335,0.106
	c-5.433,0.93-8.292,4.152-8.84,9.664c-0.48,4.829-0.511,9.714-0.549,14.575c-0.075,9.62-0.019,19.241-0.017,28.861
	c0,1.467,0,2.934,0,4.641c-9.042,0-17.601,0-26.525,0c-0.077-1.263-0.214-2.471-0.215-3.679
	c-0.017-23.614,0.045-47.229-0.094-70.843c-0.02-3.339,0.984-4.293,4.254-4.188C213.522,163.871,220.611,163.713,227.879,163.713z"
	/>
<path fill-rule="evenodd" clip-rule="evenodd" fill="#21378C" d="M7.948,163.873c8.478,0,16.567,0,25.047,0
	c0.146,2.278,0.284,4.428,0.43,6.699c3.269-2.174,6.123-4.616,9.408-6.104c3.305-1.499,7.039-2.049,11.021-3.133
	c0,8.246,0,15.662,0,23.051c-2.505-0.14-4.863-0.479-7.199-0.365c-7.503,0.368-11.893,4.554-12.035,12.079
	c-0.262,13.86-0.169,27.728-0.216,41.593c-0.017,4.908-0.006,4.908-4.84,4.909c-7.103,0-14.206,0-21.616,0
	C7.948,216.284,7.948,190.274,7.948,163.873z"/>
<path fill-rule="evenodd" clip-rule="evenodd" fill="#21378C" d="M52.01,143.256c-3.211,0-5.888,0-8.783,0
	c0-22.379,0-44.542,0-66.921c2.879,0,5.555,0,8.642,0c0,11.211,0,22.262,0,32.792c3.927-1.848,7.533-4.37,11.5-5.236
	c7.597-1.66,15.065,2.981,15.805,10.568c0.924,9.479,0.222,19.116,0.222,28.851c-2.534,0-5.257,0-8.633,0c0-1.693,0-3.375,0-5.057
	c-0.002-5.872,0.06-11.744-0.026-17.615c-0.077-5.189-2.822-8.295-7.43-8.659c-5.269-0.416-10.01,2.573-10.656,7.313
	c-0.586,4.305-0.512,8.706-0.623,13.067C51.939,135.846,52.01,139.337,52.01,143.256z"/>
<path fill-rule="evenodd" clip-rule="evenodd" fill="#21378C" d="M130.332,126.986c-10.281,0-20.364,0-30.425,0
	c-0.417,8.804,13.356,13.257,23.068,5.524c1.756,1.706,3.533,3.433,5.29,5.14c-5.973,6.989-18.775,8.757-27.899,4.079
	c-8.14-4.172-12.119-13.322-9.977-22.942c1.939-8.707,10.597-15.307,20.219-15.413C123.312,103.233,132.179,113.553,130.332,126.986
	z M121.005,120.423c-0.253-5.589-4.011-9.089-9.717-9.265c-6.4-0.198-10.904,3.382-11.423,9.265
	C106.921,120.423,113.958,120.423,121.005,120.423z"/>
<path fill-rule="evenodd" clip-rule="evenodd" fill="#21378C" d="M551.92,154.227c4.891,0,9.83,0,15.003,0c0,8.543,0,17.133,0,26.06
	c-4.901,0-9.734,0-15.003,0C551.92,171.833,551.92,163.227,551.92,154.227z"/>
<path fill-rule="evenodd" clip-rule="evenodd" fill="#21378C" d="M531.581,180.163c-5.065,0-9.859,0-14.856,0
	c0-8.608,0-17.146,0-26.207c4.914,0.235,9.806,0.471,14.856,0.714C531.581,163.228,531.581,171.585,531.581,180.163z"/>
<path fill-rule="evenodd" clip-rule="evenodd" fill="#21378C" d="M31.849,111.983c-3.432,0-6.413,0-9.854,0
	c0,7.266-0.15,14.32,0.083,21.363c0.081,2.418,2.208,3.203,4.451,2.824c1.309-0.221,2.554-0.818,4.047-1.32
	c1.301,1.835,2.652,3.74,4.123,5.815c-4.322,4.102-9.337,4.255-14.442,3.093c-4.743-1.079-7.027-4.741-7.426-9.271
	c-0.469-5.333-0.382-10.716-0.506-16.079c-0.046-1.975-0.007-3.95-0.007-6.161c-2.003-0.189-3.682-0.348-5.307-0.502
	c-1.384-6.519-1.103-6.962,5.043-7.508c0-6.613,0-13.285,0-20.26c3.351,0,6.27,0,9.635,0c0,6.578,0,13.259,0,20.454
	c3.594,0,6.763,0,10.162,0C31.849,107.144,31.849,109.33,31.849,111.983z"/>
<path fill-rule="evenodd" clip-rule="evenodd" fill="#21378C" d="M306.01,300.012c-9.019,0.028-15.85-6.537-15.906-15.289
	c-0.056-8.923,6.954-15.886,15.883-15.779c8.911,0.106,15.694,6.846,15.707,15.606C321.706,293.399,315.031,299.98,306.01,300.012z
	 M305.864,296.018c6.333,0.031,11.222-5.047,11.158-11.592c-0.063-6.372-4.877-11.323-11.073-11.384
	c-6.229-0.062-11.252,5.18-11.16,11.644C294.881,291.111,299.644,295.987,305.864,296.018z"/>
<path fill-rule="evenodd" clip-rule="evenodd" fill="#21378C" d="M52.195,300.006c-9.005-0.02-15.656-6.604-15.646-15.487
	c0.01-8.797,6.795-15.532,15.684-15.568c9.026-0.036,15.817,6.765,15.775,15.798C67.969,293.594,61.303,300.024,52.195,300.006z
	 M41.351,284.566c0.006,6.753,4.654,11.529,11.158,11.465c6.184-0.061,10.82-4.983,10.823-11.491
	c0.003-6.504-4.63-11.402-10.854-11.476C46.03,272.989,41.344,277.834,41.351,284.566z"/>
<path fill-rule="evenodd" clip-rule="evenodd" fill="#21378C" d="M75.301,299.431c0-9.961,0-19.738,0-30.368
	c5.161,5.93,9.82,11.284,14.789,16.994c4.839-5.578,9.491-10.938,14.889-17.159c0,3.841,0,6.663,0,9.484
	c0,6.022,0.017,12.047-0.009,18.07c-0.016,3.603-0.104,3.647-4.11,2.82c0-6.007,0-12.087,0-18.169
	c-0.242-0.118-0.484-0.237-0.726-0.355c-3.302,3.868-6.604,7.736-10.125,11.86c-3.443-4.062-6.707-7.914-10.726-12.656
	c0,6.208-0.106,11.438,0.041,16.66C79.407,299.552,78.271,300.384,75.301,299.431z"/>
<path fill-rule="evenodd" clip-rule="evenodd" fill="#21378C" d="M6.557,269.146c5.152,0.479,10.208,0.294,14.883,1.54
	c6.728,1.792,10.373,8.355,9.623,15.429c-0.758,7.147-5.562,12.297-12.594,13.138c-3.86,0.462-7.771,0.495-11.911,0.735
	C6.557,289.674,6.557,279.906,6.557,269.146z M11.185,273.501c0,7.579,0,14.786,0,22.358c5.132-0.125,10.11,0.066,13.184-4.701
	c2.645-4.104,2.73-8.599,0.261-12.805C21.64,273.261,16.555,273.295,11.185,273.501z"/>
<path fill-rule="evenodd" clip-rule="evenodd" fill="#21378C" d="M405.432,300.34c-6.852-7.302-13.087-13.947-19.937-21.25
	c0,4.967,0.003,9.248-0.001,13.53c-0.001,1.853,0.168,3.736-0.126,5.542c-0.104,0.643-1.309,1.431-2.091,1.531
	c-0.603,0.077-1.911-0.81-1.917-1.28c-0.114-9.552-0.085-19.104,0.705-28.915c6.233,6.598,12.464,13.197,19.199,20.326
	c0-7.007,0-13.391,0-20.007c1.585,0,2.78,0,4.169,0C405.432,279.716,405.432,289.508,405.432,300.34z"/>
<path fill-rule="evenodd" clip-rule="evenodd" fill="#21378C" d="M536.546,269.629c3.94,0,7.291-0.193,10.608,0.047
	c4.65,0.337,8.47,3.48,9.507,7.41c1.409,5.335,0.053,9.38-4.185,12.505c-0.361,0.267-0.699,0.564-1.251,1.013
	c1.962,2.88,3.874,5.688,5.959,8.751c-3.482,1.156-5.415,0.038-7.22-2.574c-1.426-2.064-1.904-5.339-5.773-5.092
	c-2.542,0.162-3.601,0.9-3.347,3.459c0.134,1.356,0.023,2.734,0.023,4.119c-2.832,0.973-4.424,0.913-4.369-2.563
	C536.64,287.824,536.546,278.941,536.546,269.629z M541.128,273.597c0,4.736,0,9.291,0,14.168c3.803,0.027,7.54,0.796,10.047-2.684
	c1.932-2.681,1.964-5.778,0.172-8.491C548.93,272.929,545.079,273.381,541.128,273.597z"/>
<path fill-rule="evenodd" clip-rule="evenodd" fill="#21378C" d="M354.183,269.747c6.313,0,12.504,0,18.839,0
	c0,1.171,0,2.171,0,3.616c-4.772,0-9.452,0-14.312,0c0,4.201,0,7.956,0,12.157c4.361,0,8.575,0,12.899,0c0,1.446,0,2.45,0,3.758
	c-4.266,0-8.401,0-12.813,0c0,2.195,0,4.094,0,6.47c4.866,0,9.773,0,14.868,0c0.069,1.45,0.118,2.438,0.182,3.755
	c-6.603,0-12.996,0-19.664,0C354.183,289.707,354.183,279.944,354.183,269.747z"/>
<path fill-rule="evenodd" clip-rule="evenodd" fill="#21378C" d="M113.558,269.732c6.527,0,12.629,0,18.907,0
	c0,1.155,0,2.146,0,3.573c-4.708,0-9.381,0-14.26,0c0,4.188,0,7.946,0,12.163c4.275,0,8.485,0,12.845,0c0,1.453,0,2.448,0,3.773
	c-4.208,0-8.335,0-12.754,0c0,2.212,0,4.102,0,6.498c4.839,0,9.743,0,14.847,0c0.074,1.461,0.124,2.444,0.191,3.761
	c-6.709,0-13.193,0-19.775,0C113.558,289.524,113.558,279.743,113.558,269.732z"/>
<path fill-rule="evenodd" clip-rule="evenodd" fill="#21378C" d="M640.492,269.712c6.529,0,12.634,0,18.979,0
	c0.065,1.104,0.122,2.081,0.21,3.558c-4.894,0-9.553,0-14.668,0c0,3.79-0.146,7.113,0.119,10.404
	c0.055,0.69,1.588,1.739,2.496,1.798c3.327,0.217,6.676,0.085,10.336,0.085c0.059,1.293,0.107,2.353,0.175,3.818
	c-4.434,0-8.553,0-12.882,0c-0.104,1.372-0.13,2.382-0.266,3.377c-0.337,2.469,0.766,3.24,3.152,3.148
	c3.902-0.149,7.813-0.04,11.932-0.04c0.072,1.344,0.124,2.328,0.195,3.641c-6.717,0-13.204,0-19.777,0
	C640.492,289.526,640.492,279.748,640.492,269.712z"/>
<path fill-rule="evenodd" clip-rule="evenodd" fill="#21378C" d="M447.23,269.681c6.664,0,12.655,0,18.921,0
	c0,1.165,0,2.221,0,3.645c-4.691,0-9.282,0-14.376,0c0,3.762-0.119,7.193,0.112,10.601c0.04,0.595,1.53,1.511,2.388,1.556
	c3.434,0.18,6.882,0.074,10.463,0.074c0,1.389,0,2.387,0,3.762c-4.225,0-8.344,0-12.725,0c-0.11,1.347-0.156,2.349-0.281,3.341
	c-0.295,2.354,0.587,3.342,3.076,3.237c3.909-0.162,7.829-0.043,11.864-0.043c0.769,2.417,0.909,4.038-2.213,3.991
	c-4.854-0.072-9.714,0.069-14.563-0.109c-0.91-0.032-2.542-1.133-2.554-1.764C447.18,288.639,447.23,279.303,447.23,269.681z"/>
<path fill-rule="evenodd" clip-rule="evenodd" fill="#21378C" d="M526.618,285.558c0,1.37,0,2.364,0,3.795c-2.22,0-4.276,0-6.333,0
	c-2.061,0-4.121,0-6.423,0c-0.098,1.349-0.119,2.358-0.255,3.354c-0.333,2.44,0.705,3.286,3.126,3.194
	c3.913-0.149,7.837-0.041,12.009-0.041c0,1.382,0,2.452,0,3.912c-6.017,0-11.9,0.059-17.78-0.087
	c-0.622-0.016-1.734-1.229-1.744-1.896c-0.116-9.245-0.078-18.491-0.078-27.978c6.495,0,12.667,0,18.979,0c0,1.135,0,2.124,0,3.493
	c-4.781,0-9.375,0-14.481,0c0,3.791-0.118,7.229,0.113,10.644c0.04,0.588,1.54,1.493,2.401,1.537
	C519.595,285.663,523.052,285.558,526.618,285.558z"/>
<path fill-rule="evenodd" clip-rule="evenodd" fill="#21378C" d="M440.229,274.972c-1.042,0.817-1.923,1.507-2.751,2.153
	c-7.79-5.023-13.671-5.021-17.687-0.108c-3.637,4.449-3.296,11.978,0.719,15.926c4.551,4.473,10.433,4.018,17.14-1.46
	c0.945,0.687,1.938,1.408,2.902,2.106c-2.989,5.891-10.528,7.381-16.145,6.075c-6.983-1.625-11.503-7.245-11.941-14.436
	c-0.402-6.611,3.729-12.848,10.022-15.133C429.296,267.624,435.92,269.33,440.229,274.972z"/>
<path fill-rule="evenodd" clip-rule="evenodd" fill="#21378C" d="M228.432,291.41c1.078,0.819,1.985,1.509,2.865,2.177
	c-2.028,5.025-9.523,7.445-15.654,6.183c-7.144-1.471-11.776-6.992-12.329-14.415c-0.506-6.779,3.647-13.073,10.127-15.349
	c6.771-2.375,13.487-0.56,17.582,4.972c-0.973,0.725-1.948,1.452-2.875,2.143c-7.389-5.18-13.424-5.148-17.563-0.027
	c-3.799,4.702-3.346,12.038,0.995,16.072C216.201,297.461,222.317,296.891,228.432,291.41z"/>
<path fill-rule="evenodd" clip-rule="evenodd" fill="#21378C" d="M630.772,291.491c1.061,0.701,2.018,1.334,2.961,1.958
	c-2.65,5.932-10.249,7.491-15.88,6.265c-7.046-1.535-11.642-7.08-12.129-14.242c-0.476-6.996,3.72-13.303,10.366-15.58
	c6.513-2.231,13.447-0.289,17.241,5.028c-0.833,0.69-1.687,1.394-2.809,2.32c-3.491-3.039-7.413-5.435-12.126-3.563
	c-2.242,0.89-4.567,2.445-5.991,4.348c-3.465,4.626-2.351,11.769,1.925,15.45C618.902,297.41,624.816,296.781,630.772,291.491z"/>
<path fill-rule="evenodd" clip-rule="evenodd" fill="#21378C" d="M664.288,294.577c2.265-1.35,3.333-1.985,4.402-2.622
	c-0.083,0.319-0.166,0.638-0.248,0.955c2.645,1.039,5.235,2.626,7.957,2.899c1.513,0.152,3.863-1.527,4.732-3.022
	c1.225-2.107-0.432-3.979-2.391-5.065c-2.017-1.118-4.197-1.938-6.237-3.02c-4.266-2.262-5.738-4.963-5.186-9.24
	c0.426-3.313,2.618-5.403,6.504-6.205c4.32-0.891,7.704,0.544,10.135,4.462c-0.899,0.621-1.812,1.251-2.689,1.858
	c-1.477-0.855-2.835-2.269-4.2-2.274c-1.669-0.007-3.906,0.714-4.884,1.934c-1.407,1.752-0.42,3.78,1.597,4.895
	c1.717,0.95,3.52,1.744,5.291,2.597c6.058,2.915,8.353,7.171,6.466,12c-1.737,4.444-7.776,6.801-13.365,4.733
	C669.609,298.514,667.418,296.563,664.288,294.577z"/>
<path fill-rule="evenodd" clip-rule="evenodd" fill="#21378C" d="M138.473,293.829c1.077-0.611,2.154-1.222,3.393-1.925
	c2.039,2.92,4.718,4.854,8.208,3.947c1.612-0.42,3.624-1.978,4.053-3.433c0.359-1.213-0.975-3.446-2.193-4.478
	c-1.621-1.372-3.866-2.001-5.828-2.979c-4.343-2.164-6.412-5.182-6.04-8.769c0.372-3.586,2.564-5.948,6.342-6.835
	c4.475-1.052,7.956,0.287,10.661,4.31c-1.019,0.665-2.034,1.329-3.11,2.032c-0.996-0.757-1.819-1.582-2.804-2.091
	c-2.345-1.214-4.628-1.024-6.028,1.386c-1.543,2.658,0.102,4.368,2.336,5.567c2.437,1.306,5.327,2.055,7.312,3.836
	c1.891,1.696,3.77,4.295,4.074,6.697c0.822,6.462-5.747,10.757-13.096,8.556c-2.783-0.834-5.181-2.958-7.754-4.493
	C138.158,294.716,138.315,294.272,138.473,293.829z"/>
<path fill-rule="evenodd" clip-rule="evenodd" fill="#21378C" d="M500.294,273.705c-0.909,0.639-1.826,1.283-2.692,1.894
	c-1.487-0.877-2.839-2.306-4.196-2.312c-1.683-0.007-3.909,0.712-4.929,1.932c-1.521,1.816-0.245,3.766,1.629,4.859
	c1.885,1.099,4.085,1.699,5.867,2.926c2.035,1.404,4.338,2.93,5.501,4.981c2.823,4.982-0.21,10.578-5.99,11.868
	c-5.593,1.248-10.961-1.013-13.686-5.92c1.036-0.641,2.08-1.289,3.126-1.938c-0.073,0.324-0.146,0.647-0.218,0.972
	c2.867,1.006,5.683,2.487,8.625,2.809c1.336,0.146,3.802-1.788,4.145-3.177c0.332-1.347-1.026-3.646-2.314-4.727
	c-1.712-1.434-4.1-2.041-6.152-3.092c-4.04-2.067-5.992-5.188-5.562-8.742c0.437-3.604,2.613-5.872,6.447-6.716
	C494.439,268.321,497.758,269.68,500.294,273.705z"/>
<path fill-rule="evenodd" clip-rule="evenodd" fill="#21378C" d="M259.163,290.403c2.601-6.311,4.92-11.942,7.245-17.572
	c1.411-3.417,1.415-3.416,5.764-2.999c-4.316,10.11-8.58,20.1-13.112,30.717c-4.662-10.655-9.001-20.572-13.357-30.528
	c3.553-1.341,5.185,0.011,6.352,3.16C254.134,278.789,256.6,284.255,259.163,290.403z"/>
<path fill-rule="evenodd" clip-rule="evenodd" fill="#21378C" d="M574.745,290.345c2.594-6.236,5.088-11.903,7.291-17.68
	c0.997-2.614,2.367-3.81,5.673-2.73c-4.246,9.964-8.484,19.911-13.053,30.634c-4.711-10.764-9.049-20.673-13.398-30.607
	c3.626-1.23,5.275,0.193,6.439,3.318C569.772,278.849,572.216,284.281,574.745,290.345z"/>
<path fill-rule="evenodd" clip-rule="evenodd" fill="#21378C" d="M185.259,269.753c0,1.115,0,2.106,0,3.533
	c-2.861,0-5.687,0-8.818,0c0,8.937,0,17.45,0,26.232c-1.626,0-2.937,0-4.642,0c0-8.575,0-17.075,0-25.985c-3.08,0-5.796,0-8.828,0
	c-0.104-1.451-0.179-2.511-0.27-3.78C170.372,269.753,177.727,269.753,185.259,269.753z"/>
<path fill-rule="evenodd" clip-rule="evenodd" fill="#21378C" d="M347.248,295.863c0,1.508,0,2.521,0,3.936
	c-5.654,0-11.186,0.063-16.714-0.087c-0.62-0.018-1.726-1.226-1.734-1.893c-0.116-9.245-0.078-18.492-0.078-27.987
	c1.589,0,2.891,0,4.602,0c0,7.132-0.004,14.173,0.002,21.213c0.004,4.816,0.011,4.817,4.949,4.818
	C341.153,295.864,344.032,295.863,347.248,295.863z"/>
<path fill-rule="evenodd" clip-rule="evenodd" fill="#21378C" d="M191.751,269.682c1.683,0,2.708,0,4.319,0
	c0,2.693,0.001,5.304,0,7.912c-0.003,6.586,0.065,13.174-0.102,19.757c-0.021,0.832-1.142,1.957-2.012,2.313
	c-0.431,0.175-2.099-1.081-2.108-1.706C191.708,288.631,191.751,279.302,191.751,269.682z"/>
<path fill-rule="evenodd" clip-rule="evenodd" fill="#21378C" d="M278.674,269.669c1.642,0,2.669,0,4.26,0c0,2.918,0,5.758,0,8.599
	c0,6.354,0.075,12.709-0.085,19.059c-0.021,0.844-1.237,1.656-1.899,2.483c-0.758-0.613-2.167-1.217-2.177-1.841
	C278.631,288.641,278.674,279.311,278.674,269.669z"/>
<path fill-rule="evenodd" clip-rule="evenodd" fill="#21378C" d="M594.274,269.674c1.624,0,2.652,0,3.967,0
	c0,9.926,0,19.771,0,29.72c-2.705,0.927-4.067,0.477-4.014-2.805C594.367,287.729,594.274,278.867,594.274,269.674z"/>
</svg>
